<svg width="177" height="47" viewBox="0 0 177 47" fill="none" xmlns="http://www.w3.org/2000/svg">
<path d="M30.1037 35.5712C27.8793 35.5712 25.7121 35.5978 23.549 35.5344C23.3039 35.5283 22.9648 35.0544 22.8525 34.7337C21.8659 31.917 20.9202 29.084 19.9581 26.2591C19.8825 26.0344 19.7845 25.8179 19.6865 25.5707H10.1721C9.46943 27.7072 8.75453 29.8867 8.03758 32.0641C7.71894 33.0302 7.42481 34.0066 7.05714 34.9543C6.9591 35.2056 6.63432 35.5406 6.4076 35.5467C4.33641 35.5916 2.26523 35.5732 0 35.5732C0.322729 34.6051 0.600521 33.7533 0.890568 32.9056C4.38135 22.6621 7.88439 12.4205 11.3507 2.16674C11.5958 1.43958 11.8858 1.14136 12.6845 1.17404C14.3492 1.24145 16.018 1.21285 17.6847 1.18425C18.1995 1.17608 18.465 1.31702 18.6406 1.83175C22.4133 12.9128 26.2044 23.9897 29.9893 35.0667C30.0322 35.1913 30.0485 35.3241 30.1037 35.5712ZM11.9103 19.7432H18.0238C17.0045 16.7672 16.018 13.8891 14.964 10.8151C13.8998 13.9259 12.9173 16.7998 11.9103 19.7432Z" fill="black"/>
<path d="M114.875 23.281V35.5038H108.243V34.2517C108.243 23.8754 108.259 13.4991 108.218 3.12476C108.214 2.08712 108.423 1.65001 109.542 1.52337C113.333 1.09238 117.114 0.755356 120.927 1.24558C125.521 1.83589 129.028 4.6567 130.013 8.60093C131.704 15.3721 128.038 21.2813 121.176 22.6417C119.165 23.04 117.081 23.0706 114.873 23.2831L114.875 23.281ZM114.889 17.1328C116.887 17.3126 118.778 17.3616 120.594 16.6773C122.698 15.8828 123.822 14.073 123.762 11.72C123.701 9.2852 122.676 7.66134 120.384 7.11597C118.799 6.73809 117.095 6.83001 115.443 6.78712C115.265 6.78303 114.914 7.26508 114.912 7.52449C114.875 10.6803 114.887 13.8381 114.887 17.1349L114.889 17.1328Z" fill="black"/>
<path d="M93.1217 9.73465C99.8357 9.76529 104.597 14.1895 105.222 21.1691C105.675 26.2367 104.419 30.7753 100.042 33.8372C93.0625 38.719 81.9038 35.8961 80.5761 25.2011C80.188 22.08 80.5516 19.0938 81.9671 16.273C84.0669 12.0857 88.148 9.7081 93.1238 9.73261L93.1217 9.73465ZM98.5918 23.036L98.8696 22.9522C98.3977 21.3427 98.1465 19.6228 97.4091 18.1481C95.5892 14.5061 90.7033 14.3223 88.628 17.8253C86.6651 21.1384 86.6202 24.6598 88.5913 27.9893C90.6114 31.3983 94.9988 31.3738 97.1844 28.0669C98.1894 26.5451 98.5448 24.8314 98.5938 23.038L98.5918 23.036Z" fill="black"/>
<path d="M143.894 18.5891C143.812 16.5833 142.72 15.4496 140.875 15.3271C138.534 15.1718 136.349 15.6478 134.396 17.0122C134.12 17.2042 133.83 17.3799 133.414 17.6495C132.803 15.8704 132.217 14.1648 131.606 12.3817C135.691 9.85293 140.015 8.96441 144.607 10.3166C148.198 11.3747 149.934 14.1505 150.428 17.7128C150.651 19.3203 150.62 20.9646 150.653 22.5946C150.741 26.9004 150.8 31.2061 150.872 35.5936H144.948C144.856 35.1708 144.756 34.7194 144.64 34.1863C142.734 35.4751 140.667 36.1492 138.396 36.1267C134.592 36.09 131.549 33.9289 130.585 30.5852C129.525 26.9085 130.936 23.1073 134.11 21.0545C136.674 19.3979 139.556 18.8424 142.528 18.5932C142.963 18.5564 143.402 18.5891 143.894 18.5891ZM144.117 23.9121C142.168 23.9815 140.344 24.1061 138.673 24.966C137.487 25.5768 136.874 26.5552 136.937 27.94C136.982 28.9144 137.207 29.762 138.148 30.2339C140.452 31.3879 143.925 29.4556 144.105 26.8942C144.172 25.9506 144.115 24.9987 144.115 23.9121H144.117Z" fill="black"/>
<path d="M154.142 46.1618C153.582 44.2928 153.031 42.4504 152.441 40.4855C153.011 40.3077 153.558 40.1791 154.075 39.9687C156.908 38.8146 158.76 36.6658 160.023 33.9614C160.151 33.6857 160.055 33.2363 159.929 32.9197C157.055 25.6644 154.16 18.4173 151.274 11.1662C151.164 10.8884 151.086 10.5963 150.954 10.1878C153.282 10.1878 155.519 10.1694 157.751 10.2164C157.968 10.2204 158.276 10.5942 158.374 10.8598C160.025 15.282 161.647 19.7123 163.279 24.1407C163.415 24.5124 163.573 24.876 163.804 25.452C165.252 21.185 166.618 17.1428 167.997 13.1046C168.324 12.1486 168.438 10.8679 169.118 10.3552C169.756 9.8732 171.01 10.1959 171.992 10.1857C173.283 10.1735 174.574 10.1837 176.012 10.1837C175.424 11.7258 174.883 13.174 174.321 14.612C171.757 21.1912 169.249 27.7928 166.594 34.3332C165.327 37.4543 163.73 40.4385 161.179 42.7568C159.202 44.5522 156.9 45.7226 154.138 46.1638L154.142 46.1618Z" fill="black"/>
<path d="M30.878 33.8226C31.4765 31.9291 32.0362 30.1521 32.6387 28.2443C33.0901 28.5201 33.4721 28.7672 33.8684 28.9899C35.9007 30.1378 38.0209 30.8547 40.3965 30.2767C41.2278 30.0745 41.812 29.6026 41.9672 28.7366C42.1306 27.8195 41.8835 27.0126 41.0338 26.549C40.1146 26.0485 39.1628 25.5971 38.1966 25.1947C35.9661 24.2654 33.8643 23.1521 32.6101 20.9727C30.3776 17.0938 32.3058 12.1242 36.7791 10.4881C40.6457 9.0726 44.3857 9.51584 47.9622 11.8321C47.3719 13.6316 46.7939 15.3903 46.1811 17.2532C45.5704 16.8998 45.0229 16.5771 44.4714 16.2645C43.1642 15.5251 41.7691 15.1452 40.2657 15.3372C39.3609 15.4536 38.5071 15.7151 38.3008 16.7956C38.0986 17.8516 38.6848 18.4869 39.5386 18.8934C40.7008 19.4469 41.908 19.9106 43.0763 20.4498C46.1321 21.8571 48.3544 23.9222 48.5321 27.5478C48.7139 31.2367 46.7653 34.1413 42.9824 35.4036C38.7747 36.8089 34.7528 36.1593 30.876 33.8206L30.878 33.8226Z" fill="black"/>
<path d="M58.9448 10.1653H64.8029V15.8355H58.9876C58.9611 16.2461 58.9243 16.5422 58.9243 16.8364C58.9202 20.2046 58.9182 23.5728 58.9243 26.9411C58.9284 30.6913 60.1662 30.4032 62.8951 29.9069C63.3506 29.8252 63.7918 29.672 64.376 29.5168C64.4822 31.3633 64.5925 33.0811 64.664 34.803C64.6701 34.9705 64.474 35.2524 64.3127 35.3075C61.5368 36.2675 58.7609 36.6086 56.0034 35.2258C54.2631 34.3536 53.2582 32.8789 52.8619 31.0528C52.5617 29.67 52.4309 28.232 52.4023 26.8144C52.337 23.583 52.3819 20.3496 52.3819 17.1183C52.3819 16.7506 52.3819 16.3829 52.3819 15.8621C51.3913 15.8621 50.4864 15.8519 49.5836 15.8662C49.1158 15.8743 48.7972 15.7967 48.8033 15.2125C48.8237 13.5846 48.8094 11.9587 48.8094 10.2245H52.3288V6.24761C54.5532 5.57356 56.6816 4.92606 58.9488 4.23975V10.1632L58.9448 10.1653Z" fill="black"/>
<path d="M80.9333 16.524C80.1469 16.381 79.4892 16.189 78.8254 16.1502C75.9984 15.9868 73.9497 17.9864 73.8578 21.1504C73.7557 24.6534 73.8026 28.1606 73.7883 31.6657C73.7822 32.9198 73.7883 34.1719 73.7883 35.4996H67.0601V10.2512H72.9693C73.0142 10.7761 73.0571 11.2663 73.1061 11.8362C73.7781 11.3868 74.3623 10.9375 74.9975 10.58C76.6684 9.63839 78.4618 9.43005 80.3164 9.86308C80.5575 9.92027 80.9027 10.2696 80.9068 10.4901C80.9537 12.4572 80.9333 14.4242 80.9333 16.5219V16.524Z" fill="black"/>
<path d="M23.3488 11.3155C22.7218 9.53847 22.0498 7.741 21.4799 5.91084C21.4002 5.65347 21.7291 5.10606 22.015 4.92427C25.1933 2.90823 28.6902 1.69085 32.3526 0.906498C37.6878 -0.237351 43.0373 -0.241436 48.4216 0.573557C51.4916 1.03722 54.39 2.01154 57.2599 3.12475C57.3804 3.17173 57.4825 3.27181 57.6868 3.4148C56.0854 3.89685 54.5984 4.5423 53.0522 4.74044C52.0104 4.87525 50.8952 4.34213 49.8024 4.16851C41.9977 2.93274 34.5198 3.76204 27.6526 7.93504C26.1349 8.85829 24.8318 10.1349 23.3488 11.3135V11.3155Z" fill="#20D5B3"/>
</svg>
