<svg width="155" height="44" viewBox="0 0 155 44" fill="none" xmlns="http://www.w3.org/2000/svg">
<path d="M21.3459 14.2782C15.1166 14.2782 8.88895 14.2685 2.65964 14.2927C1.99123 14.296 1.74362 14.0937 1.84719 13.4479C1.85043 13.4269 1.84719 13.4042 1.84719 13.3832C1.81968 12.1564 2.09481 12.0803 0.607484 12.1143C0.198023 12.124 0.0458919 11.9687 0.0297077 11.5479C-0.0625423 9.274 -0.0673975 9.28372 2.01066 8.36445C8.23349 5.61314 14.4498 2.84725 20.6791 0.113742C21.0044 -0.0286791 21.4964 -0.0416264 21.8185 0.0991762C28.5285 3.0269 35.2239 5.99185 41.929 8.9309C42.3773 9.12673 42.5553 9.38406 42.5311 9.85987C42.5019 10.4198 42.5133 10.9814 42.5262 11.5414C42.5359 11.9557 42.3547 12.103 41.9452 12.1192C40.9207 12.158 40.924 12.1742 40.9207 13.1388C40.9175 14.4044 41.0421 14.2782 39.7717 14.2782C33.6297 14.2798 27.4862 14.2782 21.3443 14.2782H21.3459Z" fill="#1E71D2"/>
<path d="M21.265 43.4163C14.4741 43.4163 7.68158 43.4163 0.890688 43.4163C0.323162 43.4163 0.0393984 43.1315 0.0393984 42.5618C0.0393984 42.0649 0.0604378 41.5681 0.0329247 41.0728C0.00864835 40.6148 0.146214 40.4158 0.647925 40.4158C1.84717 40.4158 1.84717 40.3931 1.84879 39.2084C1.84879 38.6355 2.1304 38.3485 2.69361 38.3474C15.1555 38.3474 27.6173 38.3474 40.0808 38.3474C40.6418 38.3474 40.9229 38.6355 40.924 39.2116C40.924 39.2974 40.924 39.3848 40.924 39.4706C40.924 40.4077 40.924 40.4336 41.8562 40.4174C42.3643 40.4093 42.5602 40.5857 42.5327 41.0923C42.5051 41.6085 42.4987 42.1297 42.5343 42.6443C42.5747 43.2237 42.3854 43.4373 41.7704 43.4309C38.7731 43.4017 35.7774 43.4179 32.7801 43.4179C28.9428 43.4179 25.1039 43.4179 21.2666 43.4179L21.265 43.4163Z" fill="#1E71D2"/>
<path d="M8.26449 37.2014C6.92768 37.2014 5.59248 37.1884 4.25566 37.2079C3.81707 37.2143 3.62933 37.0784 3.64552 36.6171C3.67303 35.8856 3.67627 35.1492 3.64552 34.4177C3.62448 33.9208 3.83487 33.793 4.2945 33.793C5.32382 33.793 5.32544 33.7736 5.32544 32.7572C5.32544 28.0767 5.32544 23.3963 5.32544 18.7158C5.32544 17.79 5.32058 17.7609 4.38999 17.7917C3.83973 17.8095 3.56621 17.6606 3.64875 17.0715C3.67303 16.9015 3.66817 16.7251 3.64875 16.5552C3.59373 16.0616 3.82678 15.9272 4.28965 15.9305C6.38065 15.9467 8.47003 15.937 10.561 15.937C11.1647 15.937 11.7684 15.9548 12.3704 15.9321C12.8058 15.9159 13.0307 16.06 12.979 16.5212C12.9692 16.607 12.979 16.6944 12.979 16.7801C12.9806 17.7625 12.979 17.7933 12.0144 17.769C11.435 17.7528 11.2861 17.9697 11.2877 18.5232C11.3055 23.3542 11.3071 28.1852 11.2877 33.0178C11.2845 33.6053 11.4544 33.8254 12.0516 33.8124C12.979 33.7914 12.979 33.8221 12.979 34.7786C12.979 35.3175 12.9353 35.8613 12.9903 36.3954C13.0599 37.0784 12.7783 37.2386 12.1422 37.2159C10.8507 37.1706 9.55599 37.203 8.26287 37.2014H8.26449Z" fill="#1E71D2"/>
<path d="M21.2976 37.2015C19.9834 37.2015 18.6693 37.1853 17.3551 37.2096C16.8842 37.2177 16.6932 37.072 16.7142 36.5817C16.7466 35.8712 16.7434 35.1574 16.7142 34.447C16.6964 33.9841 16.8372 33.7915 17.3325 33.7915C18.3974 33.7915 18.3974 33.7656 18.3974 32.733C18.3974 28.0752 18.3974 23.4174 18.3974 18.758C18.3974 17.7918 18.3942 17.7594 17.4458 17.7918C16.8777 17.8112 16.6414 17.6316 16.7175 17.0586C16.7434 16.8677 16.7337 16.6702 16.7191 16.4776C16.6916 16.0957 16.8469 15.9338 17.2418 15.9338C19.9576 15.9419 22.6716 15.9419 25.3874 15.9338C25.7725 15.9338 25.9506 16.0763 25.9198 16.4679C25.9085 16.6184 25.9198 16.7689 25.9198 16.9211C25.9198 17.7724 25.9166 17.8112 25.0766 17.7691C24.4228 17.7351 24.2253 17.9617 24.2286 18.6156C24.2528 23.4029 24.2528 28.1901 24.2286 32.9774C24.2253 33.6539 24.4746 33.8886 25.096 33.7996C25.7483 33.7073 25.991 33.9582 25.9311 34.6234C25.8777 35.2222 25.8858 35.8323 25.9295 36.4328C25.9716 37.0138 25.7952 37.2355 25.177 37.2145C23.8855 37.1691 22.5923 37.2015 21.2992 37.1999L21.2976 37.2015Z" fill="#1E71D2"/>
<path d="M34.3548 37.2013C33.0406 37.2013 31.7265 37.1852 30.4123 37.2094C29.9284 37.2191 29.7633 37.046 29.7828 36.5702C29.8119 35.8597 29.8119 35.1459 29.7828 34.4355C29.7633 33.9596 29.9317 33.7913 30.4123 33.7913C31.4675 33.7913 31.4692 33.7687 31.4692 32.728C31.4692 28.0492 31.4692 23.3687 31.4692 18.6898C31.4692 17.7884 31.4659 17.8013 30.5855 17.7706C30.3314 17.7609 29.8734 17.667 29.8621 17.5731C29.807 17.073 29.8507 16.5584 29.9041 16.0534C29.9106 15.9984 30.2068 15.9434 30.3702 15.9418C33.0423 15.9353 35.7143 15.9418 38.3863 15.9304C38.8249 15.9288 39.0401 16.068 38.9883 16.526C38.977 16.6328 38.9883 16.7413 38.9883 16.8497C38.9883 17.7673 38.9883 17.7997 38.0869 17.769C37.4897 17.7479 37.3019 17.9648 37.3052 18.5523C37.323 23.3833 37.3246 28.2126 37.3052 33.0436C37.3019 33.6667 37.5544 33.8188 38.1144 33.8091C38.9883 33.7929 38.99 33.8156 38.99 34.6976C38.99 35.345 38.9738 35.9924 38.9948 36.6381C39.0094 37.0589 38.8492 37.2111 38.4284 37.2062C37.0705 37.19 35.7143 37.1997 34.3564 37.1997L34.3548 37.2013Z" fill="#1E71D2"/>
<path d="M61.5281 12.4298C61.6495 12.5253 61.7062 12.5932 61.779 12.6256C63.2647 13.2649 63.7227 14.7587 63.5253 15.8333C63.2501 17.3368 62.1609 18.4519 60.638 18.6656C59.7074 18.7967 58.7542 18.7934 57.8106 18.8064C56.1954 18.8274 54.5819 18.7983 52.9667 18.8209C52.4828 18.8274 52.2756 18.706 52.2788 18.1736C52.2983 14.7474 52.2966 11.3212 52.2788 7.89497C52.2772 7.40297 52.4617 7.27026 52.9262 7.27349C55.0787 7.2913 57.2328 7.25407 59.3853 7.29453C60.4098 7.31396 61.3857 7.57614 62.1528 8.34165C63.2242 9.40819 63.1692 11.0007 62.0201 11.9928C61.8631 12.1288 61.7094 12.2679 61.5265 12.4298H61.5281ZM57.385 16.8626C58.0518 16.8626 58.7185 16.8626 59.3853 16.8626C59.429 16.8626 59.4711 16.8626 59.5148 16.8626C60.4519 16.8254 61.0912 16.2056 61.0928 15.3332C61.0928 14.5127 60.3952 13.786 59.518 13.7698C58.0566 13.7456 56.5936 13.7698 55.1305 13.7569C54.7745 13.7537 54.6256 13.8815 54.6337 14.244C54.6482 14.9545 54.6482 15.665 54.6337 16.3755C54.6256 16.7348 54.7664 16.874 55.1256 16.8675C55.8782 16.8513 56.6308 16.8626 57.3833 16.8643L57.385 16.8626ZM57.1503 9.23178C56.4819 9.23178 55.8151 9.23988 55.1467 9.22855C54.8036 9.22207 54.6256 9.33698 54.6337 9.71084C54.6482 10.3145 54.6482 10.9182 54.6337 11.5219C54.6239 11.8925 54.8133 12.0333 55.1435 12.0284C56.477 12.0074 57.8122 12.0187 59.1426 11.9394C60.0489 11.8844 60.4794 11.3471 60.4503 10.5103C60.4244 9.76586 59.8838 9.26901 59.0244 9.23988C58.3997 9.21884 57.775 9.23502 57.1503 9.23502V9.23178Z" fill="#1E71D2"/>
<path d="M82.6128 11.7177C82.603 11.9443 82.5836 12.1725 82.582 12.3991C82.5788 14.3185 82.5658 16.238 82.5901 18.1574C82.5966 18.6721 82.4218 18.8226 81.9185 18.8226C80.2369 18.8226 80.2369 18.8388 80.2369 17.1718C80.2369 14.1518 80.2547 11.1319 80.2223 8.11351C80.2159 7.471 80.381 7.28812 81.0445 7.25251C81.9444 7.20396 82.5027 7.53088 83.0449 8.22518C84.6002 10.2094 86.2299 12.1353 87.8338 14.0806C87.9487 14.2214 88.0992 14.3331 88.3452 14.5613C88.3662 14.1891 88.3905 13.9657 88.3921 13.7424C88.3954 11.8229 88.4083 9.90349 88.384 7.98404C88.3776 7.45967 88.5249 7.26708 89.0751 7.27032C90.7518 7.28003 90.7518 7.25899 90.7518 8.93567C90.7518 11.9767 90.7372 15.0177 90.7631 18.0587C90.768 18.6575 90.5754 18.7967 89.9911 18.8372C89.08 18.9003 88.4892 18.5912 87.926 17.8661C86.3918 15.8933 84.7685 13.99 83.1857 12.0544C83.0643 11.9055 82.9882 11.721 82.8911 11.5527C82.7973 11.6077 82.7034 11.6627 82.6111 11.7194L82.6128 11.7177Z" fill="#1E71D2"/>
<path d="M99.9088 35.8468C99.9088 35.6154 99.9088 35.3855 99.9088 35.1541C99.9088 33.2347 99.9202 31.3152 99.9008 29.3974C99.8959 28.9232 100.045 28.7209 100.53 28.7597C100.894 28.7889 101.265 28.7921 101.628 28.7597C102.155 28.7128 102.288 28.9556 102.286 29.4427C102.272 32.8058 102.273 36.1705 102.286 39.5336C102.288 40.0207 102.131 40.1858 101.624 40.2424C100.619 40.3525 99.959 40.0013 99.3408 39.1904C97.9166 37.3244 96.3855 35.5409 94.8934 33.7267C94.7105 33.5049 94.4968 33.3075 94.1651 32.9595C94.1327 33.3933 94.1003 33.636 94.1003 33.8772C94.0955 35.7319 94.0728 37.5866 94.1117 39.4397C94.1246 40.0838 93.8932 40.2505 93.2895 40.2343C91.4672 40.1842 91.7682 40.4366 91.7585 38.6806C91.7423 35.6186 91.7666 32.5565 91.7423 29.4961C91.7374 28.9345 91.9041 28.7889 92.4673 28.7435C93.4497 28.6626 94.0841 29.0041 94.6862 29.7907C96.1266 31.6713 97.6706 33.4726 99.1741 35.3046C99.3456 35.515 99.5317 35.7125 99.7114 35.9164C99.7761 35.8937 99.8409 35.8711 99.9056 35.8484L99.9088 35.8468Z" fill="#1E71D2"/>
<path d="M75.2704 40.2084C74.3479 40.2084 73.5986 40.2359 72.8541 40.1874C72.6761 40.1761 72.4624 39.9381 72.3556 39.752C71.7439 38.6871 71.1418 37.6157 70.5737 36.5265C70.3472 36.0912 70.0753 35.8824 69.5671 35.905C68.7708 35.9407 67.9729 35.9277 67.1751 35.9115C66.7316 35.9034 66.552 36.0944 66.5568 36.5298C66.5665 37.5429 66.5423 38.5576 66.5633 39.5708C66.573 40.0353 66.4209 40.2376 65.9354 40.2295C63.8282 40.1906 64.2231 40.4836 64.2085 38.5528C64.1858 35.5328 64.215 32.5128 64.1907 29.4929C64.1858 28.9248 64.3558 28.7468 64.9255 28.7565C66.9728 28.7872 69.0217 28.7257 71.0674 28.7986C71.7746 28.8245 72.5337 29.0187 73.16 29.344C75.5601 30.5966 75.6216 33.7752 73.317 35.201C72.8476 35.4913 72.7543 35.8802 73.037 36.3679C73.7491 37.5947 74.4612 38.8198 75.2688 40.21L75.2704 40.2084ZM69.0573 33.9548C69.682 33.9548 70.3051 33.9613 70.9298 33.9532C71.9122 33.9387 72.5952 33.2945 72.6113 32.3769C72.6275 31.4528 71.9802 30.7601 70.9929 30.7342C69.703 30.7002 68.4115 30.7358 67.12 30.7164C66.6814 30.7099 66.5584 30.9203 66.5617 31.3055C66.5682 31.9949 66.5746 32.6844 66.5601 33.3722C66.5504 33.8205 66.7478 33.9775 67.1864 33.9581C67.8095 33.9322 68.4342 33.9516 69.0589 33.9516L69.0573 33.9548Z" fill="#1E71D2"/>
<path d="M155 40.2183C154.121 40.2183 153.39 40.2556 152.665 40.1957C152.448 40.1779 152.179 39.9367 152.058 39.7263C151.454 38.6825 150.876 37.624 150.32 36.5542C150.085 36.1027 149.798 35.8729 149.261 35.9052C148.552 35.9489 147.839 35.9522 147.13 35.9052C146.49 35.8632 146.314 36.1173 146.342 36.7258C146.385 37.6726 146.337 38.6226 146.361 39.571C146.372 40.0322 146.23 40.241 145.739 40.2313C143.642 40.1924 144.019 40.4821 144.005 38.5595C143.982 35.5411 144.011 32.5244 143.988 29.506C143.985 28.9541 144.128 28.747 144.712 28.7567C146.779 28.7907 148.847 28.7534 150.915 28.781C152.885 28.8052 154.364 30.0142 154.689 31.9175C154.935 33.3595 154.21 34.3969 153.069 35.185C152.37 35.6673 152.36 35.6609 152.789 36.4037C153.498 37.6305 154.21 38.8556 155 40.2199V40.2183ZM148.84 33.955C149.442 33.955 150.046 33.9631 150.648 33.9534C151.647 33.9389 152.312 33.3125 152.331 32.3819C152.351 31.4497 151.708 30.7587 150.721 30.736C149.43 30.7053 148.138 30.736 146.847 30.7214C146.492 30.7182 146.343 30.8412 146.351 31.207C146.369 31.9611 146.369 32.7153 146.351 33.4695C146.343 33.8304 146.476 33.9696 146.838 33.9599C147.505 33.9421 148.174 33.955 148.84 33.955Z" fill="#1E71D2"/>
<path d="M105.025 38.4445C105.533 37.8247 105.936 37.3327 106.237 36.9669C107.499 37.5204 108.618 38.1468 109.817 38.4899C110.649 38.7294 111.594 38.6112 112.486 38.587C112.787 38.5789 113.096 38.3911 113.378 38.2406C113.981 37.9202 114.205 37.3861 114.127 36.7242C114.056 36.1286 113.651 35.7855 113.119 35.6803C112.195 35.4958 111.253 35.4035 110.32 35.2563C109.474 35.1219 108.608 35.0378 107.791 34.7982C106.527 34.4276 105.695 33.5699 105.616 32.2039C105.538 30.8525 106.072 29.7601 107.299 29.0917C108.451 28.4621 109.71 28.3051 110.994 28.3974C112.513 28.5058 113.954 28.9299 115.299 29.6549C115.409 29.7132 115.503 29.7989 115.66 29.9122C115.292 30.3686 114.964 30.8169 114.587 31.2183C114.491 31.3203 114.185 31.3542 114.061 31.2782C112.756 30.4868 111.334 30.2019 109.845 30.3605C109.322 30.4156 108.744 30.6389 108.341 30.9691C107.703 31.4918 107.841 32.4143 108.605 32.7121C109.289 32.9808 110.055 33.0568 110.791 33.1701C111.83 33.3287 112.894 33.3595 113.913 33.5941C115.438 33.9437 116.357 34.973 116.472 36.2435C116.635 38.0529 116.011 39.3234 114.447 39.9804C111.978 41.0211 109.516 40.7427 107.126 39.6665C106.428 39.3525 105.794 38.8977 105.025 38.4462V38.4445Z" fill="#1E71D2"/>
<path d="M131.212 34.4517C131.212 32.7685 131.225 31.0854 131.204 29.4039C131.198 28.9361 131.337 28.7549 131.827 28.7581C134.608 28.7759 137.388 28.7759 140.17 28.7581C140.654 28.7549 140.811 28.9232 140.8 29.399C140.764 30.9478 140.957 30.7196 139.513 30.7293C137.788 30.7407 136.064 30.7471 134.339 30.7229C133.774 30.7148 133.52 30.8588 133.541 31.4835C133.609 33.5519 133.229 33.2541 135.307 33.28C135.975 33.2881 136.644 33.2929 137.312 33.28C137.694 33.2719 137.859 33.4256 137.859 33.814C137.859 35.5781 137.958 35.2269 136.545 35.2512C135.726 35.2658 134.907 35.2658 134.088 35.2512C133.7 35.2447 133.543 35.4033 133.552 35.7869C133.565 36.3906 133.577 36.9959 133.548 37.5995C133.527 38.0721 133.696 38.2404 134.179 38.2356C136.226 38.2145 138.275 38.2275 140.322 38.2275C140.895 38.2275 141.182 38.5096 141.183 39.0739C141.184 39.8464 140.801 40.2327 140.034 40.2327C137.361 40.2327 134.689 40.2181 132.015 40.244C131.4 40.2505 131.186 40.0676 131.201 39.4364C131.24 37.7759 131.214 36.1138 131.214 34.4533L131.212 34.4517Z" fill="#1E71D2"/>
<path d="M106.344 18.8001C105.373 18.8001 104.497 18.8244 103.625 18.7807C103.44 18.771 103.24 18.5315 103.097 18.3551C101.947 16.9292 100.81 15.4921 99.6663 14.0614C99.4818 13.8316 99.2762 13.6163 99.0302 13.338C98.3942 13.9384 97.7889 14.4822 97.2224 15.0648C97.0978 15.1943 97.0784 15.4613 97.0752 15.6653C97.059 16.5279 97.0541 17.3905 97.0752 18.2531C97.0849 18.6755 96.9198 18.8082 96.5055 18.8212C94.7187 18.8746 94.7187 18.8843 94.7187 17.0814C94.7187 14.0614 94.7301 11.0414 94.709 8.02146C94.7058 7.47119 94.8434 7.26242 95.4309 7.26889C97.0703 7.28993 97.0703 7.26565 97.0703 8.90026C97.0703 9.80658 97.0671 10.7129 97.0719 11.6176C97.0719 11.8231 97.0978 12.0287 97.1221 12.3734C97.4199 12.142 97.6271 12.006 97.8035 11.8393C99.1953 10.5187 100.59 9.20129 101.961 7.85962C102.39 7.43883 102.837 7.22034 103.452 7.27051C104.067 7.32068 104.69 7.28184 105.352 7.28184C104.915 7.74633 104.541 8.18006 104.13 8.57334C103.194 9.46671 102.259 10.3617 101.286 11.213C100.83 11.6127 100.804 11.8927 101.201 12.3702C102.837 14.3446 104.431 16.3547 106.038 18.3535C106.127 18.4635 106.2 18.5865 106.344 18.7985V18.8001Z" fill="#1E71D2"/>
<path d="M77.8791 18.8097C77.0537 18.8097 76.348 18.8356 75.6456 18.7919C75.4676 18.7806 75.2394 18.5735 75.1472 18.3987C74.8785 17.884 74.7021 17.3192 74.414 16.8191C74.2927 16.6087 73.9868 16.3805 73.7586 16.374C72.2081 16.3352 70.6561 16.3384 69.1072 16.374C68.8952 16.3789 68.6104 16.5925 68.4971 16.7883C68.2398 17.2334 68.031 17.7157 67.874 18.2045C67.7105 18.7094 67.4079 18.8599 66.9062 18.8243C66.3721 18.7855 65.8348 18.8162 65.2295 18.8162C65.2813 18.6301 65.2991 18.4909 65.3557 18.3695C66.9531 14.9093 68.5651 11.454 70.1463 7.98574C70.3858 7.45813 70.6787 7.19433 71.2694 7.28011C71.5429 7.32057 71.8407 7.23965 72.1045 7.30277C72.323 7.35455 72.6127 7.49212 72.6969 7.67177C74.4189 11.3326 76.115 15.0064 77.8807 18.8146L77.8791 18.8097ZM71.5721 10.1593C71.4895 10.1625 71.407 10.1658 71.3245 10.169C70.7224 11.5705 70.1187 12.9721 69.4746 14.4691H73.4171C72.7697 12.9591 72.1709 11.5608 71.5705 10.1609L71.5721 10.1593Z" fill="#1E71D2"/>
<path d="M89.3373 40.2005C88.4941 40.2005 87.7723 40.2119 87.0505 40.1892C86.9324 40.186 86.8061 40.0387 86.7106 39.9335C86.641 39.8574 86.5957 39.7474 86.5747 39.6438C86.2429 38.0237 85.2589 37.4816 83.6534 37.7146C82.7455 37.8473 81.8036 37.7551 80.8762 37.7324C80.4053 37.7211 80.0816 37.8506 79.9553 38.3377C79.923 38.4607 79.8501 38.574 79.7984 38.6922C79.0701 40.3543 78.7253 40.5242 76.7881 40.1245C76.8625 39.9238 76.9208 39.7279 77.005 39.5451C78.5797 36.1431 80.1641 32.7445 81.7243 29.3361C81.9282 28.8894 82.2163 28.8117 82.6646 28.747C83.7295 28.5948 84.2506 29.014 84.6811 29.9964C86.0794 33.1928 87.5927 36.3406 89.059 39.5078C89.1399 39.681 89.2014 39.8639 89.3357 40.2038L89.3373 40.2005ZM83.0999 31.6132C83.0158 31.6132 82.9316 31.6148 82.8475 31.6164C82.247 33.0131 81.6466 34.4098 81.0073 35.8939H84.9417C84.2911 34.3839 83.6955 32.9985 83.0983 31.6116L83.0999 31.6132Z" fill="#1E71D2"/>
<path d="M119.312 34.481C119.312 32.7995 119.327 31.1163 119.302 29.4348C119.296 28.9363 119.44 28.7534 119.96 28.7566C122.674 28.7777 125.389 28.7761 128.103 28.7566C128.608 28.7534 128.786 28.9088 128.772 29.4218C128.73 30.9447 128.934 30.7182 127.463 30.7279C125.76 30.7392 124.057 30.7441 122.356 30.723C121.826 30.7166 121.646 30.9043 121.641 31.4367C121.625 33.306 121.607 33.306 123.494 33.306C124.119 33.306 124.744 33.319 125.368 33.3012C125.765 33.2898 125.949 33.4193 125.974 33.8482C126.056 35.3129 126.069 35.3129 124.583 35.3129C123.85 35.3129 123.119 35.3226 122.386 35.3161C121.866 35.3112 121.615 35.486 121.638 36.0735C121.682 37.2356 121.63 38.4024 121.659 39.5661C121.672 40.0856 121.466 40.2442 120.976 40.2345C118.972 40.1973 119.34 40.4562 119.314 38.6177C119.294 37.2372 119.311 35.8583 119.311 34.4778L119.312 34.481Z" fill="#1E71D2"/>
<path d="M56.3184 28.7663C57.9125 28.7663 59.505 28.7841 61.0976 28.7566C61.6154 28.7485 61.7692 28.933 61.7562 29.4331C61.719 30.9253 61.9068 30.7165 60.5004 30.7295C59.7251 30.7375 58.9499 30.7537 58.1747 30.723C57.6406 30.7019 57.4674 30.9059 57.4707 31.4367C57.4917 34.0877 57.461 36.7387 57.4933 39.388C57.5014 40.0305 57.3299 40.2636 56.6615 40.2442C54.8699 40.1891 55.1531 40.4206 55.1434 38.7374C55.1288 36.3243 55.1223 33.9097 55.1515 31.4966C55.1579 30.8945 54.9508 30.7003 54.3665 30.7214C53.3987 30.757 52.4293 30.7133 51.4599 30.7375C51.0035 30.7489 50.8594 30.5725 50.8675 30.129C50.8999 28.5268 50.7008 28.7809 52.1817 28.7679C53.5589 28.755 54.9378 28.7647 56.3151 28.7647L56.3184 28.7663Z" fill="#1E71D2"/>
</svg>
