<svg width="75" height="74" viewBox="0 0 75 74" fill="none" xmlns="http://www.w3.org/2000/svg">
<path d="M66.9297 48.6453C66.9297 48.6453 66.832 48.0455 66.7748 48.0509L55.8908 49.1011C55.0247 49.1847 54.3521 49.8754 54.2913 50.7432L53.9923 55.0289L45.5719 55.6296L44.9992 51.7455C44.8717 50.8816 44.1172 50.2303 43.2439 50.2303H31.7565C30.8835 50.2303 30.1291 50.8816 30.0015 51.7455L29.4285 55.6296L21.0081 55.0289L20.7091 50.7432C20.6483 49.8751 19.9757 49.1844 19.1097 49.1008L8.22021 48.0509C8.16396 48.0455 8.12275 48.6459 8.0665 48.6459L8.05176 51.0013L17.2741 52.4885L17.5761 56.8124C17.6372 57.6878 18.3435 58.3956 19.2195 58.4585L30.8161 59.2857C30.8601 59.2887 30.9034 59.2905 30.9467 59.2905C31.8181 59.2905 32.5714 58.639 32.6989 57.775L33.2882 53.7784H41.7125L42.3018 57.775C42.429 58.6387 43.1832 59.2902 44.0558 59.2902C44.0986 59.2902 44.1413 59.2887 44.1831 59.2857L55.7813 58.4585C56.6569 58.3956 57.3635 57.6878 57.4246 56.8124L57.7263 52.4885L66.9448 50.9947L66.9297 48.6453Z" fill="white"/>
<path d="M8.06613 30.8851V45.1779V46.9933V48.6454C8.09862 48.6457 8.13111 48.6469 8.1633 48.6499L19.0515 49.6998C19.6219 49.7548 20.0689 50.2139 20.1086 50.7854L20.4443 55.5918L29.9422 56.2695L30.5965 51.8334C30.6813 51.2583 31.1746 50.832 31.7564 50.832H43.2439C43.8254 50.832 44.3187 51.2583 44.4035 51.8334L45.0578 56.2695L54.556 55.5918L54.8914 50.7854C54.9314 50.2139 55.3781 49.7551 55.9484 49.6998L66.8325 48.6499C66.8647 48.6469 66.8969 48.6457 66.9294 48.6454V47.2283L66.9339 47.2268V30.8851H66.9742C68.4166 29.0441 69.7513 27.1041 71.0312 25.0345C69.3314 22.1407 67.2485 19.5546 65.0222 17.1586C62.9574 18.198 60.9519 19.3753 59.0577 20.6282C58.1098 19.6861 57.0422 18.9154 55.9936 18.1098C54.9633 17.2823 53.8021 16.6755 52.7009 15.9686C53.0288 13.5269 53.1909 11.1231 53.2562 8.61433C50.4147 7.18426 47.3846 6.2361 44.3196 5.55505C43.0959 7.61171 41.9769 9.83894 41.0022 12.0162C39.8465 11.8231 38.6854 11.7515 37.5227 11.7377V11.7359C37.5146 11.7359 37.5071 11.7377 37.5001 11.7377C37.4929 11.7377 37.4854 11.7359 37.4782 11.7359V11.7377C36.3134 11.7515 35.1532 11.8231 33.9972 12.0162C33.0231 9.83894 31.9047 7.61171 30.6792 5.55505C27.6157 6.2361 24.5853 7.18426 21.7441 8.61433C21.8091 11.1231 21.9712 13.5269 22.3 15.9686C21.1967 16.6755 20.037 17.2823 19.0064 18.1098C17.9593 18.9154 16.8899 19.6861 15.9417 20.6282C14.0475 19.3753 12.0426 18.198 9.9772 17.1586C7.75088 19.5546 5.66925 22.1407 3.96875 25.0345C5.24811 27.1041 6.58372 29.0441 8.02582 30.8851H8.06613Z" fill="#478CBF"/>
<path d="M57.1616 51.939L56.8244 56.7709C56.7838 57.3533 56.3205 57.8169 55.7381 57.8587L44.1403 58.6862C44.112 58.6883 44.0837 58.6892 44.0557 58.6892C43.4794 58.6892 42.9821 58.2663 42.897 57.6875L42.2319 53.1771H32.7686L32.1035 57.6875C32.0142 58.2946 31.4715 58.731 30.8602 58.6862L19.2624 57.8587C18.68 57.8169 18.2167 57.3533 18.1761 56.7709L17.8389 51.939L8.04834 50.995C8.05285 52.0473 8.06639 53.2 8.06639 53.4295C8.06639 63.7697 21.1834 68.7397 37.4803 68.7969H37.5001H37.5203C53.8171 68.7397 66.9296 63.7697 66.9296 53.4295C66.9296 53.1958 66.9437 52.0479 66.9486 50.995L57.1616 51.939Z" fill="#478CBF"/>
<path d="M28.6268 38.0945C28.6268 41.7199 25.6893 44.6567 22.0651 44.6567C18.4427 44.6567 15.5044 41.7199 15.5044 38.0945C15.5044 34.4715 18.4427 31.5361 22.0651 31.5361C25.6893 31.5361 28.6268 34.4715 28.6268 38.0945Z" fill="white"/>
<path d="M27.0479 38.4837C27.0479 40.8884 25.0989 42.8374 22.6924 42.8374C20.2871 42.8374 18.3369 40.8884 18.3369 38.4837C18.3369 36.079 20.2871 34.1282 22.6924 34.1282C25.0989 34.1282 27.0479 36.079 27.0479 38.4837Z" fill="#414042"/>
<path d="M37.4997 45.2539C36.3332 45.2539 35.3877 44.3942 35.3877 43.3344V37.2938C35.3877 36.2349 36.3332 35.3743 37.4997 35.3743C38.6663 35.3743 39.6138 36.2349 39.6138 37.2938V43.3344C39.6138 44.3942 38.6663 45.2539 37.4997 45.2539Z" fill="white"/>
<path d="M46.373 38.0945C46.373 41.7199 49.3105 44.6567 52.9353 44.6567C56.5574 44.6567 59.4954 41.7199 59.4954 38.0945C59.4954 34.4715 56.5574 31.5361 52.9353 31.5361C49.3105 31.5361 46.373 34.4715 46.373 38.0945Z" fill="white"/>
<path d="M47.9526 38.4837C47.9526 40.8884 49.901 42.8374 52.3057 42.8374C54.7128 42.8374 56.6612 40.8884 56.6612 38.4837C56.6612 36.079 54.7128 34.1282 52.3057 34.1282C49.901 34.1282 47.9526 36.079 47.9526 38.4837Z" fill="#414042"/>
</svg>
