<svg width="798" height="287" viewBox="0 0 798 287" fill="none" xmlns="http://www.w3.org/2000/svg">
<g filter="url(#filter0_dd_5023_3175)">
<path d="M398.138 247.998C451.234 247.998 494.277 204.905 494.277 151.748C494.277 98.5904 451.234 55.4977 398.138 55.4977C345.043 55.4977 302 98.5904 302 151.748C302 204.905 345.043 247.998 398.138 247.998Z" fill="url(#paint0_linear_5023_3175)"/>
</g>
<path d="M397.944 244.111C448.723 244.111 489.888 202.897 489.888 152.056C489.888 101.215 448.723 60 397.944 60C347.165 60 306 101.215 306 152.056C306 202.897 347.165 244.111 397.944 244.111Z" fill="white"/>
<g clip-path="url(#clip0_5023_3175)">
<path d="M422.424 154.177C424.291 152.761 425.5 150.519 425.5 148C425.5 143.727 422.023 140.25 417.75 140.25C413.477 140.25 410 143.727 410 148C410 150.518 411.208 152.759 413.075 154.176C411.526 154.815 410.116 155.769 408.939 156.991C407.619 154.38 405.391 152.304 402.674 151.178C404.541 149.762 405.75 147.52 405.75 145.001C405.75 140.727 402.273 137.251 398 137.251C393.727 137.251 390.25 140.727 390.25 145.001C390.25 147.52 391.459 149.762 393.326 151.178C390.609 152.304 388.382 154.38 387.061 156.991C385.883 155.769 384.474 154.815 382.925 154.176C384.792 152.759 386 150.518 386 148C386 143.727 382.523 140.25 378.25 140.25C373.977 140.25 370.5 143.727 370.5 148C370.5 150.519 371.709 152.761 373.576 154.177C369.134 156.018 366 160.4 366 165.5V172.75C366 173.44 366.56 174 367.25 174H387H409H428.75C429.44 174 430 173.44 430 172.75V165.5C430 160.4 426.866 156.018 422.424 154.177ZM373 148C373 145.105 375.355 142.75 378.25 142.75C381.145 142.75 383.5 145.105 383.5 148C383.5 150.895 381.145 153.25 378.25 153.25C375.355 153.25 373 150.895 373 148ZM385.75 162.501V171.5H368.5V165.5C368.5 160.124 372.874 155.75 378.25 155.75C381.351 155.75 384.237 157.213 386.076 159.689C385.863 160.592 385.75 161.533 385.75 162.501ZM392.75 145.001C392.75 142.106 395.105 139.751 398 139.751C400.895 139.751 403.25 142.106 403.25 145.001C403.25 147.896 400.895 150.251 398 150.251C395.105 150.251 392.75 147.896 392.75 145.001ZM407.75 171.5H405.271V167.559C405.271 166.869 404.711 166.309 404.021 166.309C403.33 166.309 402.771 166.869 402.771 167.559V171.5H388.25V162.501C388.25 157.124 392.624 152.751 398 152.751C403.376 152.751 407.75 157.124 407.75 162.501V171.5ZM412.5 148C412.5 145.105 414.855 142.75 417.75 142.75C420.645 142.75 423 145.105 423 148C423 150.895 420.645 153.25 417.75 153.25C414.855 153.25 412.5 150.895 412.5 148ZM427.5 171.5H410.25V162.501C410.25 161.533 410.137 160.592 409.924 159.689C411.763 157.213 414.649 155.75 417.75 155.75C423.126 155.75 427.5 160.124 427.5 165.5V171.5Z" fill="#F89A20"/>
<path d="M410.384 113.85C409.896 113.362 409.105 113.362 408.616 113.85L404.327 118.139C403.839 118.628 403.839 119.419 404.327 119.907C404.571 120.151 404.891 120.273 405.211 120.273C405.531 120.273 405.851 120.151 406.095 119.907L410.384 115.618C410.872 115.13 410.872 114.338 410.384 113.85Z" fill="#F89A20"/>
<path d="M391.673 118.139L387.384 113.85C386.895 113.362 386.104 113.362 385.616 113.85C385.127 114.338 385.128 115.13 385.616 115.618L389.905 119.907C390.149 120.151 390.469 120.273 390.789 120.273C391.109 120.273 391.429 120.151 391.673 119.907C392.161 119.419 392.161 118.628 391.673 118.139Z" fill="#F89A20"/>
<path d="M398 110C397.31 110 396.75 110.56 396.75 111.25V113.936C396.75 114.626 397.31 115.186 398 115.186C398.69 115.186 399.25 114.626 399.25 113.936V111.25C399.25 110.56 398.69 110 398 110Z" fill="#F89A20"/>
<path d="M407.713 124.119C407.494 123.446 406.923 122.965 406.223 122.863L401.685 122.203L399.656 118.092C399.342 117.457 398.708 117.062 398 117.062C397.292 117.062 396.658 117.457 396.344 118.092L394.315 122.203L389.778 122.863C389.077 122.965 388.506 123.446 388.287 124.119C388.068 124.793 388.247 125.518 388.754 126.012L392.038 129.213L391.263 133.732C391.143 134.43 391.424 135.122 391.997 135.538C392.321 135.773 392.699 135.892 393.08 135.892C393.374 135.892 393.669 135.822 393.941 135.678L398 133.545L402.059 135.678C402.685 136.008 403.43 135.954 404.003 135.538C404.576 135.122 404.857 134.429 404.738 133.732L403.962 129.213L407.246 126.012C407.753 125.518 407.932 124.793 407.713 124.119ZM401.971 127.662C401.536 128.087 401.338 128.697 401.44 129.297L402.05 132.849L398.859 131.172C398.59 131.031 398.295 130.96 398 130.96C397.705 130.96 397.41 131.031 397.141 131.172L393.95 132.849L394.56 129.296C394.662 128.697 394.464 128.087 394.029 127.662L391.448 125.146L395.014 124.628C395.616 124.541 396.136 124.163 396.405 123.618L398 120.386L399.734 123.899C399.916 124.268 400.268 124.524 400.675 124.583L404.552 125.146L401.971 127.662Z" fill="#F89A20"/>
<path d="M404.905 161.808C404.671 161.575 404.35 161.443 404.021 161.443C403.691 161.443 403.37 161.575 403.138 161.808C402.904 162.041 402.771 162.362 402.771 162.693C402.771 163.021 402.904 163.344 403.138 163.576C403.37 163.809 403.691 163.943 404.021 163.943C404.35 163.943 404.671 163.809 404.905 163.576C405.138 163.343 405.271 163.021 405.271 162.693C405.271 162.364 405.138 162.041 404.905 161.808Z" fill="#F89A20"/>
</g>
<path d="M371.11 209.408C367.222 209.408 364.99 207.272 364.99 203.504H367.75C367.75 205.688 368.998 207.008 371.086 207.008C372.91 207.008 373.918 206.168 373.918 204.656C373.918 203.384 373.318 202.736 371.422 201.968L368.686 200.864C366.574 200.048 365.47 198.536 365.47 196.4C365.47 193.664 367.678 191.792 370.846 191.792C374.182 191.792 376.39 193.88 376.39 197.048H373.63C373.63 195.2 372.622 194.144 370.75 194.144C369.166 194.144 368.254 194.96 368.254 196.232C368.254 197.384 369.07 198.152 371.038 198.944L373.51 199.952C375.622 200.816 376.678 202.304 376.678 204.584C376.678 207.464 374.446 209.408 371.11 209.408ZM384.021 206.792C384.429 206.792 385.077 206.744 385.341 206.696V209C384.933 209.072 384.165 209.144 383.397 209.144C382.125 209.144 379.773 208.976 379.773 205.208V200H377.877V197.816H379.773V194.432H382.389V197.816H384.957V200H382.389V204.608C382.389 206.552 382.989 206.792 384.021 206.792ZM397.757 202.832C397.757 203.288 397.733 203.648 397.685 204.272H389.381C389.453 206.048 390.605 207.008 392.501 207.008C393.797 207.008 394.565 206.6 394.997 205.736H397.637C397.301 207.824 395.189 209.288 392.501 209.288C388.973 209.288 386.789 207.032 386.789 203.408C386.789 199.832 388.997 197.528 392.405 197.528C395.597 197.528 397.757 199.688 397.757 202.832ZM389.381 202.28H395.189C395.165 200.552 394.157 199.592 392.357 199.592C390.509 199.592 389.405 200.696 389.381 202.28ZM406.645 197.528C409.837 197.528 411.973 199.88 411.973 203.408C411.973 206.864 409.717 209.288 406.477 209.288C404.989 209.288 403.573 208.568 402.877 207.488V214.04H400.285V197.816H402.877V199.328C403.573 198.248 405.061 197.528 406.645 197.528ZM406.093 206.96C408.013 206.96 409.357 205.496 409.357 203.408C409.357 201.32 408.013 199.856 406.093 199.856C404.125 199.856 402.781 201.296 402.781 203.408C402.781 205.52 404.125 206.96 406.093 206.96ZM431.361 209H420.009C420.009 205.4 421.209 203.192 424.041 201.632L426.441 200.312C427.785 199.568 428.481 198.536 428.481 197.216C428.481 195.776 427.497 194.792 426.081 194.792C424.257 194.792 423.225 196.016 423.225 198.224H420.369C420.369 194.672 422.601 192.392 426.081 192.392C429.369 192.392 431.409 194.192 431.409 197.072C431.409 199.064 430.233 200.912 428.217 202.064L425.865 203.408C424.065 204.44 423.561 205.04 423.273 206.528H431.361V209Z" fill="#212121"/>
<path d="M283.499 95.9437C284.315 94.0671 285.182 92.2211 286.1 90.4056" stroke="#CACADF" stroke-width="1.42" stroke-miterlimit="10" stroke-linecap="round"/>
<path d="M292.454 79.2989C318.206 39.5432 366.855 17.4114 415.504 25.5196C452.088 31.9245 482.93 53.9034 501.196 84.8879" stroke="#CACADF" stroke-width="1.42" stroke-miterlimit="10" stroke-linecap="round"/>
<path d="M504.297 90.4565C505.235 92.2618 506.143 94.0874 507 95.9436" stroke="#CACADF" stroke-width="1.42" stroke-miterlimit="10" stroke-linecap="round"/>
<g filter="url(#filter1_dd_5023_3175)">
<path d="M667.685 247.998C720.781 247.998 763.823 204.905 763.823 151.748C763.823 98.5904 720.781 55.4977 667.685 55.4977C614.589 55.4977 571.546 98.5904 571.546 151.748C571.546 204.905 614.589 247.998 667.685 247.998Z" fill="url(#paint1_linear_5023_3175)"/>
</g>
<path d="M667.944 243.804C718.723 243.804 759.888 202.589 759.888 151.748C759.888 100.907 718.723 59.6921 667.944 59.6921C617.165 59.6921 576 100.907 576 151.748C576 202.589 617.165 243.804 667.944 243.804Z" fill="white"/>
<path d="M641.203 209.408C637.315 209.408 635.083 207.272 635.083 203.504H637.843C637.843 205.688 639.091 207.008 641.179 207.008C643.003 207.008 644.011 206.168 644.011 204.656C644.011 203.384 643.411 202.736 641.515 201.968L638.779 200.864C636.667 200.048 635.563 198.536 635.563 196.4C635.563 193.664 637.771 191.792 640.939 191.792C644.275 191.792 646.483 193.88 646.483 197.048H643.723C643.723 195.2 642.715 194.144 640.843 194.144C639.259 194.144 638.347 194.96 638.347 196.232C638.347 197.384 639.163 198.152 641.131 198.944L643.603 199.952C645.715 200.816 646.771 202.304 646.771 204.584C646.771 207.464 644.539 209.408 641.203 209.408ZM654.115 206.792C654.523 206.792 655.171 206.744 655.435 206.696V209C655.027 209.072 654.259 209.144 653.491 209.144C652.219 209.144 649.867 208.976 649.867 205.208V200H647.971V197.816H649.867V194.432H652.483V197.816H655.051V200H652.483V204.608C652.483 206.552 653.083 206.792 654.115 206.792ZM667.851 202.832C667.851 203.288 667.827 203.648 667.779 204.272H659.475C659.547 206.048 660.699 207.008 662.595 207.008C663.891 207.008 664.659 206.6 665.091 205.736H667.731C667.395 207.824 665.283 209.288 662.595 209.288C659.067 209.288 656.883 207.032 656.883 203.408C656.883 199.832 659.091 197.528 662.499 197.528C665.691 197.528 667.851 199.688 667.851 202.832ZM659.475 202.28H665.283C665.259 200.552 664.251 199.592 662.451 199.592C660.603 199.592 659.499 200.696 659.475 202.28ZM676.739 197.528C679.931 197.528 682.067 199.88 682.067 203.408C682.067 206.864 679.811 209.288 676.571 209.288C675.083 209.288 673.667 208.568 672.971 207.488V214.04H670.379V197.816H672.971V199.328C673.667 198.248 675.155 197.528 676.739 197.528ZM676.187 206.96C678.107 206.96 679.451 205.496 679.451 203.408C679.451 201.32 678.107 199.856 676.187 199.856C674.219 199.856 672.875 201.296 672.875 203.408C672.875 205.52 674.219 206.96 676.187 206.96ZM695.79 209.288C691.974 209.288 689.742 207.176 689.742 203.552H692.55C692.55 205.736 693.726 206.96 695.79 206.96C697.494 206.96 698.646 205.904 698.646 204.344C698.646 202.568 697.614 201.656 695.574 201.656H694.422V199.28H695.598C697.35 199.28 698.214 198.488 698.214 196.88C698.214 195.584 697.182 194.672 695.694 194.672C693.942 194.672 692.862 195.728 692.862 197.504H690.15C690.15 194.384 692.31 192.392 695.694 192.392C698.886 192.392 701.022 194.192 701.022 196.88C701.022 198.608 700.062 199.832 698.262 200.408C700.182 200.744 701.43 202.28 701.43 204.32C701.43 207.248 699.102 209.288 695.79 209.288Z" fill="#212121"/>
<path d="M691.056 174.903C691.2 169.454 691.076 162.145 689.839 156.281C688.864 151.658 685.458 147.976 680.923 146.662C679.883 146.361 679.047 146.188 678.376 146.049C677.249 145.817 676.569 145.676 675.739 145.146C674.552 144.387 673.627 143.177 672.976 141.555C673.322 141.251 673.656 140.928 673.963 140.57C675.469 138.809 676.301 136.642 676.371 134.357C676.947 134.468 677.502 134.448 678.01 134.294C680.256 133.617 681.55 130.479 681.086 126.833C681.02 126.309 680.575 125.916 680.048 125.916H678.101V118.239C678.101 117.06 677.361 116.057 676.324 115.655C676.449 114.863 676.515 113.996 676.51 113.042C676.508 112.692 676.331 112.365 676.039 112.173C675.746 111.98 675.378 111.946 675.055 112.083C673.486 112.749 671.853 113.223 670.201 113.494C667.671 113.909 665.823 113.695 664.338 113.523C662.767 113.342 661.41 113.185 660.071 113.89C657.434 115.28 656.339 119.218 656.733 125.916H654.92C654.393 125.916 653.949 126.309 653.882 126.833C653.419 130.479 654.713 133.617 656.959 134.295C657.252 134.383 657.561 134.427 657.88 134.427C657.929 134.427 657.98 134.42 658.029 134.418C658.142 136.832 659.106 139.14 660.796 140.905C661.132 141.256 661.494 141.568 661.867 141.86C661.225 143.33 660.34 144.435 659.229 145.145C658.399 145.676 657.719 145.817 656.592 146.049C655.92 146.188 655.085 146.361 654.017 146.67C649.51 147.976 646.105 151.658 645.13 156.281C643.893 162.144 643.768 169.453 643.912 174.903H636V177H698.969V174.903H691.056ZM677.426 147.992C677.598 148.029 677.772 148.065 677.954 148.103C678.622 148.241 679.38 148.398 680.371 148.684C683.716 149.653 686.33 152.196 687.442 155.462H674.416L677.425 147.992H677.426ZM674.485 146.822C674.529 146.851 674.569 146.885 674.613 146.913C674.892 147.092 675.16 147.237 675.422 147.361L673.824 151.33L669.775 149.246L674.485 146.822ZM673.038 153.283L672.16 155.462H670.758L671.543 152.514L673.037 153.283H673.038ZM667.484 148.068L662.163 145.33C662.743 144.656 663.241 143.866 663.658 142.971C664.807 143.513 666.039 143.807 667.277 143.807C667.417 143.807 667.557 143.804 667.696 143.796C668.913 143.732 670.115 143.376 671.221 142.782C671.655 143.757 672.184 144.608 672.805 145.33L667.484 148.068H667.484ZM669.638 151.533L668.781 154.753H666.187L665.33 151.533L667.484 150.425L669.638 151.533H669.638ZM660.115 133.675L660.182 133.261C660.24 132.909 660.108 132.558 659.847 132.32C659.828 132.303 659.815 132.282 659.794 132.266C659.689 132.183 659.569 132.131 659.445 132.095C659.214 132.026 658.965 132.029 658.737 132.128C658.416 132.265 657.952 132.404 657.562 132.286C656.632 132.005 655.81 130.341 655.885 128.013H657.376C657.568 128.013 657.756 127.96 657.921 127.859L658.378 127.58C658.713 127.375 658.905 127 658.876 126.607C658.3 118.878 659.738 116.435 661.045 115.745C661.812 115.342 662.721 115.447 664.097 115.606C665.711 115.793 667.72 116.024 670.538 115.563C671.828 115.352 673.107 115.027 674.357 114.595C674.18 116.558 673.615 117.893 672.669 118.574C671.407 119.481 669.466 119.217 667.589 118.964C665.352 118.662 663.039 118.349 661.581 120.008C660.867 120.819 660.535 121.925 660.593 123.296L661.639 123.252L662.684 123.208C662.65 122.396 662.807 121.785 663.152 121.393C663.87 120.577 665.54 120.802 667.309 121.042C668.383 121.187 669.528 121.341 670.644 121.293C671.791 121.244 672.908 120.982 673.89 120.277C674.712 119.685 675.335 118.828 675.771 117.732C675.913 117.857 676.008 118.035 676.008 118.238V126.964C676.008 127.543 676.476 128.013 677.054 128.013H679.083C679.158 130.341 678.336 132.006 677.406 132.286C677.014 132.406 676.551 132.266 676.231 132.128C676.101 132.072 675.96 132.043 675.818 132.043H675.28C674.984 132.043 674.702 132.169 674.504 132.389C674.305 132.609 674.209 132.903 674.239 133.198C674.464 135.402 673.801 137.536 672.373 139.206C671.096 140.699 669.351 141.609 667.586 141.702C665.69 141.802 663.769 140.982 662.306 139.453C660.819 137.9 660.042 135.817 660.114 133.675H660.115ZM660.355 146.913C660.399 146.885 660.44 146.851 660.483 146.822L665.193 149.246L661.144 151.33L659.546 147.361C659.809 147.237 660.076 147.092 660.355 146.913ZM664.21 155.462H662.809L661.931 153.283L663.425 152.514L664.21 155.463L664.21 155.462ZM654.626 148.676C655.588 148.398 656.346 148.241 657.014 148.104C657.196 148.066 657.37 148.029 657.543 147.992L660.552 155.463H647.525C648.638 152.196 651.255 149.653 654.626 148.677V148.676ZM646.006 174.903C645.899 170.924 645.936 165.931 646.459 161.291L648.606 174.903H646.006ZM684.243 174.903H650.725L647.989 157.559H686.979L684.243 174.903H684.243ZM688.962 174.903H686.362L688.509 161.29C689.032 165.931 689.069 170.924 688.962 174.903Z" fill="#F89A20"/>
<path d="M701.284 31.4976C703.34 32.0382 705.376 32.6319 707.39 33.268" stroke="#CACADF" stroke-width="1.42" stroke-miterlimit="10" stroke-linecap="round"/>
<path d="M719.486 37.8054C764.764 57.4498 796.431 102.548 796.431 155.057C796.431 225.609 739.236 282.804 668.684 282.804C620.797 282.804 579.06 256.449 557.189 217.457" stroke="#CACADF" stroke-width="1.42" stroke-miterlimit="10" stroke-linecap="round"/>
<path d="M554.189 211.764C553.245 209.866 552.355 207.947 551.507 205.996" stroke="#CACADF" stroke-width="1.42" stroke-miterlimit="10" stroke-linecap="round"/>
<path d="M397.555 284.635C324.999 284.635 265.353 226.182 263.617 153.908H263.465V150.653C263.465 80.3644 206.281 23.1807 135.993 23.1807C65.7037 23.1807 8.50923 80.3644 8.50923 150.653C8.50923 220.942 65.6929 278.126 135.982 278.126H138.151V284.635H135.982C62.1019 284.635 2 224.533 2 150.653C2 76.7734 62.1019 16.6715 135.982 16.6715C209.862 16.6715 268.184 75.1244 269.92 147.399H270.072V150.653C270.072 220.942 327.256 278.126 397.544 278.126C467.833 278.126 525.017 220.942 525.017 150.653V147.399H525.169C526.915 75.1244 586.551 16.6715 659.107 16.6715H661.277V23.1807H659.107C588.818 23.1807 531.635 80.3644 531.635 150.653V153.908H531.483C529.736 226.182 470.101 284.635 397.544 284.635H397.555Z" fill="url(#paint2_linear_5023_3175)" stroke="white" stroke-width="3"/>
<path d="M659.584 37.1971V4L681 20.5985L659.584 37.1971Z" fill="#EA231C" stroke="white" stroke-width="3"/>
<g filter="url(#filter2_dd_5023_3175)">
<path d="M142.139 247.998C195.234 247.998 238.277 204.905 238.277 151.748C238.277 98.5904 195.234 55.4977 142.139 55.4977C89.0427 55.4977 46 98.5904 46 151.748C46 204.905 89.0427 247.998 142.139 247.998Z" fill="url(#paint3_linear_5023_3175)"/>
</g>
<path d="M141.944 243.804C192.723 243.804 233.888 202.589 233.888 151.748C233.888 100.907 192.723 59.6921 141.944 59.6921C91.1647 59.6921 50 100.907 50 151.748C50 202.589 91.1647 243.804 141.944 243.804Z" fill="white"/>
<path d="M113.179 166.702H119.008C120.37 166.702 121.523 165.831 121.966 164.621H124.054C124.468 164.621 124.862 164.728 125.226 164.941L133.638 169.843C138.154 172.483 143.67 172.712 148.382 170.475L169.563 160.442C174.255 158.154 171.581 151.067 166.539 152.461C166.539 152.461 154.844 155.858 154.844 155.858C154.171 153.977 152.389 152.62 150.281 152.62H142.404C141.75 152.62 141.112 152.434 140.558 152.084L136.664 149.61C135.034 148.576 133.15 148.029 131.219 148.029H121.964C121.519 146.823 120.367 145.956 119.008 145.956H113.179C111.978 145.956 111 146.934 111 148.135V164.523C111 165.724 111.978 166.702 113.179 166.702ZM113.179 148.135H119.008C119.549 148.135 119.989 148.575 119.989 149.115C119.99 149.718 120.48 150.207 121.083 150.208H131.219C132.736 150.208 134.216 150.638 135.496 151.45L139.391 153.924C140.294 154.496 141.337 154.799 142.404 154.799H150.281C153.812 154.889 153.827 160.076 150.28 160.17H139.007C138.405 160.17 137.917 160.657 137.917 161.259C137.917 161.861 138.405 162.349 139.007 162.349H150.281C152.766 162.349 154.799 160.467 155.086 158.056L167.153 154.551C169.588 153.863 170.949 157.37 168.633 158.471C168.633 158.471 147.449 168.506 147.449 168.506C143.378 170.437 138.624 170.235 134.737 167.961L126.325 163.057C125.633 162.654 124.848 162.441 124.054 162.441H122.168V154.563C122.152 153.135 120.009 153.129 119.989 154.563C119.989 154.563 119.989 163.542 119.989 163.542C119.989 164.082 119.549 164.523 119.008 164.523H113.179L113.179 148.135Z" fill="#F89A20" stroke="#F89A20" stroke-width="0.5"/>
<path d="M116.584 150.55C115.152 150.575 115.152 152.705 116.584 152.73C118.016 152.705 118.016 150.574 116.584 150.55Z" fill="#F89A20" stroke="#F89A20" stroke-width="0.5"/>
<path d="M144.777 134.954V119.7H151.313C151.916 119.7 152.403 119.212 152.403 118.61C152.403 118.008 151.916 117.52 151.313 117.52H143.687C143.085 117.52 142.598 118.008 142.598 118.61V133.864H138.239C137.807 133.864 137.416 134.12 137.242 134.515C137.068 134.91 137.145 135.372 137.436 135.69L149.42 148.765C149.83 149.231 150.618 149.233 151.027 148.765C151.027 148.765 163.014 135.69 163.014 135.69C163.654 135.032 163.132 133.834 162.21 133.864C162.21 133.864 157.851 133.864 157.851 133.864V118.61C157.851 118.008 157.364 117.52 156.761 117.52C156.159 117.52 155.672 118.008 155.672 118.61V134.954C155.672 135.556 156.159 136.043 156.761 136.043H159.733L150.224 146.417L140.717 136.043H143.687C144.29 136.043 144.777 135.556 144.777 134.954Z" fill="#F89A20" stroke="#F89A20" stroke-width="0.5"/>
<path d="M117.289 209.408C113.401 209.408 111.169 207.272 111.169 203.504H113.929C113.929 205.688 115.177 207.008 117.265 207.008C119.089 207.008 120.097 206.168 120.097 204.656C120.097 203.384 119.497 202.736 117.601 201.968L114.865 200.864C112.753 200.048 111.649 198.536 111.649 196.4C111.649 193.664 113.857 191.792 117.025 191.792C120.361 191.792 122.569 193.88 122.569 197.048H119.809C119.809 195.2 118.801 194.144 116.929 194.144C115.345 194.144 114.433 194.96 114.433 196.232C114.433 197.384 115.249 198.152 117.217 198.944L119.689 199.952C121.801 200.816 122.857 202.304 122.857 204.584C122.857 207.464 120.625 209.408 117.289 209.408ZM130.201 206.792C130.609 206.792 131.257 206.744 131.521 206.696V209C131.113 209.072 130.345 209.144 129.577 209.144C128.305 209.144 125.953 208.976 125.953 205.208V200H124.057V197.816H125.953V194.432H128.569V197.816H131.137V200H128.569V204.608C128.569 206.552 129.169 206.792 130.201 206.792ZM143.937 202.832C143.937 203.288 143.913 203.648 143.865 204.272H135.561C135.633 206.048 136.785 207.008 138.681 207.008C139.977 207.008 140.745 206.6 141.177 205.736H143.817C143.481 207.824 141.369 209.288 138.681 209.288C135.153 209.288 132.969 207.032 132.969 203.408C132.969 199.832 135.177 197.528 138.585 197.528C141.777 197.528 143.937 199.688 143.937 202.832ZM135.561 202.28H141.369C141.345 200.552 140.337 199.592 138.537 199.592C136.689 199.592 135.585 200.696 135.561 202.28ZM152.825 197.528C156.017 197.528 158.153 199.88 158.153 203.408C158.153 206.864 155.897 209.288 152.657 209.288C151.169 209.288 149.753 208.568 149.057 207.488V214.04H146.465V197.816H149.057V199.328C149.753 198.248 151.241 197.528 152.825 197.528ZM152.273 206.96C154.193 206.96 155.537 205.496 155.537 203.408C155.537 201.32 154.193 199.856 152.273 199.856C150.305 199.856 148.961 201.296 148.961 203.408C148.961 205.52 150.305 206.96 152.273 206.96ZM172.02 209H169.284V197.768H165.828V195.464C168.876 195.464 169.524 194.696 169.524 192.68H172.02V209Z" fill="#212121"/>
<defs>
<filter id="filter0_dd_5023_3175" x="298" y="52.4977" width="217.277" height="225.5" filterUnits="userSpaceOnUse" color-interpolation-filters="sRGB">
<feFlood flood-opacity="0" result="BackgroundImageFix"/>
<feColorMatrix in="SourceAlpha" type="matrix" values="0 0 0 0 0 0 0 0 0 0 0 0 0 0 0 0 0 0 127 0" result="hardAlpha"/>
<feOffset dx="1" dy="2"/>
<feGaussianBlur stdDeviation="2.5"/>
<feColorMatrix type="matrix" values="0 0 0 0 0.552941 0 0 0 0 0.556863 0 0 0 0 0.647059 0 0 0 0.1 0"/>
<feBlend mode="normal" in2="BackgroundImageFix" result="effect1_dropShadow_5023_3175"/>
<feColorMatrix in="SourceAlpha" type="matrix" values="0 0 0 0 0 0 0 0 0 0 0 0 0 0 0 0 0 0 127 0" result="hardAlpha"/>
<feOffset dx="9" dy="18"/>
<feGaussianBlur stdDeviation="6"/>
<feColorMatrix type="matrix" values="0 0 0 0 0.552941 0 0 0 0 0.556863 0 0 0 0 0.647059 0 0 0 0.05 0"/>
<feBlend mode="normal" in2="effect1_dropShadow_5023_3175" result="effect2_dropShadow_5023_3175"/>
<feBlend mode="normal" in="SourceGraphic" in2="effect2_dropShadow_5023_3175" result="shape"/>
</filter>
<filter id="filter1_dd_5023_3175" x="567.546" y="52.4977" width="217.277" height="225.5" filterUnits="userSpaceOnUse" color-interpolation-filters="sRGB">
<feFlood flood-opacity="0" result="BackgroundImageFix"/>
<feColorMatrix in="SourceAlpha" type="matrix" values="0 0 0 0 0 0 0 0 0 0 0 0 0 0 0 0 0 0 127 0" result="hardAlpha"/>
<feOffset dx="1" dy="2"/>
<feGaussianBlur stdDeviation="2.5"/>
<feColorMatrix type="matrix" values="0 0 0 0 0.552941 0 0 0 0 0.556863 0 0 0 0 0.647059 0 0 0 0.1 0"/>
<feBlend mode="normal" in2="BackgroundImageFix" result="effect1_dropShadow_5023_3175"/>
<feColorMatrix in="SourceAlpha" type="matrix" values="0 0 0 0 0 0 0 0 0 0 0 0 0 0 0 0 0 0 127 0" result="hardAlpha"/>
<feOffset dx="9" dy="18"/>
<feGaussianBlur stdDeviation="6"/>
<feColorMatrix type="matrix" values="0 0 0 0 0.552941 0 0 0 0 0.556863 0 0 0 0 0.647059 0 0 0 0.05 0"/>
<feBlend mode="normal" in2="effect1_dropShadow_5023_3175" result="effect2_dropShadow_5023_3175"/>
<feBlend mode="normal" in="SourceGraphic" in2="effect2_dropShadow_5023_3175" result="shape"/>
</filter>
<filter id="filter2_dd_5023_3175" x="42" y="52.4977" width="217.277" height="225.5" filterUnits="userSpaceOnUse" color-interpolation-filters="sRGB">
<feFlood flood-opacity="0" result="BackgroundImageFix"/>
<feColorMatrix in="SourceAlpha" type="matrix" values="0 0 0 0 0 0 0 0 0 0 0 0 0 0 0 0 0 0 127 0" result="hardAlpha"/>
<feOffset dx="1" dy="2"/>
<feGaussianBlur stdDeviation="2.5"/>
<feColorMatrix type="matrix" values="0 0 0 0 0.552941 0 0 0 0 0.556863 0 0 0 0 0.647059 0 0 0 0.1 0"/>
<feBlend mode="normal" in2="BackgroundImageFix" result="effect1_dropShadow_5023_3175"/>
<feColorMatrix in="SourceAlpha" type="matrix" values="0 0 0 0 0 0 0 0 0 0 0 0 0 0 0 0 0 0 127 0" result="hardAlpha"/>
<feOffset dx="9" dy="18"/>
<feGaussianBlur stdDeviation="6"/>
<feColorMatrix type="matrix" values="0 0 0 0 0.552941 0 0 0 0 0.556863 0 0 0 0 0.647059 0 0 0 0.05 0"/>
<feBlend mode="normal" in2="effect1_dropShadow_5023_3175" result="effect2_dropShadow_5023_3175"/>
<feBlend mode="normal" in="SourceGraphic" in2="effect2_dropShadow_5023_3175" result="shape"/>
</filter>
<linearGradient id="paint0_linear_5023_3175" x1="466.578" y1="83.3204" x2="329.91" y2="219.977" gradientUnits="userSpaceOnUse">
<stop stop-color="white"/>
<stop offset="1" stop-color="#E6E7E8"/>
</linearGradient>
<linearGradient id="paint1_linear_5023_3175" x1="736.125" y1="83.3204" x2="599.456" y2="219.977" gradientUnits="userSpaceOnUse">
<stop stop-color="white"/>
<stop offset="1" stop-color="#E6E7E8"/>
</linearGradient>
<linearGradient id="paint2_linear_5023_3175" x1="2" y1="150.664" x2="661.288" y2="150.664" gradientUnits="userSpaceOnUse">
<stop stop-color="#ED8406"/>
<stop offset="1" stop-color="#EA231C"/>
</linearGradient>
<linearGradient id="paint3_linear_5023_3175" x1="210.578" y1="83.3204" x2="73.9096" y2="219.977" gradientUnits="userSpaceOnUse">
<stop stop-color="white"/>
<stop offset="1" stop-color="#E6E7E8"/>
</linearGradient>
<clipPath id="clip0_5023_3175">
<rect width="64" height="64" fill="white" transform="translate(366 110)"/>
</clipPath>
</defs>
</svg>
