<svg width="86" height="38" viewBox="0 0 86 38" fill="none" xmlns="http://www.w3.org/2000/svg">
<path d="M37.9379 0.149001L38.6334 0.0946039C19.9612 4.42273 8.8756 18.4785 8.8756 20.3091V20.3162C8.8756 20.3162 8.88272 20.2452 8.89221 20.6V20.6473H8.89934C9.27914 22.6411 14.7935 32.2765 36.1267 38C11.6767 36.0677 0.567336 24.2186 0.0213641 20.749L0.0142427 20.6378H0.00712137C0.00712137 20.276 0 20.3469 0 20.3706L0.00712137 20.2689C0.299097 16.7047 15.2611 2.04108 37.9379 0.149001ZM45.7002 0C71.0926 1.31736 85.8647 16.3594 86 20.5692V20.5621C86 20.5456 85.9929 20.5621 85.9929 20.8223V20.8696H85.9763C85.7792 22.9816 77.7084 31.5764 65.6329 35.5332C50.875 40.3651 27.13 38.6078 27.13 20.1766C27.13 11.5275 34.2039 4.48895 42.892 4.48895C51.5801 4.48895 58.6943 11.5606 58.6943 20.2168C58.6943 24.4338 56.8665 28.5183 54.0963 31.4037C56.6837 31.3564 66.1005 30.6706 74.969 23.3861C75.9494 22.4329 76.5761 21.6359 76.8372 21.1463C76.9084 21.021 77.0105 20.7916 76.9962 20.5787C77.0033 18.6866 66.8055 4.14838 45.7026 0.0023651L45.7002 0ZM42.8754 11.2508C37.9308 11.2508 33.9262 15.2407 33.9262 20.1672C33.9262 25.0937 37.9308 29.0836 42.8754 29.0836C47.82 29.0836 51.8246 25.0937 51.8246 20.1672C51.8246 15.2478 47.82 11.2508 42.8754 11.2508Z" fill="black"/>
</svg>
