<svg width="195" height="42" viewBox="0 0 195 42" fill="none" xmlns="http://www.w3.org/2000/svg">
<path d="M29.2294 35.6726C30.3361 35.7052 32.3682 35.4032 33.4114 35.0081C33.368 35.098 33.3234 35.1874 33.2777 35.2763C33.2321 35.3652 33.1854 35.4534 33.1375 35.5412C33.0899 35.6289 33.041 35.7161 32.9909 35.8026C32.941 35.8891 32.8899 35.9751 32.8379 36.0605C32.786 36.1458 32.7329 36.2305 32.6787 36.3144C32.6245 36.3984 32.5695 36.4818 32.5133 36.5644C32.4571 36.6471 32.4001 36.7291 32.3418 36.8104C32.2837 36.8916 32.2245 36.9722 32.1645 37.0521C32.1044 37.132 32.0434 37.211 31.9812 37.2893C31.9192 37.3677 31.8562 37.4452 31.7922 37.522C31.7283 37.5988 31.6634 37.6748 31.5975 37.75C31.5318 37.8253 31.465 37.8996 31.3974 37.9732C31.3298 38.0467 31.2613 38.1195 31.1918 38.1914C31.1225 38.2632 31.0521 38.3342 30.9811 38.4046C30.9099 38.4748 30.838 38.5441 30.7651 38.6126C30.6923 38.681 30.6187 38.7485 30.5442 38.8151C30.4698 38.8817 30.3945 38.9474 30.3184 39.0121C30.2423 39.0768 30.1654 39.1407 30.0878 39.2037C30.0101 39.2666 29.9318 39.3286 29.8526 39.3896C29.7734 39.4505 29.6935 39.5105 29.6129 39.5696C29.5324 39.6287 29.451 39.6866 29.369 39.7436C29.2869 39.8007 29.2042 39.8567 29.1209 39.9118C29.0374 39.9668 28.9534 40.0208 28.8686 40.0737C28.784 40.1267 28.6985 40.1786 28.6125 40.2294C28.5265 40.2803 28.4399 40.3301 28.3527 40.3789C28.2655 40.4277 28.1776 40.4753 28.0894 40.522C28.001 40.5687 27.9121 40.6142 27.8225 40.6586C27.7329 40.7031 27.643 40.7463 27.5524 40.7886C27.4618 40.8308 27.3708 40.872 27.2792 40.9121C27.1876 40.9521 27.0956 40.9909 27.0031 41.0287C26.9106 41.0665 26.8176 41.1032 26.7241 41.1386C26.6308 41.174 26.5369 41.2084 26.4426 41.2416C26.1576 41.3414 25.8695 41.4314 25.5782 41.5114C25.2871 41.5915 24.9935 41.6613 24.6975 41.7212C24.4015 41.781 24.1037 41.8308 23.8045 41.8701C23.5051 41.9094 23.2048 41.9386 22.9033 41.9573C23.1918 41.6812 24.2988 41.1854 24.7452 40.8935C26.6819 39.6272 28.2034 37.7308 29.2289 35.6725L29.2294 35.6726Z" fill="#DC4F13"/>
<path d="M10.4014 6.8973C10.8801 5.78545 11.6607 4.78226 12.5002 3.9172C14.9803 1.36205 18.3405 0.0558651 21.8716 0C21.5519 0.32395 20.5671 0.580453 20.1073 0.82367C18.1171 1.87642 16.4854 3.40948 15.1818 5.23106C14.9256 5.5889 14.6209 5.97008 14.4303 6.36692L14.3966 6.37357C13.035 6.38532 11.7214 6.57148 10.4014 6.89747V6.8973Z" fill="#FFD877"/>
<path d="M0 20.9146C0.0822648 18.4418 0.485414 16.382 1.64751 14.1704C1.70269 14.0632 1.75924 13.957 1.81715 13.8514C1.87506 13.7458 1.93416 13.6408 1.99462 13.5366C2.05509 13.4324 2.11674 13.329 2.17976 13.2265C2.24278 13.1237 2.30716 13.0219 2.37274 12.9209C2.43831 12.8199 2.50507 12.7196 2.5732 12.6203C2.64116 12.5208 2.71048 12.4224 2.78099 12.3246C2.85151 12.227 2.92321 12.1301 2.99611 12.0342C3.06901 11.9383 3.1431 11.8433 3.21838 11.7493C3.29366 11.6552 3.36996 11.5621 3.44763 11.4699C3.52512 11.3778 3.60398 11.2867 3.68386 11.1964C3.76374 11.1063 3.84465 11.0171 3.92674 10.9288C4.00884 10.8406 4.09195 10.7536 4.17609 10.6674C4.26023 10.5814 4.34556 10.4962 4.43191 10.4122C4.51826 10.3283 4.60564 10.2453 4.69404 10.1636C4.78243 10.0818 4.87185 10.0011 4.96229 9.92138C5.05273 9.84184 5.14402 9.76332 5.23651 9.686C5.32882 9.60867 5.42216 9.53254 5.51634 9.45743C5.61053 9.38249 5.70574 9.30857 5.8018 9.23601C5.89786 9.16328 5.99477 9.09192 6.09271 9.02158C6.19047 8.9514 6.28926 8.88225 6.38872 8.81447C6.48836 8.74668 6.58868 8.68008 6.68985 8.61485C6.79102 8.54945 6.89304 8.48541 6.99592 8.42273C7.09879 8.36005 7.20235 8.29857 7.30675 8.23827C7.41099 8.17815 7.51608 8.11922 7.62185 8.06165C7.72761 8.00408 7.83424 7.94788 7.94137 7.89286C8.0485 7.83785 8.15648 7.78437 8.26498 7.73208C8.37347 7.67979 8.48265 7.62887 8.5925 7.57947C8.70236 7.52991 8.81273 7.48171 8.92378 7.43504C9.03483 7.3882 9.14639 7.3429 9.25846 7.29878C9.37053 7.25467 9.48328 7.21209 9.59637 7.17087C9.70947 7.12966 9.82324 7.0898 9.93735 7.05148C10.0515 7.01299 10.1661 6.97603 10.2812 6.94043L10.3226 6.99783C10.269 7.30577 10.0631 7.70313 9.95728 8.0126C9.88353 8.22584 9.81779 8.44147 9.76022 8.65948C9.70265 8.87749 9.65343 9.09754 9.61238 9.31947C9.57133 9.54122 9.5388 9.76435 9.51462 9.98866C9.49043 10.213 9.47476 10.4378 9.46744 10.6633L9.42554 10.7004C6.87806 12.0458 4.71771 14.1038 3.44644 16.7124L3.39023 16.7078C3.08485 17.043 2.81693 17.4335 2.53062 17.7878C1.981 18.4679 1.41724 19.1379 0.876981 19.8255C0.622862 20.149 0.314412 20.6776 0 20.9146Z" fill="#EA231C"/>
<path d="M0 20.9143C0.314412 20.6774 0.622862 20.1486 0.87681 19.8255C1.41707 19.1379 1.98083 18.4679 2.53045 17.7878C2.81659 17.4335 3.08468 17.0431 3.39006 16.7078L3.44627 16.7124C2.43814 19.4622 2.32266 22.4895 3.56532 25.1916C4.63868 27.5253 6.83428 29.716 9.24194 30.6793L9.26374 30.7068C9.27208 30.9524 9.2886 31.1974 9.31296 31.442C9.33731 31.6866 9.36985 31.93 9.41021 32.1725C9.45058 32.4149 9.49878 32.6557 9.55499 32.895C9.61102 33.1343 9.67506 33.3716 9.7466 33.6066C9.86361 33.9875 10.1307 34.4117 10.1685 34.8007C7.92485 34.2201 5.78613 32.8032 4.17745 31.1583C4.09468 31.0738 4.01309 30.9885 3.93253 30.9019C3.85197 30.8156 3.77226 30.7282 3.69374 30.6398C3.61522 30.5514 3.53773 30.4622 3.46143 30.3721C3.38512 30.2818 3.30984 30.1907 3.23575 30.0987C3.16166 30.0067 3.08859 29.9137 3.01672 29.8199C2.94484 29.726 2.87399 29.6313 2.8045 29.5358C2.73484 29.4402 2.66654 29.344 2.59926 29.2468C2.53199 29.1495 2.4659 29.0516 2.40101 28.9528C2.33612 28.854 2.27242 28.7545 2.21008 28.6542C2.14757 28.5539 2.08643 28.4527 2.0263 28.351C1.96635 28.2492 1.90759 28.1467 1.85002 28.0435C1.79245 27.9402 1.73625 27.8363 1.68123 27.7318C1.62622 27.6272 1.57257 27.5219 1.52011 27.416C1.46765 27.3101 1.41656 27.2036 1.36665 27.0965C1.31675 26.9893 1.26821 26.8815 1.22103 26.7732C1.17368 26.6649 1.12786 26.556 1.08324 26.4465C1.03861 26.3372 0.995354 26.2272 0.953455 26.1166C0.911556 26.0061 0.870849 25.8952 0.831505 25.7836C0.792331 25.6722 0.75435 25.5602 0.717731 25.4479C0.681112 25.3355 0.646026 25.2228 0.612132 25.1095C0.578409 24.9962 0.545877 24.8826 0.514879 24.7687C0.483881 24.6546 0.454075 24.5403 0.425801 24.4255C0.397528 24.3107 0.370618 24.1957 0.34507 24.0803C0.319521 23.9648 0.295506 23.8491 0.272683 23.7331C0.250031 23.6172 0.228741 23.501 0.208813 23.3845C0.188886 23.268 0.170491 23.1513 0.153459 23.0343C0.136427 22.9173 0.120757 22.8003 0.106621 22.683C0.0923138 22.5656 0.0795397 22.4481 0.0682986 22.3304C0.0568871 22.2127 0.0470085 22.095 0.0384925 21.9771C0.0299764 21.8593 0.022823 21.7412 0.0172024 21.6232C0.0115818 21.5052 0.00732379 21.387 0.00459866 21.2689C0.00187353 21.1509 0.000510962 21.0327 0.000510962 20.9145L0 20.9143Z" fill="#EA231C"/>
<path d="M33.3369 6.97024C37.0516 8.07068 40.0501 10.5228 41.8986 13.9289C43.7214 17.2877 44.0862 21.5216 43.0023 25.1724C41.9241 28.8036 39.2366 32.1251 35.9069 33.9223C35.151 34.3302 34.2967 34.7534 33.4623 34.9672C33.9497 33.762 34.2616 32.6169 34.3702 31.3189L34.3912 31.2499C36.8821 29.9386 39.0553 28.1017 40.2085 25.4727C41.3619 22.8431 41.3275 19.8381 40.2901 17.1769C40.2562 17.0919 40.2213 17.0074 40.1855 16.9233C40.1496 16.8391 40.1126 16.7555 40.0746 16.6722C40.0366 16.5889 39.9976 16.5063 39.9576 16.4241C39.9176 16.3418 39.8765 16.26 39.8346 16.1788C39.7926 16.0975 39.7497 16.0168 39.7057 15.9366C39.6618 15.8564 39.6168 15.7767 39.5708 15.6976C39.5248 15.6186 39.478 15.5401 39.4301 15.4621C39.3823 15.3841 39.3336 15.3067 39.2838 15.2301C39.2341 15.1533 39.1833 15.0772 39.1317 15.0017C39.0801 14.9263 39.0275 14.8513 38.9742 14.7771C38.9207 14.7028 38.8664 14.6292 38.8112 14.5563C38.756 14.4834 38.6998 14.4112 38.6427 14.3398C38.5857 14.2683 38.5278 14.1975 38.469 14.1274C38.4103 14.0573 38.3506 13.988 38.2902 13.9193C38.2297 13.8507 38.1684 13.7829 38.1062 13.7156C38.0441 13.6485 37.9812 13.5821 37.9173 13.5165C37.8536 13.4509 37.7891 13.386 37.7237 13.3222C37.6583 13.2581 37.5922 13.1949 37.5253 13.1326C37.4583 13.0703 37.3907 13.0086 37.3224 12.948C37.2539 12.8872 37.185 12.8274 37.115 12.7683C37.0451 12.7092 36.9746 12.6511 36.9033 12.5937C36.8319 12.5365 36.76 12.4799 36.6873 12.4244C36.6146 12.3689 36.5413 12.3142 36.4672 12.2604C36.3931 12.2067 36.3185 12.1538 36.2433 12.102C36.168 12.05 36.092 11.9991 36.0154 11.949C35.9389 11.899 35.8617 11.8499 35.7839 11.8017C35.7062 11.7535 35.6279 11.7063 35.5489 11.66C35.47 11.6139 35.3905 11.5686 35.3104 11.5243C35.2304 11.48 35.1498 11.4367 35.0687 11.3943C34.9877 11.3521 34.9061 11.3107 34.824 11.2703C34.7419 11.23 34.6593 11.1906 34.5762 11.1523C34.4931 11.114 34.4096 11.0767 34.3256 11.0404L34.3132 11.0188C34.2386 9.95919 34.0482 8.98547 33.7171 7.9753C33.612 7.65459 33.4446 7.34903 33.3522 7.02542L33.3369 6.96973V6.97024Z" fill="#F4715A"/>
<path d="M34.326 11.0407C34.4099 11.077 34.4934 11.1143 34.5765 11.1526C34.6596 11.1909 34.7422 11.2303 34.8243 11.2706C34.9064 11.311 34.988 11.3522 35.0691 11.3946C35.1502 11.4369 35.2307 11.4803 35.3108 11.5246C35.3908 11.5689 35.4704 11.6142 35.5492 11.6603C35.6281 11.7067 35.7064 11.7538 35.7843 11.802C35.8621 11.8502 35.9391 11.8993 36.0157 11.9494C36.0922 11.9994 36.1682 12.0504 36.2436 12.1023C36.3189 12.1543 36.3937 12.2071 36.4676 12.2607C36.5415 12.3145 36.6149 12.369 36.6876 12.4246C36.7604 12.4801 36.8322 12.5366 36.9036 12.5938C36.9748 12.6511 37.0455 12.7093 37.1153 12.7684C37.1852 12.8275 37.2543 12.8873 37.3228 12.9481C37.3912 13.0089 37.4589 13.0704 37.5256 13.1327C37.5926 13.1951 37.6586 13.2583 37.724 13.3223C37.7894 13.3864 37.8538 13.4511 37.9177 13.5166C37.9814 13.5822 38.0444 13.6485 38.1066 13.7158C38.1688 13.7829 38.2301 13.8508 38.2905 13.9195C38.351 13.9881 38.4106 14.0574 38.4694 14.1276C38.5281 14.1976 38.586 14.2684 38.6431 14.34C38.7002 14.4115 38.7564 14.4837 38.8115 14.5565C38.8667 14.6294 38.9212 14.7029 38.9745 14.7772C39.028 14.8514 39.0805 14.9262 39.1321 15.0018C39.1837 15.0773 39.2344 15.1534 39.2842 15.2302C39.3339 15.3071 39.3826 15.3844 39.4305 15.4622C39.4783 15.5402 39.5252 15.6187 39.5712 15.6978C39.6172 15.777 39.6621 15.8565 39.7061 15.9367C39.75 16.017 39.7931 16.0977 39.835 16.1789C39.8771 16.2602 39.9179 16.3419 39.958 16.4242C39.998 16.5065 40.037 16.5892 40.075 16.6723C40.113 16.7556 40.1499 16.8393 40.1859 16.9234C40.2218 17.0075 40.2567 17.092 40.2904 17.177C41.3279 19.8383 41.3623 22.8432 40.2088 25.4728C39.0556 28.1019 36.8825 29.9386 34.3916 31.2501L34.3958 30.8655C34.4208 27.2516 33.1702 24.1217 30.6237 21.5381L30.5445 21.4769C30.4582 21.2882 30.3783 21.0944 30.2676 20.9183L30.3376 20.8609L30.4497 20.7738C30.5329 20.6953 30.6142 20.6149 30.6936 20.5327C32.612 18.537 33.9278 15.8569 34.2563 13.1065C34.3388 12.4164 34.3381 11.7346 34.3261 11.0405L34.326 11.0407Z" fill="url(#paint0_linear_822_9972)"/>
<path d="M21.872 0C22.8339 0.00681282 23.763 0.0820945 24.7104 0.25514C24.8069 0.273024 24.9032 0.2921 24.9992 0.312538C25.0953 0.332806 25.191 0.354267 25.2866 0.376919C25.3821 0.399572 25.4773 0.423417 25.5722 0.448454C25.6672 0.473491 25.7618 0.49955 25.8559 0.526972C25.9503 0.554223 26.0441 0.582837 26.1378 0.612473C26.2313 0.642109 26.3247 0.672766 26.4175 0.704787C26.5103 0.736636 26.6028 0.769849 26.6948 0.803913C26.7867 0.838148 26.8784 0.873404 26.9695 0.909852C27.0606 0.946301 27.1514 0.983772 27.2417 1.02243C27.3319 1.0611 27.4217 1.10095 27.5108 1.14183C27.6 1.18271 27.6888 1.2246 27.777 1.2677C27.8652 1.31079 27.9529 1.3549 28.0401 1.40004C28.1272 1.44534 28.2139 1.4915 28.2999 1.53885C28.3859 1.5862 28.4712 1.63457 28.556 1.68396C28.6408 1.73335 28.725 1.78394 28.8086 1.83537C28.8922 1.88698 28.975 1.93944 29.0575 1.99292C29.1397 2.0464 29.2213 2.10107 29.3022 2.1566C29.3831 2.21212 29.4633 2.26867 29.5429 2.32624C29.6224 2.38381 29.7013 2.44223 29.7793 2.50167C29.8575 2.56111 29.9348 2.62157 30.0114 2.68289C30.0881 2.7442 30.1639 2.80654 30.239 2.86973C30.3141 2.93292 30.3883 2.99713 30.4619 3.06219C30.5355 3.12726 30.6081 3.19317 30.6799 3.26011C30.7518 3.32687 30.8228 3.39466 30.8932 3.4633C30.9633 3.53194 31.0327 3.60143 31.1011 3.6716C31.1696 3.74194 31.2372 3.81297 31.304 3.88501C31.3707 3.95706 31.4367 4.02978 31.5016 4.10336C31.5666 4.17694 31.6307 4.25137 31.6937 4.32648C31.7569 4.40159 31.819 4.47756 31.8803 4.55437C31.9417 4.63102 32.002 4.70851 32.0612 4.78669C32.1207 4.86487 32.1791 4.94372 32.2365 5.02326C32.2939 5.1028 32.3504 5.1832 32.4058 5.2641C32.7171 5.72464 33.1957 6.45123 33.3368 6.96986L33.3521 7.02555C33.4444 7.34916 33.6118 7.65472 33.7169 7.97543C34.048 8.9856 34.2384 9.95916 34.313 11.0189C33.7212 10.7939 33.1342 10.5648 32.5189 10.4102C30.256 9.84112 27.7116 9.98845 25.5717 10.9482C25.4407 11.0058 25.3109 11.0661 25.1823 11.1287L25.1518 11.1173C24.9163 10.853 24.6289 10.6105 24.3632 10.3764C24.1459 10.1872 23.9238 10.0034 23.697 9.82562C23.4701 9.64764 23.239 9.47578 23.0032 9.30972C22.7675 9.14366 22.5279 8.9839 22.284 8.8301C22.0401 8.6763 21.7924 8.52897 21.541 8.38795C21.2896 8.24692 21.0347 8.11254 20.7765 7.98463C20.5181 7.85672 20.2566 7.73545 19.9921 7.62099C19.7276 7.50654 19.4602 7.3989 19.1901 7.29807C18.92 7.19741 18.6475 7.10356 18.3726 7.01687C17.5325 6.76053 16.6729 6.61099 15.8055 6.48359L15.7774 6.49398C15.3346 6.42739 14.8774 6.40065 14.4307 6.36692C14.6211 5.97008 14.926 5.5889 15.1821 5.23106C16.4858 3.40948 18.1174 1.87642 20.1076 0.82367C20.5675 0.580453 21.5521 0.323779 21.872 0Z" fill="#FFD877"/>
<path d="M21.8718 0C22.8338 0.00681282 23.7629 0.0820945 24.7102 0.25514C24.6622 0.337064 24.6152 0.335021 24.5278 0.357162C24.1977 0.44113 23.8634 0.495803 23.5365 0.595952C20.1015 1.64751 17.8716 3.61301 15.8055 6.48359L15.7774 6.49398C15.3346 6.42739 14.8774 6.40065 14.4307 6.36692C14.6211 5.97008 14.926 5.5889 15.1821 5.23106C16.4858 3.40948 18.1174 1.87642 20.1076 0.82367C20.5675 0.580452 21.5521 0.323779 21.872 0L21.8718 0Z" fill="#F8A335"/>
<path d="M9.26367 30.707C12.4444 32.0491 15.1704 32.0455 18.4131 30.9643L18.4405 30.9682C18.7345 31.2445 19.0302 31.5187 19.3279 31.7907L19.3565 31.7994C19.6491 32.1036 20.0097 32.3706 20.3478 32.6232C20.5721 32.7886 20.8005 32.948 21.033 33.1015C21.2657 33.255 21.5021 33.4021 21.7424 33.5431C21.9827 33.6842 22.2266 33.8189 22.4739 33.9471C22.7212 34.0754 22.9718 34.1972 23.2255 34.3123C23.4793 34.4274 23.7358 34.5359 23.9952 34.6378C24.2546 34.7395 24.5166 34.8343 24.7809 34.9224C25.0452 35.0104 25.3118 35.0915 25.5804 35.1656C25.849 35.2397 26.1194 35.3068 26.3914 35.3666C26.8021 35.4587 27.2425 35.5589 27.6629 35.5836L27.692 35.5846C28.2026 35.6444 28.715 35.6738 29.229 35.6728C28.2035 37.7311 26.682 39.6275 24.7453 40.8938C24.2989 41.1858 23.192 41.6816 22.9035 41.9577C22.6153 41.9805 22.3266 41.9941 22.0375 41.9984C21.7485 42.0028 21.4596 41.9978 21.1708 41.9839C20.8821 41.9697 20.5941 41.9466 20.3067 41.9142C20.0194 41.8819 19.7334 41.8403 19.4488 41.7895C18.9854 41.7567 18.4789 41.6092 18.0294 41.4818C15.1157 40.6557 12.2559 38.5782 10.7744 35.9148C10.5576 35.5522 10.3982 35.1542 10.1684 34.8008C10.1306 34.4118 9.86354 33.9875 9.74653 33.6067C9.67483 33.3716 9.61096 33.1344 9.55492 32.8951C9.49871 32.6558 9.45051 32.4149 9.41015 32.1726C9.36978 31.9302 9.33742 31.6866 9.31289 31.4421C9.28854 31.1975 9.27202 30.9524 9.26367 30.7068V30.707Z" fill="#DC4F13"/>
<path d="M27.6633 35.5837L27.6924 35.5848C28.203 35.6445 28.7153 35.674 29.2294 35.673C28.2039 37.7313 26.6824 39.6277 24.7457 40.894C24.2993 41.1859 23.1924 41.6817 22.9038 41.9578C22.6156 41.9806 22.327 41.9943 22.0379 41.9985C21.7489 42.003 21.46 41.998 21.1712 41.984C20.8825 41.9699 20.5945 41.9467 20.3071 41.9144C20.0198 41.882 19.7338 41.8405 19.4492 41.7897C19.5732 41.6444 20.9279 41.1984 21.2533 41.0534C21.864 40.7812 22.4789 40.4762 23.051 40.1296C24.6358 39.1693 25.9345 37.8214 27.0901 36.3892C27.254 36.1862 27.603 35.8322 27.6634 35.5837H27.6633Z" fill="#EA231C"/>
<path d="M9.26367 30.7068C12.4444 32.0489 15.1704 32.0453 18.4131 30.9641L18.4405 30.9681C18.7345 31.2443 19.0302 31.5185 19.3279 31.7905C19.2724 31.9961 18.9326 32.2393 18.7774 32.3785C17.9909 33.0841 17.2178 33.6976 16.2979 34.2254C16.0661 34.3574 15.8302 34.4814 15.5902 34.5976C15.3502 34.7137 15.1065 34.8217 14.8592 34.9215C14.6119 35.0213 14.3615 35.1128 14.1083 35.1959C13.8548 35.2789 13.599 35.3535 13.3406 35.4194C12.8343 35.5509 12.3128 35.6335 11.7945 35.7033C11.5116 35.7415 11.2113 35.7593 10.9349 35.8256C10.8659 35.8423 10.8255 35.8636 10.7746 35.915C10.5578 35.5524 10.3983 35.1544 10.1686 34.801C10.1308 34.4119 9.86371 33.9877 9.7467 33.6068C9.675 33.3718 9.61113 33.1345 9.55509 32.8952C9.49888 32.6559 9.45068 32.4151 9.41032 32.1727C9.36995 31.9304 9.33759 31.6868 9.31306 31.4422C9.28871 31.1976 9.27219 30.9526 9.26384 30.707L9.26367 30.7068Z" fill="#EF6707"/>
<path d="M30.2668 20.9182C30.3775 21.0942 30.4576 21.288 30.5437 21.4769L30.6229 21.538C33.1694 24.1218 34.4202 27.2516 34.395 30.8654L34.3908 31.25L34.3698 31.319C34.2613 32.617 33.9493 33.7621 33.4619 34.9673L33.4109 35.0083C32.3677 35.4035 30.3356 35.7054 29.2289 35.6729C28.7148 35.6739 28.2025 35.6445 27.6919 35.5847L27.6628 35.5837C27.2424 35.559 26.802 35.4586 26.3913 35.3667C26.1192 35.3067 25.8489 35.2398 25.5803 35.1657C25.3117 35.0916 25.0451 35.0105 24.7808 34.9225C24.5164 34.8344 24.2545 34.7396 23.9951 34.6379C23.7357 34.5362 23.479 34.4277 23.2254 34.3124C22.9716 34.1973 22.7211 34.0755 22.4738 33.9472C22.2265 33.819 21.9826 33.6843 21.7423 33.5432C21.5019 33.4022 21.2655 33.2549 21.0329 33.1016C20.8002 32.9481 20.5718 32.7887 20.3477 32.6233C20.0096 32.3707 19.649 32.1037 19.3564 31.7995L19.3278 31.7908C19.0301 31.5188 18.7342 31.2446 18.4404 30.9683L18.5128 30.915C20.3317 30.1874 21.0269 29.5725 22.0448 27.9436C23.6192 25.2197 25.3241 23.4878 28.0993 21.9514C28.7036 21.6169 29.3355 21.3278 29.9527 21.0175L30.0742 20.9497C30.1333 20.9545 30.208 20.9298 30.267 20.9184L30.2668 20.9182Z" fill="url(#paint1_linear_822_9972)"/>
<path d="M30.2664 20.9182C30.3771 21.0942 30.4571 21.288 30.5433 21.4769C30.3056 21.36 30.1264 21.2161 29.9521 21.0175L30.0736 20.9497C30.1327 20.9545 30.2075 20.9298 30.2664 20.9184V20.9182Z" fill="#EA231C"/>
<path d="M18.4404 30.9681L18.5128 30.9148C18.8821 31.0805 19.2597 31.2393 19.6194 31.4246C22.1929 32.6774 24.6682 33.0503 27.5109 32.8917C28.0818 32.8599 28.7331 32.8484 29.2883 32.7139C28.8446 33.7321 28.2846 34.6487 27.6921 35.5845L27.6629 35.5835C27.2426 35.5588 26.8021 35.4584 26.3915 35.3665C26.1193 35.3065 25.849 35.2396 25.5804 35.1655C25.3118 35.0914 25.0453 35.0103 24.781 34.9223C24.5166 34.8342 24.2547 34.7393 23.9953 34.6377C23.7359 34.536 23.4792 34.4275 23.2256 34.3122C22.9718 34.197 22.7213 34.0753 22.474 33.947C22.2267 33.8188 21.9828 33.684 21.7424 33.543C21.5021 33.402 21.2657 33.2547 21.0331 33.1014C20.8004 32.9479 20.572 32.7885 20.3479 32.6231C20.0098 32.3705 19.6492 32.1035 19.3566 31.7993L19.328 31.7906C19.0303 31.5186 18.7344 31.2444 18.4406 30.9681H18.4404Z" fill="#811C19"/>
<path d="M30.6234 21.5381C33.1699 24.1218 34.4207 27.2517 34.3955 30.8655L34.3913 31.2501L34.3703 31.3191C34.2618 32.6171 33.9498 33.7622 33.4623 34.9674L33.4114 35.0084C32.3682 35.4035 30.3361 35.7055 29.2294 35.673C28.7153 35.674 28.203 35.6445 27.6924 35.5848C28.2849 34.649 28.8449 33.7322 29.2886 32.7142L29.3559 32.6714L29.3678 32.6362C29.7071 32.5783 30.0621 32.4705 30.4056 32.4585C30.4172 32.4582 30.4286 32.4582 30.4402 32.458C30.5396 32.3076 30.5483 32.0632 30.6255 31.8902C30.6297 31.8805 30.6345 31.8708 30.6389 31.8612C30.6057 31.7708 30.8397 31.0176 30.8767 30.857C31.0341 30.1635 31.1581 29.4638 31.2487 28.7585C31.4483 27.1285 31.2964 25.3647 31.0334 23.7512C30.951 23.2454 30.5805 21.8997 30.6234 21.5384V21.5381Z" fill="#811C19"/>
<path d="M29.3559 32.6711C29.7161 32.674 30.1436 32.551 30.4991 32.4851C30.3041 33.1691 30.0767 33.8327 29.789 34.484C29.6121 34.8846 29.4043 35.2719 29.2294 35.6727C28.7153 35.6737 28.203 35.6442 27.6924 35.5844C28.2849 34.6487 28.8449 33.7319 29.2886 32.7138L29.3559 32.6711Z" fill="#520000"/>
<path d="M3.44646 16.7127C4.71773 14.104 6.87825 12.046 9.42556 10.7007C9.42692 10.7109 9.42829 10.7211 9.42948 10.7312C9.46473 11.035 9.44583 11.3522 9.44838 11.6579C9.45281 12.1876 9.47785 12.7166 9.55909 13.2405C9.91523 15.5359 10.9159 17.5414 12.2638 19.4093C12.5329 19.7822 12.8362 20.2736 13.1895 20.5668C13.3201 20.6905 13.4768 20.8751 13.6361 20.9533L13.681 20.907L13.7391 20.9531C13.741 20.9705 13.7427 20.9877 13.7449 21.0051C13.7515 21.0574 13.7612 21.0988 13.7778 21.1483L13.8442 21.1696C13.9053 21.1657 13.9387 21.1773 13.9948 21.2009L14.0339 21.2561C16.615 22.4891 19.8264 24.9764 21.5234 27.296L21.9806 27.918L22.0453 27.9436C21.0276 29.5725 20.3322 30.1874 18.5134 30.915L18.441 30.9683L18.4135 30.9644C15.1708 32.0456 12.445 32.0493 9.2641 30.707L9.2423 30.6796C6.83464 29.7165 4.63904 27.5258 3.56568 25.1919C2.32302 22.4898 2.4385 19.4625 3.44663 16.7127H3.44646Z" fill="#DC4F13"/>
<path d="M13.8439 21.1692C13.905 21.1653 13.9384 21.1769 13.9944 21.2005L14.0336 21.2557C16.6147 22.4887 19.826 24.976 21.5231 27.2956L21.9803 27.9176L22.045 27.9432C21.0273 29.5721 20.3319 30.187 18.513 30.9146L18.4407 30.9679L18.4132 30.964C15.1705 32.0452 12.4447 32.0489 9.26379 30.7066L9.24198 30.6792C9.23636 30.2182 9.2614 29.7588 9.31727 29.3012C9.7102 25.939 11.2724 23.3505 13.9035 21.2675L13.8439 21.1692Z" fill="#F8A335"/>
<path d="M13.8438 21.1692C13.9049 21.1653 13.9383 21.1769 13.9943 21.2005L14.0335 21.2557C16.6145 22.4887 19.8259 24.976 21.523 27.2956L21.9801 27.9176L22.0449 27.9432C21.0272 29.5721 20.3318 30.187 18.5129 30.9146L18.4405 30.9679L18.4131 30.964C15.8939 28.2142 14.537 25.3223 13.9991 21.6332L13.9035 21.2675L13.8439 21.1692H13.8438Z" fill="#EA231C"/>
<path d="M13.8439 21.1692C13.9051 21.1653 13.9384 21.1769 13.9945 21.2005L14.0337 21.2557C14.0173 21.3709 13.9926 21.4681 14.0708 21.5672C14.0858 21.5862 14.105 21.6017 14.1198 21.6209C14.5664 22.2034 14.9006 22.8688 15.3531 23.4546C16.5736 25.0341 18.2011 26.3054 20.0904 26.9821C20.4229 27.1011 20.7613 27.2244 21.1091 27.2897C21.253 27.3168 21.3789 27.3227 21.523 27.2958L21.9801 27.9178C21.848 27.9762 21.6865 27.958 21.5451 27.9481C21.0469 27.9136 20.5445 27.7867 20.0668 27.6434C17.7465 26.9475 16.1044 25.3509 14.8866 23.3198C14.6373 22.9041 14.2868 21.9503 14.0183 21.6538C14.012 21.6468 14.0054 21.6403 13.9989 21.6335L13.9034 21.2678L13.8438 21.1695L13.8439 21.1692Z" fill="#EA231C"/>
<path d="M14.0336 21.2558C16.6146 22.4887 19.826 24.9761 21.5231 27.2957C21.379 27.3226 21.253 27.3166 21.1092 27.2896C20.7616 27.2243 20.423 27.101 20.0905 26.982C18.2012 26.3053 16.5738 25.034 15.3532 23.4545C14.9007 22.8687 14.5667 22.2033 14.12 21.6208C14.1051 21.6015 14.0859 21.586 14.0709 21.5671C13.9926 21.468 14.0172 21.3708 14.0338 21.2556L14.0336 21.2558Z" fill="#EA231C"/>
<path d="M14.4305 6.36711C14.8773 6.40084 15.3344 6.42741 15.7773 6.49417L15.8054 6.48378C16.6728 6.61118 17.5324 6.76072 18.3724 7.01706C18.6473 7.10375 18.9198 7.1976 19.19 7.29826C19.4601 7.39909 19.7275 7.50673 19.992 7.62118C20.2565 7.73564 20.518 7.85691 20.7763 7.98482C21.0347 8.11273 21.2895 8.24711 21.5409 8.38814C21.7923 8.52916 22.0399 8.67649 22.2838 8.83029C22.5277 8.98409 22.7674 9.14385 23.0031 9.30991C23.2387 9.47597 23.4699 9.648 23.6968 9.82581C23.9237 10.0038 24.1458 10.1874 24.3631 10.3766C24.6288 10.6107 24.9163 10.8532 25.1517 11.1175L25.1822 11.1289C25.3108 11.0663 25.4406 11.006 25.5715 10.9484C27.7114 9.98881 30.256 9.84148 32.5187 10.4104C33.1341 10.5652 33.721 10.7943 34.3129 11.0191L34.3253 11.0407C34.3373 11.7348 34.3379 12.4166 34.2555 13.1067C33.9269 15.857 32.6114 18.5372 30.6927 20.5328C30.6134 20.6151 30.5319 20.6955 30.4488 20.774L30.3368 20.8611L30.2668 20.9185C30.2078 20.93 30.1332 20.9546 30.074 20.9498L29.9525 21.0176C29.3353 21.3281 28.7034 21.6169 28.0991 21.9514C25.3239 23.4879 23.619 25.2197 22.0445 27.9437L21.9798 27.9181L21.5227 27.2961C19.8256 24.9765 16.6144 22.4891 14.0332 21.2562L13.994 21.201C13.938 21.1773 13.9047 21.1656 13.8434 21.1697L13.777 21.1484C13.7605 21.099 13.7508 21.0574 13.7441 21.0051C13.7419 20.9878 13.7404 20.9706 13.7383 20.9532L13.6803 20.907L13.6353 20.9534C13.476 20.8752 13.3194 20.6906 13.1887 20.5669C12.8353 20.2736 12.5321 19.7822 12.263 19.4094C10.9151 17.5417 9.91465 15.536 9.55834 13.2406C9.47709 12.7167 9.45206 12.1876 9.44763 11.658C9.44507 11.3522 9.46398 11.0351 9.42872 10.7312C9.42753 10.721 9.42617 10.7108 9.4248 10.7008L9.4667 10.6636C9.47403 10.4381 9.4897 10.2133 9.51388 9.98898C9.53807 9.76467 9.57077 9.54155 9.61165 9.31979C9.65269 9.09786 9.70192 8.87798 9.75948 8.6598C9.81705 8.44162 9.8828 8.22599 9.95655 8.01292C10.0621 7.70362 10.2682 7.30609 10.3219 6.99815L10.2805 6.94075L10.4013 6.89749C11.7212 6.5715 13.0349 6.38534 14.3965 6.37359L14.4302 6.36694L14.4305 6.36711Z" fill="#EF6707"/>
<path d="M14.4303 6.36711C14.877 6.40084 15.3342 6.42741 15.777 6.49417C15.233 7.35054 14.7137 8.21237 14.3238 9.15151L14.3037 9.15492C14.2738 9.22152 14.2429 9.28573 14.2072 9.34926C14.2075 9.33512 14.208 9.32115 14.2082 9.30702C14.2089 9.2549 14.2119 9.27517 14.2015 9.23633C13.9563 9.26018 13.3082 9.3593 13.1106 9.47597L13.079 9.44191C12.2478 9.36544 10.2772 10.364 9.4668 10.6636C9.47412 10.4381 9.48979 10.2133 9.51398 9.98898C9.53816 9.76467 9.57086 9.54155 9.61174 9.31979C9.65279 9.09786 9.70201 8.87798 9.75958 8.6598C9.81715 8.44162 9.88289 8.22599 9.95664 8.01292C10.0622 7.70362 10.2683 7.30609 10.322 6.99815L10.2806 6.94075L10.4013 6.89749C11.7213 6.5715 13.035 6.38534 14.3966 6.37359L14.4303 6.36694V6.36711Z" fill="#DC4F13"/>
<path d="M14.431 6.36694C14.8777 6.40067 15.3349 6.42724 15.7777 6.494C15.2337 7.35037 14.7144 8.2122 14.3245 9.15134L14.3044 9.15475C13.8997 9.21096 13.499 9.30838 13.0967 9.38094C13.2418 8.80372 14.0343 6.74659 14.3972 6.37359L14.431 6.36694Z" fill="#EA231C"/>
<path d="M15.7776 6.49379L15.8057 6.4834C16.6731 6.6108 17.5327 6.76034 18.3727 7.01667C18.6476 7.10337 18.9201 7.19721 19.1903 7.29787C19.4604 7.3987 19.7278 7.50634 19.9923 7.6208C20.2568 7.73525 20.5183 7.85652 20.7766 7.98443C21.035 8.11234 21.2898 8.24673 21.5412 8.38775C21.7926 8.52878 22.0403 8.67611 22.2842 8.8299C22.528 8.9837 22.7677 9.14346 23.0034 9.30953C23.239 9.47559 23.4703 9.64761 23.6971 9.82543C23.924 10.0034 24.1461 10.187 24.3634 10.3762C24.6291 10.6103 24.9166 10.8528 25.152 11.1171L24.6458 11.3788C24.5649 11.3125 24.4811 11.2502 24.3946 11.1914C22.8593 10.1269 20.847 9.45362 19.0106 9.17106C18.5836 9.10531 18.1559 9.09782 17.7271 9.05796C16.6266 8.95577 15.4138 8.95219 14.3242 9.1513C14.7143 8.21232 15.2336 7.3505 15.7774 6.49396L15.7776 6.49379Z" fill="url(#paint2_linear_822_9972)"/>
<path d="M21.8594 13.6371C21.8737 13.5156 21.8919 13.4284 21.9461 13.3184C21.981 13.2916 21.9951 13.2644 22.0404 13.2707C22.4332 13.3252 22.8459 13.5091 23.2117 13.658C24.9766 14.3757 26.5388 15.4264 27.8155 16.8473C28.0083 17.0617 28.2316 17.2836 28.397 17.5188C29.1215 18.5486 29.8936 19.6705 30.3373 20.8612L30.2673 20.9186C30.2083 20.9302 30.1337 20.9547 30.0744 20.9499C29.6546 20.7491 29.2196 20.5746 28.8079 20.3581C25.7689 18.7596 23.4692 16.6889 21.8594 13.6372V13.6371Z" fill="#F8A335"/>
<path d="M25.1826 11.1283C25.3112 11.0657 25.441 11.0054 25.572 10.9478C27.7119 9.98821 30.2565 9.84089 32.5192 10.4098C33.1345 10.5646 33.7215 10.7937 34.3133 11.0185L34.3258 11.0401C34.3377 11.7342 34.3384 12.416 34.2559 13.1061C33.9274 15.8564 32.6118 18.5366 30.6932 20.5323C30.6138 20.6145 30.5324 20.6949 30.4493 20.7734C30.3856 18.3992 28.7178 15.2796 27.2973 13.4393C26.6561 12.6083 25.9312 11.8617 25.1828 11.1283H25.1826Z" fill="#F8A335"/>
<path d="M21.859 13.637C23.4689 16.6886 25.7686 18.7594 28.8076 20.3578C29.2194 20.5743 29.6543 20.7489 30.0741 20.9497L29.9527 21.0175C29.3354 21.328 28.7035 21.6168 28.0992 21.9513C25.324 23.4878 23.6191 25.2196 22.0447 27.9436L21.98 27.918L21.5228 27.296C19.8257 24.9764 16.6145 22.489 14.0333 21.2561L13.9941 21.2009C14.0626 21.0927 15.5207 20.2539 15.7539 20.1073C17.8395 18.7938 19.6907 17.2219 21.0505 15.1462C21.3568 14.6788 21.6763 14.1651 21.859 13.637Z" fill="white"/>
<path d="M65.2304 16.44C65.2304 17.97 64.5704 19.65 62.5004 20.46C65.0504 21.09 66.3404 23.46 66.3404 25.29C66.3404 28.65 63.9404 31.5 59.9204 31.5H51.1904V10.83H59.2904C62.9204 10.83 65.2304 12.96 65.2304 16.44ZM55.0304 19.14H59.0204C60.4304 19.14 61.2404 18.06 61.2404 16.65C61.2404 15.18 60.4304 14.25 58.9004 14.25H55.0304V19.14ZM59.6204 22.35H55.0304V28.08H59.7104C61.3904 28.08 62.3204 26.67 62.3204 25.23C62.3204 23.88 61.3904 22.35 59.6204 22.35ZM70.204 31.5V10.83H82.984V14.25H74.014V19.62H81.874V23.01H74.014V28.08H83.284V31.5H70.204ZM85.632 14.34V10.83H101.142V14.34H95.322V31.5H91.452V14.34H85.632Z" fill="#212121"/>
<path d="M118.562 25.38L121.592 27.6C119.792 30.15 116.792 31.8 113.192 31.8C107.312 31.8 102.782 27.03 102.782 21.21C102.782 15.36 107.312 10.59 113.192 10.59C116.702 10.59 119.702 12.15 121.502 14.67L118.442 16.86C117.242 15.3 115.382 14.22 113.192 14.22C109.442 14.22 106.622 17.37 106.622 21.21C106.622 25.08 109.442 28.17 113.192 28.17C115.442 28.17 117.362 27.06 118.562 25.38ZM132.943 14.25H128.683V20.73H132.823C134.863 20.73 135.733 19.05 135.733 17.52C135.733 16.02 134.863 14.25 132.943 14.25ZM134.473 24L139.753 31.5H135.133L130.273 24.15H128.683V31.5H124.843V10.83H133.123C137.683 10.83 139.723 14.16 139.723 17.52C139.723 20.46 138.163 23.43 134.473 24ZM156.758 31.5L154.868 26.49H147.158L145.268 31.5H141.188L148.928 10.83H153.068L160.808 31.5H156.758ZM150.998 15.24L148.448 23.13H153.608L150.998 15.24ZM163.397 31.5V10.83H176.027V14.25H167.237V19.62H174.197V23.04H167.237V31.5H163.397ZM177.683 14.34V10.83H193.193V14.34H187.373V31.5H183.503V14.34H177.683Z" fill="#EA231C"/>
<defs>
<linearGradient id="paint0_linear_822_9972" x1="40.3929" y1="17.1255" x2="29.7133" y2="24.4406" gradientUnits="userSpaceOnUse">
<stop stop-color="#DB1311"/>
<stop offset="1" stop-color="#E75130"/>
</linearGradient>
<linearGradient id="paint1_linear_822_9972" x1="28.5923" y1="20.9205" x2="25.9583" y2="33.2617" gradientUnits="userSpaceOnUse">
<stop stop-color="#590000"/>
<stop offset="1" stop-color="#871B1F"/>
</linearGradient>
<linearGradient id="paint2_linear_822_9972" x1="17.8182" y1="5.78555" x2="20.832" y2="12.9568" gradientUnits="userSpaceOnUse">
<stop stop-color="#F86203"/>
<stop offset="1" stop-color="#E63007"/>
</linearGradient>
</defs>
</svg>
