<svg width="65" height="93" viewBox="0 0 65 93" fill="none" xmlns="http://www.w3.org/2000/svg">
<rect x="2" y="15" width="60" height="59" fill="url(#paint0_linear_332_5180)"/>
<path d="M18.3604 19.3334C17.2793 20.4157 13.1051 28.5033 11.1532 32.4118H8L9.35135 46.8432C9.8018 52.706 18.3604 67.5884 33.6757 68.9413C45.9279 70.0237 54.997 55.8629 58 48.6472H54.8468C56.6486 40.7099 53.1952 27.0001 51.2432 21.1373L49.8919 25.6471L44.4865 17.9804L34.5766 7.15687L28.7207 4V9.86276L25.1171 12.1177C23.3153 14.0719 19.4414 18.251 18.3604 19.3334Z" fill="#FDFBFC"/>
<path d="M26.1438 0C26.1166 0.0155 26.1361 0.25575 26.2138 0.554125C26.9524 3.60375 27.7494 7.02538 27.7494 7.14163C27.7494 7.23075 26.8086 8.09875 25.6579 9.07912C24.5072 10.0595 23.2165 11.2181 22.8005 11.6483L22.1202 12.3535H21.16C15.212 12.338 9.26405 12.4078 3.32386 12.3147C1.07685 12.276 0 13.8919 0 15.6085C0.0272129 40.3465 0.0272128 65.0768 0.0272128 89.8148C0.0272128 91.915 1.12739 93 3.24611 93H61.7928C63.8998 93 65 91.915 65 89.8031V15.5969C65 13.4269 63.927 12.3496 61.7733 12.3496C55.4288 12.3496 49.0843 12.3574 42.7398 12.3264H41.9312L39.8086 10.2649C36.1543 6.71925 33.5108 4.62675 29.0712 1.81738C28.1125 1.18661 27.1416 0.580618 26.1516 0H26.1438ZM29.8565 5.23125C29.9731 5.21575 30.7584 5.71562 31.6836 6.39375C35.2116 9.04628 38.4637 12.0451 41.3908 15.345H41.3986C43.2063 17.36 44.9091 19.4409 46.328 21.545C47.7159 23.5987 49.9629 27.5357 49.9629 27.9C49.9629 28.0162 50.029 28.1015 50.1068 28.1015C50.1845 28.1015 50.4294 27.4505 50.651 26.6522C51.1447 24.9085 51.1408 24.9163 52.1594 28.2139C53.6367 33.0111 54.142 36.3746 54.142 41.3114C54.142 45.1554 53.9593 46.7441 53.2479 49.5264C53.0419 50.3208 52.9913 50.7586 53.1118 50.7586C53.2129 50.7586 53.8271 50.6114 54.4803 50.4254C55.1295 50.2394 55.6854 50.1154 55.7165 50.1425C55.8254 50.2471 54.1848 53.0604 53.0263 54.7537C48.1824 61.8372 42.4599 66.03 36.0843 67.177C32.5194 67.8164 29.2306 67.5645 25.9378 66.4098C24.1884 65.7975 22.7772 65.0613 20.503 63.5694C15.6435 60.3919 11.927 54.6879 10.0843 47.6044C9.25239 44.4269 8.61483 39.5599 8.61483 36.3862V34.875L9.69168 36.4831C11.2584 38.8197 13.1516 41.199 13.3071 41.0246C13.3304 40.9859 12.9028 40.1566 12.3469 39.1724C11.1728 37.0954 11.169 37.1186 12.0359 33.7861C13.4432 28.3379 16.3588 22.6959 20.2309 17.9064C20.7868 17.2166 21.7664 16.2401 22.6178 15.3372C24.962 12.8418 27.6328 10.2222 27.8349 10.416C27.8738 10.4548 27.796 10.9043 27.66 11.4119C27.1391 13.3184 26.3771 16.5734 26.4432 16.6354C26.4587 16.6509 26.933 15.7984 27.209 15.3334C27.4889 14.8529 27.5822 14.7521 27.9982 14.0004C28.8146 12.5279 29.5144 11.2879 29.5338 11.2646C29.5571 11.2375 30.0469 11.6986 30.6223 12.2876C31.4853 13.1595 31.6719 13.2796 31.5942 12.9348C31.5398 12.7023 31.116 10.912 30.6417 8.95125C30.1752 6.9905 29.8059 5.3165 29.837 5.23125C29.837 5.2235 29.8448 5.21962 29.8526 5.21962L29.8565 5.23125ZM45.7177 15.2675H60.1405C61.5867 15.2675 62.0454 15.7092 62.0454 17.1353V70.9977C62.0454 72.3928 61.5789 72.7686 59.8762 72.7686H10.8074C8.78588 72.7686 6.76435 72.7764 4.74282 72.7686C3.45993 72.757 2.98176 72.2804 2.98176 71.0326V17.0887C2.98176 15.7596 3.44827 15.2791 4.77004 15.2791C9.31848 15.2714 13.8747 15.2791 18.427 15.2791C18.6136 15.2791 18.8041 15.2985 18.878 15.3024H19.2667L19.2395 15.3256L18.703 15.965C15.0176 20.3941 11.8221 26.1562 10.3176 31.124C10.1115 31.806 9.92105 32.364 9.88995 32.364C9.86663 32.364 9.08523 31.2402 8.16776 29.884C7.24641 28.52 6.42614 27.3575 6.34061 27.3071C6.05293 27.1289 6.30173 40.0055 6.63218 42.408C7.81788 51.0182 10.7258 57.6213 15.5425 62.6123C17.9527 65.1155 22.1707 67.6885 25.7784 68.8587C31.0655 70.5793 36.9357 70.1375 42.3783 67.6188C47.7042 65.1465 52.9641 59.8959 56.7856 53.2309C58.2084 50.7431 60.4166 46.4806 60.3233 46.3876C60.2844 46.3489 59.3319 46.5814 58.2162 46.8991C57.5342 47.1115 56.8428 47.2926 56.1441 47.4416C56.1477 47.0611 56.1907 46.6819 56.2724 46.3101C56.6223 44.2409 56.6728 39.7924 56.3774 37.0256C55.8565 32.1354 55.0401 28.9269 52.762 22.8315C50.9465 17.9568 50.9231 17.8948 50.8182 17.8948C50.7637 17.8948 50.4605 18.817 50.1456 19.9408C49.8268 21.0645 49.5469 21.979 49.5236 21.979C49.3505 21.7845 49.2017 21.5698 49.0804 21.3396C47.8895 19.5602 46.629 17.828 45.3017 16.1471L44.6253 15.3334H44.6097H44.7925C45.1151 15.314 45.4067 15.283 45.7021 15.283L45.7177 15.2675ZM31.7225 18.0188L31.5981 18.9255C31.4931 19.7005 30.8011 22.258 30.3929 23.4089C30.2063 23.9204 31.4037 22.7501 32.0763 21.7581C32.3873 21.3125 32.6672 20.9444 32.7177 20.9444C32.7721 20.9444 33.3786 21.514 34.0783 22.2115C34.7781 22.909 35.3729 23.4515 35.4001 23.4244C35.5167 23.3081 34.5837 21.4287 33.9345 20.4794C33.5019 19.8673 33.0209 19.2907 32.4961 18.755L31.7225 18.0188ZM22.0813 25.513L21.5682 25.9974C20.8762 26.6561 19.6827 28.4774 19.119 29.7174C18.5359 31.0039 17.8361 33.0111 17.8439 33.3599C17.8439 33.5149 18.1238 33.1274 18.4581 32.4996C19.0607 31.3759 20.8023 29.1206 21.0628 29.1206C21.1405 29.1206 21.296 29.326 21.4127 29.5856C21.6459 30.0971 22.8122 31.7246 22.8822 31.6394C22.8598 31.2218 22.8012 30.8069 22.7072 30.3994C22.5906 29.7406 22.4351 28.5975 22.3768 27.8419C22.3295 27.2249 22.2607 26.6097 22.1708 25.9974L22.0813 25.513ZM43.2802 25.544C43.2024 25.544 43.1325 25.9819 43.1247 26.5205C43.1247 27.4505 42.7476 30.4033 42.5144 31.3333C42.4133 31.7479 42.4249 31.7479 42.8565 31.2558C43.1014 30.969 43.5018 30.4032 43.7506 29.977C44.0033 29.5508 44.2288 29.1749 44.2638 29.1361C44.4737 28.892 47.0239 32.2981 47.3194 33.2126C47.3855 33.4141 47.4749 33.5342 47.5254 33.4839C47.642 33.3676 46.7946 30.8217 46.2697 29.7057C45.5039 28.0782 43.6884 25.544 43.2841 25.544H43.2802ZM33.0559 29.8065C32.9004 29.8298 31.9907 31.7634 31.703 32.6973C31.3804 33.7435 30.9955 36.487 31.0033 37.7192V38.9089L31.4231 37.3201C31.7925 35.8941 32.395 34.3829 32.8421 33.7319C32.9782 33.5381 33.1803 33.6427 33.9073 34.2938C34.401 34.7355 34.9453 35.1734 35.1124 35.2625C35.4429 35.4369 35.5401 35.2625 35.2757 34.9835C35.0541 34.751 33.7518 31.6704 33.4486 30.6551C33.3125 30.1901 33.1376 29.8142 33.0598 29.8026L33.0559 29.8065ZM23.0144 42.3034C20.1959 42.3809 17.6806 44.6013 16.8992 47.9028C16.5571 49.352 16.5804 50.4603 16.9847 52.018C17.7623 55.087 19.5311 57.1408 22.2718 58.1792C22.6528 58.3265 23.4381 58.404 24.41 58.373C25.7318 58.3459 26.0933 58.2684 26.9369 57.8382C28.9196 56.8385 30.3113 54.7383 30.6884 52.1691C30.8556 51.0144 30.8439 50.5804 30.6029 49.3791C29.8759 45.6979 27.4462 43.0396 24.2273 42.4041C23.823 42.3266 23.4109 42.2879 23.0105 42.3034H23.0144ZM42.7904 42.3034C42.6737 42.3034 42.5571 42.3111 42.4405 42.3189C39.1477 42.5436 36.026 45.6436 35.4118 49.6116C34.8559 53.2154 36.6947 56.9354 39.5831 58.0708C40.9204 58.5939 43.1908 58.5047 44.5475 57.877C47.712 56.4045 49.8152 52.328 49.2981 48.6816C48.8316 45.3724 46.7479 42.9699 43.8478 42.4041C43.4979 42.3384 43.1425 42.3073 42.7865 42.3111L42.7904 42.3034ZM40.7883 50.2859C42.2655 50.3324 43.1675 52.1188 42.2111 53.3549C41.8379 53.8199 40.8971 54.1299 40.2285 53.9749C38.2458 53.5486 38.4557 50.5649 40.485 50.3014C40.5856 50.2885 40.6869 50.2833 40.7883 50.2859ZM25.3624 50.3246C26.1399 50.3246 26.2954 50.4021 26.7386 50.8904C27.485 51.7235 27.3801 53.2154 26.5443 53.6571C25.8056 54.0446 25.2536 54.1221 24.7288 53.909C23.4459 53.3665 23.0804 51.894 23.9824 50.8865C24.4216 50.3983 24.5849 50.3285 25.3663 50.3285L25.3624 50.3246ZM19.4767 75.7291C20.4486 75.7291 21.4127 75.7369 22.3768 75.7601C24.2817 75.7989 25.032 76.6126 25.032 78.5191V83.0219H25.0203V87.4394C25.0087 89.0514 24.2739 89.8923 22.6567 89.9426C20.5553 90.0085 18.4524 90.0085 16.3511 89.9426C14.7339 89.8845 14.0069 89.0591 13.9874 87.4316C13.968 84.4285 13.9641 81.4254 13.9874 78.4261C14.003 76.6204 14.7883 75.8066 16.5766 75.764C17.5484 75.7446 18.5087 75.733 19.4728 75.733L19.4767 75.7291ZM43.6962 75.7291C44.8236 75.7369 45.9393 75.7679 47.0589 75.8299C48.4118 75.9074 49.1193 76.7211 49.1349 78.0774C49.1854 81.2432 49.1971 84.4169 49.1504 87.5866C49.131 89.0979 48.334 89.8729 46.7868 89.9271C44.6875 90.0046 42.5882 90.0046 40.4889 89.9271C38.8251 89.869 38.1331 89.0359 38.1175 87.3464V82.8514H38.1059C38.1059 81.3401 38.0903 79.8482 38.1059 78.3409C38.1214 76.7211 38.7512 75.8764 40.3334 75.7989C41.453 75.7485 42.5727 75.7214 43.6962 75.733V75.7291ZM33.0287 75.7369C34.1561 75.7369 35.2952 75.7485 36.4498 75.7485V78.1975H30.805C29.5999 78.1975 29.5105 78.2866 29.5105 79.515C29.5105 81.84 29.5338 84.165 29.4988 86.49C29.4871 87.265 29.7904 87.5556 30.5484 87.544C32.1968 87.5169 33.8412 87.544 35.4934 87.544H36.5314L36.5431 89.8806C36.3487 89.9077 36.1621 89.9581 35.9755 89.9581C33.9267 89.9659 31.878 89.9775 29.8331 89.9581C27.8272 89.9388 27.0496 89.1444 27.0496 87.1604V78.4804C27.0496 76.6359 27.8155 75.7989 29.6543 75.7562C30.7817 75.733 31.8974 75.733 33.0287 75.7369ZM57.4815 75.7601C58.8732 75.7601 60.2805 75.7795 61.7033 75.7795V78.1898H54.7291C53.7183 78.1898 53.6172 78.2944 53.6172 79.3213C53.6405 82.1384 53.2207 81.778 56.1053 81.8013C57.2638 81.8129 58.4378 81.7896 59.5963 81.8129C61.2796 81.8516 62.0532 82.6111 62.0843 84.2658C62.0999 85.343 62.1038 86.4241 62.0688 87.4975C62.0182 88.9816 61.3185 89.8496 59.8451 89.9C56.9838 89.9891 54.1148 89.9232 51.1914 89.9232V87.5362H52.1399C54.3053 87.5362 56.4668 87.5246 58.6244 87.544C59.3475 87.5517 59.6818 87.265 59.6507 86.5365C59.6274 85.9684 59.6274 85.3996 59.6507 84.8315C59.6779 84.103 59.3475 83.8317 58.6166 83.8473C57.0616 83.886 55.491 83.8705 53.9282 83.855C51.8562 83.8317 51.1214 83.0684 51.1214 80.9991C51.1214 80.0614 51.1097 79.1275 51.137 78.1936C51.1836 76.694 51.8756 75.8376 53.3451 75.7911C54.7174 75.7524 56.0936 75.7524 57.4853 75.7524L57.4815 75.7601ZM7.56519 75.8376C9.15909 75.826 10.753 75.8609 12.3741 75.8609V78.1316C12.0631 78.151 11.7676 78.1859 11.4722 78.1859C9.76944 78.1936 8.0628 78.2053 6.36005 78.1859C5.67972 78.1781 5.38816 78.4649 5.38816 79.1546C5.41148 81.6269 5.41926 84.0914 5.38816 86.5559C5.38816 87.3154 5.71082 87.5518 6.41836 87.5479C8.12111 87.5285 9.82775 87.5401 11.5344 87.5401H12.4013V89.8961C9.8744 89.8961 7.40969 89.9736 4.94886 89.8651C3.61932 89.8109 2.96621 88.9855 2.95066 87.6641C2.91178 84.4634 2.91178 81.2588 2.95066 78.0541C2.96232 76.8219 3.561 75.9461 4.69228 75.8958C5.66417 75.8415 6.67494 75.857 7.55742 75.8337L7.56519 75.8376ZM45.6866 78.1898C44.2987 78.2169 42.907 78.2091 41.5191 78.1898C40.831 78.1898 40.555 78.4998 40.5628 79.1779C40.5783 81.6695 40.5783 84.1572 40.5628 86.645C40.5628 87.265 40.8349 87.5362 41.4181 87.5362C42.8953 87.5479 44.3726 87.5362 45.8421 87.5362C46.503 87.5362 46.7285 87.2146 46.7129 86.5752C46.6818 85.3352 46.7129 84.0875 46.6935 82.8436C46.6935 81.6191 46.6663 80.4024 46.6935 79.1856H46.709C46.7285 78.4494 46.4097 78.1781 45.6905 78.1859L45.6866 78.1898ZM17.3774 78.2014C16.7243 78.1936 16.456 78.4959 16.4638 79.1314C16.4832 80.3791 16.4638 81.6269 16.4638 82.8708C16.4638 84.1107 16.4871 85.3507 16.4483 86.5985H16.456C16.4405 87.2572 16.7165 87.5479 17.3502 87.5479H21.6926C22.3068 87.5479 22.6062 87.2844 22.6023 86.6179C22.5789 84.1301 22.5867 81.6462 22.6023 79.1546C22.6023 78.5346 22.3846 78.1936 21.7159 78.2014C20.2658 78.2207 18.8236 78.213 17.3774 78.2014Z" fill="black"/>
<defs>
<linearGradient id="paint0_linear_332_5180" x1="32" y1="29.2891" x2="32" y2="74" gradientUnits="userSpaceOnUse">
<stop stop-color="#29C5DE"/>
<stop offset="1" stop-color="#18609A"/>
</linearGradient>
</defs>
</svg>
