<svg width="64" height="64" viewBox="0 0 64 64" fill="none" xmlns="http://www.w3.org/2000/svg">
<g clip-path="url(#clip0_309_3146)">
<mask id="mask0_309_3146" style="mask-type:luminance" maskUnits="userSpaceOnUse" x="0" y="0" width="64" height="64">
<path d="M64 0H0V64H64V0Z" fill="white"/>
</mask>
<g mask="url(#mask0_309_3146)">
<path d="M6.24155 1.09033H57.7575C59.1239 1.09033 60.4343 1.63313 61.4005 2.59931C62.3667 3.5655 62.9095 4.87592 62.9095 6.24231V57.7581C62.9095 59.1244 62.3668 60.4347 61.4006 61.4008C60.4345 62.3669 59.1241 62.9097 57.7578 62.9097H6.24081C4.87469 62.9097 3.56452 62.367 2.59853 61.401C1.63253 60.435 1.08984 59.1249 1.08984 57.7588V6.24195C1.08984 5.56543 1.2231 4.89553 1.48199 4.27051C1.74089 3.64548 2.12036 3.07757 2.59874 2.5992C3.07712 2.12083 3.64504 1.74137 4.27008 1.48247C4.89511 1.22358 5.56502 1.09033 6.24155 1.09033Z" fill="#FDB913"/>
<path d="M57.7587 1.09033C59.1249 1.09074 60.435 1.63371 61.4009 2.59983C62.3668 3.56596 62.9095 4.87615 62.9097 6.24231V57.7581C62.9096 59.1242 62.3669 60.4344 61.4009 61.4005C60.435 62.3665 59.1249 62.9094 57.7587 62.9097H6.24204C5.56547 62.9098 4.89549 62.7767 4.27039 62.5178C3.64528 62.259 3.0773 61.8796 2.59889 61.4011C2.12048 60.9227 1.74101 60.3548 1.48217 59.7297C1.22333 59.1046 1.09019 58.4346 1.09034 57.7581V6.24231C1.09021 5.56573 1.22337 4.89576 1.48221 4.27066C1.74106 3.64555 2.12052 3.07757 2.59892 2.59914C3.07732 2.12071 3.64529 1.74122 4.27039 1.48233C4.89548 1.22345 5.56546 1.09024 6.24204 1.09033H57.7587ZM57.7587 0H6.24204C4.58704 0.00179267 3.00033 0.66005 1.8301 1.83033C0.659869 3.00061 0.00169436 4.58733 0 6.24231V57.7581C0.00183133 59.413 0.660062 60.9996 1.83028 62.1698C3.00049 63.3399 4.58712 63.9982 6.24205 64H57.7587C59.4135 63.9981 61 63.3398 62.1701 62.1696C63.3402 60.9994 63.9983 59.4129 64 57.7581V6.24231C63.9984 4.58742 63.3404 3.00076 62.1703 1.83048C61.0002 0.660192 59.4136 0.00188227 57.7587 0Z" fill="white"/>
<path d="M35.6077 32.6674L35.6025 21.5992L38.4916 20.9136V22.3645C38.4916 22.3645 39.2401 20.4564 40.9768 20.0135C41.2362 19.9299 41.5121 19.9114 41.7803 19.9595V22.7835C41.2602 22.7903 40.7462 22.8973 40.2665 23.0986C39.199 23.5202 38.6617 24.4401 38.6617 25.8445L38.6635 31.956L35.6077 32.6674Z" fill="#231F20"/>
<path d="M20.3772 36.2664C20.3772 36.2664 19.9075 35.5621 19.9075 33.0718V27.5607L18.4209 27.9144V25.6441L19.9108 25.2923V22.8175L22.9828 22.0918V24.5666L25.1536 24.051V26.3187L22.9828 26.8339C22.9828 26.8339 22.9795 31.3491 22.9828 32.4457C22.9828 34.9973 23.66 35.4872 23.66 35.4872L20.3772 36.2664Z" fill="#231F20"/>
<path d="M25.4746 29.682C25.4746 27.7144 25.7548 26.2788 26.3564 25.1771C27.0721 23.8698 28.2458 23.0178 29.9557 22.6285C33.3259 21.8621 34.5422 23.8569 34.4952 26.5319C34.4772 27.4885 34.4816 27.9545 34.4816 27.9545L28.544 29.35V29.4459C28.544 31.3148 28.9359 32.2016 30.1202 31.9505C31.1434 31.7345 31.428 31.0937 31.5088 30.3012C31.522 30.1734 31.5283 29.8484 31.5283 29.8484L34.3098 29.1818C34.3098 29.1818 34.3164 29.4095 34.3123 29.6651C34.2881 30.7272 33.9792 33.3618 30.1133 34.2758C26.4511 35.1451 25.4746 32.9086 25.4746 29.682ZM30.0791 24.6902C29.0953 24.9134 28.5793 25.8785 28.5569 27.4775L31.5437 26.7662C31.5488 26.6938 31.5496 26.5344 31.5488 26.2847C31.5437 25.0776 31.1706 24.4404 30.0791 24.6902Z" fill="#231F20"/>
<path d="M52.1776 23.2093C52.0627 19.8384 52.9371 17.1631 56.6981 16.3111C59.0951 15.7665 60.0055 16.3901 60.4663 16.9927C60.9096 17.5678 61.0807 18.3434 61.0807 19.4297L61.0833 19.6291L58.141 20.3283C58.141 20.3283 58.1388 19.9317 58.1388 19.9189C58.141 18.6306 57.7829 18.1407 56.8472 18.375C55.7344 18.6545 55.2849 19.7106 55.2849 21.8105C55.2849 22.556 55.2882 22.6897 55.2882 22.7903C55.2882 24.9243 55.5798 25.9012 56.8622 25.6327C57.9746 25.4028 58.127 24.426 58.145 23.5696C58.1472 23.4352 58.1527 23.0048 58.1527 23.0048L61.0907 22.3107C61.0907 22.3107 61.0936 22.5277 61.0936 22.769C61.0862 25.5673 59.6114 27.3308 56.8483 27.9738C53.0414 28.8662 52.2959 26.6665 52.1776 23.2093Z" fill="#231F20"/>
<path d="M42.0063 27.9288C42.0063 25.3648 43.5084 24.5539 45.7691 23.6186C47.8022 22.7776 47.8463 22.36 47.8547 21.6292C47.8661 21.0141 47.5807 20.4879 46.5686 20.746C46.2311 20.814 45.9265 20.994 45.7041 21.2569C45.4817 21.5197 45.3547 21.8499 45.3435 22.194C45.3269 22.3829 45.3206 22.5726 45.3244 22.7622L42.4739 23.4353C42.4547 22.8672 42.521 22.2995 42.6707 21.7512C43.1264 20.2179 44.4786 19.1864 46.8128 18.6462C49.8455 17.9473 50.8566 19.2782 50.8602 21.3483V26.2505C50.8602 28.6214 51.3002 28.9688 51.3002 28.9688L48.5018 29.631C48.3474 29.3076 48.222 28.9713 48.1268 28.6258C48.1268 28.6258 47.5139 30.1697 45.4008 30.6662C43.1815 31.1895 42.0063 29.8142 42.0063 27.9288ZM47.8353 24.4276C47.3636 24.7583 46.8656 25.0499 46.3464 25.2994C45.4136 25.7551 44.992 26.3174 44.992 27.1833C44.992 27.9332 45.4566 28.4257 46.3009 28.2171C47.2065 27.9887 47.8353 27.1437 47.8353 25.9696V24.4276Z" fill="#231F20"/>
<path d="M4.31469 44.0254C3.9953 44.025 3.68193 43.9385 3.40756 43.775C3.1332 43.6115 2.90799 43.3771 2.75564 43.0964C2.60329 42.8157 2.52945 42.4991 2.54187 42.1799C2.5543 41.8608 2.65254 41.5509 2.82625 41.2829L2.84608 41.2572L2.8795 41.2484L7.058 40.262V43.4353L6.993 43.4503C6.04514 43.6784 4.91219 43.938 4.67899 43.9876C4.55922 44.0129 4.43711 44.0256 4.31469 44.0254Z" fill="#231F20"/>
<path d="M4.31469 48.0849C3.8445 48.085 3.3935 47.8984 3.06082 47.5661C2.72814 47.2339 2.541 46.7831 2.54053 46.3129C2.53957 45.9704 2.63889 45.635 2.82625 45.3482L2.84608 45.3185L2.8795 45.31L7.058 44.324V47.4973L6.993 47.5142C6.04515 47.7415 4.9122 48.0041 4.679 48.0507C4.55896 48.0739 4.43695 48.0854 4.31469 48.0849Z" fill="#231F20"/>
<path d="M4.3147 52.1519C3.84437 52.1516 3.39338 51.9647 3.06075 51.6322C2.72811 51.2997 2.54102 50.8488 2.54054 50.3785C2.53921 50.0359 2.63856 49.7004 2.82626 49.4138L2.84609 49.3818L7.05801 48.3892V51.5625L6.99301 51.5794C5.9919 51.8203 4.88025 52.0715 4.679 52.1159C4.55905 52.1399 4.43702 52.1519 4.3147 52.1519Z" fill="#231F20"/>
<path d="M3.82141 40.137L3.82031 22.3814L7.05757 21.6165V39.3717L3.82141 40.137Z" fill="#231F20"/>
<path d="M11.8847 38.6264C11.8847 38.0967 11.6742 37.5887 11.2997 37.2141C10.9251 36.8396 10.4171 36.6292 9.88739 36.6292C9.35769 36.6292 8.84968 36.8396 8.47512 37.2141C8.10056 37.5887 7.89014 38.0967 7.89014 38.6264L7.89344 55.2215C7.89522 56.6546 8.46506 58.0285 9.47809 59.0422C10.4911 60.0559 11.8647 60.6267 13.2978 60.6294C14.8098 60.6294 18.9515 60.6221 18.9515 60.6221L18.9534 53.6989C18.9545 49.9164 18.9552 46.0662 18.9552 45.9785C18.9557 45.5481 18.8499 45.1242 18.6473 44.7445C18.4447 44.3648 18.1514 44.041 17.7936 43.8019L12.7547 40.3796C12.7547 40.3796 12.7536 47.8095 12.7536 48.151C12.7536 48.265 12.7083 48.3743 12.6277 48.4549C12.5471 48.5354 12.4378 48.5807 12.3239 48.5807C12.2099 48.5807 12.1006 48.5354 12.02 48.4549C11.9395 48.3743 11.8942 48.265 11.8942 48.151C11.8942 48.0677 11.8847 39.6528 11.8847 38.6264Z" fill="#231F20"/>
<path d="M14.5823 26.2447C13.97 26.3868 13.3956 26.6594 12.8983 27.0439C12.4011 27.4283 11.9926 27.9156 11.7009 28.4724V27.2245L8.78613 27.9142L8.78944 35.8833C9.30074 35.6811 9.85799 35.6242 10.3996 35.7189C10.9412 35.8135 11.4461 36.0561 11.8585 36.4198V31.2744C11.8585 30.042 12.4718 29.0574 13.348 28.8643C14.0072 28.7196 14.5577 28.9553 14.5577 30.1294L14.5599 37.6365L17.6301 36.9167V28.9752C17.6301 27.0497 16.8886 25.7038 14.5823 26.2447Z" fill="#231F20"/>
<path d="M59.1899 14.8809C58.8145 14.8812 58.4474 14.7701 58.135 14.5618C57.8227 14.3534 57.5792 14.0571 57.4354 13.7103C57.2915 13.3635 57.2537 12.9819 57.3269 12.6136C57.4 12.2454 57.5807 11.9071 57.8461 11.6415C58.1115 11.376 58.4498 11.1952 58.818 11.1219C59.1862 11.0487 59.5679 11.0863 59.9148 11.23C60.2616 11.3737 60.558 11.6171 60.7665 11.9293C60.975 12.2416 61.0862 12.6086 61.086 12.9841C61.0855 13.4869 60.8856 13.9689 60.5302 14.3245C60.1747 14.6801 59.6927 14.8802 59.1899 14.8809ZM59.1899 11.3242C58.8617 11.3241 58.5408 11.4213 58.2678 11.6036C57.9949 11.7859 57.7821 12.0451 57.6564 12.3483C57.5308 12.6515 57.4978 12.9852 57.5618 13.3071C57.6258 13.629 57.7838 13.9248 58.0158 14.1569C58.2478 14.3891 58.5435 14.5472 58.8654 14.6113C59.1873 14.6754 59.521 14.6426 59.8243 14.5171C60.1276 14.3915 60.3868 14.1789 60.5692 13.906C60.7517 13.6331 60.8491 13.3123 60.8491 12.9841C60.8488 12.5441 60.6739 12.1222 60.3628 11.811C60.0517 11.4998 59.6299 11.3247 59.1899 11.3242Z" fill="#231F20"/>
<path d="M58.4985 11.8531H59.3164C59.3963 11.8446 59.4772 11.8541 59.5529 11.8811C59.6287 11.9081 59.6973 11.9519 59.7538 12.0091C59.8103 12.0663 59.8532 12.1355 59.8793 12.2116C59.9053 12.2876 59.9139 12.3686 59.9043 12.4484C59.9043 12.7488 59.771 12.9798 59.5184 13.0191V13.0235C59.7483 13.047 59.8691 13.1737 59.8808 13.4995C59.8853 13.6464 59.8875 13.8285 59.8944 13.9703C59.8945 14.0101 59.9046 14.0494 59.9238 14.0843C59.943 14.1193 59.9707 14.1489 60.0042 14.1704H59.5863C59.5464 14.1092 59.5248 14.0378 59.5239 13.9648C59.511 13.8263 59.5143 13.6956 59.5081 13.5274C59.5018 13.2747 59.4244 13.1642 59.1706 13.1642H58.868V14.1704H58.4985V11.8531ZM59.164 12.8851C59.2142 12.8897 59.2648 12.8831 59.3122 12.8657C59.3596 12.8484 59.4025 12.8208 59.4379 12.7848C59.4732 12.7489 59.5002 12.7055 59.5168 12.6579C59.5334 12.6103 59.5392 12.5595 59.5338 12.5094C59.5338 12.2622 59.4269 12.1322 59.1834 12.1322H58.868V12.8851H59.164Z" fill="#231F20"/>
</g>
</g>
<defs>
<clipPath id="clip0_309_3146">
<rect width="64" height="64" fill="white"/>
</clipPath>
</defs>
</svg>
