<svg width="663" height="272" viewBox="0 0 663 272" fill="none" xmlns="http://www.w3.org/2000/svg">
<path d="M397.555 269.635C324.999 269.635 265.353 211.182 263.617 138.908H263.465V135.653C263.465 65.3644 206.281 8.18074 135.993 8.18074C65.7037 8.18074 8.50923 65.3644 8.50923 135.653C8.50923 205.942 65.6929 263.126 135.982 263.126H138.151V269.635H135.982C62.1019 269.635 2 209.533 2 135.653C2 61.7734 62.1019 1.67151 135.982 1.67151C209.862 1.67151 268.184 60.1244 269.92 132.399H270.072V135.653C270.072 205.942 327.256 263.126 397.544 263.126C467.833 263.126 525.017 205.942 525.017 135.653V132.399H525.169C526.915 60.1244 586.551 1.67151 659.107 1.67151H661.277V8.18074H659.107C588.818 8.18074 531.635 65.3644 531.635 135.653V138.908H531.483C529.736 211.182 470.101 269.635 397.544 269.635H397.555Z" fill="url(#paint0_linear_276_10848)" stroke="white" stroke-width="3"/>
<defs>
<linearGradient id="paint0_linear_276_10848" x1="2" y1="135.664" x2="661.288" y2="135.664" gradientUnits="userSpaceOnUse">
<stop stop-color="#ED8406"/>
<stop offset="1" stop-color="#EA231C"/>
</linearGradient>
</defs>
</svg>
