<svg width="8" height="36" viewBox="0 0 8 36" fill="none" xmlns="http://www.w3.org/2000/svg">
<path d="M0.00206804 18.2521L7.90137 24.1624V12.3987L0.00206804 18.2521Z" fill="#F3AEC7"/>
<g style="mix-blend-mode:multiply" opacity="0.35">
<path opacity="0.02" d="M7.90137 35.6417C7.90137 35.6417 6.31014 27.8561 6.31014 18.2519C6.31014 8.64768 7.90137 0.86203 7.90137 0.86203V35.6417Z" fill="#A6A6A6"/>
<path opacity="0.02" d="M7.90137 35.5281C7.90137 35.5281 6.36697 27.7992 6.36697 18.2519C6.36697 8.70452 7.90137 0.975708 7.90137 0.975708V35.5281Z" fill="#A5A5A5"/>
<path opacity="0.03" d="M7.90137 35.4715C7.90137 35.4715 6.36697 27.7996 6.36697 18.309C6.36697 8.8185 7.90137 1.14651 7.90137 1.14651V35.4715Z" fill="#A5A5A5"/>
<path opacity="0.04" d="M7.90137 35.3579C7.90137 35.3579 6.36697 27.7427 6.36697 18.309C6.36697 8.87535 7.90137 1.26019 7.90137 1.26019V35.3579Z" fill="#A4A4A4"/>
<path opacity="0.05" d="M7.90137 35.243C7.90137 35.243 6.36697 27.6279 6.36697 18.3078C6.36697 8.98781 7.90137 1.37265 7.90137 1.37265V35.2999V35.243Z" fill="#A3A3A3"/>
<path opacity="0.06" d="M7.90137 35.1294C7.90137 35.1294 6.36697 27.5711 6.36697 18.3079C6.36697 9.04465 7.90137 1.48633 7.90137 1.48633V35.1862V35.1294Z" fill="#A2A2A2"/>
<path opacity="0.07" d="M7.90137 35.0158C7.90137 35.0158 6.4238 27.5143 6.4238 18.251C6.4238 8.98784 7.90137 1.54317 7.90137 1.54317V35.0158Z" fill="#A1A1A1"/>
<path opacity="0.07" d="M7.90137 34.9024C7.90137 34.9024 6.4238 27.4577 6.4238 18.2514C6.4238 9.04498 7.90137 1.60031 7.90137 1.60031V34.8456V34.9024Z" fill="#A0A0A0"/>
<path opacity="0.08" d="M7.90137 34.7887C7.90137 34.7887 6.4238 27.4009 6.4238 18.2514C6.4238 9.10181 7.90137 1.71397 7.90137 1.71397V34.7887Z" fill="#A0A0A0"/>
<path opacity="0.09" d="M7.90137 34.6751C7.90137 34.6751 6.4238 27.3441 6.4238 18.2514C6.4238 9.15866 7.90137 1.82765 7.90137 1.82765V34.6751Z" fill="#9F9F9F"/>
<path opacity="0.1" d="M7.90137 34.5615C7.90137 34.5615 6.48063 27.2305 6.48063 18.2514C6.48063 9.27234 7.90137 1.94133 7.90137 1.94133V34.5615Z" fill="#9E9E9E"/>
<path opacity="0.11" d="M7.90137 34.505C7.90137 34.505 6.48063 27.2308 6.48063 18.3085C6.48063 9.38632 7.90137 2.11214 7.90137 2.11214V34.505Z" fill="#9D9D9D"/>
<path opacity="0.12" d="M7.90137 34.3913C7.90137 34.3913 6.48063 27.174 6.48063 18.3086C6.48063 9.44316 7.90137 2.22581 7.90137 2.22581V34.3913Z" fill="#9C9C9C"/>
<path opacity="0.12" d="M7.90137 34.278C7.90137 34.278 6.48063 27.1175 6.48063 18.3089C6.48063 9.50032 7.90137 2.3398 7.90137 2.3398V34.3348V34.278Z" fill="#9B9B9B"/>
<path opacity="0.13" d="M7.90137 34.1643C7.90137 34.1643 6.48063 27.0606 6.48063 18.2521C6.48063 9.44348 7.90137 2.39662 7.90137 2.39662V34.1643Z" fill="#9B9B9B"/>
<path opacity="0.14" d="M7.90137 34.0507C7.90137 34.0507 6.53746 27.0038 6.53746 18.2521C6.53746 9.50033 7.90137 2.5103 7.90137 2.5103V34.0507Z" fill="#9A9A9A"/>
<path opacity="0.15" d="M7.90137 33.937C7.90137 33.937 6.53746 26.8902 6.53746 18.2521C6.53746 9.614 7.90137 2.56714 7.90137 2.56714V33.8802V33.937Z" fill="#999999"/>
<path opacity="0.16" d="M7.90137 33.8237C7.90137 33.8237 6.53746 26.8337 6.53746 18.2524C6.53746 9.67115 7.90137 2.68112 7.90137 2.68112V33.8237Z" fill="#989898"/>
<path opacity="0.17" d="M7.90137 33.7085C7.90137 33.7085 6.53746 26.7753 6.53746 18.2509C6.53746 9.72648 7.90137 2.79327 7.90137 2.79327V33.7085Z" fill="#979797"/>
<path opacity="0.17" d="M7.90137 33.5952C7.90137 33.5952 6.53746 26.7188 6.53746 18.2512C6.53746 9.78363 7.90137 2.90726 7.90137 2.90726V33.5952Z" fill="#969696"/>
<path opacity="0.18" d="M7.90137 33.5384C7.90137 33.5384 6.59429 26.7189 6.59429 18.3081C6.59429 9.89732 7.90137 3.07777 7.90137 3.07777V33.5384Z" fill="#959595"/>
<path opacity="0.19" d="M7.90137 33.4247C7.90137 33.4247 6.59429 26.662 6.59429 18.3081C6.59429 9.95415 7.90137 3.19144 7.90137 3.19144V33.4247Z" fill="#959595"/>
<path opacity="0.2" d="M7.90137 33.3114C7.90137 33.3114 6.59429 26.5487 6.59429 18.3084C6.59429 10.0681 7.90137 3.30542 7.90137 3.30542V33.3682V33.3114Z" fill="#949494"/>
<path opacity="0.21" d="M7.90137 33.1978C7.90137 33.1978 6.59429 26.4919 6.59429 18.2516C6.59429 10.0113 7.90137 3.36226 7.90137 3.36226V33.1978Z" fill="#939393"/>
<path opacity="0.21" d="M7.90137 33.0841C7.90137 33.0841 6.65111 26.435 6.65111 18.2516C6.65111 10.0681 7.90137 3.47592 7.90137 3.47592V33.0841Z" fill="#929292"/>
<path opacity="0.22" d="M7.90137 32.9704C7.90137 32.9704 6.65111 26.3782 6.65111 18.2516C6.65111 10.125 7.90137 3.53276 7.90137 3.53276V32.9136V32.9704Z" fill="#919191"/>
<path opacity="0.23" d="M7.90137 32.8571C7.90137 32.8571 6.65111 26.3217 6.65111 18.2519C6.65111 10.1821 7.90137 3.64674 7.90137 3.64674V32.8571Z" fill="#909090"/>
<path opacity="0.24" d="M7.90137 32.7435C7.90137 32.7435 6.65111 26.2649 6.65111 18.2519C6.65111 10.239 7.90137 3.76042 7.90137 3.76042V32.7435Z" fill="#909090"/>
<path opacity="0.25" d="M7.90137 32.6298C7.90137 32.6298 6.65111 26.2081 6.65111 18.252C6.65111 10.2958 7.90137 3.87408 7.90137 3.87408V32.6298Z" fill="#8F8F8F"/>
<path opacity="0.26" d="M7.90137 32.5733C7.90137 32.5733 6.70794 26.1516 6.70794 18.3091C6.70794 10.4666 7.90137 4.04491 7.90137 4.04491V32.5733Z" fill="#8E8E8E"/>
<path opacity="0.26" d="M7.90137 32.4597C7.90137 32.4597 6.70794 26.0948 6.70794 18.3091C6.70794 10.5235 7.90137 4.15858 7.90137 4.15858V32.4597Z" fill="#8D8D8D"/>
<path opacity="0.27" d="M7.90137 32.3448C7.90137 32.3448 6.70794 26.0367 6.70794 18.2511C6.70794 10.4655 7.90137 4.2142 7.90137 4.2142V32.3448Z" fill="#8C8C8C"/>
<path opacity="0.28" d="M7.90137 32.2312C7.90137 32.2312 6.70794 25.9799 6.70794 18.2511C6.70794 10.5223 7.90137 4.32788 7.90137 4.32788V32.2312Z" fill="#8B8B8B"/>
<path opacity="0.29" d="M7.90137 32.1175C7.90137 32.1175 6.76477 25.9231 6.76477 18.2511C6.76477 10.5791 7.90137 4.44156 7.90137 4.44156V32.1175Z" fill="#8A8A8A"/>
<path opacity="0.3" d="M7.90137 32.0042C7.90137 32.0042 6.76477 25.8666 6.76477 18.2514C6.76477 10.6363 7.90137 4.55553 7.90137 4.55553V32.0042Z" fill="#8A8A8A"/>
<path opacity="0.31" d="M7.90137 31.8905C7.90137 31.8905 6.76477 25.7529 6.76477 18.2515C6.76477 10.75 7.90137 4.61237 7.90137 4.61237V31.8905Z" fill="#898989"/>
<path opacity="0.31" d="M7.90137 31.7769C7.90137 31.7769 6.76477 25.6961 6.76477 18.2515C6.76477 10.8068 7.90137 4.72604 7.90137 4.72604V31.7769Z" fill="#888888"/>
<path opacity="0.32" d="M7.90137 31.7204C7.90137 31.7204 6.76477 25.6965 6.76477 18.3086C6.76477 10.9208 7.90137 4.89685 7.90137 4.89685V31.7204Z" fill="#878787"/>
<path opacity="0.33" d="M7.90137 31.6067C7.90137 31.6067 6.8216 25.6396 6.8216 18.3086C6.8216 10.9776 7.90137 5.01053 7.90137 5.01053V31.6067Z" fill="#868686"/>
<path opacity="0.34" d="M7.90137 31.4931C7.90137 31.4931 6.8216 25.5828 6.8216 18.2518C6.8216 10.9208 7.90137 5.06737 7.90137 5.06737V31.4931Z" fill="#858585"/>
<path opacity="0.35" d="M7.90137 31.3794C7.90137 31.3794 6.8216 25.526 6.8216 18.2518C6.8216 10.9777 7.90137 5.18105 7.90137 5.18105V31.3794Z" fill="#858585"/>
<path opacity="0.36" d="M7.90137 31.2661C7.90137 31.2661 6.8216 25.4127 6.8216 18.2521C6.8216 11.0916 7.90137 5.29501 7.90137 5.29501V31.2661Z" fill="#848484"/>
<path opacity="0.36" d="M7.90137 31.1525C7.90137 31.1525 6.8216 25.3559 6.8216 18.2522C6.8216 11.1485 7.90137 5.40869 7.90137 5.40869V31.1525Z" fill="#838383"/>
<path opacity="0.37" d="M7.90137 31.0388C7.90137 31.0388 6.87843 25.299 6.87843 18.2522C6.87843 11.2053 7.90137 5.52237 7.90137 5.52237V31.0388Z" fill="#828282"/>
<path opacity="0.38" d="M7.90137 30.9252C7.90137 30.9252 6.87843 25.2422 6.87843 18.2522C6.87843 11.2622 7.90137 5.57921 7.90137 5.57921V30.9252Z" fill="#818181"/>
<path opacity="0.39" d="M7.90137 30.8103C7.90137 30.8103 6.87843 25.1842 6.87843 18.251C6.87843 11.3178 7.90137 5.69167 7.90137 5.69167V30.8103Z" fill="#808080"/>
<path opacity="0.4" d="M7.90137 30.7538C7.90137 30.7538 6.87843 25.1845 6.87843 18.3082C6.87843 11.4318 7.90137 5.86249 7.90137 5.86249V30.7538Z" fill="#808080"/>
<path opacity="0.4" d="M7.90137 30.6402C7.90137 30.6402 6.93527 25.0709 6.93527 18.3082C6.93527 11.5454 7.90137 5.97615 7.90137 5.97615V30.6402Z" fill="#7F7F7F"/>
<path opacity="0.41" d="M7.90137 30.5265C7.90137 30.5265 6.93527 25.0141 6.93527 18.2513C6.93527 11.4886 7.90137 6.03299 7.90137 6.03299V30.5265Z" fill="#7E7E7E"/>
<path opacity="0.42" d="M7.90137 30.4129C7.90137 30.4129 6.93527 24.9572 6.93527 18.2514C6.93527 11.5455 7.90137 6.14667 7.90137 6.14667V30.4129Z" fill="#7D7D7D"/>
<path opacity="0.43" d="M7.90137 30.2995C7.90137 30.2995 6.93527 24.9007 6.93527 18.2517C6.93527 11.6026 7.90137 6.26065 7.90137 6.26065V30.2995Z" fill="#7C7C7C"/>
<path opacity="0.44" d="M7.90137 30.1859C7.90137 30.1859 6.93527 24.8439 6.93527 18.2517C6.93527 11.6595 7.90137 6.37431 7.90137 6.37431V30.1859Z" fill="#7B7B7B"/>
<path opacity="0.45" d="M7.90137 30.0722C7.90137 30.0722 6.9921 24.7871 6.9921 18.2517C6.9921 11.7163 7.90137 6.48799 7.90137 6.48799V30.0722Z" fill="#7A7A7A"/>
<path opacity="0.45" d="M7.90137 29.9589C7.90137 29.9589 6.9921 24.6738 6.9921 18.252C6.9921 11.8303 7.90137 6.60197 7.90137 6.60197V30.0157V29.9589Z" fill="#7A7A7A"/>
<path opacity="0.46" d="M7.90137 29.8452C7.90137 29.8452 6.9921 24.6169 6.9921 18.252C6.9921 11.8871 7.90137 6.6588 7.90137 6.6588V29.8452Z" fill="#797979"/>
<path opacity="0.47" d="M7.90137 29.7884C7.90137 29.7884 6.9921 24.617 6.9921 18.3089C6.9921 12.0008 7.90137 6.82932 7.90137 6.82932V29.7884Z" fill="#787878"/>
<path opacity="0.48" d="M7.90137 29.6751C7.90137 29.6751 7.04893 24.5604 7.04893 18.2524C7.04893 11.9443 7.90137 6.88646 7.90137 6.88646V29.6183V29.6751Z" fill="#777777"/>
<path opacity="0.49" d="M7.90137 29.5615C7.90137 29.5615 7.04893 24.5036 7.04893 18.2524C7.04893 12.0011 7.90137 7.00014 7.90137 7.00014V29.5615Z" fill="#767676"/>
<path opacity="0.5" d="M7.90137 29.4466C7.90137 29.4466 7.04893 24.4456 7.04893 18.2512C7.04893 12.0568 7.90137 7.11259 7.90137 7.11259V29.4466Z" fill="#757575"/>
<path opacity="0.5" d="M7.90137 29.333C7.90137 29.333 7.04893 24.3888 7.04893 18.2512C7.04893 12.1136 7.90137 7.22627 7.90137 7.22627V29.333Z" fill="#757575"/>
<path opacity="0.51" d="M7.90137 29.2193C7.90137 29.2193 7.04893 24.2751 7.04893 18.2512C7.04893 12.2273 7.90137 7.33995 7.90137 7.33995V29.2193Z" fill="#747474"/>
<path opacity="0.52" d="M7.90137 29.106C7.90137 29.106 7.10576 24.2186 7.10576 18.2515C7.10576 12.2844 7.90137 7.45392 7.90137 7.45392V29.106Z" fill="#737373"/>
<path opacity="0.53" d="M7.90137 28.9923C7.90137 28.9923 7.10576 24.1618 7.10576 18.2515C7.10576 12.3413 7.90137 7.5676 7.90137 7.5676V29.0492V28.9923Z" fill="#727272"/>
<path opacity="0.54" d="M7.90137 28.8787C7.90137 28.8787 7.10576 24.105 7.10576 18.2516C7.10576 12.3981 7.90137 7.62444 7.90137 7.62444V28.8787Z" fill="#717171"/>
<path opacity="0.55" d="M7.90137 28.8219C7.90137 28.8219 7.10576 24.105 7.10576 18.3084C7.10576 12.5118 7.90137 7.79494 7.90137 7.79494V28.8219Z" fill="#707070"/>
<path opacity="0.55" d="M7.90137 28.7085C7.90137 28.7085 7.16258 24.0485 7.16258 18.2519C7.16258 12.4553 7.90137 7.85208 7.90137 7.85208V28.6517V28.7085Z" fill="#707070"/>
<path opacity="0.56" d="M7.90137 28.5949C7.90137 28.5949 7.16258 23.9349 7.16258 18.2519C7.16258 12.569 7.90137 7.96576 7.90137 7.96576V28.5949Z" fill="#6F6F6F"/>
<path opacity="0.57" d="M7.90137 28.4812C7.90137 28.4812 7.16258 23.878 7.16258 18.2519C7.16258 12.6258 7.90137 8.07944 7.90137 8.07944V28.4812Z" fill="#6E6E6E"/>
<path opacity="0.58" d="M7.90137 28.3679C7.90137 28.3679 7.16258 23.8215 7.16258 18.2522C7.16258 12.6829 7.90137 8.19341 7.90137 8.19341V28.3679Z" fill="#6D6D6D"/>
<path opacity="0.59" d="M7.90137 28.2542C7.90137 28.2542 7.16258 23.7647 7.16258 18.2522C7.16258 12.7398 7.90137 8.30708 7.90137 8.30708V28.2542Z" fill="#6C6C6C"/>
<path opacity="0.6" d="M7.90137 28.1406C7.90137 28.1406 7.21941 23.7079 7.21941 18.2523C7.21941 12.7966 7.90137 8.42076 7.90137 8.42076V28.1406Z" fill="#6B6B6B"/>
<path opacity="0.6" d="M7.90137 28.0257C7.90137 28.0257 7.21941 23.6499 7.21941 18.2511C7.21941 12.8523 7.90137 8.53322 7.90137 8.53322V28.0826V28.0257Z" fill="#6A6A6A"/>
<path opacity="0.61" d="M7.90137 27.9121C7.90137 27.9121 7.21941 23.5362 7.21941 18.2511C7.21941 12.9659 7.90137 8.6469 7.90137 8.6469V27.9689V27.9121Z" fill="#6A6A6A"/>
<path opacity="0.62" d="M7.90137 27.8553C7.90137 27.8553 7.21941 23.5362 7.21941 18.2511C7.21941 12.966 7.90137 8.70374 7.90137 8.70374V27.7985V27.8553Z" fill="#696969"/>
<path opacity="0.63" d="M7.90137 27.7419C7.90137 27.7419 7.21941 23.4797 7.21941 18.2514C7.21941 13.0231 7.90137 8.8177 7.90137 8.8177V27.6851V27.7419Z" fill="#686868"/>
<path opacity="0.64" d="M7.90137 27.6283C7.90137 27.6283 7.27624 23.4229 7.27624 18.2514C7.27624 13.0799 7.90137 8.93138 7.90137 8.93138V27.6283Z" fill="#676767"/>
<path opacity="0.64" d="M7.90137 27.5147C7.90137 27.5147 7.27624 23.3661 7.27624 18.2514C7.27624 13.1368 7.90137 9.04506 7.90137 9.04506V27.5147Z" fill="#666666"/>
<path opacity="0.65" d="M7.90137 27.4013C7.90137 27.4013 7.27624 23.3096 7.27624 18.2518C7.27624 13.1939 7.90137 9.15903 7.90137 9.15903V27.4013Z" fill="#656565"/>
<path opacity="0.66" d="M7.90137 27.2877C7.90137 27.2877 7.27624 23.1959 7.27624 18.2518C7.27624 13.3076 7.90137 9.27271 7.90137 9.27271V27.2877Z" fill="#656565"/>
<path opacity="0.67" d="M7.90137 27.174C7.90137 27.174 7.33307 23.1391 7.33307 18.2518C7.33307 13.3645 7.90137 9.38638 7.90137 9.38638V27.2309V27.174Z" fill="#646464"/>
<path opacity="0.68" d="M7.90137 27.0607C7.90137 27.0607 7.33307 23.0826 7.33307 18.2521C7.33307 13.4216 7.90137 9.50035 7.90137 9.50035V27.1175V27.0607Z" fill="#636363"/>
<path opacity="0.69" d="M7.90137 26.947C7.90137 26.947 7.33307 23.0258 7.33307 18.1953C7.33307 13.3648 7.90137 9.55719 7.90137 9.55719V26.947Z" fill="#626262"/>
<path opacity="0.69" d="M7.90137 26.8902C7.90137 26.8902 7.33307 23.0258 7.33307 18.2521C7.33307 13.4784 7.90137 9.67087 7.90137 9.67087V26.8334V26.8902Z" fill="#616161"/>
<path opacity="0.7" d="M7.90137 26.7766C7.90137 26.7766 7.33307 22.969 7.33307 18.2521C7.33307 13.5353 7.90137 9.78455 7.90137 9.78455V26.7197V26.7766Z" fill="#606060"/>
<path opacity="0.71" d="M7.90137 26.6617C7.90137 26.6617 7.3899 22.911 7.3899 18.2509C7.3899 13.5909 7.90137 9.897 7.90137 9.897V26.6617Z" fill="#606060"/>
<path opacity="0.72" d="M7.90137 26.5481C7.90137 26.5481 7.3899 22.7973 7.3899 18.251C7.3899 13.7046 7.90137 10.0107 7.90137 10.0107V26.5481Z" fill="#5F5F5F"/>
<path opacity="0.73" d="M7.90137 26.4347C7.90137 26.4347 7.3899 22.7408 7.3899 18.2513C7.3899 13.7618 7.90137 10.1247 7.90137 10.1247V26.4347Z" fill="#5E5E5E"/>
<path opacity="0.74" d="M7.90137 26.3211C7.90137 26.3211 7.3899 22.684 7.3899 18.2513C7.3899 13.8186 7.90137 10.2383 7.90137 10.2383V26.3211Z" fill="#5D5D5D"/>
<path opacity="0.74" d="M7.90137 26.2074C7.90137 26.2074 7.44673 22.6272 7.44673 18.2513C7.44673 13.8754 7.90137 10.352 7.90137 10.352V26.2643V26.2074Z" fill="#5C5C5C"/>
<path opacity="0.75" d="M7.90137 26.0941C7.90137 26.0941 7.44673 22.5707 7.44673 18.2516C7.44673 13.9326 7.90137 10.466 7.90137 10.466V26.1509V26.0941Z" fill="#5B5B5B"/>
<path opacity="0.76" d="M7.90137 25.9805C7.90137 25.9805 7.44673 22.5139 7.44673 18.1948C7.44673 13.8758 7.90137 10.5228 7.90137 10.5228V25.9805Z" fill="#5A5A5A"/>
<path opacity="0.77" d="M7.90137 25.9236C7.90137 25.9236 7.44673 22.457 7.44673 18.2516C7.44673 14.0463 7.90137 10.6365 7.90137 10.6365V25.8668V25.9236Z" fill="#5A5A5A"/>
<path opacity="0.78" d="M7.90137 25.8103C7.90137 25.8103 7.44673 22.4005 7.44673 18.252C7.44673 14.1034 7.90137 10.7505 7.90137 10.7505V25.7535V25.8103Z" fill="#595959"/>
<path opacity="0.79" d="M7.90137 25.6967C7.90137 25.6967 7.50356 22.3437 7.50356 18.252C7.50356 14.1603 7.90137 10.8642 7.90137 10.8642V25.6967Z" fill="#585858"/>
<path opacity="0.79" d="M7.90137 25.583C7.90137 25.583 7.50356 22.2869 7.50356 18.252C7.50356 14.2171 7.90137 10.9778 7.90137 10.9778V25.583Z" fill="#575757"/>
<path opacity="0.8" d="M7.90137 25.4694C7.90137 25.4694 7.50356 22.2301 7.50356 18.252C7.50356 14.2739 7.90137 11.0915 7.90137 11.0915V25.4694Z" fill="#565656"/>
<path opacity="0.81" d="M7.90137 25.356C7.90137 25.356 7.50356 22.1736 7.50356 18.2523C7.50356 14.3311 7.90137 11.2055 7.90137 11.2055V25.356Z" fill="#555555"/>
<path opacity="0.82" d="M7.90137 25.2412C7.90137 25.2412 7.50356 22.0587 7.50356 18.2511C7.50356 14.4436 7.90137 11.3179 7.90137 11.3179V25.298V25.2412Z" fill="#555555"/>
<path opacity="0.83" d="M7.90137 25.1275C7.90137 25.1275 7.56039 22.0019 7.56039 18.1943C7.56039 14.3867 7.90137 11.3748 7.90137 11.3748V25.1275Z" fill="#545454"/>
<path opacity="0.83" d="M7.90137 25.0139C7.90137 25.0139 7.56039 21.9451 7.56039 18.1943C7.56039 14.4436 7.90137 11.4884 7.90137 11.4884V25.0139Z" fill="#535353"/>
<path opacity="0.84" d="M7.90137 24.9571C7.90137 24.9571 7.56039 21.9451 7.56039 18.2512C7.56039 14.5573 7.90137 11.659 7.90137 11.659V24.9571Z" fill="#525252"/>
<path opacity="0.85" d="M7.90137 24.8437C7.90137 24.8437 7.56039 21.8886 7.56039 18.2515C7.56039 14.6144 7.90137 11.7161 7.90137 11.7161V24.7869V24.8437Z" fill="#515151"/>
<path opacity="0.86" d="M7.90137 24.7301C7.90137 24.7301 7.61721 21.8318 7.61721 18.2515C7.61721 14.6712 7.90137 11.8298 7.90137 11.8298V24.7301Z" fill="#505050"/>
<path opacity="0.87" d="M7.90137 24.6164C7.90137 24.6164 7.61721 21.7181 7.61721 18.2515C7.61721 14.7849 7.90137 11.9435 7.90137 11.9435V24.6164Z" fill="#4F4F4F"/>
<path opacity="0.88" d="M7.90137 24.5031C7.90137 24.5031 7.61721 21.6616 7.61721 18.2518C7.61721 14.8421 7.90137 12.0574 7.90137 12.0574V24.5031Z" fill="#4F4F4F"/>
<path opacity="0.88" d="M7.90137 24.3894C7.90137 24.3894 7.61721 21.6048 7.61721 18.2519C7.61721 14.8989 7.90137 12.1711 7.90137 12.1711V24.3894Z" fill="#4E4E4E"/>
<path opacity="0.89" d="M7.90137 24.2758C7.90137 24.2758 7.61721 21.548 7.61721 18.2519C7.61721 14.9558 7.90137 12.2848 7.90137 12.2848V24.3326V24.2758Z" fill="#4D4D4D"/>
<path opacity="0.9" d="M7.90137 24.1622C7.90137 24.1622 7.67404 21.4912 7.67404 18.1951C7.67404 14.8989 7.90137 12.3416 7.90137 12.3416V24.1622Z" fill="#4C4C4C"/>
<path opacity="0.91" d="M7.90137 24.0488C7.90137 24.0488 7.67404 21.4346 7.67404 18.1954C7.67404 14.9561 7.90137 12.4556 7.90137 12.4556V24.0488Z" fill="#4B4B4B"/>
<path opacity="0.92" d="M7.90137 23.992C7.90137 23.992 7.67404 21.3778 7.67404 18.2522C7.67404 15.1266 7.90137 12.6261 7.90137 12.6261V23.992Z" fill="#4A4A4A"/>
<path opacity="0.93" d="M7.90137 23.8784C7.90137 23.8784 7.67404 21.321 7.67404 18.2522C7.67404 15.1834 7.90137 12.6829 7.90137 12.6829V23.8215V23.8784Z" fill="#4A4A4A"/>
<path opacity="0.93" d="M7.90137 23.7635C7.90137 23.7635 7.73087 21.263 7.73087 18.251C7.73087 15.2391 7.90137 12.7954 7.90137 12.7954V23.7635Z" fill="#494949"/>
<path opacity="0.94" d="M7.90137 23.6499C7.90137 23.6499 7.73087 21.2062 7.73087 18.2511C7.73087 15.2959 7.90137 12.9091 7.90137 12.9091V23.6499Z" fill="#484848"/>
<path opacity="0.95" d="M7.90137 23.5365C7.90137 23.5365 7.73087 21.1497 7.73087 18.2514C7.73087 15.3531 7.90137 13.023 7.90137 13.023V23.5365Z" fill="#474747"/>
<path opacity="0.96" d="M7.90137 23.4229C7.90137 23.4229 7.73087 21.0929 7.73087 18.2514C7.73087 15.4099 7.90137 13.1367 7.90137 13.1367V23.4229Z" fill="#464646"/>
<path opacity="0.97" d="M7.90137 23.3092C7.90137 23.3092 7.73087 20.9792 7.73087 18.1946C7.73087 15.4099 7.90137 13.1936 7.90137 13.1936V23.3092Z" fill="#454545"/>
<path opacity="0.98" d="M7.90137 23.1956C7.90137 23.1956 7.78771 20.9224 7.78771 18.1946C7.78771 15.4668 7.90137 13.3072 7.90137 13.3072V23.1956Z" fill="#454545"/>
<path opacity="0.98" d="M7.90137 23.1391C7.90137 23.1391 7.78771 20.9227 7.78771 18.2517C7.78771 15.5807 7.90137 13.478 7.90137 13.478V23.1391Z" fill="#444444"/>
<path opacity="0.99" d="M7.90137 23.0254C7.90137 23.0254 7.78771 20.8659 7.78771 18.2517C7.78771 15.6376 7.90137 13.5917 7.90137 13.5917V23.0254Z" fill="#434343"/>
<path d="M7.90137 22.9121C7.90137 22.9121 7.78771 20.8094 7.78771 18.2521C7.78771 15.6947 7.90137 13.7057 7.90137 13.7057V22.9121Z" fill="#424242"/>
</g>
</svg>
