<svg width="106" height="75" viewBox="0 0 106 75" fill="none" xmlns="http://www.w3.org/2000/svg">
<path d="M58.5247 23.1693C58.4639 23.3121 58.4361 23.394 58.3951 23.4681C58.0487 24.1053 58.1333 24.5389 58.7402 25.077C60.718 26.8354 61.4544 29.1926 61.5786 31.7574C61.6262 32.7198 61.5125 33.6902 61.4676 34.6567C61.4372 35.3084 61.609 35.4578 62.2344 35.2952C62.4895 35.2291 62.7368 35.1339 62.9893 35.0572C63.8962 34.7809 64.511 35.1286 64.7926 36.0713C64.9948 36.7521 64.5361 37.5546 63.8076 37.7728C63.7138 37.8005 63.5842 37.8058 63.5022 37.7622C61.6143 36.7534 59.733 36.9147 57.8081 37.827C57.5834 37.3999 57.3705 36.9967 57.1246 36.53C57.8491 36.1294 57.5239 35.6548 57.2026 35.1749C55.9401 33.2844 54.1844 31.924 52.315 30.7011C52.1471 30.5913 51.7253 30.7037 51.5151 30.8491C49.926 31.9451 48.2642 32.8904 46.3498 33.2672C45.5354 33.4271 44.6906 33.4324 43.8617 33.5303C43.4294 33.5818 42.9733 33.6122 42.5793 33.7748C42.0505 33.993 42.0174 34.4702 42.4907 34.7928C42.8305 35.0242 43.2311 35.1723 43.6158 35.3296C44.339 35.6257 44.7792 36.2749 44.6999 36.961C44.6338 37.5268 43.9939 38.0715 43.2549 38.0808C42.9733 38.0848 42.574 37.9459 42.4246 37.7331C41.285 36.107 39.996 34.658 38.1094 33.8066C38.2139 33.4417 38.3064 33.1072 38.4069 32.7754C38.518 32.4078 38.6594 32.113 39.1512 32.3179C39.2623 32.3642 39.528 32.2637 39.5981 32.1527C40.4283 30.8333 41.248 29.5059 42.036 28.1601C42.192 27.8943 42.1999 27.5413 42.2964 27.1408C41.1594 27.3536 40.115 27.5863 39.06 27.741C35.7615 28.2262 32.4722 28.2896 29.2516 27.269C28.5073 27.0337 27.7696 26.678 27.1324 26.2299C25.6292 25.1749 25.6411 23.6069 27.1271 22.5162C28.4994 21.5088 30.0951 21.0937 31.7635 20.9641C35.2551 20.6917 38.5246 21.6145 41.7253 22.8758C42.0082 22.9868 42.2911 23.0992 42.652 23.2407C42.7076 22.3721 42.7485 21.5736 42.8107 20.7777C43.0619 17.5122 44.4157 14.7293 46.5415 12.2861C48.5947 9.92622 51.0193 7.99072 53.5299 6.15438C53.8803 5.89922 54.0429 5.63217 54.0707 5.18531C54.2253 2.61787 56.1608 0.478779 58.6423 0.0821609C61.4425 -0.364695 64.0853 1.04198 65.0001 3.55257C65.2381 4.20566 65.5065 4.6274 66.2336 4.64194C66.3367 4.64327 66.4385 4.70805 66.7267 4.80852C66.5165 5.22365 66.4121 5.80403 66.1107 5.93492C65.718 6.10679 65.1693 5.92302 64.5149 5.88071C64.8798 6.25618 65.1495 6.51795 65.402 6.79426C66.4504 7.94709 66.5311 8.41114 65.7815 9.7636C65.2672 10.693 64.5136 11.4942 64.3616 12.6193C64.3457 12.7396 63.8394 12.8546 63.5591 12.8572C63.3951 12.8585 63.2034 12.6549 63.0752 12.5016C62.9879 12.3971 62.9919 12.2187 62.8967 11.8485C62.4433 12.2398 62.0096 12.4976 61.7346 12.8718C60.7034 14.2798 60.3795 15.9548 60.0768 17.6259C60.0583 17.7317 60.1164 17.9035 60.1984 17.9683C61.5879 19.063 62.9998 20.1206 64.8481 20.3057C64.975 20.3189 65.1046 20.307 65.2355 20.307C65.1733 19.7055 65.1469 19.6473 64.6908 19.8522C63.9848 20.1682 63.7627 19.5878 63.4255 19.2335C63.4031 19.2097 63.6371 18.8171 63.8129 18.7444C65.4602 18.0661 67.122 17.421 68.7786 16.7652C73.5671 14.8734 78.3542 12.9828 83.1427 11.091C83.9651 10.7657 84.0021 10.7604 84.1528 11.6555C84.3339 12.729 84.4648 13.8117 84.5759 14.8958C84.6115 15.2369 84.4291 15.4233 84.01 15.4432C83.8051 15.4524 83.501 15.7671 83.4389 15.9958C83.2736 16.6185 82.9325 16.8353 82.3376 16.6581C81.8326 16.5074 81.5708 16.7309 81.4849 17.1936C81.3659 17.8387 80.9812 18.0225 80.3942 17.8652C79.8984 17.733 79.6314 17.9326 79.5481 18.4059C79.433 19.0603 79.0206 19.2071 78.4481 19.0669C77.951 18.9453 77.6906 19.1555 77.6007 19.6222C77.4936 20.1788 77.1855 20.4154 76.621 20.2753C76.0644 20.1378 75.7273 20.344 75.6282 20.9112C75.5356 21.4361 75.221 21.5947 74.7292 21.4784C74.1607 21.3435 73.7945 21.526 73.6821 22.1301C73.5843 22.6537 73.3172 22.8256 72.754 22.7224C71.8431 22.5558 71.8339 22.5995 71.7268 23.5077C71.6461 24.1912 71.3513 24.6817 70.6691 24.9646C69.6749 25.3784 68.7178 25.8822 67.7355 26.3264C67.5543 26.4083 67.3296 26.3911 67.1247 26.4202C67.1194 26.2087 67.0797 25.9919 67.1154 25.7883C67.1842 25.3996 67.3032 25.0202 67.3878 24.6341C67.4724 24.2521 67.3772 24.0088 66.9184 24.1238C64.2822 24.7901 61.7664 24.1859 59.2677 23.398C59.039 23.3253 58.8102 23.2565 58.5194 23.1666L58.5247 23.1693ZM67.7394 22.1235C67.6998 22.0759 67.6614 22.027 67.6218 21.9794C67.1273 21.9424 66.6329 21.8988 66.1384 21.8723C65.3809 21.8314 64.6075 21.8856 63.8684 21.7534C62.077 21.4321 60.6585 20.3718 59.2663 19.2758C57.3123 17.7369 55.402 16.1306 53.0619 15.1774C52.5014 14.9487 52.6309 14.5614 52.7777 14.1409C52.9363 13.6875 53.2483 13.5513 53.6542 13.7483C54.5043 14.1608 55.3583 14.5733 56.1701 15.0532C57.6825 15.9469 58.7785 15.5979 59.5228 14.0206C59.9618 13.0912 60.4879 12.1949 61.0591 11.3395C61.4451 10.7618 62.0466 10.299 62.7764 10.4022C63.3793 10.4868 63.6886 10.2329 63.9782 9.82442C64.9446 8.45873 64.9671 8.28554 63.6344 7.2583C61.8576 5.88732 59.7489 5.69827 57.5992 5.9217C57.2886 5.95343 56.8708 6.31699 56.7703 6.6171C56.683 6.87622 56.8919 7.34952 57.1206 7.57692C57.9972 8.4508 59.1024 8.84345 60.3306 8.9426C60.5131 8.95715 60.6796 9.1819 60.8528 9.31014C60.6981 9.49126 60.554 9.82177 60.3888 9.83103C58.6516 9.94076 56.9898 9.74113 55.714 8.36619C55.008 7.606 54.3337 7.49363 53.5141 8.10574C51.3049 9.75699 49.1909 11.5153 47.4194 13.6505C45.8845 15.5 44.7739 17.5717 44.4712 19.9686C44.253 21.6886 44.2332 23.4363 44.1539 25.1722C44.0653 27.117 43.7374 28.9784 42.5079 30.5741C42.348 30.7817 42.2012 31.0104 42.0968 31.2497C41.913 31.6741 42.0558 31.953 42.5383 31.957C45.2829 31.9768 47.8834 31.4626 50.1574 29.8166C51.2705 29.0101 51.9316 27.9221 51.9844 26.5313C52.0122 25.8081 51.9316 25.081 51.9064 24.3565C51.88 23.6095 51.7954 22.8573 51.8522 22.1156C51.9977 20.2436 53.2338 19.5442 54.9829 20.1709C57.278 20.9932 59.5889 21.7811 61.9277 22.466C63.4322 22.9062 65.0081 23.0344 66.5654 22.6656C66.9779 22.5677 67.3507 22.3086 67.7421 22.1222L67.7394 22.1235ZM75.6374 18.6333C76.346 18.8118 76.4663 18.4456 76.5496 18.1018C76.6871 17.5307 76.9846 17.2663 77.5795 17.4527C78.0925 17.614 78.3952 17.4091 78.4851 16.9054C78.6028 16.2509 78.9981 16.0897 79.5798 16.2523C80.0412 16.3818 80.2726 16.206 80.41 15.7671C80.492 15.5066 80.734 15.0479 80.7855 15.0637C81.9661 15.422 82.3707 14.5719 82.8043 13.7946C82.9127 13.6002 82.9061 13.3424 82.9524 13.1137C82.7501 13.078 82.5121 12.9551 82.3495 13.0198C78.464 14.5495 74.5877 16.1042 70.7061 17.6418C70.3161 17.7964 70.2011 17.9921 70.3835 18.39C70.7048 19.0894 71.0102 19.7967 71.2865 20.5133C71.4425 20.9165 71.699 21.1941 72.1128 21.0765C72.3402 21.0117 72.598 20.7288 72.6667 20.4921C72.8346 19.9091 73.1295 19.7081 73.7217 19.8694C74.0734 19.9659 74.4449 19.9593 74.552 19.4821C74.7133 18.7668 75.0491 18.353 75.6374 18.632V18.6333ZM59.2029 35.6403C59.2835 35.668 59.3655 35.6971 59.4462 35.7249C59.5969 35.4182 59.8533 35.1207 59.8798 34.8034C59.9723 33.6876 60.0556 32.5625 60.0107 31.4467C59.9578 30.163 59.6167 28.9255 58.9676 27.7991C58.3422 26.7124 57.1087 26.5868 56.2613 27.5043C55.903 27.8917 55.5408 28.2764 55.1865 28.6691C54.4805 29.4504 54.5281 30.4419 55.3478 31.1083C56.9144 32.3814 58.3528 33.755 59.2029 35.6416V35.6403ZM56.654 23.4139C56.7055 22.7581 56.457 22.3549 55.8184 22.1619C55.2949 22.0032 54.7793 21.797 54.2861 21.5577C53.7375 21.2906 53.5114 21.5246 53.407 22.027C53.3673 22.22 53.3184 22.4197 53.329 22.614C53.3951 23.8647 53.4519 25.1167 53.5603 26.3634C53.6106 26.9424 54.2914 27.2703 54.6867 26.8856C55.673 25.9245 56.4252 24.802 56.654 23.4125V23.4139ZM55.7417 4.82835C58.3012 3.81698 60.8727 4.04305 63.4441 4.19509C63.2167 2.83469 61.5271 1.56683 60.123 1.6488C60.3716 1.9185 60.6413 2.15118 60.8237 2.43807C60.9083 2.5716 60.8832 2.85188 60.792 2.98937C60.7352 3.0753 60.443 3.06869 60.2909 3.01052C60.0926 2.93517 59.9406 2.74611 59.7489 2.64299C57.8028 1.59327 56.3446 2.28207 55.7404 4.82835H55.7417ZM70.4523 22.5915C70.0292 21.6119 69.5665 20.4247 68.9848 19.2983C68.8724 19.0815 68.3013 19.0524 67.9377 19.0378C67.791 19.0326 67.6323 19.297 67.479 19.4384C67.6231 19.5548 67.7632 19.6764 67.91 19.7875C68.2471 20.0413 68.768 20.2211 68.8949 20.5529C69.2519 21.4889 69.5242 22.4778 69.0509 23.4919C69.0046 23.5897 69.1752 23.9189 69.2757 23.9334C69.7741 24.0088 70.4682 23.3174 70.4523 22.5915Z" fill="#6C42AD"/>
<path d="M46.5438 61.6321C46.5081 62.342 46.9021 62.7281 47.3714 62.8563C48.0734 63.048 48.8402 63.204 49.5502 63.1207C51.2569 62.9224 52.5129 61.9758 53.3273 60.4502C53.5137 60.1011 53.5097 59.887 53.1197 59.649C52.4455 59.2378 52.2987 58.4724 52.7006 57.8801C53.1065 57.2838 54.0822 57.145 54.7207 57.5297C55.0116 57.7056 55.387 57.8364 55.7202 57.8285C57.4085 57.7941 57.9201 58.2436 58.2123 59.9253C58.3458 60.6961 58.5481 61.4893 58.9024 62.1781C59.4973 63.3349 60.7546 63.3653 61.3006 62.1939C61.7435 61.2407 61.9537 60.154 62.1137 59.103C62.2023 58.5199 62.4217 58.4208 62.9069 58.4393C63.3723 58.4578 63.835 58.3587 63.8429 59.0964C63.8548 60.2386 64.1563 61.3214 64.8252 62.2653C65.6502 63.4301 66.6497 63.4235 67.4905 62.2719C68.0828 61.4628 68.3366 60.5731 68.5614 58.4565C68.9276 58.4565 69.3189 58.4076 69.6878 58.4803C69.8358 58.5094 70.0249 58.8002 70.0341 58.9813C70.0738 59.7283 70.0381 60.4792 70.0593 61.2275C70.0659 61.451 70.1663 61.6717 70.2245 61.8925C70.4215 61.7868 70.6581 61.718 70.8102 61.5673C71.4183 60.9618 71.9881 60.3166 72.5937 59.7085C74.1233 58.1736 75.9239 57.6765 78.0366 58.2463C78.4385 58.3547 78.9065 58.2529 79.3401 58.2079C79.9046 58.1484 80.14 58.3349 80.1043 58.9377C80.058 59.7058 80.0818 60.4792 80.0977 61.25C80.1201 62.2786 80.6609 62.9753 81.5255 63.126C82.4033 63.2794 83.2032 62.8457 83.5482 61.9057C83.7571 61.3373 83.8325 60.7132 83.9105 60.1064C83.929 59.961 83.7545 59.7098 83.6064 59.6371C82.7431 59.2101 82.4602 58.6945 82.8013 58.0718C83.1119 57.5046 84.0374 57.3036 84.6693 57.7637C85.0699 58.0559 85.4427 58.0533 85.8922 58.0466C86.5229 58.0374 87.1746 58.0718 87.7841 58.2238C88.6712 58.4459 89.0044 59.0303 89.0017 59.9425C89.0004 60.6643 88.9845 61.4034 89.126 62.1054C89.3468 63.2014 90.3912 63.5358 91.232 62.7915C91.5969 62.4689 91.9341 62.0221 92.0848 61.566C92.8648 59.2035 94.8637 57.8074 97.2778 58.0176C98.1398 58.0929 98.1173 58.0956 98.0142 57.2481C97.7048 54.6873 97.41 52.1172 97.9957 49.5617C98.1332 48.9601 98.4201 48.3361 98.8074 47.8589C99.7778 46.665 101.489 46.9572 102.056 48.3811C102.249 48.8649 102.392 49.3964 102.419 49.9147C102.592 53.0294 102.41 56.1217 101.662 59.1611C101.536 59.6701 101.33 60.1646 101.117 60.6445C100.731 61.5171 101.076 62.6249 101.885 63.011C102.643 63.3719 103.432 63.007 103.921 62.067C104.257 61.4232 104.73 61.2751 105.365 61.6638C105.479 61.7325 105.572 61.9996 105.531 62.1278C105.132 63.3838 104.363 64.2987 103.026 64.5922C101.826 64.8566 100.85 64.4163 100.129 63.4618C99.7963 63.0202 99.598 63.126 99.249 63.4301C97.927 64.5829 96.3867 65.0655 94.6562 64.6834C94.1154 64.5644 93.5721 64.296 93.1252 63.9655C92.7379 63.6786 92.5475 63.7381 92.1707 63.9721C91.6617 64.2868 91.0721 64.5472 90.4864 64.645C89.3045 64.842 88.2164 64.2154 87.8529 63.0268C87.5752 62.1212 87.5131 61.1337 87.4708 60.1778C87.4509 59.7389 87.3518 59.571 86.9472 59.5538C86.8375 59.5485 86.7265 59.5445 86.6167 59.5432C85.4718 59.5234 85.5498 59.5353 85.3753 60.6643C85.2431 61.5157 85.0223 62.4174 84.586 63.1432C83.4808 64.9808 81.0363 65.2109 79.5345 63.6892C79.1868 63.3375 78.9805 63.3507 78.609 63.6403C77.3081 64.6543 75.8327 65.0417 74.2013 64.6874C73.3552 64.5036 72.6188 64.0977 72.1574 63.3455C71.8414 62.8299 71.5889 62.9158 71.257 63.2965C71.0111 63.5781 70.6925 63.8069 70.4902 64.1136C70.2893 64.4216 70.0883 64.7918 70.0685 65.1461C69.9495 67.2759 69.9178 69.4124 69.7763 71.5396C69.734 72.1808 69.5119 72.8405 69.2422 73.4328C68.3591 75.3669 66.1116 75.5401 64.9019 73.7897C64.1391 72.6871 64.1391 71.4775 64.4828 70.2413C64.9958 68.3984 66.0402 66.8529 67.2406 65.3999C67.5632 65.0099 67.9215 64.649 68.2401 64.255C68.3736 64.0898 68.4463 63.8756 68.4318 63.6072C68.3631 63.6522 68.289 63.6892 68.2269 63.7421C66.6034 65.1131 64.9032 64.9174 63.6301 63.2093C63.5375 63.0863 63.4529 62.9568 63.3683 62.8285C63.1422 62.4861 62.9281 62.506 62.7232 62.847C62.7007 62.8854 62.6782 62.9224 62.6544 62.9594C62.0344 63.9602 61.2054 64.6292 59.9614 64.5459C58.6763 64.4586 57.8408 63.6932 57.3913 62.5602C57.0713 61.7511 56.9127 60.8772 56.7104 60.0244C56.6337 59.6992 56.6549 59.3304 56.179 59.3515C55.7638 59.37 55.3566 59.2696 55.1623 59.8883C54.1734 63.0374 51.5742 64.8619 48.4052 64.7006C48.2519 64.6926 48.0959 64.6847 47.9452 64.6543C46.5927 64.3793 45.4584 63.7725 45.0737 62.3486C44.7088 60.9962 45.3116 59.8843 46.2543 58.9668C47.222 58.0242 48.3947 57.5971 49.759 57.8457C50.7955 58.0347 51.5941 58.7896 51.6985 59.6635C51.8109 60.5995 51.286 61.4192 50.2588 61.874C49.2329 62.3288 48.1977 62.231 47.1665 61.8833C46.9814 61.8211 46.8042 61.7365 46.5425 61.6294L46.5438 61.6321ZM75.5445 63.2899C76.4726 63.2463 77.4998 62.8576 78.2164 61.8819C78.8655 60.9988 78.5879 60.0813 77.558 59.7177C76.3906 59.3052 75.2933 59.5578 74.2951 60.236C73.4622 60.8018 73.0788 61.5964 73.2705 62.2217C73.4702 62.8722 74.266 63.2939 75.5445 63.2913V63.2899ZM95.5248 63.3058C96.8032 63.2582 97.7895 62.8867 98.5179 61.9943C99.2887 61.049 98.978 60.0509 97.8225 59.6715C96.3061 59.173 94.8796 59.7891 94.0057 61.3201C93.4703 62.2574 93.6712 62.8047 94.7024 63.1419C95.0118 63.2437 95.3436 63.2714 95.5261 63.3058H95.5248ZM101.077 52.4887C100.984 51.5051 100.896 50.3906 100.755 49.2854C100.727 49.0725 100.485 48.8861 100.342 48.6878C100.132 48.853 99.8572 48.9786 99.7263 49.1928C99.5584 49.4638 99.4685 49.7996 99.4103 50.1209C98.933 52.7359 99.2477 55.3285 99.6866 57.9131C99.7223 58.126 99.9391 58.3071 100.071 58.5041C100.185 58.3124 100.373 58.1299 100.401 57.9277C100.637 56.1667 100.843 54.4017 101.077 52.4914V52.4887ZM68.5838 68.68C68.5627 68.6773 68.5415 68.6747 68.5204 68.672C68.5204 68.2318 68.5429 67.7902 68.5098 67.3526C68.4953 67.1649 68.3657 66.9864 68.289 66.804C68.133 66.9044 67.9175 66.9679 67.8316 67.1107C67.2538 68.0679 66.6272 69.0065 66.1737 70.0219C65.908 70.6181 65.8604 71.3413 65.8419 72.0102C65.8221 72.7149 66.3786 73.3878 66.8824 73.4592C67.3702 73.528 67.8065 73.1168 68.0682 72.3249C68.1436 72.0962 68.2123 71.8608 68.2427 71.6229C68.3657 70.6432 68.4715 69.6609 68.5838 68.68ZM48.7529 60.8203C49.2434 60.5665 49.6956 60.3484 50.1226 60.0879C50.1728 60.0575 50.1345 59.7336 50.0406 59.6437C49.6229 59.2418 49.0782 59.1466 48.5745 59.3687C48.1501 59.5564 47.7984 59.9108 47.415 60.1897C47.8288 60.384 48.2413 60.5784 48.7529 60.819V60.8203Z" fill="#6C42AD"/>
<path d="M27.5235 64.149H26.0679C25.8894 63.205 25.7678 62.2902 25.5324 61.407C25.4002 60.9113 25.1318 60.4261 24.8304 60.0043C24.4417 59.4597 23.9182 59.4319 23.6035 60.0043C23.1765 60.7804 22.8658 61.6358 22.6226 62.4898C22.4507 63.09 22.4745 63.7471 22.3978 64.5126C21.9298 64.4478 21.4737 64.3817 21.0163 64.3235C20.9013 64.309 20.7691 64.2878 20.6673 64.3275C19.2659 64.888 18.4581 64.6646 17.6067 63.4628C17.2171 62.9138 16.8033 62.9019 16.3653 63.4272C14.9573 65.1154 12.9914 65.089 11.5768 63.361C11.0123 62.6723 10.9911 62.6723 10.4345 63.3796C9.08866 65.0863 6.98262 65.1921 5.2137 63.6413C4.45352 62.975 4.4826 63.0081 3.7092 63.6757C2.87762 64.3936 1.99052 65.0467 1.11928 65.717C0.820497 65.947 0.503203 66.0157 0.306216 65.5914C0.12906 65.208 -0.288711 64.8629 0.315471 64.4094C1.31495 63.6585 2.247 62.8177 3.20681 62.0125C3.53469 61.7376 3.56906 61.4467 3.40512 61.025C2.26683 58.1098 2.04869 55.081 2.42019 51.9993C2.47704 51.5286 2.65287 51.0553 2.85779 50.623C3.28878 49.7121 3.99476 49.1899 5.05638 49.2481C6.06246 49.3023 6.6759 49.8655 7.03021 50.7526C7.54185 52.0323 7.54185 53.3782 7.48235 54.724C7.37923 57.0561 7.04079 59.3261 5.6989 61.333C5.59578 61.4864 5.64601 61.8539 5.765 62.0192C5.97785 62.3153 6.27664 62.5678 6.58071 62.7793C7.69124 63.5514 8.8758 63.3227 9.43504 62.0866C9.80521 61.2669 9.95064 60.3269 10.0789 59.424C10.2084 58.5091 10.1516 58.5078 11.0427 58.5421C11.4499 58.558 11.6125 58.7127 11.6627 59.1278C11.7394 59.7584 11.8451 60.3957 12.0408 60.9972C12.2021 61.4903 12.4559 61.9755 12.7666 62.392C13.5255 63.4073 14.4311 63.4073 15.219 62.4211C15.9303 61.53 16.237 60.4737 16.2992 59.3565C16.3335 58.7418 16.5662 58.4998 17.1942 58.5369C17.6556 58.5633 17.8526 58.7034 17.8962 59.186C17.9584 59.8616 18.0826 60.5371 18.2373 61.1982C18.3325 61.6001 18.4766 62.0178 18.7093 62.3497C18.9314 62.6656 19.2844 63.0517 19.607 63.0781C19.8304 63.0966 20.2283 62.5969 20.3262 62.2637C20.5853 61.3846 20.7162 60.4671 20.9118 59.5681C20.9819 59.2442 21.0255 58.7048 21.1974 58.6532C21.6099 58.5289 22.0924 58.636 22.5446 58.7299C24.0517 57.6987 25.157 57.8679 26.2794 59.4068C26.6826 59.9594 26.8294 59.9567 27.2405 59.3949C28.5586 57.5889 30.5311 57.6735 31.647 59.6157C31.9378 60.1233 32.0581 60.7249 32.304 61.2616C32.538 61.7733 32.7601 62.3179 33.1158 62.741C33.5732 63.283 34.2937 63.2857 34.849 62.8851C35.4479 62.4528 35.6184 61.8275 35.3117 61.1678C34.3942 59.1926 34.0769 57.0786 34.0174 54.9395C33.9764 53.4535 34.102 51.9543 34.2765 50.4763C34.3413 49.9236 34.6718 49.3406 35.0341 48.8977C36.0296 47.6788 37.8672 47.9842 38.367 49.4702C38.6274 50.2475 38.7583 51.1108 38.7372 51.9292C38.6896 53.7523 38.5362 55.5741 38.3709 57.392C38.2903 58.2843 38.3643 58.4073 39.2131 58.1892C40.2919 57.9115 41.3522 57.9234 42.3781 58.3914C44.0558 59.1569 44.6058 60.9549 43.6592 62.5387C42.312 64.7928 38.8813 65.5173 36.7633 63.9811C36.4738 63.7709 36.2556 63.6982 35.9516 63.9507C34.1218 65.4697 31.9471 64.3989 31.1961 62.7C31.0454 62.3602 30.9529 61.9954 30.8286 61.6424C30.6977 61.2696 30.6343 60.8452 30.4082 60.5424C30.1358 60.1789 29.7273 59.6884 29.369 59.6818C29.0253 59.6751 28.515 60.1511 28.3563 60.5318C28.0139 61.3528 27.8368 62.2452 27.6239 63.1151C27.5459 63.4311 27.5578 63.7682 27.5235 64.1516V64.149ZM39.5568 63.2923C40.4677 63.2659 41.491 62.8785 42.2261 61.9293C42.9294 61.021 42.6306 60.0493 41.5386 59.695C40.395 59.3235 39.3255 59.5733 38.3458 60.2238C37.5301 60.7645 37.1242 61.5604 37.2988 62.191C37.4812 62.8468 38.2731 63.2844 39.5568 63.2923ZM3.64442 54.375C3.86123 55.9298 4.05161 57.4118 4.28958 58.8859C4.32263 59.0908 4.58043 59.2587 4.73379 59.4438C4.89112 59.2838 5.10794 59.1503 5.19651 58.9586C5.80466 57.6273 5.91836 56.1902 5.94083 54.7624C5.95802 53.6942 5.84432 52.614 5.68039 51.5564C5.63544 51.2642 5.2018 50.8332 4.94003 50.8279C4.67033 50.8226 4.2248 51.2166 4.14944 51.5114C3.90618 52.462 3.7991 53.4469 3.64574 54.375H3.64442ZM35.3633 53.4007C35.5298 54.9382 35.662 56.3581 35.8551 57.7701C35.8908 58.0345 36.1671 58.2658 36.3337 58.5117C36.483 58.2751 36.7316 58.0517 36.7633 57.8005C36.9577 56.2775 37.1692 54.7518 37.2393 53.2209C37.2855 52.2015 37.1229 51.1703 37.0105 50.1497C36.992 49.9805 36.7726 49.7306 36.6179 49.7081C36.454 49.6843 36.2147 49.8509 36.0877 50.003C35.9384 50.1801 35.8233 50.4207 35.7837 50.6494C35.6197 51.5974 35.4915 52.5506 35.3646 53.402L35.3633 53.4007Z" fill="#6C42AD"/>
<path d="M60.3212 6.77588C60.6531 7.12094 61.0563 7.34965 61.0563 7.57837C61.0563 8.08868 60.5512 8.17594 60.1692 8.09001C59.8823 8.02522 59.647 7.73305 59.3892 7.54135C59.6668 7.31264 59.9457 7.08524 60.3212 6.7772V6.77588Z" fill="#6C42AD"/>
</svg>
