<svg width="101" height="61" viewBox="0 0 101 61" fill="none" xmlns="http://www.w3.org/2000/svg">
<path d="M30.1978 60.2653C46.8756 60.2653 60.3956 46.7747 60.3956 30.1333C60.3956 13.4918 46.8756 0.0012207 30.1978 0.0012207C13.52 0.0012207 0 13.4918 0 30.1333C0 46.7747 13.52 60.2653 30.1978 60.2653Z" fill="#ED1C2E"/>
<path d="M70.7392 0C62.933 0 55.8258 2.95353 50.466 7.80054C49.3772 8.78757 48.3577 9.85517 47.419 10.9895H53.5194C54.3534 12.0017 55.1217 13.0655 55.822 14.181H45.1164C44.4754 15.2058 43.8925 16.2708 43.3765 17.3724H57.5606C58.0451 18.406 58.4729 19.4699 58.84 20.5614H42.0971C41.7476 21.6013 41.4549 22.6651 41.2202 23.7516H59.7156C60.161 25.8088 60.3944 27.9427 60.3944 30.1333C60.3944 33.4784 59.8469 36.6988 58.84 39.7052H42.0971C42.4643 40.7992 42.8907 41.8643 43.3752 42.8967H57.5606C57.0433 43.9983 56.463 45.0633 55.8195 46.0869H45.1164C45.8141 47.1998 46.5838 48.2636 47.419 49.2758H53.5181C52.5807 50.4102 51.5612 51.479 50.4673 52.466C55.827 57.3118 62.9355 60.2628 70.7392 60.2628C87.4165 60.2641 100.937 46.773 100.937 30.132C100.937 13.4936 87.4165 0 70.7392 0Z" fill="#FCB131"/>
<path d="M96.9131 46.9292C96.9131 46.3916 97.3509 45.9585 97.8871 45.9585C98.4271 45.9585 98.8612 46.3941 98.8612 46.9292C98.8612 47.468 98.4246 47.9023 97.8871 47.9023C97.3496 47.9023 96.9131 47.468 96.9131 46.9292ZM97.8871 47.6694C98.2947 47.6694 98.6278 47.3371 98.6278 46.9292C98.6278 46.5187 98.2947 46.1901 97.8871 46.1901C97.4771 46.1901 97.1452 46.5187 97.1452 46.9292C97.1452 47.3371 97.4771 47.6694 97.8871 47.6694ZM97.7559 47.3572H97.5553V46.5024H97.9174C97.9944 46.5024 98.0701 46.5024 98.1382 46.5427C98.2063 46.5905 98.2455 46.6736 98.2455 46.7579C98.2455 46.8549 98.1899 46.943 98.0966 46.9795L98.2556 47.3572H98.0335L97.9023 47.0185H97.7572V47.3572H97.7559ZM97.7559 46.8712H97.8669C97.9086 46.8712 97.9502 46.8738 97.9893 46.8549C98.0221 46.8322 98.0411 46.7932 98.0411 46.7567C98.0411 46.7252 98.0171 46.6849 97.9919 46.6698C97.9565 46.6484 97.901 46.6522 97.8619 46.6522H97.7559V46.8712Z" fill="#FCB131"/>
<path d="M23.1458 33.4315C22.8026 33.3924 22.6499 33.3799 22.414 33.3799C20.5555 33.3799 19.6168 34.0169 19.6168 35.2733C19.6168 36.0463 20.0748 36.5386 20.7914 36.5386C22.1263 36.5386 23.089 35.2708 23.1458 33.4315ZM25.5304 38.9697C25.0926 38.9697 22.8139 38.9697 22.8139 38.9697L22.8758 37.6843C22.0468 38.7028 20.9416 39.1862 19.4401 39.1862C17.6636 39.1862 16.4448 37.8001 16.4448 35.792C16.4448 32.7655 18.5632 30.9979 22.2008 30.9979C22.573 30.9979 23.0486 31.0319 23.5369 31.0936C23.6391 30.6832 23.6656 30.5082 23.6656 30.2866C23.6656 29.4645 23.0953 29.156 21.5636 29.156C19.9587 29.1397 18.6364 29.5388 18.0926 29.7163C18.1267 29.5098 18.5468 26.9214 18.5468 26.9214C20.1795 26.4417 21.257 26.2629 22.4695 26.2629C25.2844 26.2629 26.777 27.5232 26.7732 29.9076C26.7782 30.5472 26.6723 31.334 26.5082 32.3727C26.2243 34.1692 25.6124 38.0292 25.5304 38.9697Z" fill="#003473"/>
<path d="M15.0733 38.9699H11.7941L13.6728 27.2212L9.47887 38.9699H7.24564L6.96933 27.2867L4.99475 38.9699H1.92627L4.49007 23.686H9.20382L9.48897 32.2407L12.3657 23.686H17.6093L15.0733 38.9699Z" fill="#003473"/>
<path d="M74.7877 33.4315C74.4458 33.3924 74.2931 33.3799 74.0597 33.3799C72.1999 33.3799 71.2612 34.0169 71.2612 35.2733C71.2612 36.0463 71.7167 36.5386 72.4359 36.5386C73.7733 36.5386 74.7334 35.2708 74.7877 33.4315ZM77.1761 38.9697C76.737 38.9697 74.4609 38.9697 74.4609 38.9697L74.5227 37.6843C73.6951 38.7028 72.5885 39.1862 71.0871 39.1862C69.3081 39.1862 68.0918 37.8001 68.0918 35.792C68.0918 32.7655 70.2127 30.9979 73.8477 30.9979C74.2212 30.9979 74.6956 31.0319 75.1851 31.0936C75.2861 30.6832 75.3126 30.5082 75.3126 30.2866C75.3126 29.4645 74.7435 29.156 73.2131 29.156C71.6094 29.1397 70.2859 29.5388 69.7409 29.7163C69.7749 29.5098 70.1963 26.9214 70.1963 26.9214C71.8303 26.4417 72.9065 26.2629 74.1165 26.2629C76.9326 26.2629 78.4239 27.5232 78.4214 29.9076C78.4265 30.5472 78.3218 31.334 78.1552 32.3727C77.8701 34.1692 77.2569 38.0292 77.1761 38.9697Z" fill="#003473"/>
<path d="M40.0993 38.781C39.2022 39.0631 38.502 39.1827 37.7437 39.1827C36.0681 39.1827 35.1534 38.2221 35.1534 36.4532C35.1294 35.9018 35.3944 34.459 35.6025 33.1384C35.7918 31.9776 37.0245 24.6567 37.0245 24.6567H40.2835L39.9037 26.5376H41.872L41.4279 29.5252H39.4533C39.0748 31.8882 38.5348 34.8342 38.5297 35.2245C38.5297 35.8653 38.8716 36.1448 39.6526 36.1448C40.0261 36.1448 40.315 36.107 40.5358 36.0264L40.0993 38.781Z" fill="#003473"/>
<path d="M50.0911 38.6801C48.9707 39.0213 47.8919 39.1875 46.7475 39.1824C43.0987 39.1799 41.1973 37.2776 41.1973 33.6392C41.1973 29.3902 43.616 26.2629 46.9015 26.2629C49.5876 26.2629 51.3036 28.0142 51.3036 30.76C51.3036 31.674 51.185 32.5615 50.9023 33.8167H44.4121C44.1926 35.6208 45.3483 36.3712 47.2459 36.3712C48.4105 36.3712 49.464 36.132 50.6336 35.5906L50.0911 38.6801ZM48.2591 31.3126C48.278 31.052 48.6035 29.0931 46.7425 29.0931C45.7054 29.0931 44.9622 29.8825 44.6619 31.3126H48.2591Z" fill="#003473"/>
<path d="M27.4964 30.4705C27.4964 32.0429 28.2597 33.1256 29.9933 33.9402C31.3207 34.5621 31.5263 34.7484 31.5263 35.3124C31.5263 36.0867 30.9409 36.438 29.6438 36.438C28.6648 36.438 27.7551 36.2869 26.7053 35.9457C26.7053 35.9457 26.2751 38.6865 26.2549 38.8161C26.9993 38.9785 27.6642 39.1284 29.6665 39.185C33.1262 39.185 34.7235 37.8694 34.7235 35.0292C34.7235 33.3233 34.056 32.3211 32.412 31.5645C31.038 30.9375 30.8791 30.7953 30.8791 30.2149C30.8791 29.5439 31.4254 29.2002 32.484 29.2002C33.1274 29.2002 34.0068 29.2682 34.8396 29.3852L35.3064 26.5022C34.4573 26.3675 33.1703 26.2605 32.4209 26.2605C28.7543 26.263 27.4851 28.1741 27.4964 30.4705Z" fill="#003473"/>
<path d="M66.0354 26.5904C66.9476 26.5904 67.7968 26.8271 68.9651 27.415L69.5013 24.0976C69.0194 23.9088 67.3299 22.8047 65.9004 22.8047C63.7076 22.8047 61.8491 23.8912 60.5457 25.6839C58.643 25.0545 57.8595 26.326 56.9006 27.5925L56.049 27.7902C56.1146 27.3735 56.1739 26.9593 56.1537 26.54H53.1407C52.7307 30.3874 52.0027 34.2839 51.4324 38.1326L51.2822 38.9685H54.5652C55.1128 35.4208 55.4105 33.1483 55.5922 31.6074L56.8274 30.9237C57.0117 30.2376 57.5895 30.0072 58.7465 30.0362C58.5964 30.8469 58.5131 31.6993 58.5131 32.5831C58.5131 36.6483 60.7148 39.1813 64.2425 39.1813C65.1535 39.1813 65.932 39.0604 67.1419 38.7356L67.716 35.2495C66.6297 35.7846 65.7402 36.0339 64.9314 36.0339C63.0262 36.0339 61.873 34.6314 61.873 32.3111C61.873 28.9484 63.5852 26.5904 66.0354 26.5904Z" fill="#003473"/>
<path d="M93.7903 23.686L93.0623 28.1012C92.1678 26.9253 91.2038 26.073 89.9345 26.073C88.2792 26.073 86.7752 27.3244 85.7898 29.1676C84.4146 28.883 82.9976 28.3996 82.9976 28.3996L82.9951 28.4122C83.1062 27.3824 83.1528 26.7554 83.1402 26.5414H80.1273C79.7197 30.3888 78.9905 34.2852 78.4189 38.1339L78.27 38.9699H81.5505C81.9959 36.1032 82.3315 33.7175 82.58 31.829C83.7017 30.8168 84.2631 29.9393 85.3924 29.9947C84.8927 31.2058 84.5975 32.5982 84.5975 34.0272C84.5975 37.1355 86.1721 39.1864 88.5567 39.1864C89.7592 39.1864 90.6815 38.7709 91.5798 37.8141L91.4246 38.9699H94.5272L97.0241 23.686H93.7903ZM89.691 36.0982C88.5744 36.0982 88.0104 35.2735 88.0104 33.6482C88.0104 31.2071 89.0665 29.4735 90.5553 29.4735C91.682 29.4735 92.2927 30.3296 92.2927 31.9083C92.2889 34.3709 91.2164 36.0982 89.691 36.0982Z" fill="#003473"/>
<path d="M16.0159 38.0634H12.738L14.6166 26.3147L10.4227 38.0634H8.18949L7.91318 26.3827L5.93986 38.0634H2.87012L5.43391 22.7795H10.1477L10.2789 32.2407L13.4597 22.7795H18.5519L16.0159 38.0634Z" fill="white"/>
<path d="M24.0899 32.524C23.7467 32.4862 23.5941 32.4749 23.3581 32.4749C21.4996 32.4749 20.5596 33.1107 20.5596 34.3659C20.5596 35.1376 21.0189 35.6336 21.7343 35.6336C23.0704 35.6336 24.0331 34.3634 24.0899 32.524ZM26.4733 38.0634C26.0367 38.0634 23.7568 38.0634 23.7568 38.0634L23.8186 36.7768C22.991 37.7953 21.8844 38.2787 20.383 38.2787C18.6065 38.2787 17.3877 36.8939 17.3877 34.8833C17.3877 31.858 19.5061 30.0917 23.1436 30.0917C23.5146 30.0917 23.9915 30.1257 24.4798 30.1886C24.5807 29.7782 24.6072 29.6032 24.6072 29.3791C24.6072 28.557 24.0369 28.2511 22.5052 28.2511C20.9003 28.2322 19.5793 28.6313 19.0342 28.8088C19.0696 28.6023 19.4897 26.0139 19.4897 26.0139C21.1224 25.5368 22.1999 25.3555 23.4136 25.3555C26.2285 25.3555 27.7198 26.6182 27.7173 29.0002C27.7224 29.6397 27.6164 30.4291 27.4524 31.4652C27.1685 33.2618 26.5578 37.1255 26.4733 38.0634Z" fill="white"/>
<path d="M70.445 23.1913L69.9075 26.5087C68.7354 25.9208 67.8875 25.6841 66.9791 25.6841C64.5326 25.6841 62.8142 28.0446 62.8142 31.4111C62.8142 33.7301 63.9686 35.1314 65.8751 35.1314C66.6838 35.1314 67.5759 34.8833 68.6597 34.347L68.0831 37.8331C66.8756 38.1604 66.0959 38.2788 65.1862 38.2788C61.6559 38.2788 59.458 35.7457 59.458 31.6818C59.458 26.2179 62.4975 22.3982 66.8415 22.3982C68.2723 22.3969 69.9643 23.0038 70.445 23.1913Z" fill="white"/>
<path d="M75.7315 32.524C75.3896 32.4862 75.237 32.4749 75.0023 32.4749C73.1438 32.4749 72.2025 33.1107 72.2025 34.3659C72.2025 35.1376 72.6618 35.6336 73.3797 35.6336C74.7146 35.6336 75.6773 34.3634 75.7315 32.524ZM78.1187 38.0634C77.6809 38.0634 75.4048 38.0634 75.4048 38.0634L75.4666 36.7768C74.6389 37.7953 73.5324 38.2787 72.0297 38.2787C70.2519 38.2787 69.0356 36.8939 69.0356 34.8833C69.0356 31.858 71.1541 30.0917 74.7916 30.0917C75.1638 30.0917 75.6394 30.1257 76.1277 30.1886C76.2287 29.7782 76.2564 29.6032 76.2564 29.3791C76.2564 28.557 75.6874 28.2511 74.1544 28.2511C72.5508 28.2322 71.231 28.6313 70.6847 28.8088C70.7188 28.6023 71.1389 26.0139 71.1389 26.0139C72.7728 25.5368 73.8478 25.3555 75.0616 25.3555C77.8765 25.3555 79.3678 26.6182 79.3628 29.0002C79.3716 29.6397 79.2643 30.4291 79.0991 31.4652C78.8139 33.2618 78.2007 37.1255 78.1187 38.0634Z" fill="white"/>
<path d="M41.0431 37.872C40.146 38.1553 39.4471 38.2774 38.6888 38.2774C37.0132 38.2774 36.0972 37.3143 36.0972 35.5467C36.0732 34.9953 36.3382 33.5525 36.5464 32.2331C36.7356 31.0699 37.9683 23.7502 37.9683 23.7502H41.2273L40.8463 25.6324H42.5181L42.0727 28.6187H40.3946C40.0161 30.9842 39.4761 33.9277 39.4698 34.318C39.4698 34.9601 39.813 35.237 40.5927 35.237C40.9662 35.237 41.2551 35.2005 41.4759 35.1199L41.0431 37.872Z" fill="white"/>
<path d="M51.0351 37.7739C49.916 38.1151 48.8347 38.2775 47.6916 38.2775C44.0427 38.2737 42.1426 36.3714 42.1426 32.733C42.1426 28.484 44.5613 25.3555 47.8442 25.3555C50.533 25.3555 52.2489 27.1067 52.2489 29.855C52.2489 30.7665 52.129 31.6566 51.8477 32.9118H45.3587C45.1379 34.7159 46.2949 35.4675 48.19 35.4675C49.3558 35.4675 50.408 35.227 51.5789 34.6831L51.0351 37.7739ZM49.2044 30.4052C49.222 30.1458 49.5488 28.1869 47.6865 28.1869C46.6494 28.1869 45.9063 28.9775 45.6047 30.4052H49.2044Z" fill="white"/>
<path d="M28.4403 29.5629C28.4403 31.1366 29.2049 32.2181 30.9372 33.0364C32.2645 33.6571 32.4689 33.8434 32.4689 34.4062C32.4689 35.1804 31.8835 35.5329 30.5864 35.5329C29.6086 35.5329 28.6976 35.3806 27.6479 35.0432C27.6479 35.0432 27.2177 37.7827 27.1987 37.9099C27.9431 38.0723 28.6081 38.2221 30.6104 38.2787C34.07 38.2787 35.6673 36.9644 35.6673 34.1241C35.6673 32.417 34.9986 31.4161 33.3559 30.662C31.9819 30.03 31.8242 29.8915 31.8242 29.3111C31.8242 28.6388 32.3692 28.2926 33.4278 28.2926C34.07 28.2926 34.9507 28.3644 35.7834 28.4815L36.2502 25.5984C35.4011 25.465 34.1142 25.3555 33.3647 25.3555C29.6982 25.3555 28.4289 27.2666 28.4403 29.5629Z" fill="white"/>
<path d="M95.4715 38.0634H92.3702L92.5228 36.9064C91.6232 37.8657 90.7034 38.2786 89.4998 38.2786C87.1164 38.2786 85.5405 36.2303 85.5405 33.1207C85.5405 28.9862 87.9845 25.5014 90.875 25.5014C92.1481 25.5014 93.1095 26.0189 94.0053 27.1972L94.7321 22.7795H97.9659L95.4715 38.0634ZM90.6341 35.1929C92.162 35.1929 93.2344 33.4669 93.2344 31.0031C93.2344 29.4256 92.6263 28.5657 91.4971 28.5657C90.0095 28.5657 88.9547 30.2981 88.9547 32.7417C88.9547 34.3683 89.52 35.1929 90.6341 35.1929Z" fill="white"/>
<path d="M81.0727 25.6349C80.6639 29.4823 79.9346 33.3775 79.363 37.2275L79.2129 38.0634H82.4921C83.668 30.4618 83.9468 28.9787 85.7877 29.165C86.0791 27.609 86.6254 26.2468 87.0305 25.5594C85.6577 25.2736 84.8919 26.0491 83.8863 27.5196C83.9658 26.8838 84.1121 26.2657 84.0831 25.6349H81.0727Z" fill="white"/>
<path d="M54.0858 25.6349C53.6745 29.4823 52.944 33.3775 52.375 37.2275L52.2261 38.0634H55.5078C56.6812 30.4618 56.9625 28.9787 58.7983 29.165C59.0923 27.609 59.6411 26.2468 60.0449 25.5594C58.6722 25.2736 57.9063 26.0491 56.9007 27.5196C56.9802 26.8838 57.1278 26.2657 57.0963 25.6349H54.0858Z" fill="white"/>
<path d="M96.9106 37.0902C96.9106 36.5488 97.351 36.1157 97.8847 36.1157C98.4247 36.1157 98.8587 36.5526 98.8587 37.0902C98.8587 37.6252 98.4222 38.0608 97.8847 38.0608C97.3485 38.0633 96.9106 37.6252 96.9106 37.0902ZM97.8847 37.8292C98.2947 37.8292 98.6266 37.4955 98.6266 37.0902C98.6266 36.681 98.2947 36.3474 97.8847 36.3474C97.4759 36.3474 97.1441 36.681 97.1441 37.0902C97.1441 37.4993 97.4759 37.8292 97.8847 37.8292ZM97.7535 37.5144H97.5541V36.6596H97.9188C97.9945 36.6596 98.0689 36.6621 98.1358 36.7037C98.2077 36.749 98.2455 36.8333 98.2455 36.9177C98.2455 37.0121 98.19 37.1028 98.0979 37.1393L98.2556 37.5132H98.0336L97.9024 37.1758H97.7573V37.5144H97.7535ZM97.7535 37.031H97.8645C97.9061 37.031 97.9503 37.0335 97.9882 37.0121C98.0197 36.992 98.0374 36.9504 98.0374 36.9152C98.0374 36.8837 98.0172 36.8447 97.9894 36.827C97.9566 36.8069 97.8998 36.8119 97.862 36.8119H97.7535V37.031Z" fill="white"/>
</svg>
