<svg width="181" height="42" viewBox="0 0 181 42" fill="none" xmlns="http://www.w3.org/2000/svg">
<path d="M0 41.3343V7.23199C0 4.14553 2.41333 1.90634 5.67133 1.90634C8.92933 1.90634 10.8298 3.17723 12.2778 5.99135L20.815 23.0274H20.9357V2.54179H30.4985V36.3112C30.4985 39.8516 27.8438 41.9697 25.4305 41.9697C23.0172 41.9697 21.1468 40.8199 18.6128 35.8876L9.71367 18.6095H9.593V41.304H0V41.3343ZM47.8745 30.683L44.2847 24.9337L51.9772 19.7896C50.5593 18.8818 49.4432 18.7608 48.3572 18.7608C44.4958 18.7608 42.3842 22.7853 42.3842 26.2349C42.3842 29.6844 44.9182 33.5879 48.7192 33.5879C52.2487 33.5879 55.6877 30.4107 57.1055 27.0519L63.8327 30.5922C61.1478 37.1888 55.1447 41.9697 48.0555 41.9697C40.2122 41.9697 33.3342 35.0706 33.3342 26.719C33.3342 18.3674 40.182 11.4683 48.0555 11.4683C54.6318 11.4683 58.9457 15.0692 62.0227 20.7579L47.8745 30.683ZM72.8827 26.719C72.8827 23.3602 75.296 20.5461 78.5842 20.5461C81.8723 20.5461 84.2857 23.3602 84.2857 26.719C84.2857 30.0778 81.8723 32.8919 78.5842 32.8919C75.296 32.8919 72.8827 30.0778 72.8827 26.719ZM63.8327 26.719C63.8327 35.1009 70.7107 41.9697 78.5842 41.9697C86.4577 41.9697 93.3357 35.0706 93.3357 26.719C93.3357 18.3674 86.4577 11.4683 78.5842 11.4683C70.7107 11.4683 63.8327 18.3372 63.8327 26.719ZM95.2663 33.013H104.165C105.252 33.013 105.795 32.4683 105.795 31.7118C105.795 28.9885 95.568 30.0173 95.568 20.5159C95.568 15.0994 100.184 12.3761 104.588 12.3761H113.578V20.0317H106.338C105.252 20.0317 104.437 20.6066 104.437 21.3934C104.437 23.6931 115.237 24.268 115.237 31.9841C115.237 37.8242 111.647 41.0014 105.583 41.0014H95.2362V33.013H95.2663ZM127.243 28.928C127.243 31.4092 128.48 32.9524 130.501 32.9524C132.522 32.9524 133.759 31.4092 133.759 28.928V12.4063H142.9V28.928C142.9 36.402 138.586 42 130.501 42C122.416 42 118.103 36.4323 118.103 28.928V12.4063H127.243V28.928ZM153.76 17.1873H153.88C155.268 13.1326 157.923 12.4063 161.935 12.4063V21C155.539 21.2421 154.966 22.634 154.966 27.5965V41.0317H145.735V12.4063H153.76V17.1873ZM163.865 41.0317V10.3184C163.865 4.38761 168.451 0 175.691 0H181V8.5634H176.535C174.122 8.5634 173.519 9.92507 173.519 12.3156H179.13V20.879H173.519V41.0317H163.865Z" fill="#FF3399"/>
</svg>
