<svg width="180" height="36" viewBox="0 0 180 36" fill="none" xmlns="http://www.w3.org/2000/svg">
<g clip-path="url(#clip0_307_3091)">
<path d="M169.574 10.9637C169.336 9.86661 168.831 8.86984 168.055 8.01021C167.109 6.94989 165.921 6.2642 164.613 5.75578C163.235 5.22729 161.804 4.94298 160.342 4.78577C159.911 4.73895 159.479 4.69881 159.048 4.64863C158.857 4.63191 158.67 4.70884 158.479 4.60515C154.228 4.60515 149.973 4.60515 145.718 4.60515C145.511 5.72568 145.3 6.84286 145.09 7.96673C144.581 10.7597 144.063 13.5459 143.548 16.3389C143.093 18.8241 142.634 21.2993 142.17 23.7845C141.976 24.8415 141.785 25.9085 141.594 26.9588C141.531 27.2866 141.527 27.2933 141.223 27.2933C136.55 27.2933 131.867 27.2933 127.195 27.2933C127.094 27.2933 126.987 27.3 126.857 27.2398C126.927 26.8819 126.987 26.5206 127.061 26.1627C127.282 24.9419 127.516 23.721 127.743 22.4834C127.797 22.1824 127.803 22.1824 128.091 22.1824C129.82 22.1824 131.54 22.1824 133.266 22.1824C134.259 22.1824 135.256 22.1824 136.252 22.1824C136.697 22.1824 136.657 22.2292 136.734 21.7977C137.042 20.0584 137.363 18.3257 137.674 16.5998C137.714 16.3723 137.714 16.3657 137.473 16.3657C136.931 16.359 136.38 16.3657 135.831 16.3657C133.63 16.3657 131.429 16.3657 129.222 16.3657C128.85 16.3657 128.854 16.3657 128.921 15.9944C129.188 14.5661 129.446 13.1312 129.717 11.6996C129.804 11.2313 129.71 11.2915 130.205 11.2915C132.954 11.2848 135.711 11.2848 138.46 11.2848C138.54 11.2848 138.634 11.2781 138.711 11.2915C138.895 11.3082 138.945 11.2179 138.979 11.0574C139.122 10.2212 139.273 9.39498 139.423 8.56546C139.651 7.35462 139.878 6.13709 140.096 4.91957C140.116 4.82256 140.143 4.71553 140.136 4.60849C133.934 4.60849 127.73 4.60849 121.528 4.60849C121.522 5.06674 121.398 5.50826 121.314 5.94309C121.07 7.38138 120.796 8.80963 120.528 10.2479C120.217 11.9203 119.903 13.6062 119.602 15.2886C119.234 17.3022 118.859 19.3091 118.491 21.3194C118.21 22.8413 117.936 24.3565 117.655 25.8684C117.608 26.1092 117.602 26.1159 117.344 26.1159C115.277 26.1159 113.2 26.1159 111.129 26.1159C110.848 26.1159 110.835 26.0958 110.892 25.8283C111.273 23.7444 111.664 21.6539 112.059 19.5734C112.43 17.5698 112.802 15.5662 113.17 13.566C113.561 11.442 113.959 9.33143 114.354 7.21748C114.504 6.42475 114.651 5.6153 114.799 4.81922C114.812 4.74898 114.809 4.67205 114.812 4.60181C111.574 4.60181 108.33 4.60181 105.098 4.60181C104.637 7.10376 104.179 9.59568 103.714 12.101C103.282 14.4357 102.857 16.7704 102.429 19.1084C102.011 21.3562 101.593 23.6106 101.175 25.8584C101.128 26.1126 101.121 26.1193 100.877 26.1193C98.857 26.1193 96.8367 26.1193 94.8164 26.1193C94.5354 26.1193 94.5354 26.1059 94.5923 25.8316C95.0907 23.1189 95.5958 20.4364 96.0908 17.7337C96.6059 14.9575 97.1344 12.1746 97.6528 9.39833C97.9305 7.91321 98.2047 6.43144 98.4723 4.94633C98.4957 4.83929 98.5325 4.71888 98.4957 4.60181C95.2546 4.60181 92.0168 4.60181 88.7789 4.60181C88.7589 5.04667 88.6385 5.47816 88.5649 5.90965C88.3274 7.23421 88.0799 8.54539 87.8357 9.86661C87.5246 11.5524 87.2136 13.2282 86.9025 14.9107C86.578 16.6834 86.2469 18.4629 85.9258 20.239C85.5779 22.1121 85.2334 23.9719 84.8889 25.8383C84.8119 26.2564 84.7216 26.6678 84.6614 27.0859C84.6347 27.2565 84.5577 27.2933 84.4106 27.2933C84.347 27.2866 84.2835 27.2933 84.2199 27.2933C79.5639 27.2933 74.9112 27.2933 70.2551 27.2866C69.8571 27.2866 69.8103 27.387 69.9073 26.8551C70.1782 25.4001 70.4358 23.9484 70.6967 22.4934C70.7535 22.1857 70.7535 22.1857 71.088 22.1857C73.794 22.1857 76.5067 22.1857 79.2127 22.1857C79.2996 22.1857 79.3832 22.179 79.4669 22.1857C79.6073 22.1991 79.6776 22.1389 79.701 21.995C80.0288 20.152 80.3633 18.3124 80.6944 16.476C80.6978 16.4693 80.6944 16.4593 80.6911 16.4426C80.574 16.3723 80.4469 16.4025 80.3232 16.4025C77.6205 16.4025 74.9279 16.4025 72.2286 16.4025C71.8306 16.4025 71.8239 16.4025 71.8941 16.0245C72.1684 14.516 72.446 13.0141 72.7203 11.5056C72.7504 11.3417 72.8106 11.2714 72.9912 11.2781C73.3592 11.2882 73.7271 11.2781 74.1017 11.2781C76.5903 11.2781 79.0755 11.2781 81.5607 11.2781C81.6343 11.2781 81.7079 11.2714 81.7849 11.2848C81.9554 11.3015 82.0223 11.2146 82.0524 11.0507C82.1494 10.4553 82.2632 9.86661 82.3736 9.27457C82.6378 7.80952 82.9054 6.35116 83.1696 4.88612C83.1863 4.79246 83.1863 4.69881 83.1964 4.60515C63.9099 4.60515 44.6302 4.60515 25.3438 4.60515C25.2836 5.17377 25.1565 5.72568 25.0561 6.28427C24.6848 8.31794 24.3136 10.3616 23.9423 12.3853C23.6145 14.1748 23.29 15.9609 22.9656 17.7471C22.7013 19.1954 22.4304 20.6471 22.1662 22.0954C22.1494 22.1924 22.126 22.2827 22.1093 22.3864C22.009 22.3864 22.009 22.3128 21.9889 22.2626C20.8182 19.0516 19.6508 15.8338 18.4801 12.6194C17.5402 10.0372 16.5936 7.465 15.647 4.88277C15.6169 4.79915 15.5969 4.70215 15.5701 4.61184C12.2052 4.61184 8.84026 4.61184 5.47533 4.61184C5.33151 5.36778 5.18433 6.12371 5.04385 6.87965C4.59229 9.32474 4.14408 11.7765 3.69253 14.2149C3.23763 16.6801 2.77938 19.1319 2.32448 21.5937C1.893 23.9451 1.46485 26.3032 1.03002 28.6547C0.732331 30.2736 0.434639 31.8891 0.136947 33.5013C0.100154 33.605 0.0733949 33.6954 -0.000191883 33.7623C0.00315297 33.8559 -0.0369853 34.0064 0.160361 33.9596C0.200499 33.9395 0.243983 33.9596 0.287466 33.9596C3.42828 33.9596 6.57245 33.9596 9.71661 33.9596C9.65975 33.789 9.70992 33.6318 9.74002 33.4746C10.0645 31.6516 10.3822 29.8187 10.7067 27.989C11.0579 26.0156 11.4158 24.0454 11.767 22.072C12.0948 20.2122 12.4193 18.3692 12.7437 16.5162C12.7939 16.2486 12.844 15.9843 12.8875 15.7134C12.9946 15.7067 12.9879 15.7837 13.0046 15.8405C13.4394 17.0848 13.8709 18.3358 14.2991 19.5868C15.356 22.6473 16.413 25.7112 17.47 28.7751C18.0185 30.3773 18.5738 31.9694 19.1223 33.5749C19.1591 33.6987 19.2227 33.8057 19.216 33.9429C30.7256 33.9429 42.2453 33.9429 53.7617 33.9429C53.7851 33.4779 53.9021 33.0364 53.9824 32.6016C54.3269 30.7051 54.6815 28.7951 55.0294 26.8986C55.3772 25.0188 55.7251 23.1423 56.073 21.2659C56.3807 19.6035 56.6851 17.9377 56.9894 16.282C57.2804 14.6999 57.5781 13.1278 57.8691 11.5491C57.916 11.2882 57.8959 11.2781 58.1869 11.2781C59.7757 11.2781 61.3612 11.2781 62.95 11.2781C62.9935 11.2781 63.0336 11.2848 63.0771 11.2848C63.2042 11.2714 63.2477 11.3417 63.2309 11.4554C63.1774 11.7598 63.1306 12.0642 63.0737 12.3652C62.6155 14.8504 62.1539 17.3424 61.6923 19.8309C61.2374 22.276 60.7825 24.7311 60.331 27.1762C60.0199 28.8487 59.7155 30.5144 59.4111 32.1868C59.3041 32.7755 59.2004 33.3575 59.0967 33.9362C89.3242 33.9362 119.552 33.9362 149.776 33.9362C149.796 33.4846 149.913 33.0531 149.986 32.6116C150.247 31.1499 150.515 29.6849 150.783 28.2232C151.15 26.2096 151.528 24.1993 151.9 22.1857C152.044 21.4097 152.181 20.6237 152.324 19.8477C152.432 19.8577 152.418 19.948 152.435 20.0149C153.09 22.2024 153.749 24.4033 154.398 26.6043C155.114 29.0059 155.827 31.3974 156.532 33.7924C156.546 33.8358 156.552 33.876 156.559 33.9228C159.784 33.9228 163.001 33.9228 166.219 33.9228C165.874 33.013 165.547 32.0932 165.195 31.1901C164.125 28.3202 163.041 25.4536 161.968 22.5971C161.831 22.2493 161.837 22.2493 162.199 22.1723C163.098 21.985 163.991 21.7743 164.834 21.4064C167.162 20.3728 168.677 18.6402 169.393 16.1951C169.637 15.3288 169.748 14.4457 169.781 13.5426C169.821 12.6729 169.768 11.8167 169.574 10.9637ZM48.2159 11.5457C48.1456 12.0307 48.0486 12.5124 47.965 12.9907C47.6974 14.4557 47.4232 15.9375 47.1489 17.4093C46.8445 19.0783 46.5301 20.7474 46.219 22.4198C45.9414 23.9484 45.6604 25.4704 45.3828 26.999C45.3326 27.2799 45.3326 27.2866 45.0383 27.2866C40.3354 27.2866 35.6359 27.2866 30.9397 27.2866C30.8561 27.2866 30.7691 27.3 30.6621 27.2398C30.8762 26.059 31.0902 24.9017 31.301 23.7444C31.3812 23.3263 31.4582 22.9082 31.5351 22.4968C31.592 22.1824 31.5886 22.1824 31.9097 22.1824C34.7361 22.1824 37.5625 22.1824 40.3856 22.1824C40.8104 22.1824 40.8171 22.1824 40.8973 21.7475C41.185 20.1487 41.4727 18.5565 41.7637 16.9477C41.7871 16.8139 41.8138 16.6868 41.8339 16.5463C41.864 16.3422 41.8607 16.3422 41.6533 16.3322C41.5663 16.3322 41.4827 16.3322 41.3991 16.3322C38.6463 16.3322 35.8968 16.3322 33.144 16.3322C32.7392 16.3322 32.7392 16.3322 32.8061 15.9476C33.057 14.5059 33.3045 13.0609 33.5587 11.6126C33.6156 11.2815 33.6156 11.2748 33.9501 11.2748C37.0708 11.2748 40.1949 11.2748 43.3157 11.2748C44.7974 11.2748 46.2792 11.2748 47.761 11.2748C47.8379 11.2748 47.9115 11.2748 47.9851 11.2748C48.246 11.2815 48.2627 11.2982 48.2159 11.5457ZM160.031 15.7837C159.663 16.7135 158.994 17.3591 158.098 17.7839C157.439 18.0916 156.726 18.2421 155.994 18.3291C155.405 18.4094 154.813 18.396 154.231 18.3993C153.796 18.3993 153.361 18.3993 152.923 18.3993C152.595 18.396 152.595 18.396 152.656 18.0883C152.773 17.4561 152.89 16.8172 153.007 16.185C153.328 14.4758 153.636 12.7699 153.957 11.0574C154.04 10.569 154.04 10.569 154.539 10.569C155.214 10.569 155.89 10.559 156.559 10.6292C157.205 10.6961 157.83 10.8165 158.436 11.0641C159.61 11.5591 160.315 12.6228 160.322 13.8905C160.342 14.536 160.282 15.1715 160.031 15.7837Z" fill="#83BA3B"/>
<path d="M176.551 29.8285C176.672 29.7951 176.762 29.775 176.856 29.7449C177.719 29.4137 177.946 28.3133 177.294 27.661C177.047 27.4135 176.739 27.3332 176.401 27.3332C175.702 27.3098 175.006 27.3868 174.314 27.4068C173.872 27.4202 173.872 27.4202 173.896 27.8718C173.896 27.9153 173.902 27.952 173.906 27.9955C173.942 28.6946 173.976 29.3803 174.016 30.0727C174.043 30.6146 174.06 31.1531 174.086 31.6882C174.1 32.0662 174.106 32.0528 174.478 32.0395C174.742 32.0328 174.739 31.9993 174.732 31.7652C174.712 31.3203 174.685 30.8821 174.668 30.4406C174.662 30.3102 174.595 30.1463 174.675 30.0426C174.759 29.9289 174.929 30.0091 175.06 29.9757C175.602 29.8586 176.026 30.0225 176.367 30.4741C176.672 30.8755 176.96 31.2869 177.261 31.6983C177.321 31.7685 177.358 31.8856 177.465 31.8856C177.692 31.8856 177.933 31.9558 178.187 31.8053C177.669 31.1196 177.281 30.357 176.551 29.8285ZM176.123 29.3636C175.739 29.397 175.347 29.377 174.956 29.4238C174.923 29.4238 174.886 29.4238 174.862 29.4238C174.628 29.4238 174.642 29.4171 174.611 29.1896C174.581 28.8752 174.608 28.5608 174.558 28.2464C174.511 27.9554 174.545 27.942 174.859 27.9286C175.207 27.9086 175.555 27.9286 175.903 27.8617C176.097 27.835 176.281 27.8617 176.464 27.9219C176.772 27.9989 176.983 28.2531 177 28.5508C177.006 28.8518 176.883 29.0793 176.608 29.2231C176.458 29.3 176.294 29.3402 176.123 29.3636Z" fill="#83BA3B"/>
<path d="M179.876 28.4741C179.271 26.3434 177.18 24.982 174.929 25.3801C172.675 25.7748 171.096 27.9155 171.42 30.1967C171.671 31.9561 172.675 33.1234 174.327 33.7489C174.524 33.8191 174.738 33.8325 174.922 33.9463C175.431 33.9463 175.936 33.9463 176.444 33.9463C176.792 33.8158 177.157 33.7556 177.488 33.5984C178.742 33.003 179.548 32.0363 179.909 30.6951C179.953 30.5278 179.909 30.3505 180 30.2067C180 29.8287 180 29.4407 180 29.0628C179.899 28.8788 179.93 28.6714 179.876 28.4741ZM175.695 33.207C173.949 33.2004 172.146 31.7788 172.143 29.6481C172.136 27.6746 173.725 26.0959 175.712 26.0959C177.755 26.0959 179.304 27.8385 179.251 29.6481C179.327 31.4744 177.678 33.2204 175.695 33.207Z" fill="#83BA3B"/>
</g>
<defs>
<clipPath id="clip0_307_3091">
<rect width="180" height="36" fill="white"/>
</clipPath>
</defs>
</svg>
