<svg width="54" height="70" viewBox="0 0 54 70" fill="none" xmlns="http://www.w3.org/2000/svg">
<path d="M46.4765 22.066C42.7166 25.8223 37.5587 27.7051 32.3964 28.4841C31.906 28.5577 31.4143 28.6215 30.9211 28.6755C31.4632 31.026 32.1846 33.3358 33.0476 35.5896C34.8875 40.3891 37.3366 44.9059 40.1452 49.199C43.2113 53.8855 46.663 58.3032 50.1794 62.6566C50.4524 62.9944 50.7263 63.3309 50.9998 63.6681C51.0095 63.3221 51.0191 62.9749 51.0312 62.6285C51.0656 61.6548 51.0993 60.6806 51.1337 59.7069C51.1516 59.2046 51.1581 58.6258 51.3311 58.1469C51.4627 57.7828 51.768 57.4856 52.0445 57.2238C52.0522 57.2164 52.0692 57.2171 52.0778 57.2246C52.3386 57.4667 52.64 57.7536 52.7696 58.0902C52.9411 58.534 52.9683 59.0811 52.9844 59.5541C53.0198 60.5572 53.0552 61.5602 53.0905 62.5633C53.1602 64.5446 53.1909 66.524 53.2115 68.5068C53.2238 69.6582 51.9011 70.2605 51.1252 69.3307C50.0034 67.9872 48.6502 66.854 47.185 65.8976C46.4894 65.4428 45.7425 65.0549 44.9993 64.6707C44.1631 64.2387 43.3266 63.9161 42.5625 63.3562C42.0784 63.0011 42.3363 62.2085 42.9091 62.1387C43.9548 62.0128 44.8822 62.2929 45.8651 62.63C46.8349 62.9628 47.7228 63.4556 48.5951 63.9894C45.7583 60.4639 42.9663 56.9008 40.3817 53.1852C37.2041 48.618 34.3296 43.8046 32.1436 38.6759C30.796 35.5136 29.715 32.2105 28.9904 28.8373C25.0986 29.0602 21.1764 28.6778 17.3971 27.7388C12.4706 26.5138 7.78845 24.43 3.71657 21.3872C2.74208 20.6592 1.81393 19.8827 0.929517 19.0479C0.300112 18.4542 1.07756 17.4212 1.77918 17.9727C5.51431 20.9093 9.71238 23.2591 14.2171 24.7936C18.6686 26.3102 23.4112 26.99 28.1149 26.8067C28.2752 26.7999 28.4363 26.7937 28.5969 26.785C28.4494 25.9137 28.3251 25.0391 28.228 24.1619C27.9512 21.6518 27.8968 19.1105 28.0867 16.5903C28.2916 13.8684 28.7897 11.1213 29.8603 8.59585C31.7907 4.04492 36.0085 0.138968 41.1911 0.304615C45.8934 0.454878 49.7737 4.45199 50.822 8.8562C51.9493 13.593 49.8325 18.7149 46.4762 22.0679L46.4765 22.066ZM43.2436 2.60756C39.0541 0.989532 34.5989 3.69881 32.4402 7.28814C31.1177 9.48707 30.4456 12.0234 30.1034 14.5455C29.7782 16.9432 29.7236 19.372 29.886 21.7827C29.9959 23.4168 30.2059 25.0383 30.5017 26.6431C34.47 26.2516 38.4668 25.2243 41.856 23.1248C45.6731 20.7599 48.6671 16.8998 49.0565 12.3077C49.4013 8.23612 47.0748 4.08694 43.2448 2.60738L43.2436 2.60756Z" fill="#F89A20"/>
</svg>
