<svg width="8" height="36" viewBox="0 0 8 36" fill="none" xmlns="http://www.w3.org/2000/svg">
<path d="M0.00206804 18.2521L7.90137 24.1624V12.3987L0.00206804 18.2521Z" fill="#8BD4F3"/>
<g style="mix-blend-mode:multiply" opacity="0.35">
<path opacity="0.02" d="M7.90137 35.6417C7.90137 35.6417 6.31014 27.8561 6.31014 18.2519C6.31014 8.64771 7.90137 0.862061 7.90137 0.862061V35.6417Z" fill="#A6A6A6"/>
<path opacity="0.02" d="M7.90137 35.5281C7.90137 35.5281 6.36697 27.7992 6.36697 18.2519C6.36697 8.70452 7.90137 0.975708 7.90137 0.975708V35.5281Z" fill="#A5A5A5"/>
<path opacity="0.03" d="M7.90137 35.4715C7.90137 35.4715 6.36697 27.7995 6.36697 18.309C6.36697 8.81847 7.90137 1.14648 7.90137 1.14648V35.4715Z" fill="#A5A5A5"/>
<path opacity="0.04" d="M7.90137 35.3578C7.90137 35.3578 6.36697 27.7427 6.36697 18.309C6.36697 8.87529 7.90137 1.26013 7.90137 1.26013V35.3578Z" fill="#A4A4A4"/>
<path opacity="0.05" d="M7.90137 35.2431C7.90137 35.2431 6.36697 27.6279 6.36697 18.3079C6.36697 8.98784 7.90137 1.37268 7.90137 1.37268V35.2999V35.2431Z" fill="#A3A3A3"/>
<path opacity="0.06" d="M7.90137 35.1294C7.90137 35.1294 6.36697 27.5711 6.36697 18.3079C6.36697 9.04465 7.90137 1.48633 7.90137 1.48633V35.1862V35.1294Z" fill="#A2A2A2"/>
<path opacity="0.07" d="M7.90137 35.0158C7.90137 35.0158 6.4238 27.5143 6.4238 18.2511C6.4238 8.98788 7.90137 1.54321 7.90137 1.54321V35.0158Z" fill="#A1A1A1"/>
<path opacity="0.07" d="M7.90137 34.9024C7.90137 34.9024 6.4238 27.4578 6.4238 18.2514C6.4238 9.04501 7.90137 1.60034 7.90137 1.60034V34.8456V34.9024Z" fill="#A0A0A0"/>
<path opacity="0.08" d="M7.90137 34.7888C7.90137 34.7888 6.4238 27.4009 6.4238 18.2514C6.4238 9.10183 7.90137 1.71399 7.90137 1.71399V34.7888Z" fill="#A0A0A0"/>
<path opacity="0.09" d="M7.90137 34.6751C7.90137 34.6751 6.4238 27.3441 6.4238 18.2514C6.4238 9.15865 7.90137 1.82764 7.90137 1.82764V34.6751Z" fill="#9F9F9F"/>
<path opacity="0.1" d="M7.90137 34.5614C7.90137 34.5614 6.48063 27.2304 6.48063 18.2514C6.48063 9.27229 7.90137 1.94128 7.90137 1.94128V34.5614Z" fill="#9E9E9E"/>
<path opacity="0.11" d="M7.90137 34.505C7.90137 34.505 6.48063 27.2308 6.48063 18.3086C6.48063 9.38636 7.90137 2.11218 7.90137 2.11218V34.505Z" fill="#9D9D9D"/>
<path opacity="0.12" d="M7.90137 34.3913C7.90137 34.3913 6.48063 27.174 6.48063 18.3086C6.48063 9.44318 7.90137 2.22583 7.90137 2.22583V34.3913Z" fill="#9C9C9C"/>
<path opacity="0.12" d="M7.90137 34.278C7.90137 34.278 6.48063 27.1175 6.48063 18.3089C6.48063 9.50037 7.90137 2.33984 7.90137 2.33984V34.3349V34.278Z" fill="#9B9B9B"/>
<path opacity="0.13" d="M7.90137 34.1643C7.90137 34.1643 6.48063 27.0606 6.48063 18.252C6.48063 9.44347 7.90137 2.39661 7.90137 2.39661V34.1643Z" fill="#9B9B9B"/>
<path opacity="0.14" d="M7.90137 34.0506C7.90137 34.0506 6.53746 27.0038 6.53746 18.252C6.53746 9.50029 7.90137 2.51025 7.90137 2.51025V34.0506Z" fill="#9A9A9A"/>
<path opacity="0.15" d="M7.90137 33.937C7.90137 33.937 6.53746 26.8902 6.53746 18.2521C6.53746 9.614 7.90137 2.56714 7.90137 2.56714V33.8802V33.937Z" fill="#999999"/>
<path opacity="0.16" d="M7.90137 33.8237C7.90137 33.8237 6.53746 26.8337 6.53746 18.2524C6.53746 9.67118 7.90137 2.68115 7.90137 2.68115V33.8237Z" fill="#989898"/>
<path opacity="0.17" d="M7.90137 33.7086C7.90137 33.7086 6.53746 26.7754 6.53746 18.251C6.53746 9.72654 7.90137 2.79333 7.90137 2.79333V33.7086Z" fill="#979797"/>
<path opacity="0.17" d="M7.90137 33.5952C7.90137 33.5952 6.53746 26.7188 6.53746 18.2512C6.53746 9.7836 7.90137 2.90723 7.90137 2.90723V33.5952Z" fill="#969696"/>
<path opacity="0.18" d="M7.90137 33.5384C7.90137 33.5384 6.59429 26.7188 6.59429 18.3081C6.59429 9.8973 7.90137 3.07776 7.90137 3.07776V33.5384Z" fill="#959595"/>
<path opacity="0.19" d="M7.90137 33.4247C7.90137 33.4247 6.59429 26.662 6.59429 18.3081C6.59429 9.95412 7.90137 3.19141 7.90137 3.19141V33.4247Z" fill="#959595"/>
<path opacity="0.2" d="M7.90137 33.3114C7.90137 33.3114 6.59429 26.5487 6.59429 18.3084C6.59429 10.0681 7.90137 3.30542 7.90137 3.30542V33.3682V33.3114Z" fill="#949494"/>
<path opacity="0.21" d="M7.90137 33.1978C7.90137 33.1978 6.59429 26.4919 6.59429 18.2516C6.59429 10.0114 7.90137 3.3623 7.90137 3.3623V33.1978Z" fill="#939393"/>
<path opacity="0.21" d="M7.90137 33.0841C7.90137 33.0841 6.65111 26.4351 6.65111 18.2516C6.65111 10.0682 7.90137 3.47595 7.90137 3.47595V33.0841Z" fill="#929292"/>
<path opacity="0.22" d="M7.90137 32.9704C7.90137 32.9704 6.65111 26.3782 6.65111 18.2516C6.65111 10.1249 7.90137 3.53271 7.90137 3.53271V32.9136V32.9704Z" fill="#919191"/>
<path opacity="0.23" d="M7.90137 32.8571C7.90137 32.8571 6.65111 26.3217 6.65111 18.2519C6.65111 10.1821 7.90137 3.64673 7.90137 3.64673V32.8571Z" fill="#909090"/>
<path opacity="0.24" d="M7.90137 32.7434C7.90137 32.7434 6.65111 26.2649 6.65111 18.2519C6.65111 10.2389 7.90137 3.76038 7.90137 3.76038V32.7434Z" fill="#909090"/>
<path opacity="0.25" d="M7.90137 32.6299C7.90137 32.6299 6.65111 26.2081 6.65111 18.252C6.65111 10.2959 7.90137 3.87415 7.90137 3.87415V32.6299Z" fill="#8F8F8F"/>
<path opacity="0.26" d="M7.90137 32.5733C7.90137 32.5733 6.70794 26.1516 6.70794 18.3091C6.70794 10.4667 7.90137 4.04492 7.90137 4.04492V32.5733Z" fill="#8E8E8E"/>
<path opacity="0.26" d="M7.90137 32.4597C7.90137 32.4597 6.70794 26.0948 6.70794 18.3091C6.70794 10.5235 7.90137 4.15857 7.90137 4.15857V32.4597Z" fill="#8D8D8D"/>
<path opacity="0.27" d="M7.90137 32.3448C7.90137 32.3448 6.70794 26.0368 6.70794 18.2511C6.70794 10.4655 7.90137 4.21423 7.90137 4.21423V32.3448Z" fill="#8C8C8C"/>
<path opacity="0.28" d="M7.90137 32.2312C7.90137 32.2312 6.70794 25.9799 6.70794 18.2511C6.70794 10.5223 7.90137 4.32788 7.90137 4.32788V32.2312Z" fill="#8B8B8B"/>
<path opacity="0.29" d="M7.90137 32.1175C7.90137 32.1175 6.76477 25.9231 6.76477 18.2511C6.76477 10.5791 7.90137 4.44153 7.90137 4.44153V32.1175Z" fill="#8A8A8A"/>
<path opacity="0.3" d="M7.90137 32.0042C7.90137 32.0042 6.76477 25.8666 6.76477 18.2515C6.76477 10.6363 7.90137 4.55554 7.90137 4.55554V32.0042Z" fill="#8A8A8A"/>
<path opacity="0.31" d="M7.90137 31.8906C7.90137 31.8906 6.76477 25.753 6.76477 18.2515C6.76477 10.75 7.90137 4.61243 7.90137 4.61243V31.8906Z" fill="#898989"/>
<path opacity="0.31" d="M7.90137 31.7769C7.90137 31.7769 6.76477 25.6962 6.76477 18.2515C6.76477 10.8068 7.90137 4.72607 7.90137 4.72607V31.7769Z" fill="#888888"/>
<path opacity="0.32" d="M7.90137 31.7204C7.90137 31.7204 6.76477 25.6965 6.76477 18.3086C6.76477 10.9208 7.90137 4.89685 7.90137 4.89685V31.7204Z" fill="#878787"/>
<path opacity="0.33" d="M7.90137 31.6067C7.90137 31.6067 6.8216 25.6396 6.8216 18.3086C6.8216 10.9776 7.90137 5.0105 7.90137 5.0105V31.6067Z" fill="#868686"/>
<path opacity="0.34" d="M7.90137 31.4931C7.90137 31.4931 6.8216 25.5828 6.8216 18.2518C6.8216 10.9208 7.90137 5.06738 7.90137 5.06738V31.4931Z" fill="#858585"/>
<path opacity="0.35" d="M7.90137 31.3794C7.90137 31.3794 6.8216 25.526 6.8216 18.2518C6.8216 10.9776 7.90137 5.18103 7.90137 5.18103V31.3794Z" fill="#858585"/>
<path opacity="0.36" d="M7.90137 31.2661C7.90137 31.2661 6.8216 25.4127 6.8216 18.2522C6.8216 11.0917 7.90137 5.29504 7.90137 5.29504V31.2661Z" fill="#848484"/>
<path opacity="0.36" d="M7.90137 31.1525C7.90137 31.1525 6.8216 25.3559 6.8216 18.2522C6.8216 11.1485 7.90137 5.40869 7.90137 5.40869V31.1525Z" fill="#838383"/>
<path opacity="0.37" d="M7.90137 31.0388C7.90137 31.0388 6.87843 25.299 6.87843 18.2521C6.87843 11.2053 7.90137 5.52234 7.90137 5.52234V31.0388Z" fill="#828282"/>
<path opacity="0.38" d="M7.90137 30.9252C7.90137 30.9252 6.87843 25.2422 6.87843 18.2522C6.87843 11.2622 7.90137 5.57922 7.90137 5.57922V30.9252Z" fill="#818181"/>
<path opacity="0.39" d="M7.90137 30.8103C7.90137 30.8103 6.87843 25.1842 6.87843 18.251C6.87843 11.3178 7.90137 5.69165 7.90137 5.69165V30.8103Z" fill="#808080"/>
<path opacity="0.4" d="M7.90137 30.7538C7.90137 30.7538 6.87843 25.1845 6.87843 18.3081C6.87843 11.4317 7.90137 5.86243 7.90137 5.86243V30.7538Z" fill="#808080"/>
<path opacity="0.4" d="M7.90137 30.6402C7.90137 30.6402 6.93527 25.0709 6.93527 18.3082C6.93527 11.5455 7.90137 5.9762 7.90137 5.9762V30.6402Z" fill="#7F7F7F"/>
<path opacity="0.41" d="M7.90137 30.5265C7.90137 30.5265 6.93527 25.014 6.93527 18.2513C6.93527 11.4886 7.90137 6.03296 7.90137 6.03296V30.5265Z" fill="#7E7E7E"/>
<path opacity="0.42" d="M7.90137 30.4128C7.90137 30.4128 6.93527 24.9572 6.93527 18.2513C6.93527 11.5454 7.90137 6.14661 7.90137 6.14661V30.4128Z" fill="#7D7D7D"/>
<path opacity="0.43" d="M7.90137 30.2995C7.90137 30.2995 6.93527 24.9007 6.93527 18.2516C6.93527 11.6026 7.90137 6.26062 7.90137 6.26062V30.2995Z" fill="#7C7C7C"/>
<path opacity="0.44" d="M7.90137 30.1858C7.90137 30.1858 6.93527 24.8439 6.93527 18.2516C6.93527 11.6594 7.90137 6.37427 7.90137 6.37427V30.1858Z" fill="#7B7B7B"/>
<path opacity="0.45" d="M7.90137 30.0723C7.90137 30.0723 6.9921 24.7871 6.9921 18.2517C6.9921 11.7164 7.90137 6.48804 7.90137 6.48804V30.0723Z" fill="#7A7A7A"/>
<path opacity="0.45" d="M7.90137 29.9589C7.90137 29.9589 6.9921 24.6737 6.9921 18.252C6.9921 11.8302 7.90137 6.60193 7.90137 6.60193V30.0157V29.9589Z" fill="#7A7A7A"/>
<path opacity="0.46" d="M7.90137 29.8453C7.90137 29.8453 6.9921 24.6169 6.9921 18.252C6.9921 11.8871 7.90137 6.65881 7.90137 6.65881V29.8453Z" fill="#797979"/>
<path opacity="0.47" d="M7.90137 29.7885C7.90137 29.7885 6.9921 24.617 6.9921 18.3089C6.9921 12.0008 7.90137 6.82935 7.90137 6.82935V29.7885Z" fill="#787878"/>
<path opacity="0.48" d="M7.90137 29.6751C7.90137 29.6751 7.04893 24.5605 7.04893 18.2524C7.04893 11.9443 7.90137 6.88647 7.90137 6.88647V29.6183V29.6751Z" fill="#777777"/>
<path opacity="0.49" d="M7.90137 29.5614C7.90137 29.5614 7.04893 24.5036 7.04893 18.2524C7.04893 12.0011 7.90137 7.00012 7.90137 7.00012V29.5614Z" fill="#767676"/>
<path opacity="0.5" d="M7.90137 29.4466C7.90137 29.4466 7.04893 24.4456 7.04893 18.2511C7.04893 12.0567 7.90137 7.11255 7.90137 7.11255V29.4466Z" fill="#757575"/>
<path opacity="0.5" d="M7.90137 29.333C7.90137 29.333 7.04893 24.3888 7.04893 18.2512C7.04893 12.1137 7.90137 7.22632 7.90137 7.22632V29.333Z" fill="#757575"/>
<path opacity="0.51" d="M7.90137 29.2193C7.90137 29.2193 7.04893 24.2752 7.04893 18.2512C7.04893 12.2273 7.90137 7.33997 7.90137 7.33997V29.2193Z" fill="#747474"/>
<path opacity="0.52" d="M7.90137 29.106C7.90137 29.106 7.10576 24.2187 7.10576 18.2516C7.10576 12.2845 7.90137 7.45398 7.90137 7.45398V29.106Z" fill="#737373"/>
<path opacity="0.53" d="M7.90137 28.9924C7.90137 28.9924 7.10576 24.1618 7.10576 18.2516C7.10576 12.3413 7.90137 7.56763 7.90137 7.56763V29.0492V28.9924Z" fill="#727272"/>
<path opacity="0.54" d="M7.90137 28.8786C7.90137 28.8786 7.10576 24.1049 7.10576 18.2515C7.10576 12.3981 7.90137 7.62439 7.90137 7.62439V28.8786Z" fill="#717171"/>
<path opacity="0.55" d="M7.90137 28.8218C7.90137 28.8218 7.10576 24.105 7.10576 18.3084C7.10576 12.5118 7.90137 7.79492 7.90137 7.79492V28.8218Z" fill="#707070"/>
<path opacity="0.55" d="M7.90137 28.7085C7.90137 28.7085 7.16258 24.0485 7.16258 18.2519C7.16258 12.4552 7.90137 7.85205 7.90137 7.85205V28.6517V28.7085Z" fill="#707070"/>
<path opacity="0.56" d="M7.90137 28.5948C7.90137 28.5948 7.16258 23.9348 7.16258 18.2518C7.16258 12.5689 7.90137 7.9657 7.90137 7.9657V28.5948Z" fill="#6F6F6F"/>
<path opacity="0.57" d="M7.90137 28.4813C7.90137 28.4813 7.16258 23.8781 7.16258 18.252C7.16258 12.6258 7.90137 8.07947 7.90137 8.07947V28.4813Z" fill="#6E6E6E"/>
<path opacity="0.58" d="M7.90137 28.3678C7.90137 28.3678 7.16258 23.8215 7.16258 18.2522C7.16258 12.6829 7.90137 8.19336 7.90137 8.19336V28.3678Z" fill="#6D6D6D"/>
<path opacity="0.59" d="M7.90137 28.2543C7.90137 28.2543 7.16258 23.7648 7.16258 18.2523C7.16258 12.7398 7.90137 8.30713 7.90137 8.30713V28.2543Z" fill="#6C6C6C"/>
<path opacity="0.6" d="M7.90137 28.1406C7.90137 28.1406 7.21941 23.7079 7.21941 18.2523C7.21941 12.7967 7.90137 8.42078 7.90137 8.42078V28.1406Z" fill="#6B6B6B"/>
<path opacity="0.6" d="M7.90137 28.0257C7.90137 28.0257 7.21941 23.6499 7.21941 18.251C7.21941 12.8522 7.90137 8.5332 7.90137 8.5332V28.0826V28.0257Z" fill="#6A6A6A"/>
<path opacity="0.61" d="M7.90137 27.9121C7.90137 27.9121 7.21941 23.5362 7.21941 18.251C7.21941 12.9659 7.90137 8.64685 7.90137 8.64685V27.9689V27.9121Z" fill="#6A6A6A"/>
<path opacity="0.62" d="M7.90137 27.8553C7.90137 27.8553 7.21941 23.5362 7.21941 18.2511C7.21941 12.966 7.90137 8.70374 7.90137 8.70374V27.7985V27.8553Z" fill="#696969"/>
<path opacity="0.63" d="M7.90137 27.742C7.90137 27.742 7.21941 23.4798 7.21941 18.2514C7.21941 13.0231 7.90137 8.81775 7.90137 8.81775V27.6851V27.742Z" fill="#686868"/>
<path opacity="0.64" d="M7.90137 27.6283C7.90137 27.6283 7.27624 23.4229 7.27624 18.2514C7.27624 13.08 7.90137 8.9314 7.90137 8.9314V27.6283Z" fill="#676767"/>
<path opacity="0.64" d="M7.90137 27.5146C7.90137 27.5146 7.27624 23.3661 7.27624 18.2514C7.27624 13.1368 7.90137 9.04504 7.90137 9.04504V27.5146Z" fill="#666666"/>
<path opacity="0.65" d="M7.90137 27.4013C7.90137 27.4013 7.27624 23.3096 7.27624 18.2518C7.27624 13.194 7.90137 9.15906 7.90137 9.15906V27.4013Z" fill="#656565"/>
<path opacity="0.66" d="M7.90137 27.2877C7.90137 27.2877 7.27624 23.1959 7.27624 18.2518C7.27624 13.3076 7.90137 9.27271 7.90137 9.27271V27.2877Z" fill="#656565"/>
<path opacity="0.67" d="M7.90137 27.174C7.90137 27.174 7.33307 23.1391 7.33307 18.2518C7.33307 13.3644 7.90137 9.38635 7.90137 9.38635V27.2308V27.174Z" fill="#646464"/>
<path opacity="0.68" d="M7.90137 27.0607C7.90137 27.0607 7.33307 23.0826 7.33307 18.2521C7.33307 13.4216 7.90137 9.50037 7.90137 9.50037V27.1175V27.0607Z" fill="#636363"/>
<path opacity="0.69" d="M7.90137 26.9471C7.90137 26.9471 7.33307 23.0258 7.33307 18.1953C7.33307 13.3648 7.90137 9.55725 7.90137 9.55725V26.9471Z" fill="#626262"/>
<path opacity="0.69" d="M7.90137 26.8902C7.90137 26.8902 7.33307 23.0258 7.33307 18.2522C7.33307 13.4785 7.90137 9.6709 7.90137 9.6709V26.8334V26.8902Z" fill="#616161"/>
<path opacity="0.7" d="M7.90137 26.7766C7.90137 26.7766 7.33307 22.969 7.33307 18.2521C7.33307 13.5353 7.90137 9.78455 7.90137 9.78455V26.7197V26.7766Z" fill="#606060"/>
<path opacity="0.71" d="M7.90137 26.6617C7.90137 26.6617 7.3899 22.9109 7.3899 18.2509C7.3899 13.5909 7.90137 9.89697 7.90137 9.89697V26.6617Z" fill="#606060"/>
<path opacity="0.72" d="M7.90137 26.5481C7.90137 26.5481 7.3899 22.7974 7.3899 18.251C7.3899 13.7047 7.90137 10.0107 7.90137 10.0107V26.5481Z" fill="#5F5F5F"/>
<path opacity="0.73" d="M7.90137 26.4347C7.90137 26.4347 7.3899 22.7408 7.3899 18.2513C7.3899 13.7617 7.90137 10.1246 7.90137 10.1246V26.4347Z" fill="#5E5E5E"/>
<path opacity="0.74" d="M7.90137 26.321C7.90137 26.321 7.3899 22.6839 7.3899 18.2512C7.3899 13.8185 7.90137 10.2383 7.90137 10.2383V26.321Z" fill="#5D5D5D"/>
<path opacity="0.74" d="M7.90137 26.2075C7.90137 26.2075 7.44673 22.6272 7.44673 18.2514C7.44673 13.8755 7.90137 10.3521 7.90137 10.3521V26.2643V26.2075Z" fill="#5C5C5C"/>
<path opacity="0.75" d="M7.90137 26.0941C7.90137 26.0941 7.44673 22.5706 7.44673 18.2516C7.44673 13.9325 7.90137 10.4659 7.90137 10.4659V26.1509V26.0941Z" fill="#5B5B5B"/>
<path opacity="0.76" d="M7.90137 25.9805C7.90137 25.9805 7.44673 22.5139 7.44673 18.1948C7.44673 13.8758 7.90137 10.5228 7.90137 10.5228V25.9805Z" fill="#5A5A5A"/>
<path opacity="0.77" d="M7.90137 25.9236C7.90137 25.9236 7.44673 22.457 7.44673 18.2516C7.44673 14.0462 7.90137 10.6365 7.90137 10.6365V25.8668V25.9236Z" fill="#5A5A5A"/>
<path opacity="0.78" d="M7.90137 25.8103C7.90137 25.8103 7.44673 22.4005 7.44673 18.252C7.44673 14.1034 7.90137 10.7505 7.90137 10.7505V25.7535V25.8103Z" fill="#595959"/>
<path opacity="0.79" d="M7.90137 25.6966C7.90137 25.6966 7.50356 22.3437 7.50356 18.252C7.50356 14.1602 7.90137 10.8641 7.90137 10.8641V25.6966Z" fill="#585858"/>
<path opacity="0.79" d="M7.90137 25.583C7.90137 25.583 7.50356 22.2869 7.50356 18.252C7.50356 14.2171 7.90137 10.9778 7.90137 10.9778V25.583Z" fill="#575757"/>
<path opacity="0.8" d="M7.90137 25.4694C7.90137 25.4694 7.50356 22.2301 7.50356 18.2521C7.50356 14.274 7.90137 11.0916 7.90137 11.0916V25.4694Z" fill="#565656"/>
<path opacity="0.81" d="M7.90137 25.356C7.90137 25.356 7.50356 22.1735 7.50356 18.2523C7.50356 14.3311 7.90137 11.2054 7.90137 11.2054V25.356Z" fill="#555555"/>
<path opacity="0.82" d="M7.90137 25.2412C7.90137 25.2412 7.50356 22.0588 7.50356 18.2512C7.50356 14.4436 7.90137 11.318 7.90137 11.318V25.2981V25.2412Z" fill="#555555"/>
<path opacity="0.83" d="M7.90137 25.1275C7.90137 25.1275 7.56039 22.0019 7.56039 18.1943C7.56039 14.3867 7.90137 11.3748 7.90137 11.3748V25.1275Z" fill="#545454"/>
<path opacity="0.83" d="M7.90137 25.0138C7.90137 25.0138 7.56039 21.945 7.56039 18.1943C7.56039 14.4435 7.90137 11.4884 7.90137 11.4884V25.0138Z" fill="#535353"/>
<path opacity="0.84" d="M7.90137 24.957C7.90137 24.957 7.56039 21.9451 7.56039 18.2512C7.56039 14.5572 7.90137 11.6589 7.90137 11.6589V24.957Z" fill="#525252"/>
<path opacity="0.85" d="M7.90137 24.8437C7.90137 24.8437 7.56039 21.8886 7.56039 18.2515C7.56039 14.6144 7.90137 11.7161 7.90137 11.7161V24.7869V24.8437Z" fill="#515151"/>
<path opacity="0.86" d="M7.90137 24.73C7.90137 24.73 7.61721 21.8317 7.61721 18.2514C7.61721 14.6712 7.90137 11.8297 7.90137 11.8297V24.73Z" fill="#505050"/>
<path opacity="0.87" d="M7.90137 24.6165C7.90137 24.6165 7.61721 21.7182 7.61721 18.2516C7.61721 14.785 7.90137 11.9435 7.90137 11.9435V24.6165Z" fill="#4F4F4F"/>
<path opacity="0.88" d="M7.90137 24.503C7.90137 24.503 7.61721 21.6616 7.61721 18.2518C7.61721 14.842 7.90137 12.0574 7.90137 12.0574V24.503Z" fill="#4F4F4F"/>
<path opacity="0.88" d="M7.90137 24.3895C7.90137 24.3895 7.61721 21.6048 7.61721 18.2519C7.61721 14.899 7.90137 12.1711 7.90137 12.1711V24.3895Z" fill="#4E4E4E"/>
<path opacity="0.89" d="M7.90137 24.2758C7.90137 24.2758 7.61721 21.548 7.61721 18.2519C7.61721 14.9558 7.90137 12.2848 7.90137 12.2848V24.3326V24.2758Z" fill="#4D4D4D"/>
<path opacity="0.9" d="M7.90137 24.1621C7.90137 24.1621 7.67404 21.4911 7.67404 18.195C7.67404 14.8989 7.90137 12.3416 7.90137 12.3416V24.1621Z" fill="#4C4C4C"/>
<path opacity="0.91" d="M7.90137 24.0488C7.90137 24.0488 7.67404 21.4346 7.67404 18.1953C7.67404 14.9561 7.90137 12.4556 7.90137 12.4556V24.0488Z" fill="#4B4B4B"/>
<path opacity="0.92" d="M7.90137 23.992C7.90137 23.992 7.67404 21.3778 7.67404 18.2522C7.67404 15.1266 7.90137 12.6261 7.90137 12.6261V23.992Z" fill="#4A4A4A"/>
<path opacity="0.93" d="M7.90137 23.8784C7.90137 23.8784 7.67404 21.3211 7.67404 18.2523C7.67404 15.1835 7.90137 12.683 7.90137 12.683V23.8216V23.8784Z" fill="#4A4A4A"/>
<path opacity="0.93" d="M7.90137 23.7635C7.90137 23.7635 7.73087 21.263 7.73087 18.251C7.73087 15.2391 7.90137 12.7954 7.90137 12.7954V23.7635Z" fill="#494949"/>
<path opacity="0.94" d="M7.90137 23.6498C7.90137 23.6498 7.73087 21.2062 7.73087 18.251C7.73087 15.2959 7.90137 12.9091 7.90137 12.9091V23.6498Z" fill="#484848"/>
<path opacity="0.95" d="M7.90137 23.5365C7.90137 23.5365 7.73087 21.1497 7.73087 18.2514C7.73087 15.3531 7.90137 13.0231 7.90137 13.0231V23.5365Z" fill="#474747"/>
<path opacity="0.96" d="M7.90137 23.4229C7.90137 23.4229 7.73087 21.0929 7.73087 18.2514C7.73087 15.4099 7.90137 13.1367 7.90137 13.1367V23.4229Z" fill="#464646"/>
<path opacity="0.97" d="M7.90137 23.3093C7.90137 23.3093 7.73087 20.9792 7.73087 18.1946C7.73087 15.41 7.90137 13.1936 7.90137 13.1936V23.3093Z" fill="#454545"/>
<path opacity="0.98" d="M7.90137 23.1956C7.90137 23.1956 7.78771 20.9224 7.78771 18.1946C7.78771 15.4668 7.90137 13.3073 7.90137 13.3073V23.1956Z" fill="#454545"/>
<path opacity="0.98" d="M7.90137 23.139C7.90137 23.139 7.78771 20.9227 7.78771 18.2517C7.78771 15.5807 7.90137 13.478 7.90137 13.478V23.139Z" fill="#444444"/>
<path opacity="0.99" d="M7.90137 23.0254C7.90137 23.0254 7.78771 20.8659 7.78771 18.2517C7.78771 15.6375 7.90137 13.5917 7.90137 13.5917V23.0254Z" fill="#434343"/>
<path d="M7.90137 22.9121C7.90137 22.9121 7.78771 20.8094 7.78771 18.2521C7.78771 15.6947 7.90137 13.7057 7.90137 13.7057V22.9121Z" fill="#424242"/>
</g>
</svg>
