<svg width="58" height="26" viewBox="0 0 58 26" fill="none" xmlns="http://www.w3.org/2000/svg">
<path d="M42.5939 13.7248C39.9836 11.45 36.9686 9.4906 33.8357 7.89269C27.5484 4.68726 20.4185 3.03167 13.3318 3.12204C9.3131 3.17396 5.33959 3.83158 1.52125 5.05838C-0.079544 5.57178 -0.61969 3.16819 0.896647 2.60864C15.2036 -2.67158 32.3626 0.281958 44.3244 9.49829C46.0646 10.8385 47.7243 12.273 49.2466 13.8498C49.9812 14.6093 50.7511 15.3881 51.4072 16.2341C51.2736 15.44 51.1518 14.6458 51.0418 13.8517C50.7943 12.0711 50.5999 10.2809 50.4663 8.48878C50.3308 6.6659 49.8849 4.34307 50.8493 2.69901C51.6762 1.28955 53.7033 1.5126 54.5046 2.78746C55.4298 4.25846 55.1116 6.55437 55.2353 8.23881C55.3532 9.85787 55.5299 11.4692 55.7656 13.0748C56.2645 16.4687 57.0502 19.7876 57.9223 23.1065C58.4585 25.1447 56.1074 26.6946 54.322 25.6812C50.9554 23.7737 47.4435 22.1527 43.7842 20.8586C41.9497 20.2087 40.0857 19.6376 38.2001 19.1434C36.2674 18.6377 34.2855 18.2724 32.3646 17.7397C32.3685 17.732 32.3744 17.7243 32.3783 17.7167C30.5988 17.1263 30.7755 14.2574 32.9224 14.3286C35.0083 14.3978 37.1787 14.8227 39.2116 15.265C41.2328 15.7053 43.2342 16.2341 45.2063 16.8533C45.4871 16.9417 45.7661 17.036 46.045 17.1263C44.9627 15.9284 43.8098 14.792 42.588 13.7286L42.5939 13.7248Z" fill="#F89A20"/>
</svg>
