<svg width="210" height="37" viewBox="0 0 210 37" fill="none" xmlns="http://www.w3.org/2000/svg">
<path d="M38.5331 16.6376C38.5098 15.9231 38.1699 15.5543 37.5102 15.5301H33.9863C33.1522 15.5807 32.7213 16.0343 32.7013 16.8876V23.1707C32.7213 24.0515 33.1978 24.5006 34.124 24.526H37.3536C37.689 24.526 37.9678 24.4027 38.1899 24.1505C38.422 23.9612 38.5331 23.7179 38.5331 23.4162V16.6376ZM28.1768 15.7459C28.2001 14.1737 28.5532 12.9792 29.2385 12.1623C29.5972 11.8199 30.0459 11.5336 30.5923 11.2969C31.1598 11.0448 31.7096 10.9226 32.2427 10.9226H38.7108C41.5639 10.9468 43.0144 12.4937 43.0599 15.5664V25.0236C43.0388 26.1146 42.6079 27.0615 41.7749 27.853C40.9497 28.6854 39.9647 29.1092 38.8174 29.1345H32.7013V35.9527H28.1768V15.7459Z" fill="#008AC9"/>
<path d="M51.2269 23.6133C51.2269 23.8764 51.349 24.0845 51.5878 24.2408C51.801 24.428 52.0698 24.526 52.4096 24.526H55.8847C56.6699 24.526 57.0775 24.2243 57.1008 23.6133V22.3274C57.1008 21.625 56.6866 21.2704 55.8514 21.2704H52.4096C51.9565 21.2704 51.6433 21.3453 51.469 21.4862C51.3079 21.6525 51.2269 21.9817 51.2269 22.4694V23.6133ZM57.1008 16.5265C57.1241 15.8373 56.7188 15.5081 55.8836 15.5301H46.7711V10.9226H57.0308C60.0195 10.971 61.5365 12.4023 61.5876 15.2284V24.8673C61.5621 26.086 61.1856 27.0912 60.4548 27.8905C59.6907 28.7184 58.7056 29.1345 57.4984 29.1345H51.2968C48.2782 29.1092 46.7478 27.7429 46.7012 25.0269V21.3079C46.7245 18.4696 48.1872 17.0274 51.0825 16.9778H57.1008V16.5265Z" fill="#008AC9"/>
<path d="M74.2954 31.3442C74.6541 31.3221 74.9651 31.1944 75.2172 30.9654C75.4593 30.7518 75.5815 30.5063 75.5815 30.2278V29.1345H69.7886C69.0334 29.1345 68.4292 29.0388 67.9783 28.8483C67.5019 28.6754 67.0277 28.3529 66.5501 27.8949C66.0981 27.4094 65.7727 26.9018 65.575 26.3712C65.3695 25.8856 65.2651 25.268 65.2651 24.526V10.9226H69.7886V23.0661C69.7886 24.0393 70.1895 24.526 71.0014 24.526H74.1955C74.5753 24.526 74.9051 24.4027 75.1817 24.1505C75.4482 23.937 75.5815 23.6837 75.5815 23.3865V10.9226H80.0683V30.9907C80.0428 32.4759 79.6585 33.665 78.9177 34.5666C78.1658 35.4683 77.1374 35.9296 75.8258 35.9527H65.2651V31.3442H74.2954Z" fill="#008AC9"/>
<path d="M83.6211 24.526H91.6829C92.4204 24.5006 92.8035 24.2078 92.8268 23.6463V23.2323C92.8268 23.1123 92.7902 22.9791 92.7191 22.836C92.5392 22.4881 92.3182 22.3153 92.055 22.3153H88.0579C86.8718 22.2921 85.8601 21.887 85.0093 21.1053C84.1486 20.3831 83.7077 19.4946 83.6822 18.452V15.0159C83.7288 12.3351 85.1981 10.971 88.0924 10.9226H97.4425V15.5301H89.5206C88.591 15.5301 88.1223 15.813 88.1223 16.3767V16.8226C88.1223 17.4072 88.601 17.7001 89.555 17.7001H93.5399C94.6016 17.7243 95.5067 18.1272 96.2608 18.9133C97.0227 19.7049 97.4181 20.6462 97.4425 21.7395V25.1007C97.4181 26.0453 96.9772 26.9877 96.1298 27.9279C95.7166 28.3892 95.2935 28.7063 94.8703 28.8857C94.4328 29.0509 93.8386 29.1345 93.0801 29.1345H83.6211V24.526Z" fill="#008AC9"/>
<path d="M105.184 23.6133C105.184 23.8764 105.306 24.0845 105.551 24.2408C105.762 24.428 106.032 24.526 106.367 24.526H109.849C110.634 24.526 111.039 24.2243 111.063 23.6133V22.3274C111.063 21.625 110.643 21.2704 109.811 21.2704H106.367C105.915 21.2704 105.603 21.3453 105.43 21.4862C105.269 21.6525 105.184 21.9817 105.184 22.4694V23.6133ZM111.063 16.5265C111.083 15.8373 110.677 15.5081 109.841 15.5301H100.731V10.9226H110.994C113.979 10.971 115.497 12.4023 115.544 15.2284V24.8673C115.52 26.086 115.14 27.0912 114.413 27.8905C113.655 28.7184 112.669 29.1345 111.46 29.1345H105.253C102.237 29.1092 100.705 27.7429 100.663 25.0269V21.3079C100.683 18.4696 102.145 17.0274 105.042 16.9778H111.063V16.5265Z" fill="#008AC9"/>
<path d="M119.222 8.31016C119.25 7.06609 119.712 6.06752 120.618 5.31888C121.498 4.55812 122.653 4.16728 124.081 4.14526H126.954V8.59641H125.214C124.258 8.61843 123.77 9.07202 123.749 9.94838V10.9238H126.954V15.5357H123.749V29.1369H119.222V8.31016Z" fill="#008AC9"/>
<path d="M139.822 16.4406V16.3338C139.822 16.0971 139.725 15.8956 139.531 15.7459C139.32 15.6005 139.062 15.5301 138.752 15.5301H135.603C135.199 15.5301 134.873 15.6424 134.621 15.8725C134.308 16.085 134.149 16.3646 134.149 16.7092V18.5588L139.822 16.4406ZM134.221 22.9538V23.2411C134.221 23.61 134.318 23.9028 134.514 24.1153C134.657 24.3872 134.848 24.526 135.102 24.526H144.396V29.1345H134.514C133.613 29.1345 132.91 29.0509 132.413 28.8835C131.87 28.7063 131.382 28.4167 130.957 28.0138C130.46 27.5261 130.121 27.0295 129.951 26.5187C129.764 25.9858 129.672 25.279 129.672 24.3983L129.633 15.1756C129.683 12.3891 131.151 10.971 134.037 10.9226H140.136C142.954 10.971 144.381 12.4386 144.426 15.333V18.9761L134.221 22.9538Z" fill="#008AC9"/>
<path d="M154.004 29.1345C153.319 29.1345 152.694 29.0718 152.126 28.9573C151.532 28.8615 150.94 28.5885 150.335 28.1272C149.714 27.591 149.284 26.9899 149.049 26.326C148.8 25.6732 148.68 24.9333 148.68 24.101V15.5015C148.654 14.8002 148.725 14.1847 148.891 13.6508C149.043 13.1179 149.363 12.5961 149.846 12.0852C150.397 11.5491 150.959 11.1923 151.552 11.0173C152.123 10.8753 152.766 10.8037 153.487 10.8037H160.421V11.8815H153.648C152.451 11.8815 151.512 12.1249 150.824 12.6126C150.121 13.1443 149.763 14.0614 149.763 15.3539V23.959C149.763 24.5645 149.856 25.1535 150.041 25.7216C150.231 26.2798 150.548 26.7697 151.002 27.198C151.495 27.569 151.986 27.8002 152.465 27.8949C152.963 28.0039 153.499 28.0556 154.066 28.0556H160.53V29.1345H154.004Z" fill="#008AC9"/>
<path d="M178.256 17.9775H169.165C168.076 18.0017 167.224 18.3353 166.609 18.9783C165.974 19.6311 165.66 20.5262 165.66 21.6635V24.4082C165.66 24.9399 165.715 25.4265 165.831 25.8647C165.945 26.326 166.231 26.7378 166.682 27.0912C167.467 27.7363 168.336 28.0556 169.287 28.0556H174.796C177.098 28.0314 178.256 26.8292 178.256 24.4423V17.9775ZM179.337 24.1737C179.337 24.8662 179.284 25.4739 179.194 26.0089C179.047 26.5903 178.746 27.1506 178.29 27.6835C177.34 28.6755 176.163 29.1588 174.758 29.1346H169.353C167.948 29.1346 166.809 28.7184 165.927 27.8905C165.027 27.0725 164.57 25.9352 164.57 24.4764V21.7042C164.616 18.5764 166.187 16.9745 169.284 16.9019H178.29V15.6886C178.29 14.689 177.997 13.8137 177.417 13.0607C177.048 12.5718 176.611 12.2449 176.116 12.0764C175.615 11.9465 175.053 11.8815 174.427 11.8815H164.603V10.8037H173.916C174.768 10.8037 175.537 10.8632 176.235 10.9799C176.594 11.0503 176.919 11.189 177.22 11.3894C177.539 11.5799 177.836 11.8584 178.112 12.2239C178.947 13.2919 179.355 14.5238 179.337 15.911V24.1737Z" fill="#008AC9"/>
<path d="M189.503 11.8815C186.982 11.9278 185.739 13.2919 185.786 15.976V29.1345H184.703V15.9804C184.652 12.5278 186.31 10.8037 189.678 10.8037H190.882V11.8815H189.503Z" fill="#008AC9"/>
<path d="M207.817 11.8871H199.248C198.63 11.8871 198.077 11.9554 197.579 12.0853C197.057 12.202 196.552 12.5157 196.08 13.0266C195.628 13.4923 195.344 13.9536 195.225 14.4149C195.066 14.8806 194.994 15.4388 195.02 16.0894V24.4787C195.02 25.8736 195.427 26.8226 196.254 27.3323C196.661 27.5691 197.109 27.7463 197.611 27.8652C198.111 27.9973 198.668 28.0623 199.282 28.0623H203.029C204.429 28.0623 205.574 27.743 206.453 27.0989C207.337 26.4945 207.787 25.4519 207.817 23.9656V11.8871ZM208.899 24.0394C208.803 27.5118 206.95 29.2139 203.339 29.1423H199.322C198.474 29.1423 197.715 29.0685 197.044 28.9287C196.354 28.7515 195.693 28.3342 195.056 27.6835C194.578 27.0989 194.27 26.5077 194.147 25.9022C193.981 25.2978 193.909 24.6251 193.935 23.8908V16.0619C193.981 12.5356 195.773 10.7828 199.313 10.8093H207.817V4.86523H208.899V24.0394Z" fill="#008AC9"/>
<path d="M3.04395 10.2302C3.39934 10.0749 3.75473 9.95382 4.11012 9.87785C4.76316 6.78638 7.52522 4.46778 10.8359 4.46778C14.1488 4.46778 16.912 6.78968 17.5639 9.88005C18.5801 10.0716 19.4208 10.479 20.0761 11.0856C20.1027 10.4922 20.0783 9.92079 20.0072 9.38242C19.5885 4.71219 15.6381 1.04712 10.8215 1.04712C5.86265 1.04712 1.82562 4.94339 1.61572 9.814C1.58684 10.2346 1.57796 10.6727 1.59351 11.1307C2.00998 10.7828 2.48532 10.4702 3.04395 10.2302Z" fill="#E3001B"/>
<path d="M16.2185 10.9226H5.16809C4.63611 10.9226 4.08525 11.0448 3.51774 11.2969C2.97021 11.5336 2.52153 11.8199 2.1617 12.1623C1.47646 12.9792 1.12551 14.1737 1.10107 15.7459V24.3091C1.12551 25.8845 1.47646 27.078 2.1617 27.8905C2.52153 28.2384 2.97021 28.5246 3.51774 28.7635C4.08525 29.0101 4.63611 29.1345 5.16809 29.1345H16.2185C19.0728 29.1092 20.5243 27.5569 20.5699 24.4885V15.5664C20.5243 12.4937 19.0728 10.9468 16.2185 10.9226Z" fill="#E3001B"/>
</svg>
