<svg width="136" height="48" viewBox="0 0 136 48" fill="none" xmlns="http://www.w3.org/2000/svg">
<g clip-path="url(#clip0_309_3237)">
<path d="M56.8174 44.8197V17.2922C56.8174 12.227 60.9403 8.12109 66.0261 8.12109L74.1873 8.13334C79.2584 8.14337 83.3642 12.2403 83.3642 17.2908V23.1501C83.3642 28.2152 79.2411 32.3211 74.1553 32.3211H62.623" stroke="#939598" stroke-width="3" stroke-miterlimit="10" stroke-linecap="round" stroke-linejoin="round"/>
<path d="M85.6448 8.11743H89.1849C91.2722 8.11743 92.964 9.80246 92.964 11.8812V32.4443" stroke="#939598" stroke-width="3" stroke-miterlimit="10" stroke-linecap="round" stroke-linejoin="round"/>
<path d="M92.2051 4.93164L90.5997 3.33262C90.2011 2.93593 90.2011 2.29267 90.5997 1.89598L92.2041 0.297969C92.6032 -0.099323 93.25 -0.099323 93.6487 0.297969L95.2531 1.89598C95.6516 2.29267 95.6516 2.93593 95.2531 3.33262L93.6477 4.93164C93.2494 5.32833 92.6036 5.32833 92.2051 4.93164Z" fill="#32BCAD"/>
<path d="M99.7559 8.09912H103.267C105.073 8.09912 106.805 8.81373 108.082 10.0854L116.294 18.2635C117.357 19.323 119.082 19.323 120.146 18.2635L128.328 10.1153C129.605 8.84367 131.337 8.12906 133.143 8.12906H135.998" stroke="#939598" stroke-width="3" stroke-miterlimit="10" stroke-linecap="round" stroke-linejoin="round"/>
<path d="M99.7559 32.2642H103.267C105.073 32.2642 106.805 31.5496 108.082 30.2779L116.294 22.0998C117.357 21.0403 119.082 21.0403 120.146 22.0998L128.328 30.248C129.605 31.5196 131.337 32.2342 133.143 32.2342H135.998" stroke="#939598" stroke-width="3" stroke-miterlimit="10" stroke-linecap="round" stroke-linejoin="round"/>
<path d="M35.886 37.4889C34.124 37.4889 32.4667 36.8056 31.2207 35.5653L24.4844 28.8566C24.0115 28.3843 23.1872 28.3857 22.7144 28.8566L15.9535 35.5899C14.7075 36.8302 13.0502 37.5134 11.2882 37.5134H9.96069L18.4924 46.0099C21.1568 48.6633 25.4769 48.6633 28.1414 46.0099L36.6974 37.4889H35.886Z" fill="#32BCAD"/>
<path d="M11.2881 13.7594C13.0501 13.7594 14.7074 14.4427 15.9534 15.683L22.7142 22.4172C23.2012 22.9024 23.9962 22.9042 24.4843 22.4167L31.2205 15.7075C32.4666 14.4672 34.1238 13.784 35.8858 13.784H36.6972L28.1415 5.26318C25.4767 2.60954 21.1567 2.60954 18.4923 5.26318L9.96094 13.7594L11.2881 13.7594Z" fill="#32BCAD"/>
<path d="M43.7743 20.8317L38.6039 15.6826C38.4901 15.728 38.3668 15.7564 38.2367 15.7564H35.8858C34.6705 15.7564 33.4808 16.2473 32.6219 17.1032L25.8859 23.8117C25.2555 24.4395 24.4272 24.7536 23.5997 24.7536C22.7714 24.7536 21.9436 24.4395 21.3135 23.8123L14.552 17.0787C13.6932 16.2226 12.5034 15.7318 11.2881 15.7318H8.3975C8.2742 15.7318 8.159 15.7029 8.05023 15.6621L2.85928 20.8317C0.194692 23.4854 0.194692 27.7875 2.85928 30.4411L8.05002 35.6105C8.15899 35.5697 8.2742 35.5408 8.3975 35.5408H11.2881C12.5034 35.5408 13.6932 35.0501 14.552 34.1942L21.3128 27.4611C22.5349 26.2451 24.6651 26.2447 25.8859 27.4617L32.6219 34.1696C33.4808 35.0255 34.6705 35.5164 35.8858 35.5164H38.2367C38.3668 35.5164 38.4901 35.5448 38.6039 35.5902L43.7743 30.4411C46.4387 27.7874 46.4387 23.4854 43.7743 20.8317Z" fill="#32BCAD"/>
<path d="M63.8356 42.4797C63.454 42.4797 63.0099 42.5712 62.5706 42.672V44.3494C62.8749 44.4602 63.2223 44.5134 63.5555 44.5134C64.4002 44.5134 64.8007 44.2297 64.8007 43.4887C64.8007 42.7922 64.4726 42.4797 63.8356 42.4797ZM62.2856 45.595V42.2776H62.5175L62.5417 42.4221C62.9325 42.3306 63.4731 42.2104 63.8594 42.2104C64.1735 42.2104 64.4726 42.2581 64.7234 42.4602C65.0134 42.6962 65.105 43.0756 65.105 43.4887C65.105 43.9222 64.9599 44.3305 64.5642 44.5562C64.2892 44.7102 63.9175 44.7726 63.5843 44.7726C63.2415 44.7726 62.9134 44.7196 62.5706 44.6189V45.595H62.2856Z" fill="#939598"/>
<path d="M67.2257 42.4696C66.3808 42.4696 66.0042 42.7343 66.0042 43.4746C66.0042 44.1908 66.3759 44.5132 67.2257 44.5132C68.0655 44.5132 68.4421 44.2533 68.4421 43.513C68.4421 42.7968 68.0705 42.4696 67.2257 42.4696ZM68.3117 44.5132C68.0316 44.7147 67.6553 44.7726 67.2257 44.7726C66.7864 44.7726 66.4096 44.7101 66.1346 44.5132C65.8257 44.2969 65.7 43.9409 65.7 43.4941C65.7 43.0514 65.8257 42.6913 66.1346 42.4696C66.4096 42.2729 66.7864 42.2102 67.2257 42.2102C67.6599 42.2102 68.0316 42.2729 68.3117 42.4696C68.6257 42.6913 68.7461 43.0514 68.7461 43.4887C68.7461 43.9362 68.6206 44.2969 68.3117 44.5132Z" fill="#939598"/>
<path d="M72.3105 44.7056L71.3692 42.6916H71.3496L70.423 44.7056H70.1672L69.1631 42.2776H69.4769L70.3121 44.3159H70.3315L71.2387 42.2776H71.4994L72.4312 44.3159H72.4506L73.2665 42.2776H73.5703L72.5665 44.7056H72.3105Z" fill="#939598"/>
<path d="M75.3914 42.4651C74.6095 42.4651 74.3439 42.8111 74.2955 43.3115H76.4873C76.4633 42.7587 76.1782 42.4651 75.3914 42.4651ZM75.3819 44.7727C74.9134 44.7727 74.6095 44.7055 74.3682 44.5034C74.0832 44.2582 73.9866 43.9027 73.9866 43.4942C73.9866 43.1047 74.1171 42.6913 74.4406 42.4556C74.7108 42.2683 75.0439 42.2104 75.3914 42.2104C75.7054 42.2104 76.0674 42.244 76.3664 42.4462C76.719 42.6815 76.7868 43.0953 76.7868 43.5661H74.286C74.2955 44.0659 74.4598 44.5086 75.4057 44.5086C75.8549 44.5086 76.2748 44.4363 76.6659 44.3689V44.6235C76.2603 44.6961 75.8113 44.7727 75.3819 44.7727Z" fill="#939598"/>
<path d="M77.604 44.7055V42.2776H77.8356L77.8601 42.4221C78.3765 42.2924 78.6178 42.2104 79.0716 42.2104H79.1055V42.4797H79.0377C78.6566 42.4797 78.4249 42.5324 77.8892 42.672V44.7055H77.604Z" fill="#939598"/>
<path d="M80.7596 42.4651C79.9777 42.4651 79.7121 42.8111 79.6637 43.3115H81.8555C81.8315 42.7587 81.5463 42.4651 80.7596 42.4651ZM80.7501 44.7727C80.2815 44.7727 79.9777 44.7055 79.7363 44.5034C79.4512 44.2582 79.3547 43.9027 79.3547 43.4942C79.3547 43.1047 79.4853 42.6913 79.8088 42.4556C80.079 42.2683 80.4121 42.2104 80.7596 42.2104C81.0736 42.2104 81.4356 42.244 81.7346 42.4462C82.0871 42.6815 82.1549 43.0953 82.1549 43.5661H79.6542C79.6637 44.0659 79.8279 44.5086 80.7739 44.5086C81.2229 44.5086 81.6428 44.4363 82.0341 44.3689V44.6235C81.6285 44.6961 81.1795 44.7727 80.7501 44.7727Z" fill="#939598"/>
<path d="M85.2749 42.6337C84.9708 42.523 84.6234 42.4699 84.2902 42.4699C83.4455 42.4699 83.0446 42.754 83.0446 43.4942C83.0446 44.1957 83.3729 44.5034 84.0099 44.5034C84.3915 44.5034 84.8356 44.4119 85.2749 44.3159V42.6337ZM85.3282 44.7055L85.304 44.5611C84.9129 44.6525 84.3721 44.7729 83.9859 44.7729C83.6725 44.7729 83.3729 44.7296 83.1219 44.5229C82.8323 44.2872 82.7405 43.9073 82.7405 43.4942C82.7405 43.0615 82.8853 42.6526 83.2811 42.4315C83.5563 42.273 83.928 42.2105 84.266 42.2105C84.604 42.2105 84.9323 42.2683 85.2749 42.3644V41.2539H85.5598V44.7055H85.3282Z" fill="#939598"/>
<path d="M89.736 42.4797C89.3544 42.4797 88.9103 42.5711 88.471 42.672V44.3448C88.7801 44.4601 89.1227 44.5134 89.4559 44.5134C90.3006 44.5134 90.7011 44.2296 90.7011 43.4887C90.7011 42.7922 90.373 42.4797 89.736 42.4797ZM90.4648 44.5562C90.1896 44.7101 89.8179 44.7726 89.4847 44.7726C89.1227 44.7726 88.7607 44.7101 88.3939 44.59L88.3793 44.7055H88.186V41.2537H88.471V42.412C88.862 42.326 89.3881 42.2104 89.7598 42.2104C90.074 42.2104 90.373 42.258 90.6238 42.4602C90.9138 42.6961 91.0054 43.0755 91.0054 43.4887C91.0054 43.9222 90.8603 44.3305 90.4648 44.5562Z" fill="#939598"/>
<path d="M91.3834 45.638V45.374C91.5233 45.388 91.654 45.3981 91.7456 45.3981C92.0981 45.3981 92.3102 45.2968 92.5082 44.8977L92.6 44.7056L91.3257 42.2776H91.654L92.7451 44.3736H92.7642L93.802 42.2776H94.1255L92.7545 45.0038C92.5035 45.4989 92.2331 45.6621 91.7359 45.6621C91.6247 45.6621 91.5043 45.6527 91.3834 45.638Z" fill="#939598"/>
<path d="M98.0512 43.3208H97.1052V44.1721H98.0558C98.7076 44.1721 98.9539 44.0995 98.9539 43.7441C98.9539 43.3638 98.6162 43.3208 98.0512 43.3208ZM97.8776 41.9411H97.1052V42.8062H97.8823C98.5243 42.8062 98.78 42.7296 98.78 42.3689C98.78 41.9847 98.4567 41.9411 97.8776 41.9411ZM99.345 44.4749C98.9971 44.696 98.5772 44.7054 97.8098 44.7054H96.3665V41.4124H97.7761C98.4374 41.4124 98.8428 41.4218 99.1808 41.624C99.4223 41.7682 99.5186 41.9893 99.5186 42.2777C99.5186 42.6235 99.3741 42.8546 98.9971 43.0086V43.0275C99.4223 43.1241 99.6973 43.3404 99.6973 43.8066C99.6973 44.1237 99.5815 44.3305 99.345 44.4749Z" fill="#939598"/>
<path d="M102.585 43.6863C102.3 43.6619 102.011 43.6479 101.707 43.6479C101.209 43.6479 101.035 43.7487 101.035 43.9744C101.035 44.186 101.18 44.3016 101.562 44.3016C101.88 44.3016 102.262 44.2296 102.585 44.1571V43.6863ZM102.73 44.7053L102.711 44.561C102.295 44.6623 101.813 44.7726 101.388 44.7726C101.127 44.7726 100.847 44.7388 100.649 44.5946C100.466 44.465 100.379 44.2534 100.379 44.0082C100.379 43.7339 100.5 43.4793 100.789 43.3497C101.045 43.2295 101.388 43.22 101.702 43.22C101.957 43.22 102.3 43.2341 102.585 43.2536V43.21C102.585 42.8304 102.334 42.7054 101.649 42.7054C101.383 42.7054 101.06 42.7195 100.751 42.7484V42.2581C101.093 42.2297 101.48 42.2102 101.798 42.2102C102.223 42.2102 102.663 42.244 102.933 42.4361C103.212 42.6334 103.266 42.9075 103.266 43.2676V44.7053L102.73 44.7053Z" fill="#939598"/>
<path d="M106.449 44.7055V43.3639C106.449 42.922 106.222 42.7633 105.816 42.7633C105.517 42.7633 105.141 42.84 104.822 42.9172V44.7055H104.141V42.2776H104.696L104.72 42.4315C105.15 42.3212 105.628 42.2104 106.024 42.2104C106.323 42.2104 106.627 42.2535 106.859 42.4604C107.052 42.6337 107.124 42.8736 107.124 43.2201V44.7055H106.449Z" fill="#939598"/>
<path d="M109.048 44.7727C108.734 44.7727 108.391 44.7296 108.14 44.518C107.841 44.2775 107.754 43.8979 107.754 43.4887C107.754 43.1045 107.879 42.6861 108.251 42.4508C108.555 42.2535 108.931 42.2104 109.323 42.2104C109.603 42.2104 109.878 42.2298 110.182 42.2581V42.7773C109.935 42.7538 109.641 42.7343 109.405 42.7343C108.758 42.7343 108.454 42.9365 108.454 43.4942C108.454 44.0182 108.68 44.2439 109.211 44.2439C109.52 44.2439 109.883 44.1862 110.235 44.1189V44.6187C109.853 44.6961 109.438 44.7727 109.048 44.7727Z" fill="#939598"/>
<path d="M112.245 42.7197C111.598 42.7197 111.314 42.9218 111.314 43.4747C111.314 44.0277 111.594 44.2634 112.245 44.2634C112.887 44.2634 113.167 44.0659 113.167 43.5131C113.167 42.9602 112.892 42.7197 112.245 42.7197ZM113.414 44.518C113.114 44.7196 112.723 44.7727 112.245 44.7727C111.758 44.7727 111.367 44.715 111.072 44.518C110.734 44.297 110.614 43.9316 110.614 43.4942C110.614 43.0563 110.734 42.6861 111.072 42.4651C111.367 42.2681 111.758 42.2104 112.245 42.2104C112.728 42.2104 113.114 42.2681 113.414 42.4651C113.752 42.6861 113.867 43.0563 113.867 43.4889C113.867 43.9268 113.747 44.297 113.414 44.518Z" fill="#939598"/>
<path d="M117.797 44.7727C117.387 44.7727 116.943 44.7056 116.61 44.4315C116.214 44.1044 116.093 43.5998 116.093 43.0562C116.093 42.5711 116.248 41.9941 116.764 41.6577C117.165 41.3983 117.662 41.3452 118.164 41.3452C118.531 41.3452 118.908 41.3693 119.318 41.4029V41.9941C118.965 41.9652 118.531 41.9411 118.193 41.9411C117.252 41.9411 116.851 42.2972 116.851 43.0562C116.851 43.8309 117.223 44.1769 117.918 44.1769C118.372 44.1769 118.879 44.0855 119.39 43.9794V44.5658C118.879 44.6673 118.343 44.7727 117.797 44.7727Z" fill="#939598"/>
<path d="M121.39 42.6431C120.825 42.6431 120.608 42.8453 120.565 43.2154H122.206C122.187 42.8212 121.955 42.6431 121.39 42.6431ZM121.289 44.7729C120.888 44.7729 120.526 44.725 120.256 44.5034C119.966 44.2634 119.865 43.9027 119.865 43.4889C119.865 43.1188 119.986 42.7056 120.324 42.4651C120.623 42.2537 121.004 42.2104 121.39 42.2104C121.738 42.2104 122.148 42.2488 122.447 42.4556C122.839 42.7297 122.872 43.1529 122.877 43.6527H120.56C120.574 44.0231 120.772 44.2634 121.458 44.2634C121.883 44.2634 122.356 44.2009 122.757 44.1384V44.6143C122.288 44.6915 121.776 44.7729 121.289 44.7729Z" fill="#939598"/>
<path d="M125.906 44.7055V43.3639C125.906 42.922 125.679 42.7633 125.273 42.7633C124.974 42.7633 124.598 42.84 124.279 42.9172V44.7055H123.598V42.2776H124.153L124.177 42.4315C124.607 42.3212 125.085 42.2104 125.481 42.2104C125.78 42.2104 126.084 42.2535 126.316 42.4604C126.509 42.6337 126.582 42.8736 126.582 43.2201V44.7055H125.906Z" fill="#939598"/>
<path d="M128.519 44.7728C128.191 44.7728 127.891 44.6813 127.727 44.4267C127.607 44.2535 127.549 44.0184 127.549 43.6912V42.7823H127.056V42.2777H127.549L127.621 41.542H128.225V42.2777H129.185V42.7823H128.225V43.5614C128.225 43.7489 128.239 43.9075 128.292 44.023C128.364 44.1864 128.524 44.2487 128.736 44.2487C128.895 44.2487 129.089 44.2246 129.224 44.2011V44.6862C129.002 44.7298 128.746 44.7728 128.519 44.7728Z" fill="#939598"/>
<path d="M129.849 44.7055V42.2776H130.404L130.429 42.4315C130.878 42.3065 131.211 42.2104 131.636 42.2104C131.655 42.2104 131.684 42.2105 131.722 42.215V42.7922C131.645 42.7876 131.553 42.7876 131.486 42.7876C131.152 42.7876 130.902 42.8258 130.53 42.9126V44.7055L129.849 44.7055Z" fill="#939598"/>
<path d="M134.197 43.6863C133.912 43.6619 133.622 43.6479 133.318 43.6479C132.821 43.6479 132.647 43.7487 132.647 43.9744C132.647 44.186 132.792 44.3016 133.173 44.3016C133.492 44.3016 133.873 44.2296 134.197 44.1571V43.6863ZM134.341 44.7053L134.322 44.561C133.907 44.6623 133.424 44.7726 132.999 44.7726C132.738 44.7726 132.459 44.7388 132.26 44.5946C132.077 44.465 131.99 44.2534 131.99 44.0082C131.99 43.7339 132.111 43.4793 132.401 43.3497C132.657 43.2295 132.999 43.22 133.313 43.22C133.569 43.22 133.912 43.2341 134.197 43.2536V43.21C134.197 42.8304 133.945 42.7054 133.26 42.7054C132.995 42.7054 132.671 42.7195 132.362 42.7484V42.2581C132.705 42.2297 133.091 42.2102 133.41 42.2102C133.834 42.2102 134.274 42.244 134.544 42.4361C134.824 42.6334 134.877 42.9075 134.877 43.2676V44.7053L134.341 44.7053Z" fill="#939598"/>
<path d="M135.752 41.2539H136.433V44.7055H135.752V41.2539Z" fill="#939598"/>
</g>
<defs>
<clipPath id="clip0_309_3237">
<rect width="136" height="48" fill="white"/>
</clipPath>
</defs>
</svg>
