<svg width="19" height="20" viewBox="0 0 19 20" fill="none" xmlns="http://www.w3.org/2000/svg">
<path d="M16.8394 8.98656H10.6254V2.47665C10.6254 1.6554 9.97531 0.974365 9.19139 0.974365C8.40746 0.974365 7.75738 1.6554 7.75738 2.47665V8.98656H1.54338C0.759456 8.98656 0.109375 9.6676 0.109375 10.4889C0.109375 11.3101 0.759456 11.9911 1.54338 11.9911H7.75738V18.5011C7.75738 19.3223 8.40746 20.0033 9.19139 20.0033C9.97531 20.0033 10.6254 19.3223 10.6254 18.5011V11.9911H16.8394C17.6233 11.9911 18.2734 11.3101 18.2734 10.4889C18.2734 9.6676 17.6233 8.98656 16.8394 8.98656Z" fill="white"/>
</svg>
