<svg width="70" height="47" viewBox="0 0 70 47" fill="none" xmlns="http://www.w3.org/2000/svg">
<path d="M68.2119 36.5459C67.5846 36.5541 67.1579 36.9609 66.7386 37.2985C66.3743 37.5914 66.0274 37.898 65.6971 38.217C65.03 38.8612 64.4235 39.5554 63.8953 40.2826C63.6524 40.6174 63.4295 40.9604 63.2207 41.3096C62.8654 35.8688 62.3605 30.38 60.9064 25.0614C59.5529 20.1091 57.2487 15.2418 53.5485 11.1505C51.7392 9.14937 49.6321 7.33349 47.1955 5.84691C44.7207 4.337 41.9989 3.16117 39.0873 2.33316C33.419 0.720345 27.1384 0.546784 21.3785 1.94419C17.9945 2.76534 14.791 4.10855 11.9643 5.86063C11.1124 5.24047 10.2248 4.65462 9.30479 4.10718C8.18343 3.43969 6.97473 2.90666 5.71445 2.44018C4.99405 2.174 4.46665 2.96223 5.12382 3.32239C7.02797 4.36581 8.90051 5.49155 10.6125 6.75038C9.42541 7.5784 8.31653 8.48119 7.30498 9.45052C3.41267 13.1769 0.718251 18.0387 1.02355 23.037C1.17079 25.4442 2.08834 27.861 3.96087 29.7372C5.53144 31.311 7.7126 32.4518 10.0726 33.0397C12.3644 33.6105 14.9582 33.6276 17.1734 32.8243C19.6482 31.927 21.3785 30.153 22.2769 28.0805C23.1845 25.9882 23.2053 23.6585 22.791 21.4845C22.3485 19.1596 21.4026 16.9171 20.179 14.7952C18.4986 11.8831 16.1818 9.23237 13.4026 6.96648C15.216 5.88807 17.1801 4.98939 19.2281 4.30887C24.3816 2.59796 30.0341 2.26318 35.4188 3.28671C40.9382 4.33562 45.8679 6.725 49.6595 10.1955C53.4138 13.6311 55.9285 17.9283 57.5365 22.3523C59.4498 27.6161 60.092 33.0781 60.4447 38.5532C60.5046 39.4834 60.552 40.4143 60.6028 41.3446C60.2467 40.9247 59.8907 40.5056 59.5346 40.0857C59.0879 39.5589 58.7244 39.0505 58.0556 38.7C57.7619 38.5456 57.2686 38.7631 57.3227 39.0663C57.3801 39.3867 57.4533 39.6542 57.6463 39.9369C57.8343 40.2106 58.0381 40.4781 58.2336 40.7484C58.6254 41.2897 59.0164 41.8309 59.4082 42.3722C60.191 43.4547 60.9746 44.5366 61.7599 45.6177C62.2024 46.2269 63.4062 46.0787 63.6 45.3811C63.8129 44.6155 64.0076 43.8526 64.3154 43.1076C64.6099 42.3955 65.0258 41.7164 65.4858 41.0674C65.9375 40.4294 66.4491 39.8244 67.0265 39.2591C67.3401 38.9524 67.6695 38.6568 68.0139 38.3734C68.3849 38.0682 68.8957 37.7979 68.9872 37.3431C69.0695 36.9328 68.7492 36.5377 68.211 36.5445L68.2119 36.5459ZM14.5847 31.6944C14.4765 31.7123 14.5381 31.7013 14.5847 31.6944V31.6944ZM16.5354 12.5321C17.9462 14.385 19.0842 16.3731 19.9003 18.4551C20.6981 20.4898 21.1647 22.5005 21.0375 24.645C20.9817 25.5903 20.7729 26.5871 20.367 27.5434C20.0317 28.3344 19.4186 29.2166 18.7132 29.8518C18.2806 30.2415 17.9462 30.4829 17.492 30.7375C17.2641 30.8651 17.0279 30.983 16.7841 31.0894C16.6635 31.1422 16.5412 31.1916 16.4181 31.2403C16.4098 31.2437 16.3865 31.252 16.364 31.2602C16.3083 31.2794 16.2526 31.2993 16.196 31.3171C15.6902 31.4831 15.1686 31.597 14.6362 31.6855C14.6204 31.6883 14.6079 31.6903 14.5955 31.6924C14.5314 31.6999 14.4674 31.7075 14.4041 31.7136C14.2685 31.7274 14.133 31.739 13.9974 31.7479C13.7237 31.7658 13.45 31.7733 13.1755 31.772C12.8993 31.7706 12.6239 31.7562 12.3478 31.7383C12.3361 31.7377 12.2887 31.7335 12.2621 31.7308C12.2246 31.7274 12.188 31.7233 12.1514 31.7191C11.9959 31.7006 11.8403 31.6814 11.6856 31.6588C11.1307 31.5764 10.5834 31.4585 10.0493 31.3089C9.74152 31.2225 9.66499 31.1991 9.39297 31.1017C9.13093 31.0084 8.87222 30.9069 8.6185 30.7978C8.11106 30.5804 7.6186 30.3341 7.15608 30.0569C6.40324 29.6042 5.50232 28.8708 4.9483 28.2267C4.18964 27.3444 3.65974 26.3456 3.30869 25.3063C1.77639 20.7731 3.88434 15.9073 7.06956 12.2007C8.46128 10.5818 10.1383 9.11369 12.015 7.84526C13.7278 9.26393 15.2427 10.8342 16.5346 12.5314L16.5354 12.5321Z" fill="#ED8406" stroke="#ED8406"/>
</svg>
