<svg width="181" height="81" viewBox="0 0 181 81" fill="none" xmlns="http://www.w3.org/2000/svg">
<path d="M16.1427 42.4124C11.34 42.4472 6.53735 42.4472 1.69987 42.4472C1.10824 42.4472 0.133778 41.7511 0.0293719 41.2639C-0.17944 40.1503 0.760215 39.8718 1.73467 39.9066C2.36111 39.9414 3.02235 39.9066 3.64878 39.9066C10.3656 39.8718 17.1172 39.9066 23.834 39.7674C31.5252 39.6282 39.2165 39.3846 46.9077 39.1062C55.1906 38.793 63.4735 38.5494 71.7564 38.0273C80.9093 37.4357 90.0623 36.5308 99.2152 35.8C102.487 35.5216 105.793 35.3824 109.029 34.9995C113.101 34.5471 117.138 33.9555 121.21 33.3987C125.526 32.807 129.876 32.2154 134.191 31.5193C137.706 30.9625 141.221 30.2665 144.701 29.5008C145.258 29.3616 145.954 28.4916 146.059 27.8651C146.859 22.3316 148.391 17.0417 151.07 12.1346C154.411 6.04425 159.423 2.18122 166.209 0.441116C169.759 -0.463737 172.787 0.0234914 175.745 1.9028C181.418 5.52222 182.427 13.7703 177.798 18.6774C174.109 22.61 169.446 25.0114 164.469 26.7515C161.337 27.8651 158.135 28.77 154.933 29.6748C153.089 30.1969 149.435 30.5101 148.391 32.3198C148.008 32.981 148.008 33.7815 148.008 34.5471C148.077 44.1873 148.147 53.8275 148.216 63.5024C148.216 64.1637 148.216 64.8945 147.868 65.4861C147.52 66.0778 146.685 66.391 146.128 66.0082C145.711 65.695 145.641 65.0685 145.606 64.5465C145.049 54.4887 144.91 44.0829 145.224 33.8859C145.224 33.5379 145.224 33.155 145.015 32.8766C144.667 32.4938 144.075 32.5634 143.553 32.6678C115.781 38.2013 87.2433 40.0458 59.0188 41.3335C49.4135 41.7859 39.7733 42.0992 30.1331 42.2732C25.5045 42.308 20.841 42.3776 16.1427 42.4124ZM178.146 11.9954C178.181 7.95836 175.188 3.95612 172.265 3.15568C169.167 2.32043 166.314 3.08607 163.529 4.23454C158.483 6.32266 155.107 10.0117 152.81 14.9536C151.035 18.8166 149.783 22.784 149.121 26.9255C148.947 28.1435 149.365 28.5264 150.583 28.1783C153.889 27.1691 157.23 26.3338 160.502 25.255C165.618 23.5845 170.559 21.4616 174.701 17.9117C176.719 16.2064 177.972 14.0835 178.146 11.9954Z" fill="#F89A20"/>
<path d="M156.221 65.5907C156.848 65.9387 156.952 66.8435 156.395 67.296C152.776 70.2889 151.14 74.5348 149.122 78.537C148.043 80.7296 146.964 80.8688 145.467 78.8851C144.354 77.3886 143.518 75.6485 142.44 74.0824C141.152 72.2031 139.725 70.3934 138.437 68.514C138.263 68.2704 138.159 67.9572 138.089 67.644C137.915 67.0176 138.368 66.3911 138.994 66.3215C139.481 66.2867 139.899 66.2519 140.143 66.4607C141.57 67.8528 142.822 69.4189 144.006 71.0198C144.737 72.0291 145.189 73.2819 145.885 74.326C146.163 74.7436 146.685 75.196 147.138 75.2308C147.555 75.2656 148.182 74.0128 148.356 73.7343C148.843 73.0035 149.33 72.2379 149.818 71.507C150.896 69.9061 152.01 68.34 153.054 66.7391C153.541 66.0431 154.481 65.5211 155.316 65.3123C155.56 65.2775 155.873 65.4167 156.221 65.5907Z" fill="#F89A20"/>
</svg>
