<svg width="23" height="24" viewBox="0 0 23 24" fill="none" xmlns="http://www.w3.org/2000/svg">
<path d="M7.45239 15.8701C10.1446 11.4046 17.3833 6.24026 21.3815 3.40754C21.6044 3.24957 21.9004 3.24563 22.1283 3.39648C22.4962 3.64008 22.5276 4.1686 22.1905 4.45336C17.3938 8.50509 11.6861 13.3525 9.96241 18.6921C9.89991 18.8857 9.75592 19.0398 9.56633 19.1136C8.69178 19.454 7.35756 20.14 6.56822 20.6172C6.2365 20.8178 5.80757 20.6948 5.63175 20.3494C4.4089 17.9467 2.44297 14.9821 0.812043 13.6391C0.511344 13.3915 0.493935 12.931 0.775481 12.6618C4.03441 9.54599 6.43798 13.8129 7.45206 15.8699L7.45239 15.8701Z" fill="#83CF8F"/>
</svg>
