<svg xmlns="http://www.w3.org/2000/svg" width="99" height="83" viewBox="0 0 99 83" fill="none">
<path d="M89.1771 62.3247C89.2544 62.2219 88.8044 61.7308 87.8879 60.8791C86.9714 60.0273 85.5926 58.8103 83.7993 57.2614C82.0029 55.7154 79.7977 53.8304 77.1613 51.7091C76.8294 51.4451 76.4985 51.1758 76.144 50.9043C75.9692 50.7683 75.7919 50.6308 75.6138 50.4927C75.4326 50.3574 75.25 50.2224 75.0655 50.0849C74.3291 49.5362 73.5477 48.9977 72.7283 48.4609C72.3141 48.1985 71.8981 47.9278 71.4614 47.6724C71.2433 47.5443 71.0288 47.4089 70.8044 47.285C70.5811 47.1594 70.3561 47.0328 70.1294 46.9051C69.9033 46.7765 69.6687 46.6592 69.437 46.5354C69.2035 46.4127 68.9693 46.2873 68.7281 46.1729C68.4876 46.0553 68.2458 45.9381 68.0028 45.8189C67.7563 45.707 67.5076 45.5949 67.2572 45.4816C67.0085 45.3659 66.7515 45.2627 66.4959 45.1557C66.2384 45.0498 65.9819 44.9385 65.7175 44.8413C65.4548 44.7416 65.1889 44.6411 64.9231 44.5406C64.6533 44.4482 64.3825 44.3552 64.1096 44.262C63.0141 43.9024 61.8787 43.5766 60.7017 43.317C60.5591 43.2808 60.3985 43.2521 60.2446 43.2204C60.0892 43.1891 59.9331 43.1572 59.7759 43.1343C59.619 43.1091 59.4615 43.0811 59.3032 43.0598C59.1445 43.0394 58.9857 43.0189 58.8263 42.9993C58.1885 42.929 57.5414 42.8897 56.8869 42.8838C55.5794 42.8827 54.2445 43.007 52.9107 43.3066C51.5776 43.5994 50.2426 44.0631 48.9632 44.7324C47.6843 45.3972 46.4611 46.2858 45.4174 47.4136C44.8961 47.9767 44.4215 48.5987 44.0123 49.269L43.8621 49.523C43.8112 49.6071 43.762 49.6923 43.7179 49.7808C43.6273 49.9574 43.5344 50.1266 43.4473 50.3127C43.2684 50.6867 43.1225 51.076 42.9923 51.4743C42.8702 51.8767 42.7685 52.2899 42.7027 52.7216C42.6841 52.8278 42.6753 52.9391 42.6617 53.0486C42.6481 53.1581 42.6368 53.2678 42.6327 53.3811C42.627 53.4932 42.6198 53.6057 42.6171 53.7186L42.6219 54.0634C42.6209 54.1775 42.6356 54.2969 42.6446 54.4138C42.6554 54.5319 42.6636 54.6483 42.6863 54.7682C42.7059 54.8872 42.725 55.0071 42.7483 55.1261C42.7777 55.2467 42.8076 55.3665 42.8392 55.4873C42.867 55.6068 42.9139 55.728 42.9555 55.8481C42.9971 55.9683 43.0402 56.0882 43.0979 56.2056C43.1528 56.3236 43.205 56.4423 43.2666 56.5574C43.3323 56.6717 43.3995 56.7857 43.4677 56.898C43.501 56.9554 43.5387 57.0097 43.5783 57.0628L43.6967 57.2231L43.817 57.3823C43.8586 57.4343 43.9057 57.4852 43.95 57.5366C44.1299 57.7403 44.3314 57.927 44.5431 58.0964C44.755 58.2672 44.9822 58.4144 45.2151 58.5473C45.4496 58.6741 45.6902 58.7894 45.9353 58.8777C46.9191 59.2402 47.9334 59.3047 48.893 59.1678C49.8554 59.0303 50.7831 58.6863 51.6257 58.127C51.7296 58.0534 51.8344 57.9838 51.9354 57.9035L52.0862 57.785L52.2207 57.6678C52.3098 57.5893 52.4011 57.5111 52.4882 57.4301L52.7388 57.1779C52.8239 57.0945 52.9014 57.0061 52.9787 56.9164C53.0545 56.827 53.1352 56.7394 53.2068 56.6472C53.3484 56.4618 53.494 56.2777 53.6177 56.0831C54.1379 55.3151 54.5037 54.4923 54.7832 53.6662C55.0529 52.8386 55.2377 52.0038 55.3483 51.1711C55.4545 50.3414 55.5164 49.5082 55.5095 48.6687C55.5016 47.8308 55.4391 46.9923 55.3224 46.1581C55.2072 45.3236 55.0255 44.4975 54.8012 43.6819C54.5741 42.867 54.2985 42.0624 53.9645 41.2797C53.6324 40.4959 53.2533 39.7294 52.8269 38.986C52.3991 38.243 51.9183 37.5265 51.3961 36.8369C50.3542 35.4559 49.1148 34.2026 47.7161 33.1233C46.3191 32.0414 44.7381 31.1569 43.0504 30.5164C41.3617 29.8811 39.5992 29.5183 37.842 29.3834C36.9631 29.3218 36.0845 29.3189 35.2147 29.3707C34.3443 29.4233 33.4802 29.5253 32.6324 29.6906C30.9358 30.0155 29.2901 30.5419 27.7481 31.2716C26.2026 31.992 24.7647 32.9206 23.4733 34.0086C22.828 34.5547 22.227 35.1486 21.6671 35.775C21.5287 35.9351 21.3892 36.086 21.2531 36.2536C21.116 36.4192 20.9822 36.5906 20.8505 36.7645C20.5884 37.1156 20.3402 37.4876 20.1121 37.8858C19.8848 38.2846 19.6763 38.7098 19.5066 39.1709C19.3385 39.6331 19.2102 40.1318 19.1487 40.6582C19.0872 41.1847 19.0962 41.7388 19.1921 42.2824C19.2902 42.8298 19.4773 43.3525 19.7204 43.8218C19.9644 44.2916 20.2628 44.7107 20.5888 45.0797C20.9157 45.4492 21.271 45.7713 21.6423 46.0537C22.3826 46.6205 23.2012 47.0277 24.033 47.3169C24.8692 47.6065 25.7374 47.7712 26.596 47.8197C27.4552 47.8673 28.3022 47.7972 29.1175 47.6397C30.7484 47.3223 32.244 46.6568 33.5452 45.7639C34.8445 44.8686 35.9554 43.7365 36.7984 42.4297C37.2193 41.7764 37.5714 41.0798 37.8394 40.3526C37.9756 39.9857 38.0846 39.6274 38.178 39.2638C38.2714 38.9002 38.3469 38.5346 38.4036 38.1687C38.6355 36.7025 38.5848 35.2408 38.3311 33.8638C38.0777 32.4847 37.6204 31.186 37.0235 29.9977C36.4257 28.8088 35.6923 27.7244 34.8547 26.7636C34.4341 26.2844 33.9893 25.835 33.5227 25.4192C33.2908 25.2092 33.0487 25.013 32.8067 24.8204C32.6837 24.7263 32.5601 24.6331 32.4373 24.5405C32.3116 24.4542 32.1867 24.3686 32.0613 24.2837C31.0652 23.599 30.0254 23.0317 28.9685 22.6015C27.9126 22.1659 26.852 21.8372 25.8043 21.5993C24.7547 21.3734 23.7235 21.2298 22.7193 21.1515C20.7099 21.0205 18.8169 21.1394 17.0874 21.4431C16.2199 21.5835 15.4035 21.7834 14.6202 21.9856C14.4256 22.0387 14.2342 22.0963 14.0436 22.1508C13.8541 22.2073 13.6645 22.2565 13.4815 22.3195C13.2979 22.3798 13.1157 22.4398 12.9354 22.4986C12.846 22.5279 12.756 22.558 12.6671 22.5864C12.5796 22.6181 12.4921 22.6499 12.4047 22.6816C11.0095 23.1792 9.77739 23.7238 8.69611 24.255C8.15448 24.5194 7.6535 24.7874 7.18457 25.0392C6.71965 25.2995 6.28563 25.5416 5.89164 25.7809C5.09908 26.2519 4.44837 26.681 3.93021 27.0382C2.8976 27.7599 2.40231 28.2072 2.46603 28.3154C2.53203 28.4274 3.15669 28.1954 4.29589 27.6909C4.86777 27.4425 5.56636 27.1221 6.39653 26.7627C6.80962 26.5787 7.25994 26.3926 7.73647 26.19C8.21755 25.9951 8.72736 25.7854 9.27366 25.5802C10.3634 25.1667 11.5844 24.7427 12.9372 24.3695C13.022 24.3455 13.1068 24.3216 13.1916 24.2977C13.2775 24.2757 13.3637 24.2551 13.451 24.2328C13.6237 24.1894 13.7992 24.1454 13.9766 24.1002C14.1529 24.0531 14.3343 24.0201 14.5145 23.978C14.6954 23.9386 14.8789 23.8987 15.0639 23.8584C15.8063 23.7193 16.5796 23.5787 17.3801 23.4975C17.7793 23.4456 18.1884 23.4227 18.6024 23.3922L18.758 23.3807L18.915 23.3761C19.0196 23.3733 19.1247 23.3697 19.2297 23.3661C19.4405 23.3617 19.6525 23.3461 19.8665 23.3533C20.0801 23.3555 20.2959 23.358 20.5123 23.3596C20.7296 23.3617 20.9467 23.3805 21.1668 23.3893C21.2768 23.3948 21.3867 23.4003 21.4975 23.4064C21.6082 23.4125 21.7186 23.4266 21.8294 23.4362C22.0508 23.4578 22.2735 23.4791 22.498 23.5014C23.3917 23.6157 24.3009 23.7853 25.2123 24.0234C26.1198 24.2731 27.0271 24.5969 27.9138 25.0041C28.8032 25.407 29.6582 25.9203 30.4665 26.5204C30.5679 26.5945 30.6695 26.6699 30.7718 26.7445C30.8676 26.8233 30.9644 26.9027 31.0616 26.9812C31.2518 27.145 31.4414 27.3097 31.6242 27.4867C31.9912 27.8367 32.3407 28.2137 32.6695 28.6154C33.3256 29.4192 33.8948 30.322 34.347 31.2947C34.7997 32.2666 35.1311 33.3116 35.2979 34.3874C35.4661 35.4629 35.4704 36.5683 35.2729 37.6422C35.2244 37.9107 35.1623 38.1763 35.0881 38.44C35.0145 38.703 34.9265 38.9661 34.829 39.2088C34.6331 39.7031 34.3782 40.1832 34.0702 40.6383C33.455 41.5492 32.6294 42.3607 31.6694 42.9944C30.7104 43.6264 29.615 44.0816 28.4921 44.2788C27.9302 44.3771 27.363 44.4135 26.8071 44.3735C26.2514 44.3313 25.7082 44.2183 25.1931 44.0304C25.1291 44.0057 25.0621 43.9874 25.0003 43.9593L24.8115 43.8764C24.6829 43.8241 24.5652 43.7622 24.4473 43.699C24.212 43.5716 23.9873 43.4261 23.7842 43.2658C23.3775 42.9474 23.057 42.5737 22.877 42.2097C22.7858 42.0277 22.7273 41.8488 22.6972 41.6703C22.6694 41.4863 22.6678 41.2953 22.6951 41.0872C22.7224 40.8791 22.7795 40.6544 22.8681 40.418C22.9582 40.1812 23.0809 39.9346 23.2265 39.686C23.3725 39.4365 23.5422 39.1857 23.7325 38.9362C23.8299 38.8117 23.9273 38.6872 24.0321 38.564C24.134 38.44 24.2525 38.3161 24.3621 38.1912C24.8125 37.6969 25.2961 37.2252 25.8183 36.7917C26.8637 35.9267 28.035 35.179 29.3023 34.5986C30.5652 34.0082 31.9208 33.583 33.3143 33.3221C34.0109 33.1892 34.7202 33.1087 35.4313 33.0676C36.1428 33.0279 36.8584 33.0316 37.5705 33.0832C38.994 33.1965 40.4076 33.4911 41.7453 33.9933C42.4128 34.2465 43.0573 34.5481 43.6787 34.8946C44.3001 35.241 44.8976 35.6317 45.4604 36.0668C46.5884 36.9349 47.6036 37.9498 48.4603 39.0782C50.1905 41.3257 51.3141 43.9914 51.7247 46.6863C51.824 47.3611 51.8799 48.0364 51.8929 48.7079C51.9059 49.3794 51.8596 50.0483 51.7848 50.7023C51.7057 51.3536 51.5701 51.9778 51.3887 52.5603C51.2002 53.1371 50.9642 53.6748 50.6659 54.1242C50.5954 54.2422 50.5124 54.3426 50.4354 54.4504C50.3958 54.5024 50.3522 54.5494 50.3108 54.6003C50.2701 54.6503 50.2293 54.7004 50.1829 54.7444L50.052 54.8818L49.9121 55.0074L49.8431 55.0715L49.7807 55.1218C49.7411 55.1571 49.6936 55.1861 49.6507 55.2192C49.289 55.4675 48.8354 55.6515 48.3804 55.7212C48.1523 55.7598 47.926 55.7661 47.7117 55.7539C47.4993 55.7369 47.2969 55.699 47.1225 55.6362C47.0332 55.6082 46.9542 55.5678 46.8767 55.5307C46.8038 55.4883 46.7312 55.4472 46.6683 55.3969C46.6042 55.3482 46.5446 55.2964 46.4921 55.2373C46.4794 55.2219 46.4645 55.2099 46.4514 55.1931L46.4143 55.1416L46.3747 55.092C46.3598 55.0764 46.3468 55.0596 46.3376 55.0405C46.3166 55.003 46.293 54.9674 46.2686 54.9313C46.2467 54.8932 46.2311 54.8509 46.2097 54.8119C46.1864 54.7741 46.1725 54.7293 46.1566 54.6855C46.1413 54.6409 46.1183 54.6009 46.109 54.5507C46.0967 54.5033 46.0827 54.4548 46.0681 54.4072C46.0594 54.3561 46.0504 54.3037 46.0403 54.2529C46.0274 54.2027 46.0255 54.1466 46.0189 54.0922C46.0143 54.0366 46.0031 53.9839 46.0042 53.9249L45.9978 53.7523L46.0038 53.5734C46.0027 53.5142 46.0092 53.4526 46.0164 53.3916C46.0237 53.3306 46.0251 53.2694 46.0357 53.207C46.068 52.9579 46.1256 52.7049 46.1957 52.4529C46.2733 52.2021 46.3604 51.9515 46.4693 51.7114C46.5236 51.5889 46.592 51.4612 46.6521 51.3352C46.6813 51.2717 46.7153 51.2101 46.7509 51.1495L46.8539 50.9666C47.1348 50.4831 47.4651 50.0305 47.8359 49.6112C48.5761 48.7729 49.4797 48.0752 50.4696 47.5302C51.458 46.9818 52.5267 46.575 53.6167 46.3051C54.7066 46.028 55.8195 45.8923 56.9146 45.8599C57.4618 45.8488 58.0055 45.8653 58.5408 45.9075C58.6748 45.9202 58.8079 45.9323 58.9404 45.9453C59.0733 45.9597 59.2042 45.9788 59.3368 45.9954C59.4692 46.0107 59.5993 46.0329 59.7295 46.0551C59.8605 46.0778 59.9867 46.0951 60.1251 46.125C61.2146 46.3279 62.268 46.5921 63.29 46.8863C63.5449 46.963 63.7977 47.0395 64.0495 47.1155C64.2987 47.1992 64.547 47.2825 64.794 47.366C65.0423 47.4456 65.2835 47.5398 65.5258 47.6286C65.767 47.7192 66.0093 47.8044 66.2442 47.9029C66.4807 47.9988 66.7156 48.0936 66.9496 48.1878C67.1807 48.2885 67.4103 48.3895 67.6392 48.49C67.8688 48.5874 68.0927 48.6954 68.3152 48.8001C68.5374 48.907 68.7623 49.0061 68.979 49.1179C69.1968 49.2279 69.413 49.3369 69.6277 49.4461C69.8441 49.5529 70.0523 49.6722 70.2624 49.7832C70.6844 50.004 71.09 50.2429 71.4935 50.472C72.2945 50.9432 73.0645 51.4181 73.7965 51.9055C73.9797 52.0266 74.1615 52.1479 74.3422 52.2674C74.5207 52.3902 74.6978 52.5133 74.8729 52.6339C75.2234 52.8729 75.5722 53.1239 75.913 53.365C78.6415 55.3071 80.9764 57.0252 82.9112 58.3981C84.8444 59.7735 86.3713 60.8117 87.4371 61.4735C88.5029 62.1353 89.1044 62.4258 89.1807 62.3247L89.1771 62.3247Z" fill="#F89A20"/>
<path d="M90.0903 62.9335C90.1469 62.8185 90.123 62.6692 90.0227 62.4883C89.9723 62.3983 89.9034 62.2999 89.815 62.1948C89.7712 62.1426 89.7224 62.087 89.6685 62.0319C89.6141 61.9775 89.5553 61.9226 89.4922 61.8651C89.3656 61.7508 89.2202 61.6303 89.0575 61.5034C88.8927 61.3835 88.7091 61.2574 88.5088 61.1277C88.1064 60.8729 87.6324 60.6124 87.0901 60.3615C86.0074 59.8548 84.6496 59.4076 83.1052 59.0917C82.3334 58.9406 81.5147 58.8175 80.6638 58.7406C79.8129 58.6672 78.93 58.6341 78.0274 58.6479C76.2234 58.681 74.5189 58.8981 73.0033 59.2221C71.4866 59.5477 70.1569 59.9717 69.0779 60.422C67.998 60.8718 67.165 61.3333 66.6278 61.7439C66.0895 62.1525 65.8438 62.5023 65.929 62.7415C66.015 62.9848 66.4212 63.0974 67.0745 63.118C67.7272 63.1358 68.6327 63.0714 69.7243 62.965C71.9083 62.7527 74.8586 62.4143 78.0918 62.3585C78.8998 62.3467 79.6867 62.3511 80.4467 62.3692C81.206 62.3904 81.936 62.4308 82.6325 62.477C84.0222 62.5817 85.2759 62.7248 86.3363 62.873C86.8674 62.9459 87.3519 63.0149 87.7848 63.0695C88.0002 63.1003 88.2038 63.1235 88.3946 63.1408C88.5829 63.1636 88.7575 63.1799 88.9194 63.1881C89.0002 63.1926 89.0775 63.1949 89.1515 63.1951C89.2244 63.1969 89.2928 63.1982 89.3584 63.1965C89.4891 63.194 89.6041 63.1824 89.7034 63.1619C89.9014 63.1218 90.0353 63.046 90.0919 62.931L90.0903 62.9335Z" fill="#F89A20"/>
<path d="M83.2914 40.5258C83.1659 40.4982 83.0298 40.5534 82.8807 40.7005C82.7241 40.85 82.5896 41.0854 82.4492 41.409C82.1878 42.0485 82.0093 43.0009 81.9754 44.145C81.9382 45.2905 82.0318 46.6342 82.2587 48.093C82.4904 49.55 82.8509 51.1253 83.35 52.7412C84.3456 55.9715 85.698 58.7616 87.0354 60.616C87.7017 61.5423 88.3674 62.2316 88.9246 62.6236C89.0672 62.7208 89.1981 62.8008 89.3185 62.8621C89.437 62.9245 89.5571 62.9641 89.6559 62.9886C89.8567 63.0363 90.0036 63.0144 90.0967 62.9278C90.1904 62.8403 90.2285 62.693 90.2221 62.5001C90.22 62.4019 90.2028 62.3012 90.1833 62.1763C90.1636 62.0536 90.1335 61.9194 90.0949 61.7761C89.9468 61.1915 89.6883 60.3992 89.3677 59.4114C88.726 57.4402 87.8372 54.6961 86.8972 51.6475C86.4266 50.124 85.9903 48.6694 85.5972 47.3491C85.2091 46.0284 84.867 44.8414 84.583 43.8487C84.2966 42.8543 84.0808 42.0587 83.891 41.496C83.8059 41.2199 83.7041 40.9879 83.6169 40.8274C83.5229 40.6626 83.415 40.5545 83.29 40.5261L83.2914 40.5258Z" fill="#F89A20"/>
</svg>