<svg width="131" height="39" viewBox="0 0 131 39" fill="none" xmlns="http://www.w3.org/2000/svg">
<g clip-path="url(#clip0_307_3071)">
<path d="M91.6999 0.581162C88.2202 -0.237588 85.1499 2.83272 85.9686 6.31241C86.378 7.94991 87.8108 9.38272 89.4483 9.7921C92.928 10.6108 95.9983 7.54053 95.1796 4.06085C94.7702 2.21866 93.3374 0.990537 91.6999 0.581162Z" fill="#862165"/>
<path d="M22.9248 16.1375C21.6967 16.1375 18.8311 15.9328 18.8311 13.2719C18.8311 10.2016 22.9248 10.2016 24.3576 10.2016C25.7904 10.2016 28.6561 10.6109 31.1123 11.0203C33.3639 11.6344 35.6154 9.79219 35.6154 7.33594V6.92656C35.6154 5.28906 34.592 3.85625 32.9545 3.44688C30.4982 2.83281 27.4279 2.21875 23.1295 2.21875C12.4857 2.21875 8.59668 8.56406 8.59668 13.8859C8.59668 16.9563 9.8248 24.325 22.3107 25.1438C23.3342 25.1438 26.1998 25.3484 26.1998 28.0094C26.1998 30.0562 23.9482 31.4891 20.0592 31.4891C17.8076 31.4891 15.3514 31.0797 13.5092 30.6703C11.4623 30.2609 9.41543 31.6938 9.41543 33.7406V35.1734C9.41543 36.8109 10.4389 38.0391 12.0764 38.4484C15.1467 39.0625 18.4217 39.2672 22.1061 39.2672C32.5451 39.2672 37.2529 33.3312 37.2529 27.3953C36.8436 21.05 31.7264 16.7516 22.9248 16.1375Z" fill="#862165"/>
<path d="M64.067 12.2483H55.4701C54.8561 12.2483 54.4467 12.6576 54.242 13.067C53.6279 14.4998 52.3998 17.3655 49.9436 20.4358C49.7389 20.8451 49.1248 20.6405 49.1248 20.2311V4.06077C49.1248 3.24202 48.3061 2.62795 47.4873 2.83264L40.3232 4.26545C39.7092 4.47014 39.2998 4.87952 39.2998 5.49358V37.6295C39.2998 38.4483 39.9139 38.8576 40.5279 38.8576H47.692C48.5107 38.8576 48.9201 38.2436 48.9201 37.6295V30.0561C48.9201 29.6467 49.5342 29.442 49.9436 29.8514C51.5811 32.9217 52.6045 36.4014 53.0139 38.0389C53.2186 38.653 53.6279 39.0623 54.242 39.0623H63.4529C64.2717 39.0623 65.0904 38.2436 64.6811 37.4248C63.2482 33.3311 60.3826 28.0092 59.3592 26.167C59.1545 25.7576 59.1545 25.1436 59.5639 24.7342C62.6342 20.6405 64.4764 16.5467 65.2951 14.0905C65.4998 13.2717 64.8857 12.2483 64.067 12.2483Z" fill="#862165"/>
<path d="M119.332 3.03732L115.853 3.65139C114.42 3.85607 113.396 5.0842 113.396 6.51701V35.7873C113.396 37.4248 114.829 38.8576 116.467 38.8576H119.946C121.584 38.8576 123.017 37.4248 123.017 35.7873V6.10764C122.812 4.26545 121.175 2.83264 119.332 3.03732Z" fill="#862165"/>
<path d="M105.414 3.03732L101.934 3.65139C100.501 3.85607 99.478 5.0842 99.478 6.51701V35.7873C99.478 37.4248 100.911 38.8576 102.548 38.8576H106.028C107.666 38.8576 109.098 37.4248 109.098 35.7873V6.10764C108.894 4.26545 107.256 2.83264 105.414 3.03732Z" fill="#862165"/>
<path d="M92.9277 12.2483H88.0152C86.7871 12.2483 85.7637 13.2717 85.7637 14.4999V36.6061C85.7637 37.8342 86.7871 38.8577 88.0152 38.8577H92.9277C94.1559 38.8577 95.1793 37.8342 95.1793 36.6061V14.7045C95.384 13.2717 94.3605 12.2483 92.9277 12.2483Z" fill="#862165"/>
<path d="M80.4418 11.8389C73.4824 11.8389 67.3418 17.1607 67.3418 24.1201V36.4014C67.3418 38.0389 68.5699 39.267 70.2074 39.267H74.3012C75.9387 39.267 77.1668 38.0389 77.1668 36.4014V26.7811C77.1668 22.892 77.5762 20.8451 81.0559 20.0264C82.284 19.8217 83.3074 18.5936 83.3074 17.3654V14.4998C82.898 13.067 81.8746 11.8389 80.4418 11.8389Z" fill="#862165"/>
</g>
<defs>
<clipPath id="clip0_307_3071">
<rect width="131" height="39" fill="white"/>
</clipPath>
</defs>
</svg>
