<svg width="73" height="79" viewBox="0 0 73 79" fill="none" xmlns="http://www.w3.org/2000/svg">
<path d="M52.4528 42.7279C52.968 43.0654 53.3663 43.6099 53.6588 44.3411C56.9348 52.52 59.7969 60.8766 62.8209 69.1499C63.3609 70.6282 63.8964 72.1109 64.4432 73.587C65.1474 75.4882 64.5264 77.2365 62.9356 77.8148C61.2166 78.438 59.6169 77.6145 58.8946 75.6547C56.9078 70.2727 54.9526 64.8816 52.9838 59.4928C51.4133 55.1975 49.836 50.9045 48.2745 46.6047C47.595 44.7304 48.4815 42.7819 50.2568 42.4174C51.1455 42.2351 51.8745 42.3476 52.455 42.7279H52.4528Z" fill="#FFB301"/>
<path d="M72.9977 3.49864C72.9707 4.1129 72.703 4.73391 72.2237 5.35941C66.8552 12.3435 61.1221 19.0643 55.5443 25.8819C54.5475 27.1014 53.544 28.3142 52.5518 29.5382C51.2737 31.1132 49.4535 31.4687 48.1462 30.3932C46.7332 29.2322 46.6274 27.4367 47.946 25.8144C51.564 21.3638 55.209 16.9335 58.8406 12.4942C61.7364 8.95495 64.6276 5.40892 67.5324 1.87638C68.7992 0.33511 70.9277 0.107858 72.145 1.44887C72.7547 2.12163 73.027 2.80564 72.9977 3.49864Z" fill="#FF8001"/>
<path d="M35.8455 40.892C34.9207 40.9122 34.068 41.0607 33.2602 40.928C24.7124 39.5307 16.1735 38.0907 7.63243 36.6597C6.07992 36.3987 4.5274 36.1332 2.97263 35.8789C0.972362 35.5526 -0.242651 34.1509 0.0408519 32.4814C0.346855 30.6768 1.85212 29.6936 3.91314 30.0333C9.57421 30.9626 15.2285 31.9234 20.8851 32.8706C25.3964 33.6266 29.9077 34.3714 34.419 35.1386C36.3855 35.4716 37.641 37.2064 37.0808 38.9322C36.8648 39.5959 36.3225 40.1539 35.8455 40.892Z" fill="#FFCC01"/>
<path d="M44.4564 47.777C44.1526 48.4408 43.9681 49.2035 43.5226 49.7526C41.4031 52.3738 39.2296 54.9524 37.0358 57.5129C36.0143 58.7054 34.4955 59.0046 33.1635 58.3926C31.971 57.8436 31.2487 56.7051 31.4445 55.4024C31.5345 54.8084 31.8135 54.1693 32.1937 53.7013C34.3943 51.0013 36.642 48.3373 38.8943 45.68C39.8663 44.5325 41.0678 44.2152 42.3098 44.7012C43.5181 45.1737 44.2899 46.3438 44.4541 47.7748L44.4564 47.777Z" fill="#0B0146"/>
<path d="M68.9973 37.6879C68.9951 39.542 67.3323 41.0585 65.4985 40.7615C62.1415 40.2215 58.7934 39.6275 55.4522 39.0087C53.6611 38.678 52.5069 37.0759 52.7769 35.4424C53.0671 33.6941 54.3294 32.7919 56.3342 33.1069C59.8397 33.6581 63.334 34.2882 66.8238 34.9362C68.167 35.1859 68.9996 36.3244 68.9973 37.6857V37.6879Z" fill="#FF6601"/>
<path d="M39.3308 30.112C38.3408 30.1615 37.5443 29.6777 37.182 28.717C35.9445 25.4207 34.734 22.1132 33.5955 18.7809C33.1905 17.5929 34.0747 16.1551 35.2132 15.8221C36.48 15.4531 37.4948 15.9818 38.0168 17.3701C39.2948 20.7721 40.5503 24.1809 41.7968 27.5965C42.2333 28.7957 40.9531 30.1233 39.3285 30.1143L39.3308 30.112Z" fill="#FF9901"/>
</svg>
