
<svg width="98" height="55" viewBox="0 0 98 55" fill="none" xmlns="http://www.w3.org/2000/svg">
<path d="M8.98283 53.5743C8.90225 53.5702 8.82007 53.4603 8.79041 53.236C8.77549 53.1259 8.77578 52.9887 8.78821 52.8373C8.7938 52.7617 8.80243 52.6827 8.81196 52.602C8.82113 52.5201 8.82548 52.4449 8.8429 52.3445C8.94391 51.5724 9.27396 50.4627 9.88599 49.1456C10.19 48.487 10.5654 47.7813 10.9873 47.0302C11.4092 46.2792 11.8832 45.4838 12.3646 44.6433C12.4831 44.4337 12.6021 44.2213 12.7251 44.0037C12.8406 43.7882 12.9632 43.5694 13.0769 43.3477C13.1942 43.1196 13.3137 42.8896 13.4342 42.6538C13.5629 42.4091 13.6919 42.1602 13.8239 41.9078C14.0907 41.4036 14.3639 40.8841 14.6443 40.3518C14.9432 39.8277 15.2493 39.2908 15.5634 38.7396C15.7214 38.4651 15.8821 38.1857 16.0437 37.9048C16.2114 37.6262 16.3859 37.3483 16.5604 37.0651C16.9128 36.5017 17.2649 35.9183 17.6428 35.3356C18.0302 34.7583 18.4249 34.1682 18.8274 33.5678C19.0245 33.2647 19.2448 32.9726 19.4602 32.6724C19.6772 32.3732 19.8951 32.0723 20.1161 31.7679C21.9003 29.3494 23.9647 26.86 26.374 24.4385C26.5234 24.2861 26.6741 24.1333 26.8248 23.9805C26.9754 23.8277 27.1364 23.6827 27.2922 23.5339C27.6083 23.2376 27.9249 22.9384 28.2441 22.6386C28.5589 22.3332 28.8993 22.0515 29.2325 21.7585C29.5688 21.4672 29.9045 21.1734 30.2462 20.882C30.5976 20.6013 30.9512 20.3186 31.3056 20.0343C31.4837 19.8926 31.6617 19.7509 31.8406 19.6076C32.0222 19.4689 32.2093 19.3354 32.3941 19.1986C32.7656 18.9269 33.1392 18.6534 33.5138 18.3782C33.8968 18.1141 34.287 17.8561 34.6773 17.5939C34.8733 17.4633 35.0692 17.3327 35.2648 17.2008C35.4666 17.0766 35.6688 16.9536 35.8706 16.8294C36.2778 16.584 36.6809 16.3291 37.0948 16.0885C37.515 15.8556 37.9363 15.6223 38.3589 15.3887L38.6768 15.213L39.0018 15.0486C39.2189 14.9402 39.4372 14.8315 39.6555 14.7229C39.8738 14.6142 40.0934 14.5051 40.3117 14.3964C40.5312 14.2874 40.7578 14.1938 40.982 14.0915C41.2068 13.9918 41.4314 13.8907 41.6575 13.7906C41.8843 13.6929 42.1063 13.5832 42.3388 13.496C42.8 13.3134 43.2625 13.1304 43.7274 12.9467C44.1945 12.7704 44.6713 12.6143 45.1449 12.447C47.0514 11.8106 48.9802 11.3104 50.9043 10.9461C52.8294 10.5855 54.75 10.3754 56.6365 10.2784C57.1091 10.2553 57.5778 10.2278 58.0464 10.2287C58.2798 10.226 58.5132 10.2233 58.7467 10.2206C58.9801 10.2179 59.2119 10.2143 59.4432 10.2229C59.9055 10.2349 60.3663 10.246 60.8245 10.2578C61.2816 10.2848 61.735 10.3127 62.1881 10.3395C63.9932 10.4739 65.7466 10.7064 67.4394 11.015C69.1321 11.3184 70.7586 11.7211 72.3168 12.1633C73.8757 12.6079 75.3649 13.1059 76.7785 13.6507C79.61 14.7271 82.1446 15.9532 84.3799 17.1965C86.6133 18.4431 88.5491 19.7077 90.1804 20.9092C91.8152 22.1042 93.1432 23.242 94.1765 24.2277C95.208 25.2165 95.9365 26.0664 96.3706 26.6982C96.8063 27.3308 96.9405 27.7394 96.8174 27.8467C96.6909 27.9564 96.3266 27.7769 95.702 27.3952C95.077 27.0123 94.1883 26.4241 93.0256 25.6955C91.8603 24.9717 90.4318 24.0975 88.7306 23.1633C87.0346 22.2235 85.0695 21.2172 82.8549 20.2235C80.6385 19.233 78.169 18.2521 75.4675 17.4026C74.1187 16.9726 72.7085 16.5827 71.2469 16.2397C69.786 15.8991 68.2736 15.5906 66.7135 15.3708C65.1549 15.1466 63.5511 14.9862 61.9139 14.9079C61.5049 14.8943 61.0931 14.8801 60.68 14.8663C60.2668 14.866 59.8519 14.8648 59.4345 14.8643C59.2264 14.8612 59.0173 14.8691 58.8082 14.8771C58.5988 14.8838 58.3894 14.8904 58.1787 14.8975C57.7581 14.9046 57.3367 14.9375 56.9143 14.9667C55.2236 15.085 53.5114 15.2941 51.7989 15.631C50.0872 15.9703 48.3726 16.4235 46.6739 16.9904C46.252 17.1405 45.8261 17.2768 45.4087 17.4337C44.9944 17.5964 44.5796 17.7578 44.1678 17.9198C43.9592 17.9962 43.7607 18.0939 43.5574 18.1795C43.3551 18.2689 43.1526 18.357 42.9512 18.4448C42.7506 18.5351 42.5463 18.6169 42.3486 18.7131C42.151 18.8092 41.9546 18.905 41.7573 19.0024C41.561 19.0981 41.3646 19.1939 41.1682 19.2897L40.8749 19.433L40.5876 19.5881C40.2044 19.7944 39.8221 19.9992 39.4422 20.2032C39.0658 20.4144 38.6976 20.6407 38.3279 20.8567C38.1432 20.9653 37.9585 21.0739 37.7739 21.1825C37.5941 21.2991 37.4141 21.4145 37.2352 21.5295C36.8779 21.7608 36.5179 21.9875 36.1651 22.2202C35.8179 22.4635 35.4728 22.7048 35.129 22.9457C34.9572 23.0668 34.7844 23.1842 34.6159 23.3071C34.4496 23.4333 34.2834 23.5596 34.1172 23.6858C33.7856 23.9368 33.4552 24.1874 33.1258 24.4363C32.8052 24.6976 32.4871 24.9582 32.1708 25.2156C31.8556 25.4767 31.5339 25.7248 31.2345 25.9989C30.9304 26.2663 30.6276 26.5333 30.3266 26.7971C30.1772 26.9307 30.0232 27.0576 29.8778 27.1954C29.7323 27.3333 29.5878 27.4696 29.4444 27.6055C27.1246 29.7718 25.0721 32.0172 23.2459 34.2109C23.0197 34.4872 22.7953 34.7603 22.5719 35.0318C22.35 35.3042 22.1231 35.5686 21.9158 35.845C21.4925 36.3907 21.0774 36.9274 20.6698 37.4526C20.2677 37.983 19.8893 38.516 19.5093 39.0294C19.3196 39.2873 19.1334 39.5429 18.9473 39.7945C18.7684 40.0521 18.5924 40.3061 18.4183 40.557C18.0675 41.0594 17.7255 41.5499 17.3907 42.0277C17.0677 42.5141 16.7535 42.9888 16.4474 43.449C16.1321 43.9199 15.8265 44.3772 15.5294 44.8215C15.3729 45.0539 15.2138 45.2723 15.0592 45.4921C14.9024 45.7044 14.7482 45.916 14.5952 46.1179C13.9821 46.9257 13.4023 47.642 12.8799 48.2991C12.3583 48.9546 11.8897 49.5494 11.4879 50.0905C10.6831 51.1729 10.127 52.0492 9.74969 52.6627C9.70123 52.7342 9.65076 52.8224 9.60445 52.8919C9.55724 52.9631 9.51255 53.0241 9.47305 53.0796C9.39119 53.1901 9.32311 53.2779 9.26398 53.3497C9.14661 53.4918 9.0643 53.5769 8.97963 53.5725L8.98283 53.5743Z" fill="#F89A20"/>
<path d="M8.22439 53.9591C7.82413 53.4078 8.50998 52.0714 10.0485 50.4323C10.2411 50.2287 10.4449 50.0178 10.6629 49.8042C10.8819 49.5946 11.1139 49.3785 11.3559 49.1596C11.5975 48.9394 11.8522 48.7183 12.1197 48.4992C12.3868 48.2789 12.6634 48.0544 12.952 47.8293C14.1094 46.9396 15.4392 46.0463 16.8923 45.2138C18.345 44.3801 19.7911 43.6988 21.1368 43.157C21.4741 43.0238 21.8059 42.8991 22.1288 42.7812C22.4517 42.6633 22.7711 42.5619 23.0794 42.4636C23.6952 42.2644 24.2818 42.1143 24.8227 41.9926C26.9917 41.5153 28.4616 41.6183 28.7089 42.2564C28.9612 42.9072 27.9656 43.9652 26.2368 45.24C25.8048 45.5618 25.3233 45.8891 24.8082 46.24C24.5496 46.4144 24.2792 46.585 24.0024 46.7659C23.7255 46.9468 23.4395 47.1289 23.1454 47.3105C21.9708 48.0488 20.662 48.8166 19.2822 49.6087C17.902 50.3994 16.5727 51.128 15.3424 51.7638C15.0357 51.925 14.7354 52.0801 14.4408 52.2267C14.1458 52.3719 13.8578 52.5137 13.5792 52.6501C13.3001 52.7851 13.027 52.9129 12.763 53.0297C12.5 53.1504 12.2463 53.2656 11.9986 53.3693C10.032 54.206 8.63097 54.5185 8.22366 53.9565L8.22439 53.9591Z" fill="#F89A20"/>
<path d="M7.90524 53.8315C6.59207 53.6574 6.24344 48.8551 7.12557 43.1065C7.34571 41.6691 7.62283 40.3091 7.93392 39.079C8.08883 38.4641 8.2543 37.8818 8.42451 37.3402C8.51007 37.0686 8.59588 36.8075 8.68479 36.5574C8.77278 36.3088 8.86091 36.0655 8.95654 35.82C9.1469 35.3307 9.36509 34.8585 9.6202 34.4549C9.86995 34.0514 10.1598 33.7182 10.4415 33.49C10.7224 33.2593 11.0012 33.1359 11.2203 33.0977C11.4482 33.0623 11.6195 33.1087 11.7436 33.2132C11.8681 33.3188 11.9428 33.4781 11.9894 33.6623C12.0431 33.8524 12.0667 34.0655 12.1 34.3128C12.1584 34.8069 12.2357 35.4062 12.3113 36.3061C12.3286 36.5302 12.344 36.7811 12.3525 37.0459C12.3619 37.309 12.3662 37.5829 12.3663 37.8658C12.3665 38.4316 12.3496 39.0325 12.3142 39.6637C12.243 40.9248 12.0996 42.3036 11.8792 43.7398C10.997 49.4884 9.21875 54.0069 7.90558 53.8328L7.90524 53.8315Z" fill="#F89A20"/>
</svg>
