<svg width="9" height="36" viewBox="0 0 9 36" fill="none" xmlns="http://www.w3.org/2000/svg">
<path d="M8.42274 18.2521L0.523438 24.1624V12.3987L8.42274 18.2521Z" fill="#F9C27F"/>
<g style="mix-blend-mode:multiply" opacity="0.35">
<path opacity="0.02" d="M0.523438 35.6417C0.523438 35.6417 2.11467 27.8561 2.11467 18.2519C2.11467 8.64771 0.523438 0.862061 0.523438 0.862061V35.6417Z" fill="#A6A6A6"/>
<path opacity="0.02" d="M0.523438 35.5281C0.523438 35.5281 2.05784 27.7992 2.05784 18.2519C2.05784 8.70452 0.523438 0.975708 0.523438 0.975708V35.5281Z" fill="#A5A5A5"/>
<path opacity="0.03" d="M0.523438 35.4715C0.523438 35.4715 2.05784 27.7995 2.05784 18.309C2.05784 8.81847 0.523438 1.14648 0.523438 1.14648V35.4715Z" fill="#A5A5A5"/>
<path opacity="0.04" d="M0.523438 35.3578C0.523438 35.3578 2.05784 27.7427 2.05784 18.309C2.05784 8.87529 0.523438 1.26013 0.523438 1.26013V35.3578Z" fill="#A4A4A4"/>
<path opacity="0.05" d="M0.523438 35.2431C0.523438 35.2431 2.05784 27.6279 2.05784 18.3079C2.05784 8.98784 0.523438 1.37268 0.523438 1.37268V35.2999V35.2431Z" fill="#A3A3A3"/>
<path opacity="0.06" d="M0.523438 35.1294C0.523438 35.1294 2.05784 27.5711 2.05784 18.3079C2.05784 9.04465 0.523438 1.48633 0.523438 1.48633V35.1862V35.1294Z" fill="#A2A2A2"/>
<path opacity="0.07" d="M0.523438 35.0158C0.523438 35.0158 2.00101 27.5143 2.00101 18.2511C2.00101 8.98788 0.523438 1.54321 0.523438 1.54321V35.0158Z" fill="#A1A1A1"/>
<path opacity="0.07" d="M0.523438 34.9024C0.523438 34.9024 2.00101 27.4578 2.00101 18.2514C2.00101 9.04501 0.523438 1.60034 0.523438 1.60034V34.8456V34.9024Z" fill="#A0A0A0"/>
<path opacity="0.08" d="M0.523438 34.7888C0.523438 34.7888 2.00101 27.4009 2.00101 18.2514C2.00101 9.10183 0.523438 1.71399 0.523438 1.71399V34.7888Z" fill="#A0A0A0"/>
<path opacity="0.09" d="M0.523438 34.6751C0.523438 34.6751 2.00101 27.3441 2.00101 18.2514C2.00101 9.15865 0.523438 1.82764 0.523438 1.82764V34.6751Z" fill="#9F9F9F"/>
<path opacity="0.1" d="M0.523438 34.5614C0.523438 34.5614 1.94418 27.2304 1.94418 18.2514C1.94418 9.27229 0.523438 1.94128 0.523438 1.94128V34.5614Z" fill="#9E9E9E"/>
<path opacity="0.11" d="M0.523438 34.505C0.523438 34.505 1.94418 27.2308 1.94418 18.3086C1.94418 9.38636 0.523438 2.11218 0.523438 2.11218V34.505Z" fill="#9D9D9D"/>
<path opacity="0.12" d="M0.523438 34.3913C0.523438 34.3913 1.94418 27.174 1.94418 18.3086C1.94418 9.44318 0.523438 2.22583 0.523438 2.22583V34.3913Z" fill="#9C9C9C"/>
<path opacity="0.12" d="M0.523438 34.278C0.523438 34.278 1.94418 27.1175 1.94418 18.3089C1.94418 9.50037 0.523438 2.33984 0.523438 2.33984V34.3349V34.278Z" fill="#9B9B9B"/>
<path opacity="0.13" d="M0.523438 34.1643C0.523438 34.1643 1.94418 27.0606 1.94418 18.252C1.94418 9.44347 0.523438 2.39661 0.523438 2.39661V34.1643Z" fill="#9B9B9B"/>
<path opacity="0.14" d="M0.523438 34.0506C0.523438 34.0506 1.88734 27.0038 1.88734 18.252C1.88734 9.50029 0.523438 2.51025 0.523438 2.51025V34.0506Z" fill="#9A9A9A"/>
<path opacity="0.15" d="M0.523438 33.937C0.523438 33.937 1.88734 26.8902 1.88734 18.2521C1.88734 9.614 0.523438 2.56714 0.523438 2.56714V33.8802V33.937Z" fill="#999999"/>
<path opacity="0.16" d="M0.523438 33.8237C0.523438 33.8237 1.88734 26.8337 1.88734 18.2524C1.88734 9.67118 0.523438 2.68115 0.523438 2.68115V33.8237Z" fill="#989898"/>
<path opacity="0.17" d="M0.523438 33.7086C0.523438 33.7086 1.88734 26.7754 1.88734 18.251C1.88734 9.72654 0.523438 2.79333 0.523438 2.79333V33.7086Z" fill="#979797"/>
<path opacity="0.17" d="M0.523438 33.5952C0.523438 33.5952 1.88734 26.7188 1.88734 18.2512C1.88734 9.7836 0.523438 2.90723 0.523438 2.90723V33.5952Z" fill="#969696"/>
<path opacity="0.18" d="M0.523438 33.5384C0.523438 33.5384 1.83051 26.7188 1.83051 18.3081C1.83051 9.8973 0.523438 3.07776 0.523438 3.07776V33.5384Z" fill="#959595"/>
<path opacity="0.19" d="M0.523438 33.4247C0.523438 33.4247 1.83051 26.662 1.83051 18.3081C1.83051 9.95412 0.523438 3.19141 0.523438 3.19141V33.4247Z" fill="#959595"/>
<path opacity="0.2" d="M0.523438 33.3114C0.523438 33.3114 1.83051 26.5487 1.83051 18.3084C1.83051 10.0681 0.523438 3.30542 0.523438 3.30542V33.3682V33.3114Z" fill="#949494"/>
<path opacity="0.21" d="M0.523438 33.1978C0.523438 33.1978 1.83051 26.4919 1.83051 18.2516C1.83051 10.0114 0.523438 3.3623 0.523438 3.3623V33.1978Z" fill="#939393"/>
<path opacity="0.21" d="M0.523438 33.0841C0.523438 33.0841 1.77369 26.4351 1.77369 18.2516C1.77369 10.0682 0.523438 3.47595 0.523438 3.47595V33.0841Z" fill="#929292"/>
<path opacity="0.22" d="M0.523438 32.9704C0.523438 32.9704 1.77369 26.3782 1.77369 18.2516C1.77369 10.1249 0.523438 3.53271 0.523438 3.53271V32.9136V32.9704Z" fill="#919191"/>
<path opacity="0.23" d="M0.523438 32.8571C0.523438 32.8571 1.77369 26.3217 1.77369 18.2519C1.77369 10.1821 0.523438 3.64673 0.523438 3.64673V32.8571Z" fill="#909090"/>
<path opacity="0.24" d="M0.523438 32.7434C0.523438 32.7434 1.77369 26.2649 1.77369 18.2519C1.77369 10.2389 0.523438 3.76038 0.523438 3.76038V32.7434Z" fill="#909090"/>
<path opacity="0.25" d="M0.523438 32.6299C0.523438 32.6299 1.77369 26.2081 1.77369 18.252C1.77369 10.2959 0.523438 3.87415 0.523438 3.87415V32.6299Z" fill="#8F8F8F"/>
<path opacity="0.26" d="M0.523438 32.5733C0.523438 32.5733 1.71686 26.1516 1.71686 18.3091C1.71686 10.4667 0.523438 4.04492 0.523438 4.04492V32.5733Z" fill="#8E8E8E"/>
<path opacity="0.26" d="M0.523438 32.4597C0.523438 32.4597 1.71686 26.0948 1.71686 18.3091C1.71686 10.5235 0.523438 4.15857 0.523438 4.15857V32.4597Z" fill="#8D8D8D"/>
<path opacity="0.27" d="M0.523438 32.3448C0.523438 32.3448 1.71686 26.0368 1.71686 18.2511C1.71686 10.4655 0.523438 4.21423 0.523438 4.21423V32.3448Z" fill="#8C8C8C"/>
<path opacity="0.28" d="M0.523438 32.2312C0.523438 32.2312 1.71686 25.9799 1.71686 18.2511C1.71686 10.5223 0.523438 4.32788 0.523438 4.32788V32.2312Z" fill="#8B8B8B"/>
<path opacity="0.29" d="M0.523438 32.1175C0.523438 32.1175 1.66003 25.9231 1.66003 18.2511C1.66003 10.5791 0.523438 4.44153 0.523438 4.44153V32.1175Z" fill="#8A8A8A"/>
<path opacity="0.3" d="M0.523438 32.0042C0.523438 32.0042 1.66003 25.8666 1.66003 18.2515C1.66003 10.6363 0.523438 4.55554 0.523438 4.55554V32.0042Z" fill="#8A8A8A"/>
<path opacity="0.31" d="M0.523438 31.8906C0.523438 31.8906 1.66003 25.753 1.66003 18.2515C1.66003 10.75 0.523438 4.61243 0.523438 4.61243V31.8906Z" fill="#898989"/>
<path opacity="0.31" d="M0.523438 31.7769C0.523438 31.7769 1.66003 25.6962 1.66003 18.2515C1.66003 10.8068 0.523438 4.72607 0.523438 4.72607V31.7769Z" fill="#888888"/>
<path opacity="0.32" d="M0.523438 31.7204C0.523438 31.7204 1.66003 25.6965 1.66003 18.3086C1.66003 10.9208 0.523438 4.89685 0.523438 4.89685V31.7204Z" fill="#878787"/>
<path opacity="0.33" d="M0.523438 31.6067C0.523438 31.6067 1.6032 25.6396 1.6032 18.3086C1.6032 10.9776 0.523438 5.0105 0.523438 5.0105V31.6067Z" fill="#868686"/>
<path opacity="0.34" d="M0.523438 31.4931C0.523438 31.4931 1.6032 25.5828 1.6032 18.2518C1.6032 10.9208 0.523438 5.06738 0.523438 5.06738V31.4931Z" fill="#858585"/>
<path opacity="0.35" d="M0.523438 31.3794C0.523438 31.3794 1.6032 25.526 1.6032 18.2518C1.6032 10.9776 0.523438 5.18103 0.523438 5.18103V31.3794Z" fill="#858585"/>
<path opacity="0.36" d="M0.523438 31.2661C0.523438 31.2661 1.6032 25.4127 1.6032 18.2522C1.6032 11.0917 0.523438 5.29504 0.523438 5.29504V31.2661Z" fill="#848484"/>
<path opacity="0.36" d="M0.523438 31.1525C0.523438 31.1525 1.6032 25.3559 1.6032 18.2522C1.6032 11.1485 0.523438 5.40869 0.523438 5.40869V31.1525Z" fill="#838383"/>
<path opacity="0.37" d="M0.523438 31.0388C0.523438 31.0388 1.54637 25.299 1.54637 18.2521C1.54637 11.2053 0.523438 5.52234 0.523438 5.52234V31.0388Z" fill="#828282"/>
<path opacity="0.38" d="M0.523438 30.9252C0.523438 30.9252 1.54637 25.2422 1.54637 18.2522C1.54637 11.2622 0.523438 5.57922 0.523438 5.57922V30.9252Z" fill="#818181"/>
<path opacity="0.39" d="M0.523438 30.8103C0.523438 30.8103 1.54637 25.1842 1.54637 18.251C1.54637 11.3178 0.523438 5.69165 0.523438 5.69165V30.8103Z" fill="#808080"/>
<path opacity="0.4" d="M0.523438 30.7538C0.523438 30.7538 1.54637 25.1845 1.54637 18.3081C1.54637 11.4317 0.523438 5.86243 0.523438 5.86243V30.7538Z" fill="#808080"/>
<path opacity="0.4" d="M0.523438 30.6402C0.523438 30.6402 1.48954 25.0709 1.48954 18.3082C1.48954 11.5455 0.523438 5.9762 0.523438 5.9762V30.6402Z" fill="#7F7F7F"/>
<path opacity="0.41" d="M0.523438 30.5265C0.523438 30.5265 1.48954 25.014 1.48954 18.2513C1.48954 11.4886 0.523438 6.03296 0.523438 6.03296V30.5265Z" fill="#7E7E7E"/>
<path opacity="0.42" d="M0.523438 30.4128C0.523438 30.4128 1.48954 24.9572 1.48954 18.2513C1.48954 11.5454 0.523438 6.14661 0.523438 6.14661V30.4128Z" fill="#7D7D7D"/>
<path opacity="0.43" d="M0.523438 30.2995C0.523438 30.2995 1.48954 24.9007 1.48954 18.2516C1.48954 11.6026 0.523438 6.26062 0.523438 6.26062V30.2995Z" fill="#7C7C7C"/>
<path opacity="0.44" d="M0.523438 30.1858C0.523438 30.1858 1.48954 24.8439 1.48954 18.2516C1.48954 11.6594 0.523438 6.37427 0.523438 6.37427V30.1858Z" fill="#7B7B7B"/>
<path opacity="0.45" d="M0.523438 30.0723C0.523438 30.0723 1.43271 24.7871 1.43271 18.2517C1.43271 11.7164 0.523438 6.48804 0.523438 6.48804V30.0723Z" fill="#7A7A7A"/>
<path opacity="0.45" d="M0.523438 29.9589C0.523438 29.9589 1.43271 24.6737 1.43271 18.252C1.43271 11.8302 0.523438 6.60193 0.523438 6.60193V30.0157V29.9589Z" fill="#7A7A7A"/>
<path opacity="0.46" d="M0.523438 29.8453C0.523438 29.8453 1.43271 24.6169 1.43271 18.252C1.43271 11.8871 0.523438 6.65881 0.523438 6.65881V29.8453Z" fill="#797979"/>
<path opacity="0.47" d="M0.523438 29.7885C0.523438 29.7885 1.43271 24.617 1.43271 18.3089C1.43271 12.0008 0.523438 6.82935 0.523438 6.82935V29.7885Z" fill="#787878"/>
<path opacity="0.48" d="M0.523438 29.6751C0.523438 29.6751 1.37588 24.5605 1.37588 18.2524C1.37588 11.9443 0.523438 6.88647 0.523438 6.88647V29.6183V29.6751Z" fill="#777777"/>
<path opacity="0.49" d="M0.523438 29.5614C0.523438 29.5614 1.37588 24.5036 1.37588 18.2524C1.37588 12.0011 0.523438 7.00012 0.523438 7.00012V29.5614Z" fill="#767676"/>
<path opacity="0.5" d="M0.523438 29.4466C0.523438 29.4466 1.37588 24.4456 1.37588 18.2511C1.37588 12.0567 0.523438 7.11255 0.523438 7.11255V29.4466Z" fill="#757575"/>
<path opacity="0.5" d="M0.523438 29.333C0.523438 29.333 1.37588 24.3888 1.37588 18.2512C1.37588 12.1137 0.523438 7.22632 0.523438 7.22632V29.333Z" fill="#757575"/>
<path opacity="0.51" d="M0.523438 29.2193C0.523438 29.2193 1.37588 24.2752 1.37588 18.2512C1.37588 12.2273 0.523438 7.33997 0.523438 7.33997V29.2193Z" fill="#747474"/>
<path opacity="0.52" d="M0.523438 29.106C0.523438 29.106 1.31905 24.2187 1.31905 18.2516C1.31905 12.2845 0.523438 7.45398 0.523438 7.45398V29.106Z" fill="#737373"/>
<path opacity="0.53" d="M0.523438 28.9924C0.523438 28.9924 1.31905 24.1618 1.31905 18.2516C1.31905 12.3413 0.523438 7.56763 0.523438 7.56763V29.0492V28.9924Z" fill="#727272"/>
<path opacity="0.54" d="M0.523438 28.8786C0.523438 28.8786 1.31905 24.1049 1.31905 18.2515C1.31905 12.3981 0.523438 7.62439 0.523438 7.62439V28.8786Z" fill="#717171"/>
<path opacity="0.55" d="M0.523438 28.8218C0.523438 28.8218 1.31905 24.105 1.31905 18.3084C1.31905 12.5118 0.523438 7.79492 0.523438 7.79492V28.8218Z" fill="#707070"/>
<path opacity="0.55" d="M0.523438 28.7085C0.523438 28.7085 1.26223 24.0485 1.26223 18.2519C1.26223 12.4552 0.523438 7.85205 0.523438 7.85205V28.6517V28.7085Z" fill="#707070"/>
<path opacity="0.56" d="M0.523438 28.5948C0.523438 28.5948 1.26223 23.9348 1.26223 18.2518C1.26223 12.5689 0.523438 7.9657 0.523438 7.9657V28.5948Z" fill="#6F6F6F"/>
<path opacity="0.57" d="M0.523438 28.4813C0.523438 28.4813 1.26223 23.8781 1.26223 18.252C1.26223 12.6258 0.523438 8.07947 0.523438 8.07947V28.4813Z" fill="#6E6E6E"/>
<path opacity="0.58" d="M0.523438 28.3678C0.523438 28.3678 1.26223 23.8215 1.26223 18.2522C1.26223 12.6829 0.523438 8.19336 0.523438 8.19336V28.3678Z" fill="#6D6D6D"/>
<path opacity="0.59" d="M0.523438 28.2543C0.523438 28.2543 1.26223 23.7648 1.26223 18.2523C1.26223 12.7398 0.523438 8.30713 0.523438 8.30713V28.2543Z" fill="#6C6C6C"/>
<path opacity="0.6" d="M0.523438 28.1406C0.523438 28.1406 1.2054 23.7079 1.2054 18.2523C1.2054 12.7967 0.523438 8.42078 0.523438 8.42078V28.1406Z" fill="#6B6B6B"/>
<path opacity="0.6" d="M0.523438 28.0257C0.523438 28.0257 1.2054 23.6499 1.2054 18.251C1.2054 12.8522 0.523438 8.5332 0.523438 8.5332V28.0826V28.0257Z" fill="#6A6A6A"/>
<path opacity="0.61" d="M0.523438 27.9121C0.523438 27.9121 1.2054 23.5362 1.2054 18.251C1.2054 12.9659 0.523438 8.64685 0.523438 8.64685V27.9689V27.9121Z" fill="#6A6A6A"/>
<path opacity="0.62" d="M0.523438 27.8553C0.523438 27.8553 1.2054 23.5362 1.2054 18.2511C1.2054 12.966 0.523438 8.70374 0.523438 8.70374V27.7985V27.8553Z" fill="#696969"/>
<path opacity="0.63" d="M0.523438 27.742C0.523438 27.742 1.2054 23.4798 1.2054 18.2514C1.2054 13.0231 0.523438 8.81775 0.523438 8.81775V27.6851V27.742Z" fill="#686868"/>
<path opacity="0.64" d="M0.523438 27.6283C0.523438 27.6283 1.14857 23.4229 1.14857 18.2514C1.14857 13.08 0.523438 8.9314 0.523438 8.9314V27.6283Z" fill="#676767"/>
<path opacity="0.64" d="M0.523438 27.5146C0.523438 27.5146 1.14857 23.3661 1.14857 18.2514C1.14857 13.1368 0.523438 9.04504 0.523438 9.04504V27.5146Z" fill="#666666"/>
<path opacity="0.65" d="M0.523438 27.4013C0.523438 27.4013 1.14857 23.3096 1.14857 18.2518C1.14857 13.194 0.523438 9.15906 0.523438 9.15906V27.4013Z" fill="#656565"/>
<path opacity="0.66" d="M0.523438 27.2877C0.523438 27.2877 1.14857 23.1959 1.14857 18.2518C1.14857 13.3076 0.523438 9.27271 0.523438 9.27271V27.2877Z" fill="#656565"/>
<path opacity="0.67" d="M0.523438 27.174C0.523438 27.174 1.09173 23.1391 1.09173 18.2518C1.09173 13.3644 0.523438 9.38635 0.523438 9.38635V27.2308V27.174Z" fill="#646464"/>
<path opacity="0.68" d="M0.523438 27.0607C0.523438 27.0607 1.09173 23.0826 1.09173 18.2521C1.09173 13.4216 0.523438 9.50037 0.523438 9.50037V27.1175V27.0607Z" fill="#636363"/>
<path opacity="0.69" d="M0.523438 26.9471C0.523438 26.9471 1.09173 23.0258 1.09173 18.1953C1.09173 13.3648 0.523438 9.55725 0.523438 9.55725V26.9471Z" fill="#626262"/>
<path opacity="0.69" d="M0.523438 26.8902C0.523438 26.8902 1.09173 23.0258 1.09173 18.2522C1.09173 13.4785 0.523438 9.6709 0.523438 9.6709V26.8334V26.8902Z" fill="#616161"/>
<path opacity="0.7" d="M0.523438 26.7766C0.523438 26.7766 1.09173 22.969 1.09173 18.2521C1.09173 13.5353 0.523438 9.78455 0.523438 9.78455V26.7197V26.7766Z" fill="#606060"/>
<path opacity="0.71" d="M0.523438 26.6617C0.523438 26.6617 1.0349 22.9109 1.0349 18.2509C1.0349 13.5909 0.523438 9.89697 0.523438 9.89697V26.6617Z" fill="#606060"/>
<path opacity="0.72" d="M0.523438 26.5481C0.523438 26.5481 1.0349 22.7974 1.0349 18.251C1.0349 13.7047 0.523438 10.0107 0.523438 10.0107V26.5481Z" fill="#5F5F5F"/>
<path opacity="0.73" d="M0.523438 26.4347C0.523438 26.4347 1.0349 22.7408 1.0349 18.2513C1.0349 13.7617 0.523438 10.1246 0.523438 10.1246V26.4347Z" fill="#5E5E5E"/>
<path opacity="0.74" d="M0.523438 26.321C0.523438 26.321 1.0349 22.6839 1.0349 18.2512C1.0349 13.8185 0.523438 10.2383 0.523438 10.2383V26.321Z" fill="#5D5D5D"/>
<path opacity="0.74" d="M0.523438 26.2075C0.523438 26.2075 0.978073 22.6272 0.978073 18.2514C0.978073 13.8755 0.523438 10.3521 0.523438 10.3521V26.2643V26.2075Z" fill="#5C5C5C"/>
<path opacity="0.75" d="M0.523438 26.0941C0.523438 26.0941 0.978073 22.5706 0.978073 18.2516C0.978073 13.9325 0.523438 10.4659 0.523438 10.4659V26.1509V26.0941Z" fill="#5B5B5B"/>
<path opacity="0.76" d="M0.523438 25.9805C0.523438 25.9805 0.978073 22.5139 0.978073 18.1948C0.978073 13.8758 0.523438 10.5228 0.523438 10.5228V25.9805Z" fill="#5A5A5A"/>
<path opacity="0.77" d="M0.523438 25.9236C0.523438 25.9236 0.978073 22.457 0.978073 18.2516C0.978073 14.0462 0.523438 10.6365 0.523438 10.6365V25.8668V25.9236Z" fill="#5A5A5A"/>
<path opacity="0.78" d="M0.523438 25.8103C0.523438 25.8103 0.978073 22.4005 0.978073 18.252C0.978073 14.1034 0.523438 10.7505 0.523438 10.7505V25.7535V25.8103Z" fill="#595959"/>
<path opacity="0.79" d="M0.523438 25.6966C0.523438 25.6966 0.921242 22.3437 0.921242 18.252C0.921242 14.1602 0.523438 10.8641 0.523438 10.8641V25.6966Z" fill="#585858"/>
<path opacity="0.79" d="M0.523438 25.583C0.523438 25.583 0.921242 22.2869 0.921242 18.252C0.921242 14.2171 0.523438 10.9778 0.523438 10.9778V25.583Z" fill="#575757"/>
<path opacity="0.8" d="M0.523438 25.4694C0.523438 25.4694 0.921242 22.2301 0.921242 18.2521C0.921242 14.274 0.523438 11.0916 0.523438 11.0916V25.4694Z" fill="#565656"/>
<path opacity="0.81" d="M0.523438 25.356C0.523438 25.356 0.921242 22.1735 0.921242 18.2523C0.921242 14.3311 0.523438 11.2054 0.523438 11.2054V25.356Z" fill="#555555"/>
<path opacity="0.82" d="M0.523438 25.2412C0.523438 25.2412 0.921242 22.0588 0.921242 18.2512C0.921242 14.4436 0.523438 11.318 0.523438 11.318V25.2981V25.2412Z" fill="#555555"/>
<path opacity="0.83" d="M0.523438 25.1275C0.523438 25.1275 0.864412 22.0019 0.864412 18.1943C0.864412 14.3867 0.523438 11.3748 0.523438 11.3748V25.1275Z" fill="#545454"/>
<path opacity="0.83" d="M0.523438 25.0138C0.523438 25.0138 0.864412 21.945 0.864412 18.1943C0.864412 14.4435 0.523438 11.4884 0.523438 11.4884V25.0138Z" fill="#535353"/>
<path opacity="0.84" d="M0.523438 24.957C0.523438 24.957 0.864412 21.9451 0.864412 18.2512C0.864412 14.5572 0.523438 11.6589 0.523438 11.6589V24.957Z" fill="#525252"/>
<path opacity="0.85" d="M0.523438 24.8437C0.523438 24.8437 0.864412 21.8886 0.864412 18.2515C0.864412 14.6144 0.523438 11.7161 0.523438 11.7161V24.7869V24.8437Z" fill="#515151"/>
<path opacity="0.86" d="M0.523438 24.73C0.523438 24.73 0.807592 21.8317 0.807592 18.2514C0.807592 14.6712 0.523438 11.8297 0.523438 11.8297V24.73Z" fill="#505050"/>
<path opacity="0.87" d="M0.523438 24.6165C0.523438 24.6165 0.807592 21.7182 0.807592 18.2516C0.807592 14.785 0.523438 11.9435 0.523438 11.9435V24.6165Z" fill="#4F4F4F"/>
<path opacity="0.88" d="M0.523438 24.503C0.523438 24.503 0.807592 21.6616 0.807592 18.2518C0.807592 14.842 0.523438 12.0574 0.523438 12.0574V24.503Z" fill="#4F4F4F"/>
<path opacity="0.88" d="M0.523438 24.3895C0.523438 24.3895 0.807592 21.6048 0.807592 18.2519C0.807592 14.899 0.523438 12.1711 0.523438 12.1711V24.3895Z" fill="#4E4E4E"/>
<path opacity="0.89" d="M0.523438 24.2758C0.523438 24.2758 0.807592 21.548 0.807592 18.2519C0.807592 14.9558 0.523438 12.2848 0.523438 12.2848V24.3326V24.2758Z" fill="#4D4D4D"/>
<path opacity="0.9" d="M0.523438 24.1621C0.523438 24.1621 0.750761 21.4911 0.750761 18.195C0.750761 14.8989 0.523438 12.3416 0.523438 12.3416V24.1621Z" fill="#4C4C4C"/>
<path opacity="0.91" d="M0.523438 24.0488C0.523438 24.0488 0.750761 21.4346 0.750761 18.1953C0.750761 14.9561 0.523438 12.4556 0.523438 12.4556V24.0488Z" fill="#4B4B4B"/>
<path opacity="0.92" d="M0.523438 23.992C0.523438 23.992 0.750761 21.3778 0.750761 18.2522C0.750761 15.1266 0.523438 12.6261 0.523438 12.6261V23.992Z" fill="#4A4A4A"/>
<path opacity="0.93" d="M0.523438 23.8784C0.523438 23.8784 0.750761 21.3211 0.750761 18.2523C0.750761 15.1835 0.523438 12.683 0.523438 12.683V23.8216V23.8784Z" fill="#4A4A4A"/>
<path opacity="0.93" d="M0.523438 23.7635C0.523438 23.7635 0.69393 21.263 0.69393 18.251C0.69393 15.2391 0.523438 12.7954 0.523438 12.7954V23.7635Z" fill="#494949"/>
<path opacity="0.94" d="M0.523438 23.6498C0.523438 23.6498 0.69393 21.2062 0.69393 18.251C0.69393 15.2959 0.523438 12.9091 0.523438 12.9091V23.6498Z" fill="#484848"/>
<path opacity="0.95" d="M0.523438 23.5365C0.523438 23.5365 0.69393 21.1497 0.69393 18.2514C0.69393 15.3531 0.523438 13.0231 0.523438 13.0231V23.5365Z" fill="#474747"/>
<path opacity="0.96" d="M0.523438 23.4229C0.523438 23.4229 0.69393 21.0929 0.69393 18.2514C0.69393 15.4099 0.523438 13.1367 0.523438 13.1367V23.4229Z" fill="#464646"/>
<path opacity="0.97" d="M0.523438 23.3093C0.523438 23.3093 0.69393 20.9792 0.69393 18.1946C0.69393 15.41 0.523438 13.1936 0.523438 13.1936V23.3093Z" fill="#454545"/>
<path opacity="0.98" d="M0.523438 23.1956C0.523438 23.1956 0.637099 20.9224 0.637099 18.1946C0.637099 15.4668 0.523438 13.3073 0.523438 13.3073V23.1956Z" fill="#454545"/>
<path opacity="0.98" d="M0.523438 23.139C0.523438 23.139 0.637099 20.9227 0.637099 18.2517C0.637099 15.5807 0.523438 13.478 0.523438 13.478V23.139Z" fill="#444444"/>
<path opacity="0.99" d="M0.523438 23.0254C0.523438 23.0254 0.637099 20.8659 0.637099 18.2517C0.637099 15.6375 0.523438 13.5917 0.523438 13.5917V23.0254Z" fill="#434343"/>
<path d="M0.523438 22.9121C0.523438 22.9121 0.637099 20.8094 0.637099 18.2521C0.637099 15.6947 0.523438 13.7057 0.523438 13.7057V22.9121Z" fill="#424242"/>
</g>
</svg>
