<svg width="9" height="36" viewBox="0 0 9 36" fill="none" xmlns="http://www.w3.org/2000/svg">
<path d="M8.42274 18.2521L0.523438 24.1624V12.3987L8.42274 18.2521Z" fill="#FF9999"/>
<g style="mix-blend-mode:multiply" opacity="0.35">
<path opacity="0.02" d="M0.523438 35.6417C0.523438 35.6417 2.11467 27.8561 2.11467 18.2519C2.11467 8.64771 0.523438 0.862061 0.523438 0.862061V35.6417Z" fill="#A6A6A6"/>
<path opacity="0.02" d="M0.523438 35.5279C0.523438 35.5279 2.05784 27.7991 2.05784 18.2518C2.05784 8.7044 0.523438 0.975586 0.523438 0.975586V35.5279Z" fill="#A5A5A5"/>
<path opacity="0.03" d="M0.523438 35.4715C0.523438 35.4715 2.05784 27.7995 2.05784 18.309C2.05784 8.81847 0.523438 1.14648 0.523438 1.14648V35.4715Z" fill="#A5A5A5"/>
<path opacity="0.04" d="M0.523438 35.358C0.523438 35.358 2.05784 27.7428 2.05784 18.3091C2.05784 8.87541 0.523438 1.26025 0.523438 1.26025V35.358Z" fill="#A4A4A4"/>
<path opacity="0.05" d="M0.523438 35.2429C0.523438 35.2429 2.05784 27.6278 2.05784 18.3078C2.05784 8.98772 0.523438 1.37256 0.523438 1.37256V35.2998V35.2429Z" fill="#A3A3A3"/>
<path opacity="0.06" d="M0.523438 35.1294C0.523438 35.1294 2.05784 27.5711 2.05784 18.3079C2.05784 9.04465 0.523438 1.48633 0.523438 1.48633V35.1862V35.1294Z" fill="#A2A2A2"/>
<path opacity="0.07" d="M0.523438 35.0158C0.523438 35.0158 2.00101 27.5143 2.00101 18.2511C2.00101 8.98788 0.523438 1.54321 0.523438 1.54321V35.0158Z" fill="#A1A1A1"/>
<path opacity="0.07" d="M0.523438 34.9024C0.523438 34.9024 2.00101 27.4578 2.00101 18.2514C2.00101 9.04501 0.523438 1.60034 0.523438 1.60034V34.8456V34.9024Z" fill="#A0A0A0"/>
<path opacity="0.08" d="M0.523438 34.7886C0.523438 34.7886 2.00101 27.4008 2.00101 18.2513C2.00101 9.1017 0.523438 1.71387 0.523438 1.71387V34.7886Z" fill="#A0A0A0"/>
<path opacity="0.09" d="M0.523438 34.6751C0.523438 34.6751 2.00101 27.3441 2.00101 18.2514C2.00101 9.15865 0.523438 1.82764 0.523438 1.82764V34.6751Z" fill="#9F9F9F"/>
<path opacity="0.1" d="M0.523438 34.5615C0.523438 34.5615 1.94418 27.2305 1.94418 18.2515C1.94418 9.27241 0.523438 1.94141 0.523438 1.94141V34.5615Z" fill="#9E9E9E"/>
<path opacity="0.11" d="M0.523438 34.5049C0.523438 34.5049 1.94418 27.2307 1.94418 18.3085C1.94418 9.38624 0.523438 2.11206 0.523438 2.11206V34.5049Z" fill="#9D9D9D"/>
<path opacity="0.12" d="M0.523438 34.3913C0.523438 34.3913 1.94418 27.174 1.94418 18.3086C1.94418 9.44318 0.523438 2.22583 0.523438 2.22583V34.3913Z" fill="#9C9C9C"/>
<path opacity="0.12" d="M0.523438 34.278C0.523438 34.278 1.94418 27.1175 1.94418 18.3089C1.94418 9.50037 0.523438 2.33984 0.523438 2.33984V34.3349V34.278Z" fill="#9B9B9B"/>
<path opacity="0.13" d="M0.523438 34.1644C0.523438 34.1644 1.94418 27.0607 1.94418 18.2522C1.94418 9.44359 0.523438 2.39673 0.523438 2.39673V34.1644Z" fill="#9B9B9B"/>
<path opacity="0.14" d="M0.523438 34.0506C0.523438 34.0506 1.88734 27.0038 1.88734 18.252C1.88734 9.50029 0.523438 2.51025 0.523438 2.51025V34.0506Z" fill="#9A9A9A"/>
<path opacity="0.15" d="M0.523438 33.937C0.523438 33.937 1.88734 26.8902 1.88734 18.2521C1.88734 9.614 0.523438 2.56714 0.523438 2.56714V33.8802V33.937Z" fill="#999999"/>
<path opacity="0.16" d="M0.523438 33.8237C0.523438 33.8237 1.88734 26.8337 1.88734 18.2524C1.88734 9.67118 0.523438 2.68115 0.523438 2.68115V33.8237Z" fill="#989898"/>
<path opacity="0.17" d="M0.523438 33.7085C0.523438 33.7085 1.88734 26.7753 1.88734 18.2508C1.88734 9.72642 0.523438 2.79321 0.523438 2.79321V33.7085Z" fill="#979797"/>
<path opacity="0.17" d="M0.523438 33.5952C0.523438 33.5952 1.88734 26.7188 1.88734 18.2512C1.88734 9.7836 0.523438 2.90723 0.523438 2.90723V33.5952Z" fill="#969696"/>
<path opacity="0.18" d="M0.523438 33.5385C0.523438 33.5385 1.83051 26.719 1.83051 18.3082C1.83051 9.89742 0.523438 3.07788 0.523438 3.07788V33.5385Z" fill="#959595"/>
<path opacity="0.19" d="M0.523438 33.4247C0.523438 33.4247 1.83051 26.662 1.83051 18.3081C1.83051 9.95412 0.523438 3.19141 0.523438 3.19141V33.4247Z" fill="#959595"/>
<path opacity="0.2" d="M0.523438 33.3114C0.523438 33.3114 1.83051 26.5487 1.83051 18.3084C1.83051 10.0681 0.523438 3.30542 0.523438 3.30542V33.3682V33.3114Z" fill="#949494"/>
<path opacity="0.21" d="M0.523438 33.1978C0.523438 33.1978 1.83051 26.4919 1.83051 18.2516C1.83051 10.0114 0.523438 3.3623 0.523438 3.3623V33.1978Z" fill="#939393"/>
<path opacity="0.21" d="M0.523438 33.084C0.523438 33.084 1.77369 26.435 1.77369 18.2515C1.77369 10.0681 0.523438 3.47583 0.523438 3.47583V33.084Z" fill="#929292"/>
<path opacity="0.22" d="M0.523438 32.9704C0.523438 32.9704 1.77369 26.3782 1.77369 18.2516C1.77369 10.1249 0.523438 3.53271 0.523438 3.53271V32.9136V32.9704Z" fill="#919191"/>
<path opacity="0.23" d="M0.523438 32.8571C0.523438 32.8571 1.77369 26.3217 1.77369 18.2519C1.77369 10.1821 0.523438 3.64673 0.523438 3.64673V32.8571Z" fill="#909090"/>
<path opacity="0.24" d="M0.523438 32.7435C0.523438 32.7435 1.77369 26.265 1.77369 18.252C1.77369 10.2391 0.523438 3.7605 0.523438 3.7605V32.7435Z" fill="#909090"/>
<path opacity="0.25" d="M0.523438 32.6298C0.523438 32.6298 1.77369 26.208 1.77369 18.2519C1.77369 10.2958 0.523438 3.87402 0.523438 3.87402V32.6298Z" fill="#8F8F8F"/>
<path opacity="0.26" d="M0.523438 32.5733C0.523438 32.5733 1.71686 26.1516 1.71686 18.3091C1.71686 10.4667 0.523438 4.04492 0.523438 4.04492V32.5733Z" fill="#8E8E8E"/>
<path opacity="0.26" d="M0.523438 32.4598C0.523438 32.4598 1.71686 26.0949 1.71686 18.3092C1.71686 10.5236 0.523438 4.15869 0.523438 4.15869V32.4598Z" fill="#8D8D8D"/>
<path opacity="0.27" d="M0.523438 32.3447C0.523438 32.3447 1.71686 26.0366 1.71686 18.251C1.71686 10.4654 0.523438 4.21411 0.523438 4.21411V32.3447Z" fill="#8C8C8C"/>
<path opacity="0.28" d="M0.523438 32.2312C0.523438 32.2312 1.71686 25.9799 1.71686 18.2511C1.71686 10.5223 0.523438 4.32788 0.523438 4.32788V32.2312Z" fill="#8B8B8B"/>
<path opacity="0.29" d="M0.523438 32.1176C0.523438 32.1176 1.66003 25.9232 1.66003 18.2512C1.66003 10.5792 0.523438 4.44165 0.523438 4.44165V32.1176Z" fill="#8A8A8A"/>
<path opacity="0.3" d="M0.523438 32.0041C0.523438 32.0041 1.66003 25.8665 1.66003 18.2513C1.66003 10.6362 0.523438 4.55542 0.523438 4.55542V32.0041Z" fill="#8A8A8A"/>
<path opacity="0.31" d="M0.523438 31.8905C0.523438 31.8905 1.66003 25.7529 1.66003 18.2514C1.66003 10.7499 0.523438 4.6123 0.523438 4.6123V31.8905Z" fill="#898989"/>
<path opacity="0.31" d="M0.523438 31.7769C0.523438 31.7769 1.66003 25.6962 1.66003 18.2515C1.66003 10.8068 0.523438 4.72607 0.523438 4.72607V31.7769Z" fill="#888888"/>
<path opacity="0.32" d="M0.523438 31.7205C0.523438 31.7205 1.66003 25.6966 1.66003 18.3087C1.66003 10.9209 0.523438 4.89697 0.523438 4.89697V31.7205Z" fill="#878787"/>
<path opacity="0.33" d="M0.523438 31.6067C0.523438 31.6067 1.6032 25.6396 1.6032 18.3086C1.6032 10.9776 0.523438 5.0105 0.523438 5.0105V31.6067Z" fill="#868686"/>
<path opacity="0.34" d="M0.523438 31.4931C0.523438 31.4931 1.6032 25.5828 1.6032 18.2518C1.6032 10.9208 0.523438 5.06738 0.523438 5.06738V31.4931Z" fill="#858585"/>
<path opacity="0.35" d="M0.523438 31.3796C0.523438 31.3796 1.6032 25.5261 1.6032 18.2519C1.6032 10.9778 0.523438 5.18115 0.523438 5.18115V31.3796Z" fill="#858585"/>
<path opacity="0.36" d="M0.523438 31.266C0.523438 31.266 1.6032 25.4126 1.6032 18.252C1.6032 11.0915 0.523438 5.29492 0.523438 5.29492V31.266Z" fill="#848484"/>
<path opacity="0.36" d="M0.523438 31.1525C0.523438 31.1525 1.6032 25.3559 1.6032 18.2522C1.6032 11.1485 0.523438 5.40869 0.523438 5.40869V31.1525Z" fill="#838383"/>
<path opacity="0.37" d="M0.523438 31.0389C0.523438 31.0389 1.54637 25.2991 1.54637 18.2523C1.54637 11.2054 0.523438 5.52246 0.523438 5.52246V31.0389Z" fill="#828282"/>
<path opacity="0.38" d="M0.523438 30.9251C0.523438 30.9251 1.54637 25.2421 1.54637 18.2521C1.54637 11.2621 0.523438 5.5791 0.523438 5.5791V30.9251Z" fill="#818181"/>
<path opacity="0.39" d="M0.523438 30.8103C0.523438 30.8103 1.54637 25.1842 1.54637 18.251C1.54637 11.3178 0.523438 5.69165 0.523438 5.69165V30.8103Z" fill="#808080"/>
<path opacity="0.4" d="M0.523438 30.7539C0.523438 30.7539 1.54637 25.1846 1.54637 18.3082C1.54637 11.4318 0.523438 5.86255 0.523438 5.86255V30.7539Z" fill="#808080"/>
<path opacity="0.4" d="M0.523438 30.6401C0.523438 30.6401 1.48954 25.0708 1.48954 18.3081C1.48954 11.5454 0.523438 5.97607 0.523438 5.97607V30.6401Z" fill="#7F7F7F"/>
<path opacity="0.41" d="M0.523438 30.5265C0.523438 30.5265 1.48954 25.014 1.48954 18.2513C1.48954 11.4886 0.523438 6.03296 0.523438 6.03296V30.5265Z" fill="#7E7E7E"/>
<path opacity="0.42" d="M0.523438 30.4129C0.523438 30.4129 1.48954 24.9573 1.48954 18.2514C1.48954 11.5455 0.523438 6.14673 0.523438 6.14673V30.4129Z" fill="#7D7D7D"/>
<path opacity="0.43" d="M0.523438 30.2996C0.523438 30.2996 1.48954 24.9008 1.48954 18.2518C1.48954 11.6027 0.523438 6.26074 0.523438 6.26074V30.2996Z" fill="#7C7C7C"/>
<path opacity="0.44" d="M0.523438 30.1858C0.523438 30.1858 1.48954 24.8439 1.48954 18.2516C1.48954 11.6594 0.523438 6.37427 0.523438 6.37427V30.1858Z" fill="#7B7B7B"/>
<path opacity="0.45" d="M0.523438 30.0723C0.523438 30.0723 1.43271 24.7871 1.43271 18.2517C1.43271 11.7164 0.523438 6.48804 0.523438 6.48804V30.0723Z" fill="#7A7A7A"/>
<path opacity="0.45" d="M0.523438 29.959C0.523438 29.959 1.43271 24.6738 1.43271 18.2521C1.43271 11.8304 0.523438 6.60205 0.523438 6.60205V30.0158V29.959Z" fill="#7A7A7A"/>
<path opacity="0.46" d="M0.523438 29.8451C0.523438 29.8451 1.43271 24.6168 1.43271 18.2519C1.43271 11.887 0.523438 6.65869 0.523438 6.65869V29.8451Z" fill="#797979"/>
<path opacity="0.47" d="M0.523438 29.7885C0.523438 29.7885 1.43271 24.617 1.43271 18.3089C1.43271 12.0008 0.523438 6.82935 0.523438 6.82935V29.7885Z" fill="#787878"/>
<path opacity="0.48" d="M0.523438 29.6751C0.523438 29.6751 1.37588 24.5605 1.37588 18.2524C1.37588 11.9443 0.523438 6.88647 0.523438 6.88647V29.6183V29.6751Z" fill="#777777"/>
<path opacity="0.49" d="M0.523438 29.5616C0.523438 29.5616 1.37588 24.5037 1.37588 18.2525C1.37588 12.0012 0.523438 7.00024 0.523438 7.00024V29.5616Z" fill="#767676"/>
<path opacity="0.5" d="M0.523438 29.4466C0.523438 29.4466 1.37588 24.4456 1.37588 18.2511C1.37588 12.0567 0.523438 7.11255 0.523438 7.11255V29.4466Z" fill="#757575"/>
<path opacity="0.5" d="M0.523438 29.333C0.523438 29.333 1.37588 24.3888 1.37588 18.2512C1.37588 12.1137 0.523438 7.22632 0.523438 7.22632V29.333Z" fill="#757575"/>
<path opacity="0.51" d="M0.523438 29.2192C0.523438 29.2192 1.37588 24.275 1.37588 18.2511C1.37588 12.2272 0.523438 7.33984 0.523438 7.33984V29.2192Z" fill="#747474"/>
<path opacity="0.52" d="M0.523438 29.1059C0.523438 29.1059 1.31905 24.2186 1.31905 18.2515C1.31905 12.2844 0.523438 7.45386 0.523438 7.45386V29.1059Z" fill="#737373"/>
<path opacity="0.53" d="M0.523438 28.9924C0.523438 28.9924 1.31905 24.1618 1.31905 18.2516C1.31905 12.3413 0.523438 7.56763 0.523438 7.56763V29.0492V28.9924Z" fill="#727272"/>
<path opacity="0.54" d="M0.523438 28.8787C0.523438 28.8787 1.31905 24.1051 1.31905 18.2516C1.31905 12.3982 0.523438 7.62451 0.523438 7.62451V28.8787Z" fill="#717171"/>
<path opacity="0.55" d="M0.523438 28.8218C0.523438 28.8218 1.31905 24.105 1.31905 18.3084C1.31905 12.5118 0.523438 7.79492 0.523438 7.79492V28.8218Z" fill="#707070"/>
<path opacity="0.55" d="M0.523438 28.7085C0.523438 28.7085 1.26223 24.0485 1.26223 18.2519C1.26223 12.4552 0.523438 7.85205 0.523438 7.85205V28.6517V28.7085Z" fill="#707070"/>
<path opacity="0.56" d="M0.523438 28.5949C0.523438 28.5949 1.26223 23.9349 1.26223 18.252C1.26223 12.569 0.523438 7.96582 0.523438 7.96582V28.5949Z" fill="#6F6F6F"/>
<path opacity="0.57" d="M0.523438 28.4811C0.523438 28.4811 1.26223 23.878 1.26223 18.2518C1.26223 12.6257 0.523438 8.07935 0.523438 8.07935V28.4811Z" fill="#6E6E6E"/>
<path opacity="0.58" d="M0.523438 28.3678C0.523438 28.3678 1.26223 23.8215 1.26223 18.2522C1.26223 12.6829 0.523438 8.19336 0.523438 8.19336V28.3678Z" fill="#6D6D6D"/>
<path opacity="0.59" d="M0.523438 28.2543C0.523438 28.2543 1.26223 23.7648 1.26223 18.2523C1.26223 12.7398 0.523438 8.30713 0.523438 8.30713V28.2543Z" fill="#6C6C6C"/>
<path opacity="0.6" d="M0.523438 28.1405C0.523438 28.1405 1.2054 23.7078 1.2054 18.2522C1.2054 12.7965 0.523438 8.42065 0.523438 8.42065V28.1405Z" fill="#6B6B6B"/>
<path opacity="0.6" d="M0.523438 28.0257C0.523438 28.0257 1.2054 23.6499 1.2054 18.251C1.2054 12.8522 0.523438 8.5332 0.523438 8.5332V28.0826V28.0257Z" fill="#6A6A6A"/>
<path opacity="0.61" d="M0.523438 27.9122C0.523438 27.9122 1.2054 23.5363 1.2054 18.2512C1.2054 12.966 0.523438 8.64697 0.523438 8.64697V27.969V27.9122Z" fill="#6A6A6A"/>
<path opacity="0.62" d="M0.523438 27.8552C0.523438 27.8552 1.2054 23.5361 1.2054 18.251C1.2054 12.9658 0.523438 8.70361 0.523438 8.70361V27.7983V27.8552Z" fill="#696969"/>
<path opacity="0.63" d="M0.523438 27.7419C0.523438 27.7419 1.2054 23.4796 1.2054 18.2513C1.2054 13.023 0.523438 8.81763 0.523438 8.81763V27.685V27.7419Z" fill="#686868"/>
<path opacity="0.64" d="M0.523438 27.6283C0.523438 27.6283 1.14857 23.4229 1.14857 18.2514C1.14857 13.08 0.523438 8.9314 0.523438 8.9314V27.6283Z" fill="#676767"/>
<path opacity="0.64" d="M0.523438 27.5148C0.523438 27.5148 1.14857 23.3662 1.14857 18.2515C1.14857 13.1369 0.523438 9.04517 0.523438 9.04517V27.5148Z" fill="#666666"/>
<path opacity="0.65" d="M0.523438 27.4012C0.523438 27.4012 1.14857 23.3095 1.14857 18.2517C1.14857 13.1938 0.523438 9.15894 0.523438 9.15894V27.4012Z" fill="#656565"/>
<path opacity="0.66" d="M0.523438 27.2877C0.523438 27.2877 1.14857 23.1959 1.14857 18.2518C1.14857 13.3076 0.523438 9.27271 0.523438 9.27271V27.2877Z" fill="#656565"/>
<path opacity="0.67" d="M0.523438 27.1741C0.523438 27.1741 1.09173 23.1392 1.09173 18.2519C1.09173 13.3645 0.523438 9.38647 0.523438 9.38647V27.2309V27.1741Z" fill="#646464"/>
<path opacity="0.68" d="M0.523438 27.0606C0.523438 27.0606 1.09173 23.0825 1.09173 18.252C1.09173 13.4215 0.523438 9.50024 0.523438 9.50024V27.1174V27.0606Z" fill="#636363"/>
<path opacity="0.69" d="M0.523438 26.947C0.523438 26.947 1.09173 23.0257 1.09173 18.1952C1.09173 13.3647 0.523438 9.55713 0.523438 9.55713V26.947Z" fill="#626262"/>
<path opacity="0.69" d="M0.523438 26.8902C0.523438 26.8902 1.09173 23.0258 1.09173 18.2522C1.09173 13.4785 0.523438 9.6709 0.523438 9.6709V26.8334V26.8902Z" fill="#616161"/>
<path opacity="0.7" d="M0.523438 26.7764C0.523438 26.7764 1.09173 22.9689 1.09173 18.252C1.09173 13.5352 0.523438 9.78442 0.523438 9.78442V26.7196V26.7764Z" fill="#606060"/>
<path opacity="0.71" d="M0.523438 26.6617C0.523438 26.6617 1.0349 22.9109 1.0349 18.2509C1.0349 13.5909 0.523438 9.89697 0.523438 9.89697V26.6617Z" fill="#606060"/>
<path opacity="0.72" d="M0.523438 26.5481C0.523438 26.5481 1.0349 22.7974 1.0349 18.251C1.0349 13.7047 0.523438 10.0107 0.523438 10.0107V26.5481Z" fill="#5F5F5F"/>
<path opacity="0.73" d="M0.523438 26.4348C0.523438 26.4348 1.0349 22.7409 1.0349 18.2514C1.0349 13.7618 0.523438 10.1248 0.523438 10.1248V26.4348Z" fill="#5E5E5E"/>
<path opacity="0.74" d="M0.523438 26.321C0.523438 26.321 1.0349 22.6839 1.0349 18.2512C1.0349 13.8185 0.523438 10.2383 0.523438 10.2383V26.321Z" fill="#5D5D5D"/>
<path opacity="0.74" d="M0.523438 26.2075C0.523438 26.2075 0.978073 22.6272 0.978073 18.2514C0.978073 13.8755 0.523438 10.3521 0.523438 10.3521V26.2643V26.2075Z" fill="#5C5C5C"/>
<path opacity="0.75" d="M0.523438 26.0942C0.523438 26.0942 0.978073 22.5708 0.978073 18.2517C0.978073 13.9327 0.523438 10.4661 0.523438 10.4661V26.151V26.0942Z" fill="#5B5B5B"/>
<path opacity="0.76" d="M0.523438 25.9803C0.523438 25.9803 0.978073 22.5137 0.978073 18.1947C0.978073 13.8756 0.523438 10.5227 0.523438 10.5227V25.9803Z" fill="#5A5A5A"/>
<path opacity="0.77" d="M0.523438 25.9236C0.523438 25.9236 0.978073 22.457 0.978073 18.2516C0.978073 14.0462 0.523438 10.6365 0.523438 10.6365V25.8668V25.9236Z" fill="#5A5A5A"/>
<path opacity="0.78" d="M0.523438 25.8103C0.523438 25.8103 0.978073 22.4005 0.978073 18.252C0.978073 14.1034 0.523438 10.7505 0.523438 10.7505V25.7535V25.8103Z" fill="#595959"/>
<path opacity="0.79" d="M0.523438 25.6968C0.523438 25.6968 0.921242 22.3438 0.921242 18.2521C0.921242 14.1604 0.523438 10.8643 0.523438 10.8643V25.6968Z" fill="#585858"/>
<path opacity="0.79" d="M0.523438 25.583C0.523438 25.583 0.921242 22.2869 0.921242 18.252C0.921242 14.2171 0.523438 10.9778 0.523438 10.9778V25.583Z" fill="#575757"/>
<path opacity="0.8" d="M0.523438 25.4694C0.523438 25.4694 0.921242 22.2301 0.921242 18.2521C0.921242 14.274 0.523438 11.0916 0.523438 11.0916V25.4694Z" fill="#565656"/>
<path opacity="0.81" d="M0.523438 25.3561C0.523438 25.3561 0.921242 22.1737 0.921242 18.2524C0.921242 14.3312 0.523438 11.2056 0.523438 11.2056V25.3561Z" fill="#555555"/>
<path opacity="0.82" d="M0.523438 25.2411C0.523438 25.2411 0.921242 22.0587 0.921242 18.2511C0.921242 14.4435 0.523438 11.3179 0.523438 11.3179V25.2979V25.2411Z" fill="#555555"/>
<path opacity="0.83" d="M0.523438 25.1275C0.523438 25.1275 0.864412 22.0019 0.864412 18.1943C0.864412 14.3867 0.523438 11.3748 0.523438 11.3748V25.1275Z" fill="#545454"/>
<path opacity="0.83" d="M0.523438 25.014C0.523438 25.014 0.864412 21.9452 0.864412 18.1944C0.864412 14.4437 0.523438 11.4885 0.523438 11.4885V25.014Z" fill="#535353"/>
<path opacity="0.84" d="M0.523438 24.957C0.523438 24.957 0.864412 21.9451 0.864412 18.2512C0.864412 14.5572 0.523438 11.6589 0.523438 11.6589V24.957Z" fill="#525252"/>
<path opacity="0.85" d="M0.523438 24.8437C0.523438 24.8437 0.864412 21.8886 0.864412 18.2515C0.864412 14.6144 0.523438 11.7161 0.523438 11.7161V24.7869V24.8437Z" fill="#515151"/>
<path opacity="0.86" d="M0.523438 24.7301C0.523438 24.7301 0.807592 21.8318 0.807592 18.2516C0.807592 14.6713 0.523438 11.8298 0.523438 11.8298V24.7301Z" fill="#505050"/>
<path opacity="0.87" d="M0.523438 24.6163C0.523438 24.6163 0.807592 21.718 0.807592 18.2514C0.807592 14.7848 0.523438 11.9434 0.523438 11.9434V24.6163Z" fill="#4F4F4F"/>
<path opacity="0.88" d="M0.523438 24.503C0.523438 24.503 0.807592 21.6616 0.807592 18.2518C0.807592 14.842 0.523438 12.0574 0.523438 12.0574V24.503Z" fill="#4F4F4F"/>
<path opacity="0.88" d="M0.523438 24.3895C0.523438 24.3895 0.807592 21.6048 0.807592 18.2519C0.807592 14.899 0.523438 12.1711 0.523438 12.1711V24.3895Z" fill="#4E4E4E"/>
<path opacity="0.89" d="M0.523438 24.2757C0.523438 24.2757 0.807592 21.5479 0.807592 18.2518C0.807592 14.9557 0.523438 12.2847 0.523438 12.2847V24.3325V24.2757Z" fill="#4D4D4D"/>
<path opacity="0.9" d="M0.523438 24.1621C0.523438 24.1621 0.750761 21.4911 0.750761 18.195C0.750761 14.8989 0.523438 12.3416 0.523438 12.3416V24.1621Z" fill="#4C4C4C"/>
<path opacity="0.91" d="M0.523438 24.0488C0.523438 24.0488 0.750761 21.4346 0.750761 18.1953C0.750761 14.9561 0.523438 12.4556 0.523438 12.4556V24.0488Z" fill="#4B4B4B"/>
<path opacity="0.92" d="M0.523438 23.9919C0.523438 23.9919 0.750761 21.3777 0.750761 18.2521C0.750761 15.1265 0.523438 12.626 0.523438 12.626V23.9919Z" fill="#4A4A4A"/>
<path opacity="0.93" d="M0.523438 23.8783C0.523438 23.8783 0.750761 21.321 0.750761 18.2522C0.750761 15.1834 0.523438 12.6829 0.523438 12.6829V23.8214V23.8783Z" fill="#4A4A4A"/>
<path opacity="0.93" d="M0.523438 23.7635C0.523438 23.7635 0.69393 21.263 0.69393 18.251C0.69393 15.2391 0.523438 12.7954 0.523438 12.7954V23.7635Z" fill="#494949"/>
<path opacity="0.94" d="M0.523438 23.65C0.523438 23.65 0.69393 21.2063 0.69393 18.2512C0.69393 15.296 0.523438 12.9092 0.523438 12.9092V23.65Z" fill="#484848"/>
<path opacity="0.95" d="M0.523438 23.5364C0.523438 23.5364 0.69393 21.1496 0.69393 18.2513C0.69393 15.353 0.523438 13.0229 0.523438 13.0229V23.5364Z" fill="#474747"/>
<path opacity="0.96" d="M0.523438 23.4229C0.523438 23.4229 0.69393 21.0929 0.69393 18.2514C0.69393 15.4099 0.523438 13.1367 0.523438 13.1367V23.4229Z" fill="#464646"/>
<path opacity="0.97" d="M0.523438 23.3093C0.523438 23.3093 0.69393 20.9792 0.69393 18.1946C0.69393 15.41 0.523438 13.1936 0.523438 13.1936V23.3093Z" fill="#454545"/>
<path opacity="0.98" d="M0.523438 23.1955C0.523438 23.1955 0.637099 20.9223 0.637099 18.1945C0.637099 15.4666 0.523438 13.3071 0.523438 13.3071V23.1955Z" fill="#454545"/>
<path opacity="0.98" d="M0.523438 23.139C0.523438 23.139 0.637099 20.9227 0.637099 18.2517C0.637099 15.5807 0.523438 13.478 0.523438 13.478V23.139Z" fill="#444444"/>
<path opacity="0.99" d="M0.523438 23.0255C0.523438 23.0255 0.637099 20.866 0.637099 18.2518C0.637099 15.6377 0.523438 13.5918 0.523438 13.5918V23.0255Z" fill="#434343"/>
<path d="M0.523438 22.9122C0.523438 22.9122 0.637099 20.8095 0.637099 18.2522C0.637099 15.6948 0.523438 13.7058 0.523438 13.7058V22.9122Z" fill="#424242"/>
</g>
</svg>
