<svg width="71" height="96" viewBox="0 0 71 96" fill="none" xmlns="http://www.w3.org/2000/svg">
<path d="M1.26728 10.8672C-0.956433 17.7512 1.92387 24.9782 6.43116 30.2336C10.9729 35.5307 17.1815 39.6072 23.3575 42.7721C30.4857 46.4244 38.2397 48.8959 46.1805 50.0731C47.6061 61.5517 46.9822 73.247 44.481 84.556C44.2397 85.6428 43.9858 86.726 43.7337 87.8093C43.1641 86.3668 42.5348 84.9459 41.8419 83.554C41.1454 82.153 40.3818 80.7863 39.5547 79.4576C38.597 77.9194 37.6611 76.3505 36.1847 75.2727C34.7989 74.2598 32.8219 76.0418 33.3678 77.5402C33.9247 79.0658 35.0383 80.3332 35.8999 81.7053C36.7034 82.9871 37.4489 84.305 38.129 85.6536C39.4803 88.331 40.5305 91.1456 41.3431 94.0288C41.8328 95.7674 44.3939 96.0418 45.2391 94.4387C45.7579 93.4565 46.5922 92.6098 47.3703 91.7956C48.2319 90.8911 49.1207 90.0028 50.0511 89.1669C51.8704 87.5367 53.8909 86.1465 56.0312 84.9676C56.9236 84.4765 56.2652 82.9943 55.2912 83.3355C52.828 84.1985 50.4483 85.3215 48.2391 86.708C48.163 86.7567 48.0886 86.8073 48.0124 86.856C49.6684 80.7484 50.4121 74.3194 50.7168 68.0529C51.0016 62.2017 50.7585 56.345 50.0421 50.5388C54.8341 50.992 59.6697 50.9721 64.4545 50.4504C66.1921 50.2608 67.9206 50.0026 69.6419 49.6921C70.2949 49.5748 70.625 48.7569 70.4563 48.1792C70.255 47.4859 69.5821 47.2585 68.9364 47.3686C62.5935 48.4482 56.0893 48.5981 49.6811 47.8777C49.5505 46.9985 49.409 46.1211 49.2567 45.2454C47.9598 37.7874 45.8213 30.472 42.8594 23.5013C40.204 17.2511 36.8739 11.0117 31.7173 6.43682C27.0848 2.32775 21.0993 -0.0643777 14.8417 0.614448C8.67845 1.28244 3.21711 4.8228 1.26547 10.8654L1.26728 10.8672ZM27.522 7.44061C32.5444 11.1254 35.8944 16.6986 38.4283 22.2665C41.3286 28.6413 43.4507 35.4007 44.8818 42.2467C45.2355 43.9365 45.5402 45.6336 45.8014 47.3361C40.3219 46.4117 34.9513 44.8465 29.8581 42.6728C23.7928 40.0838 18.0014 36.668 12.9753 32.3983C8.1198 28.273 3.83561 22.8568 3.70865 16.2292C3.65242 13.3442 4.44505 10.3635 6.35679 8.1393C7.98739 6.24184 10.1857 5.01417 12.5926 4.36784C17.7492 2.98672 23.2759 4.32632 27.522 7.44061Z" fill="#F89A20"/>
</svg>
