<svg width="164" height="41" viewBox="0 0 164 41" fill="none" xmlns="http://www.w3.org/2000/svg">
<g clip-path="url(#clip0_309_3122)">
<path d="M54.5155 34.4136V12.155H46.5059V6.87325H68.2677V12.155H60.2583V34.4136H54.5155Z" fill="#0EE06E"/>
<path d="M67.3613 34.4136V14.4186H72.6505V17.5875C73.8974 14.9091 75.5219 14.4186 77.2598 14.4186H79.3001V19.7756H77.5622C75.0689 19.7756 72.8396 21.2093 72.8396 25.5856V34.4136H67.3613Z" fill="#0EE06E"/>
<path d="M81.7935 27.0947V14.4187H87.2716V25.8498C87.2716 28.1889 88.4049 29.9243 90.7473 29.9243C93.0142 29.9243 94.4498 28.1889 94.4498 25.8876V14.4187H99.9281V34.4137H94.7145V31.886C93.3922 33.8855 91.4274 34.8665 88.9337 34.8665C84.5512 34.8665 81.7935 31.8483 81.7935 27.0947Z" fill="#0EE06E"/>
<path d="M102.271 28.7924L107.032 27.6984C107.258 29.2452 108.505 30.4146 110.885 30.4146C112.737 30.4146 113.757 29.6602 113.757 28.7169C113.757 27.9625 113.341 27.3966 111.452 26.9816L108.316 26.3026C104.312 25.4348 102.612 23.5863 102.612 20.2285C102.612 16.7955 105.445 14.0414 110.772 14.0414C116.439 14.0414 118.706 17.4369 118.933 19.6626L114.135 20.719C113.908 19.5494 113.039 18.2668 110.659 18.2668C109.148 18.2668 108.014 18.9459 108.014 19.9267C108.014 20.7567 108.581 21.2095 109.563 21.4359L114.135 22.4921C117.61 23.2843 119.235 25.3594 119.235 28.3021C119.235 31.471 116.704 34.791 110.923 34.791C104.576 34.791 102.498 30.9805 102.271 28.7924Z" fill="#0EE06E"/>
<path d="M129.776 34.4136C126.224 34.4136 123.844 32.4518 123.844 28.5659V19.2099H120.482V14.4186H123.844V9.96687L129.322 8.38241V14.4186H133.365V19.2099H129.322V27.5851C129.322 29.0565 130.078 29.6223 131.551 29.6223H133.667V34.4136H129.776Z" fill="#0EE06E"/>
<path d="M136.653 34.4136V6.87325H142.131V34.4136H136.653Z" fill="#0EE06E"/>
<path d="M158.641 14.4187H164.497L156.148 41.5815H150.291L152.596 34.4137H149.573L144.058 14.4187H149.913L154.032 29.8865L158.641 14.4187Z" fill="#0EE06E"/>
<path d="M-0.49707 18.9317H12.3617V8.68894L22.6192 18.9317L12.3617 29.1728V34.4138H24.8128V18.9317H36.251V6.873H-0.49707V18.9317Z" fill="#0EE06E"/>
</g>
<defs>
<clipPath id="clip0_309_3122">
<rect width="164" height="41" fill="white"/>
</clipPath>
</defs>
</svg>
