<svg width="114" height="71" viewBox="0 0 114 71" fill="none" xmlns="http://www.w3.org/2000/svg">
<g clip-path="url(#clip0_309_3166)">
<path d="M22.2841 0.000488281H50.6855C54.65 0.000488281 57.1159 3.22062 56.191 7.1844L42.9681 63.7562C42.035 67.7061 38.0655 70.929 34.0982 70.929H5.69956C1.74052 70.929 -0.73085 67.7061 0.194011 63.7562L13.4224 7.1844C14.3473 3.22062 18.3146 0.000488281 22.2841 0.000488281Z" fill="#E21836"/>
<path d="M48.3223 0.000488281H80.9832C84.9471 0.000488281 83.1597 3.22062 82.2272 7.1844L69.0064 63.7562C68.0788 67.7061 68.3681 70.929 64.3959 70.929H31.7351C27.7629 70.929 25.3046 67.7061 26.2378 63.7562L39.4579 7.1844C40.3966 3.22062 44.3557 0.000488281 48.3223 0.000488281Z" fill="#00447C"/>
<path d="M79.6877 0.000488281H108.089C112.059 0.000488281 114.525 3.22062 113.593 7.1844L100.372 63.7562C99.4386 67.7061 95.4664 70.929 91.497 70.929H63.1087C59.1365 70.929 56.6728 67.7061 57.6032 63.7562L70.8261 7.1844C71.7509 3.22062 75.7155 0.000488281 79.6877 0.000488281Z" fill="#007B84"/>
<path d="M29.7015 18.1299C26.7808 18.1596 25.9182 18.1299 25.6427 18.0651C25.5368 18.5666 23.5659 27.6261 23.5604 27.6337C23.136 29.4666 22.8273 30.7732 21.7785 31.6168C21.1832 32.1073 20.4881 32.3439 19.6824 32.3439C18.3871 32.3439 17.6326 31.7031 17.5059 30.4876L17.4817 30.0702C17.4817 30.0702 17.8762 27.6151 17.8762 27.6013C17.8762 27.6013 19.9447 19.3454 20.3151 18.2541C20.3345 18.192 20.34 18.1596 20.3449 18.1299C16.3187 18.1651 15.6049 18.1299 15.5558 18.0651C15.5288 18.1541 15.4291 18.6659 15.4291 18.6659L13.317 27.9711L13.1356 28.7602L12.7847 31.3416C12.7847 32.1073 12.9356 32.7323 13.236 33.2607C14.1983 34.9363 16.9431 35.1874 18.4958 35.1874C20.4965 35.1874 22.3732 34.7638 23.6414 33.9905C25.8428 32.6943 26.4188 30.6683 26.9324 28.8678L27.1705 27.9442C27.1705 27.9442 29.3013 19.3695 29.6634 18.2541C29.6772 18.192 29.6828 18.1596 29.7015 18.1299ZM36.9513 25.0471C36.4376 25.0471 35.4989 25.1713 34.6558 25.5831C34.3498 25.7397 34.0604 25.9205 33.7551 26.1005L34.0306 25.1092L33.8797 24.9423C32.0916 25.3031 31.6915 25.3514 30.0398 25.5831L29.9013 25.6749C29.7096 27.2594 29.5393 28.4508 28.8283 31.5654C28.5576 32.7132 28.2766 33.8722 27.9948 35.0173L28.071 35.1628C29.7635 35.0739 30.2772 35.0738 31.7483 35.098L31.8673 34.969C32.0542 34.015 32.0785 33.7915 32.4924 31.8592C32.687 30.9431 33.0926 28.9302 33.2927 28.2135C33.6603 28.0438 34.023 27.8768 34.3692 27.8768C35.1936 27.8768 35.0933 28.5936 35.0614 28.8792C35.0261 29.3586 34.7257 30.9245 34.4176 32.269L34.212 33.1368C34.0687 33.7777 33.9116 34.4006 33.7683 35.0359L33.8306 35.1628C35.4989 35.0739 36.0077 35.0738 37.4324 35.098L37.5999 34.969C37.8575 33.479 37.9329 33.0802 38.3898 30.9107L38.6196 29.9139C39.0662 27.9631 39.2904 26.9738 38.9526 26.1681C38.5954 25.2651 37.7384 25.0471 36.9513 25.0471ZM45.0502 27.0897C44.1634 27.2594 43.5978 27.3725 43.0357 27.4456C42.4785 27.5346 41.935 27.6153 41.078 27.734L41.0102 27.7954L40.9479 27.8443C40.8586 28.4804 40.7963 29.0302 40.6779 29.6765C40.5775 30.345 40.4231 31.1045 40.1718 32.1958C39.9773 33.0312 39.8769 33.3223 39.7662 33.6162C39.6582 33.91 39.5391 34.1956 39.3204 35.0172L39.3716 35.0931L39.4145 35.1628C40.2154 35.1248 40.7395 35.0979 41.2781 35.0931C41.816 35.0738 42.3732 35.0931 43.2358 35.0979L43.3112 35.0365L43.3922 34.9689C43.5168 34.228 43.5355 34.0287 43.6117 33.6672C43.6871 33.2795 43.8173 32.7428 44.1364 31.3094C44.2873 30.6361 44.4555 29.9649 44.612 29.2778C44.7747 28.5935 44.945 27.9195 45.107 27.2463L45.0827 27.1649L45.0502 27.0897ZM45.0691 24.3357C44.2633 23.8618 42.849 24.0122 41.8972 24.6668C40.9481 25.3084 40.8401 26.219 41.6431 26.6991C42.435 27.1599 43.8549 27.0226 44.7984 26.3624C45.7454 25.7071 45.8638 24.8048 45.0691 24.3357ZM49.9423 35.3113C51.5725 35.3113 53.2437 34.8636 54.5015 33.535C55.4693 32.4575 55.913 30.8543 56.0667 30.1941C56.5672 28.006 56.1775 26.9843 55.688 26.3621C54.9445 25.4136 53.6306 25.1094 52.2676 25.1094C51.4479 25.1094 49.4958 25.1901 47.9707 26.5911C46.8756 27.6017 46.3695 28.9731 46.0642 30.2879C45.7562 31.6276 45.4017 34.0392 47.6273 34.9367C48.3141 35.2306 49.304 35.3113 49.9423 35.3113ZM49.8149 30.388C50.1908 28.731 50.6345 27.3403 51.7671 27.3403C52.6545 27.3403 52.7189 28.375 52.3243 30.0375C52.2537 30.4066 51.9297 31.7787 51.4916 32.3629C51.1856 32.7941 50.8235 33.0555 50.4234 33.0555C50.3043 33.0555 49.5961 33.0555 49.5851 32.0077C49.5795 31.4903 49.6854 30.9619 49.8149 30.388ZM60.1421 35.0982L60.2694 34.9692C60.4501 34.0152 60.4799 33.791 60.88 31.8594C61.0801 30.9433 61.494 28.9304 61.6886 28.2137C62.0568 28.0433 62.4134 27.8763 62.7706 27.8763C63.5895 27.8763 63.4898 28.5931 63.4573 28.8787C63.4275 29.3588 63.1271 30.924 62.8135 32.2685L62.619 33.1363C62.4701 33.7779 62.3081 34.4001 62.1648 35.0361L62.2271 35.163C63.901 35.0741 64.3905 35.0741 65.8234 35.0982L65.9965 34.9692C66.2478 33.4785 66.3156 33.0798 66.7864 30.9109L67.0107 29.9134C67.4593 27.9626 67.6863 26.974 67.354 26.1683C66.9864 25.2653 66.1239 25.0473 65.3479 25.0473C64.8335 25.0473 63.8899 25.1708 63.0516 25.5833C62.7519 25.7399 62.4514 25.92 62.1565 26.1007L62.4134 25.1094L62.2756 24.9418C60.4882 25.3033 60.0797 25.3516 58.4301 25.5833L58.3034 25.6751C58.1033 27.2596 57.9407 28.4503 57.2297 31.5656C56.959 32.7135 56.678 33.8724 56.3969 35.0175L56.4724 35.163C58.1677 35.0741 58.6738 35.0741 60.1421 35.0982ZM72.4404 35.1627C72.5456 34.6508 73.1707 31.617 73.1763 31.617C73.1763 31.617 73.7086 29.3909 73.7412 29.3102C73.7412 29.3102 73.9087 29.0784 74.0762 28.9866H74.3227C76.648 28.9866 79.2737 28.9866 81.3318 27.478C82.7323 26.4432 83.6897 24.9152 84.1168 23.0582C84.2275 22.6029 84.3092 22.0614 84.3092 21.5199C84.3092 20.8087 84.1659 20.105 83.752 19.5552C82.7025 18.0921 80.6126 18.0652 78.2 18.0542C78.1924 18.0542 77.0107 18.0652 77.0107 18.0652C73.9225 18.1032 72.6841 18.0921 72.1753 18.03C72.1324 18.2542 72.0514 18.6529 72.0514 18.6529C72.0514 18.6529 70.9451 23.7618 70.9451 23.7701C70.9451 23.7701 68.2979 34.6322 68.1733 35.1441C70.8697 35.1117 71.9752 35.1117 72.4404 35.1627ZM74.4902 26.0873C74.4902 26.0873 75.6664 20.9887 75.6608 21.008L75.6989 20.7466L75.7155 20.5472L76.1855 20.5955C76.1855 20.5955 78.6112 20.8032 78.668 20.8087C79.6254 21.1777 80.02 22.129 79.7445 23.3707C79.4932 24.5055 78.7545 25.4595 77.8054 25.9203C77.0239 26.3108 76.0665 26.3432 75.08 26.3432H74.4417L74.4902 26.0873ZM81.8132 30.4824C81.5024 31.8027 81.1452 34.2144 83.3597 35.0739C84.0658 35.3733 84.6986 35.4623 85.3417 35.4299C86.0208 35.3933 86.65 35.0539 87.2329 34.5655C87.1803 34.7663 87.1277 34.967 87.0751 35.1684L87.1755 35.2974C88.7684 35.2305 89.2626 35.2305 90.9884 35.2436L91.1449 35.125C91.3969 33.6487 91.6343 32.2153 92.2892 29.3911C92.6083 28.0383 92.9268 26.6987 93.2542 25.3514L93.203 25.2031C91.4211 25.5322 90.9448 25.6025 89.2308 25.8447L89.1006 25.9502C89.0833 26.0875 89.0653 26.2192 89.0487 26.351C88.7822 25.9219 88.3959 25.5556 87.7999 25.3273C87.0377 25.0286 85.2475 25.4135 83.7086 26.8097C82.6273 27.8065 82.1081 29.1724 81.8132 30.4824ZM85.5556 30.5631C85.937 28.9358 86.3752 27.5589 87.5105 27.5589C88.2284 27.5589 88.6064 28.2191 88.5295 29.3449C88.4686 29.6256 88.4028 29.9216 88.3246 30.2561C88.2111 30.7397 88.0879 31.2191 87.9681 31.6993C87.8463 32.0276 87.7044 32.3374 87.5486 32.5436C87.2565 32.9561 86.5614 33.2121 86.1613 33.2121C86.0478 33.2121 85.3472 33.2121 85.323 32.1828C85.3174 31.6703 85.4234 31.1426 85.5556 30.5631ZM105.098 25.1899L104.961 25.0333C103.198 25.3893 102.878 25.4459 101.258 25.6638L101.139 25.7825C101.134 25.8018 101.129 25.8315 101.121 25.8584L101.115 25.8315C99.9093 28.6039 99.9446 28.0058 98.9629 30.1885C98.9574 30.0891 98.9574 30.027 98.9519 29.9215L98.7061 25.1899L98.5517 25.0333C96.7048 25.3893 96.6612 25.4459 94.9554 25.6638L94.8225 25.7825C94.8038 25.8391 94.8038 25.9012 94.7928 25.9688L94.8038 25.9929C95.0171 27.0787 94.9658 26.8366 95.1797 28.5501C95.2794 29.391 95.4123 30.2367 95.512 31.0673C95.6802 32.4573 95.7744 33.1416 95.98 35.2629C94.8281 37.1571 94.5553 37.8739 93.4463 39.5364L93.4539 39.5529L92.6731 40.7836C92.5838 40.9133 92.5028 41.0023 92.3892 41.0402C92.2646 41.1016 92.1026 41.1126 91.8777 41.1126H91.445L90.8019 43.2442L93.0081 43.2822C94.3033 43.2766 95.1174 42.673 95.5556 41.8618L96.9429 39.4929H96.9208L97.0668 39.326C98 37.3241 105.098 25.1899 105.098 25.1899ZM81.8131 53.185H80.8772L84.3413 41.7676H85.4904L85.8553 40.5915L85.8906 41.8994C85.8476 42.7079 86.4859 43.4246 88.1626 43.306H90.1016L90.7689 41.1075H90.0393C89.6198 41.1075 89.4252 41.0019 89.4495 40.7757L89.4142 39.445H85.8234V39.4519C84.6625 39.476 81.1956 39.5629 80.4937 39.7492C79.6443 39.9672 78.7492 40.6087 78.7492 40.6087L79.1009 39.4312H75.742L75.0421 41.7676L71.5317 53.3596H70.8505L70.1825 55.5422H76.8725L76.6482 56.27H79.9447L80.1635 55.5422H81.0883L81.8131 53.185ZM79.0683 44.0875C78.5304 44.2359 77.5294 44.6856 77.5294 44.6856L78.4197 41.7676H81.0883L80.4445 43.8937C80.4445 43.8937 79.6201 43.942 79.0683 44.0875ZM79.1196 48.2562C79.1196 48.2562 78.2812 48.3611 77.7295 48.4852C77.1861 48.6494 76.1671 49.1668 76.1671 49.1668L77.0864 46.1301H79.7689L79.1196 48.2562ZM77.6243 53.2119H74.9473L75.7233 50.6492H78.392L77.6243 53.2119ZM84.071 46.1301H87.9297L87.3752 47.9196H83.4653L82.8783 49.8759H86.2994L83.709 53.5107C83.5276 53.7776 83.3649 53.8721 83.1842 53.9473C83.0029 54.0391 82.7647 54.1467 82.4892 54.1467H81.5401L80.888 56.2893H83.3705C84.6608 56.2893 85.423 55.7043 85.9858 54.9365L87.7622 52.5138L88.1436 54.9738C88.2246 55.4346 88.5569 55.7043 88.7819 55.8092C89.0304 55.9333 89.2872 56.1465 89.65 56.1782C90.039 56.1948 90.3201 56.2079 90.507 56.2079H91.7267L92.4592 53.81H91.978C91.7018 53.81 91.2262 53.7638 91.1452 53.6776C91.0642 53.5727 91.0642 53.4113 91.0206 53.1657L90.6337 50.7003H89.0491L89.7441 49.8759H93.6464L94.2466 47.9196H90.6337L91.1965 46.1301H94.7983L95.4663 43.9234H84.728L84.071 46.1301ZM51.4806 53.7102L52.3812 50.7246H56.0828L56.7591 48.5041H53.0541L53.6197 46.6663H57.2402L57.911 44.5161H48.8521L48.1951 46.6663H50.2532L49.7043 48.5041H47.6406L46.9567 50.7626H49.0141L47.8137 54.7125C47.6517 55.2354 47.8899 55.4348 48.0408 55.6776C48.1951 55.9142 48.3516 56.0708 48.7033 56.1598C49.066 56.2405 49.3145 56.2888 49.6524 56.2888H53.8253L54.5688 53.8289L52.7191 54.082C52.3619 54.082 51.3726 54.0393 51.4806 53.7102ZM51.9052 39.4177L50.9672 41.1071C50.7664 41.4762 50.5857 41.7052 50.423 41.8108C50.2797 41.8997 49.9959 41.937 49.5847 41.937H49.0953L48.4411 44.0982H50.0665C50.8481 44.0982 51.4483 43.8126 51.7349 43.6698C52.0429 43.5057 52.1239 43.5995 52.3621 43.3705L52.911 42.8965H57.9867L58.6603 40.6463H54.9449L55.5935 39.4177H51.9052ZM59.3985 53.7536C59.312 53.6294 59.3743 53.4108 59.5065 52.9555L60.8938 48.3798H65.8289C66.5482 48.3695 67.0674 48.3612 67.4052 48.337C67.7679 48.2991 68.1625 48.1701 68.5924 47.9383C69.0361 47.6955 69.2632 47.4396 69.455 47.1457C69.6689 46.8525 70.0122 46.211 70.3071 45.2218L72.0509 39.4313L66.9296 39.461C66.9296 39.461 65.3526 39.6928 64.6583 39.9487C63.9577 40.2343 62.9567 41.0317 62.9567 41.0317L63.4191 39.4444H60.2555L55.8264 54.082C55.6693 54.6504 55.5641 55.0629 55.5398 55.3106C55.5315 55.5775 55.8777 55.8417 56.1019 56.0411C56.3671 56.2405 56.7589 56.208 57.1348 56.2405C57.5301 56.2701 58.0922 56.2887 58.8682 56.2887H61.2994L62.0457 53.7777L59.8692 53.9826C59.6366 53.9826 59.4684 53.8585 59.3985 53.7536ZM61.7889 45.2894H66.9725L66.643 46.3186C66.5966 46.3427 66.4859 46.2676 65.9584 46.3296H61.4697L61.7889 45.2894ZM62.8273 41.8374H68.0545L67.6786 43.0771C67.6786 43.0771 65.2149 43.0529 64.8203 43.1254C63.0841 43.4248 62.0699 44.3491 62.0699 44.3491L62.8273 41.8374ZM66.759 49.7652C66.7161 49.919 66.6483 50.0129 66.5534 50.0832C66.4482 50.1508 66.2779 50.175 66.0238 50.175H65.2852L65.3288 48.9215H62.2566L62.132 55.0493C62.1271 55.4915 62.17 55.7474 62.4947 55.9523C62.8194 56.2082 63.8197 56.2407 65.1661 56.2407H67.0913L67.7863 53.947L66.1104 54.0387L65.5531 54.0711C65.477 54.0387 65.4043 54.0091 65.3233 53.9283C65.2527 53.8587 65.1336 53.9014 65.153 53.4593L65.1661 51.8885L66.9238 51.8161C67.8729 51.8161 68.2785 51.5084 68.6247 51.2152C68.9549 50.9345 69.0629 50.6116 69.1875 50.175L69.4824 48.7843H67.0671L66.759 49.7652Z" fill="#FEFEFE"/>
</g>
<defs>
<clipPath id="clip0_309_3166">
<rect width="114" height="71" fill="white"/>
</clipPath>
</defs>
</svg>
