<svg width="65" height="74" viewBox="0 0 65 74" fill="none" xmlns="http://www.w3.org/2000/svg">
<path d="M64.7141 51.162V17.0533L35.1737 0V13.095L46.7466 19.7955C47.2037 20.0996 47.2037 20.7096 46.7466 20.8606L33.0416 28.7792C32.5845 29.0833 32.1275 28.9322 31.8235 28.7792L18.1184 20.8606C17.6614 20.7076 17.6614 19.9466 18.1184 19.7955L29.6913 13.095V0L0 17.0533V51.162L11.2669 44.6145V31.2154C11.2669 30.7584 11.8769 30.4544 12.181 30.6054L25.886 38.524C26.3431 38.828 26.4961 39.134 26.4961 39.5891V55.4243C26.4961 55.8814 25.886 56.1854 25.582 56.0344L14.0091 49.3339L2.7422 55.8814L32.2825 73.0877L61.8228 56.0344L50.5559 49.4869L38.983 56.1874C38.526 56.4914 38.069 56.1874 38.069 55.5773V39.7421C38.069 39.2851 38.373 38.828 38.679 38.677L52.3841 30.7584C52.8411 30.4544 53.2981 30.7584 53.2981 31.3684V44.7675L64.718 51.162H64.7141Z" fill="#4C4C4C"/>
<path d="M32.2808 73.0896L61.8211 56.0362L50.5542 49.4887L38.9813 56.1892C38.5242 56.4933 38.0672 56.1893 38.0672 55.5792V39.744C38.0672 39.2869 38.3712 38.8299 38.6773 38.6789L52.3823 30.7603C52.8393 30.4562 53.2964 30.7603 53.2964 31.3703V44.7694L64.5633 51.3169V17.0532L32.2828 35.7817V73.0876L32.2808 73.0896Z" fill="black"/>
<path d="M35.1737 0V13.095L46.7466 19.7955C47.2037 20.0996 47.2037 20.7096 46.7466 20.8606L33.0416 28.7792C32.5845 29.0833 32.1275 28.9322 31.8235 28.7792L18.1184 20.8606C17.6614 20.7076 17.6614 19.9466 18.1184 19.7955L29.6913 13.095V0L0 17.0533L32.2805 35.7818L64.561 17.0533L35.1737 0Z" fill="#808080"/>
<path d="M25.733 56.1873L14.1601 49.4867L2.89322 56.0343L32.4335 73.0876V35.7817L0 17.0532V51.1619L11.2669 44.6144V31.2153C11.2669 30.7583 11.8769 30.4543 12.181 30.6053L25.886 38.5239C26.3431 38.8279 26.4961 39.1339 26.4961 39.589V55.4242C26.6491 56.0343 26.192 56.4893 25.735 56.1853L25.733 56.1873Z" fill="#4C4C4C"/>
</svg>
