<svg width="70" height="69" viewBox="0 0 70 69" fill="none" xmlns="http://www.w3.org/2000/svg">
<circle cx="35" cy="34.5" r="34.5" fill="black"/>
<path fill-rule="evenodd" clip-rule="evenodd" d="M54.5562 38.8398C54.0117 41.4928 51.5876 48.2973 43.8618 51.9832L40.7614 48.4616L35.5295 53.7753C32.5506 53.7349 29.6212 52.9995 26.9704 51.6266C24.3195 50.2538 22.019 48.2807 20.2485 45.8615C20.8051 46.0363 21.38 46.1453 21.9615 46.1863C22.818 46.2019 23.7461 45.885 23.7461 44.4255V30.0945C23.759 29.7258 23.6859 29.3591 23.5329 29.024C23.3799 28.6889 23.1511 28.3947 22.8651 28.165C22.579 27.9354 22.2436 27.7767 21.8858 27.7017C21.5279 27.6267 21.1576 27.6374 20.8047 27.7331C18.3825 28.2927 16.4447 34.3987 16.4447 34.3987C16.4178 31.579 16.9995 28.7872 18.1493 26.2174C19.2991 23.6476 20.9894 21.3615 23.1028 19.518C26.7109 16.4307 30.2356 15.3625 32.9136 14.9438C30.2686 16.466 28.7804 18.9506 28.7804 21.0362C28.7804 24.3798 30.7801 23.9846 31.3731 23.4915V42.8447C31.4733 43.0878 31.6035 43.3172 31.7606 43.5275C32.0255 43.8973 32.3744 44.1976 32.778 44.4032C33.1816 44.6089 33.6281 44.7138 34.0801 44.7092C36.0837 44.7092 38.6822 42.4006 38.6822 42.4006V26.7295C38.6822 25.135 37.4925 23.2079 36.3008 22.5505C36.3008 22.5505 38.5059 22.1592 40.2111 23.472C40.5309 23.0766 40.8711 22.6984 41.2304 22.3392C45.195 18.4068 48.9368 17.2916 52.0526 16.732C52.0526 16.732 46.3809 21.2319 46.3809 27.2577C46.3809 31.7438 46.4952 42.6823 46.4952 42.6823C48.6054 44.7287 51.731 41.7745 54.5562 38.8398Z" fill="white"/>
<path fill-rule="evenodd" clip-rule="evenodd" d="M35.498 3C29.169 3.00039 22.9823 4.87754 17.7201 8.39406C12.458 11.9106 8.35676 16.9086 5.93512 22.7559C3.51347 28.6033 2.88016 35.0375 4.11527 41.2448C5.35038 47.4521 8.39843 53.1538 12.874 57.6288C17.3495 62.1038 23.0516 65.1512 29.259 66.3855C35.4665 67.6198 41.9006 66.9857 47.7477 64.5634C53.5948 62.141 58.5922 58.0392 62.1081 52.7766C65.624 47.514 67.5004 41.327 67.5 34.998C67.5 30.7957 66.6722 26.6344 65.0639 22.752C63.4556 18.8696 61.0983 15.342 58.1266 12.3706C55.1549 9.39928 51.627 7.0424 47.7444 5.43458C43.8617 3.82676 39.7004 2.99948 35.498 3ZM35.498 65.7186C29.422 65.719 23.4823 63.9176 18.4301 60.5422C13.3779 57.1668 9.44003 52.369 7.11456 46.7556C4.7891 41.1422 4.18045 34.9653 5.36559 29.006C6.55073 23.0466 9.47642 17.5726 13.7727 13.276C18.069 8.97948 23.5428 6.05344 29.5021 4.86792C35.4613 3.6824 41.6383 4.29066 47.2519 6.61576C52.8654 8.94087 57.6634 12.8784 61.0391 17.9304C64.4148 22.9824 66.2166 28.922 66.2166 34.998C66.2166 43.1453 62.9803 50.9589 57.2195 56.72C51.4587 62.4812 43.6453 65.7181 35.498 65.7186Z" fill="white"/>
</svg>
