<svg width="150" height="53" viewBox="0 0 150 53" fill="none" xmlns="http://www.w3.org/2000/svg">
<g clip-path="url(#clip0_309_3172)">
<mask id="mask0_309_3172" style="mask-type:luminance" maskUnits="userSpaceOnUse" x="-13" y="-18" width="176" height="89">
<path d="M-12.5552 -17.2859H162.564V70.2852H-12.5552V-17.2859Z" fill="white"/>
</mask>
<g mask="url(#mask0_309_3172)">
<path d="M1.21781 45.527H2.34067L1.29726 49.8857C1.14241 50.5323 1.17159 51.0192 1.38563 51.344C1.59885 51.6691 1.99571 51.8317 2.57579 51.8317C3.15222 51.8317 3.62488 51.6691 3.99417 51.344C4.36386 51.0192 4.62614 50.5323 4.78099 49.8857L5.824 45.527H6.96146L5.8925 49.9935C5.66023 50.9641 5.24635 51.6906 4.6537 52.1722C4.06065 52.6547 3.28315 52.8955 2.32122 52.8955C1.35847 52.8955 0.698126 52.6551 0.338565 52.1747C-0.0214015 51.6947 -0.0842335 50.9673 0.148853 49.9935L1.21781 45.527Z" fill="#696A6A"/>
<path d="M6.81055 52.7046L8.5966 45.2428L11.9903 49.6307C12.0811 49.7544 12.1727 49.887 12.2631 50.0276C12.3535 50.1683 12.446 50.3264 12.5408 50.5032L13.7322 45.5271H14.7833L12.9985 52.9832L9.5334 48.517C9.44057 48.3966 9.35423 48.2693 9.27356 48.1351C9.19208 48.0009 9.11871 47.8602 9.05142 47.7135L7.8568 52.7046H6.81055Z" fill="#696A6A"/>
<path d="M14.6904 52.7046L16.4084 45.527H17.545L15.8275 52.7046H14.6904Z" fill="#696A6A"/>
<path d="M17.4619 52.7046L19.1799 45.527H23.0835L22.8464 46.517H20.0798L19.6513 48.3066H22.4179L22.1731 49.3311H19.4061L18.599 52.7046H17.4619Z" fill="#696A6A"/>
<path d="M22.6182 52.7046L24.3361 45.527H25.4728L23.7552 52.7046H22.6182Z" fill="#696A6A"/>
<path d="M25.3896 52.7046L27.1076 45.527H31.0113L30.7741 46.517H28.0075L27.5766 48.3163H30.3432L30.0984 49.3412H27.3318L26.7764 51.6602H29.543L29.2933 52.7046H25.3896Z" fill="#696A6A"/>
<path d="M31.9873 51.6503H32.9432C33.4686 51.6503 33.8715 51.6143 34.1516 51.5425C34.4317 51.4707 34.6887 51.3495 34.9242 51.1796C35.2441 50.9481 35.5112 50.6595 35.726 50.3145C35.9405 49.9699 36.103 49.5681 36.2125 49.1104C36.3215 48.6526 36.3515 48.2521 36.3021 47.9079C36.2522 47.5625 36.1233 47.2742 35.9145 47.0419C35.7577 46.8724 35.5505 46.7508 35.2919 46.6787C35.0329 46.6073 34.6113 46.5712 34.0251 46.5712H33.6141H33.203L31.9873 51.6503ZM30.5981 52.7048L32.3161 45.5268H33.8496C34.8468 45.5268 35.5359 45.5779 35.9178 45.6809C36.2988 45.7843 36.6138 45.957 36.8615 46.1986C37.1902 46.5157 37.3994 46.9227 37.4894 47.419C37.579 47.916 37.5474 48.4832 37.3949 49.1205C37.2425 49.7578 37.003 50.3226 36.6762 50.8144C36.3503 51.3065 35.9462 51.7124 35.4654 52.0326C35.1018 52.2747 34.7118 52.447 34.2975 52.5504C33.882 52.6529 33.2626 52.7048 32.4373 52.7048H32.1312H30.5981Z" fill="#696A6A"/>
<path d="M42.9316 48.5278H43.2235C43.8538 48.5278 44.2912 48.4568 44.5352 48.3166C44.7797 48.1763 44.9439 47.9278 45.029 47.5714C45.1206 47.1891 45.0732 46.9191 44.8859 46.7626C44.6986 46.6057 44.3046 46.5266 43.7026 46.5266H43.4108L42.9316 48.5278ZM42.6312 49.483L41.8602 52.7048H40.7949L42.5133 45.5273H44.2332C44.7428 45.5273 45.1113 45.5556 45.3383 45.6128C45.5645 45.6696 45.7513 45.764 45.8989 45.895C46.0785 46.0616 46.1964 46.2862 46.2532 46.5688C46.3095 46.8518 46.2974 47.1631 46.2163 47.5025C46.1344 47.8426 45.9974 48.1564 45.8045 48.4443C45.6115 48.7317 45.3853 48.9575 45.1267 49.1205C44.9167 49.2515 44.6852 49.3447 44.4315 49.3998C44.1773 49.4558 43.7959 49.483 43.2863 49.483H43.0621H42.6312Z" fill="#696A6A"/>
<path d="M47.6199 49.8857H49.5693L49.2438 48.2478C49.2284 48.1436 49.2138 48.0236 49.2013 47.8878C49.1895 47.752 49.1814 47.6007 49.1761 47.4341C49.1007 47.591 49.0249 47.7374 48.9491 47.8732C48.8737 48.0086 48.8004 48.1335 48.7282 48.2478L47.6199 49.8857ZM50.0894 52.7046L49.738 50.8563H46.9665L45.7119 52.7046H44.5181L49.691 45.2428L51.2885 52.7046H50.0894Z" fill="#696A6A"/>
<path d="M52.9183 52.7046L53.7039 49.4195L52.2803 45.527H53.4749L54.3586 47.9636C54.3789 48.026 54.4032 48.1075 54.4312 48.2089C54.4595 48.3102 54.4871 48.4193 54.513 48.5373C54.5844 48.4229 54.6578 48.3143 54.7311 48.2133C54.8045 48.112 54.8787 48.0191 54.9537 47.934L57.0344 45.527H58.1719L54.8317 49.4195L54.0456 52.7046H52.9183Z" fill="#696A6A"/>
<path d="M63.7673 49.1597C63.7677 49.1041 63.784 48.9509 63.8156 48.6991C63.8399 48.4899 63.8589 48.3164 63.8727 48.179C63.805 48.3427 63.7252 48.5065 63.6336 48.6695C63.5415 48.8329 63.4362 48.9995 63.3158 49.1698L60.5702 52.9941L59.6743 49.0916C59.6362 48.931 59.607 48.7757 59.5876 48.6257C59.5681 48.4753 59.5548 48.3265 59.5483 48.179C59.5094 48.3298 59.4599 48.4871 59.3995 48.6525C59.3391 48.8175 59.2669 48.9902 59.1822 49.1698L57.5859 52.7047H56.54L59.9836 45.2226L60.9638 49.7532C60.978 49.825 60.9987 49.9446 61.0238 50.1112C61.0489 50.2778 61.0785 50.4838 61.113 50.7286C61.2289 50.5227 61.3959 50.2616 61.6156 49.9446C61.674 49.8594 61.7186 49.7941 61.7486 49.7483L64.8485 45.2226L64.7491 52.7047H63.6927L63.7673 49.1597Z" fill="#696A6A"/>
<path d="M65.6572 52.7046L67.3756 45.527H71.2793L71.0421 46.517H68.2751L67.8446 48.3163H70.6112L70.3664 49.3412H67.5993L67.0444 51.6602H69.811L69.5605 52.7046H65.6572Z" fill="#696A6A"/>
<path d="M70.8657 52.7046L72.6518 45.2428L76.0455 49.6307C76.1363 49.7544 76.2279 49.887 76.3183 50.0276C76.4087 50.1683 76.5011 50.3264 76.596 50.5032L77.7874 45.5271H78.8389L77.0537 52.9832L73.5886 48.517C73.4957 48.3966 73.4094 48.2693 73.3287 48.1351C73.2473 48.0009 73.1739 47.8602 73.1066 47.7135L71.912 52.7046H70.8657Z" fill="#696A6A"/>
<path d="M82.4673 46.5173L80.9865 52.7048H79.8494L81.3298 46.5173H79.4712L79.7083 45.5273H84.5533L84.3165 46.5173H82.4673Z" fill="#696A6A"/>
<path d="M83.6472 51.268L84.6582 50.837C84.6683 51.1569 84.7673 51.4014 84.9562 51.5696C85.1451 51.7383 85.4179 51.8222 85.7754 51.8222C86.1127 51.8222 86.4045 51.7257 86.6494 51.5327C86.8946 51.3402 87.0564 51.0819 87.1338 50.7584C87.2347 50.3363 86.983 49.9605 86.381 49.6309C86.2967 49.5818 86.2318 49.5458 86.1873 49.5226C85.5083 49.1371 85.0778 48.788 84.8962 48.4758C84.715 48.1637 84.6777 47.7822 84.7855 47.3313C84.9253 46.7463 85.2326 46.2724 85.7065 45.9095C86.1804 45.5467 86.7309 45.3651 87.3588 45.3651C87.8748 45.3651 88.2822 45.4672 88.5801 45.6715C88.8785 45.8763 89.0487 46.1694 89.0909 46.5517L88.09 47.0224C88.0033 46.797 87.889 46.632 87.7471 46.527C87.6048 46.4224 87.4248 46.3701 87.2088 46.3701C86.9031 46.3701 86.6405 46.4524 86.4212 46.615C86.2031 46.7788 86.06 46.9977 85.9939 47.2726C85.8909 47.7039 86.1897 48.1057 86.8906 48.4783C86.9445 48.5075 86.9866 48.531 87.017 48.5472C87.6304 48.8736 88.0292 49.1934 88.2121 49.5056C88.3953 49.8182 88.4314 50.2078 88.3191 50.6749C88.1565 51.3552 87.8189 51.8952 87.3057 52.2953C86.7925 52.6955 86.1804 52.8958 85.4706 52.8958C84.8743 52.8958 84.4199 52.7555 84.1069 52.4741C83.7932 52.1932 83.6399 51.7914 83.6472 51.268Z" fill="#696A6A"/>
<path d="M92.0483 52.7046L93.7663 45.527H94.9033L93.1854 52.7046H92.0483Z" fill="#696A6A"/>
<path d="M94.8198 52.7046L96.6059 45.2428L99.9996 49.6307C100.09 49.7544 100.182 49.887 100.272 50.0276C100.363 50.1683 100.455 50.3264 100.55 50.5032L101.741 45.5271H102.793L101.008 52.9832L97.5427 48.517C97.4498 48.3966 97.3631 48.2693 97.2824 48.1351C97.2014 48.0009 97.1276 47.8602 97.0603 47.7135L95.8661 52.7046H94.8198Z" fill="#696A6A"/>
<path d="M106.421 46.5173L104.94 52.7048H103.803L105.283 46.5173H103.425L103.662 45.5273H108.507L108.27 46.5173H106.421Z" fill="#696A6A"/>
<path d="M107.659 52.7046L109.377 45.527H113.28L113.044 46.517H110.277L109.846 48.3163H112.613L112.367 49.3412H109.601L109.046 51.6602H111.812L111.562 52.7046H107.659Z" fill="#696A6A"/>
<path d="M114.99 48.5859H115.196C115.798 48.5859 116.215 48.5146 116.447 48.3706C116.678 48.2267 116.839 47.9721 116.926 47.6056C117.021 47.2103 116.982 46.9314 116.808 46.77C116.635 46.6075 116.262 46.5268 115.689 46.5268H115.483L114.99 48.5859ZM114.701 49.4928L113.932 52.7046H112.867L114.586 45.527H116.172C116.637 45.527 116.99 45.5578 117.231 45.6203C117.473 45.6823 117.668 45.7849 117.815 45.9292C117.99 46.1019 118.103 46.3265 118.156 46.601C118.207 46.875 118.194 47.1759 118.116 47.5022C117.979 48.0775 117.736 48.5279 117.387 48.8535C117.038 49.1782 116.592 49.3741 116.047 49.4389L117.674 52.7046H116.389L114.83 49.4928H114.701Z" fill="#696A6A"/>
<path d="M118.349 52.7046L120.067 45.527H123.97L123.734 46.517H120.966L120.538 48.3066H123.305L123.06 49.3311H120.293L119.486 52.7046H118.349Z" fill="#696A6A"/>
<path d="M125.288 49.8857H127.238L126.912 48.2478C126.896 48.1436 126.882 48.0236 126.87 47.8878C126.858 47.752 126.85 47.6007 126.845 47.4341C126.769 47.591 126.693 47.7374 126.618 47.8732C126.542 48.0086 126.468 48.1335 126.396 48.2478L125.288 49.8857ZM127.758 52.7046L127.406 50.8563H124.635L123.38 52.7046H122.186L127.359 45.2428L128.957 52.7046H127.758Z" fill="#696A6A"/>
<path d="M136.359 47.2723C136.104 46.9914 135.815 46.7805 135.49 46.6399C135.166 46.5 134.806 46.429 134.41 46.429C133.646 46.429 132.964 46.6808 132.364 47.1839C131.764 47.6875 131.368 48.3394 131.176 49.1405C130.991 49.9153 131.072 50.5538 131.418 51.0569C131.764 51.5605 132.293 51.8126 133.003 51.8126C133.417 51.8126 133.829 51.7372 134.239 51.5868C134.65 51.4364 135.063 51.2094 135.48 50.9049L135.164 52.2241C134.804 52.4495 134.431 52.6182 134.045 52.7289C133.658 52.84 133.255 52.8955 132.834 52.8955C132.299 52.8955 131.826 52.8059 131.415 52.6259C131.004 52.4463 130.668 52.182 130.408 51.8317C130.15 51.4887 129.984 51.0845 129.913 50.6183C129.841 50.1528 129.868 49.6566 129.994 49.13C130.12 48.6041 130.33 48.1099 130.624 47.6473C130.917 47.1847 131.28 46.7785 131.711 46.429C132.143 46.0759 132.605 45.8091 133.097 45.6271C133.59 45.4463 134.097 45.3551 134.62 45.3551C135.031 45.3551 135.408 45.4167 135.751 45.5395C136.095 45.6616 136.412 45.8469 136.703 46.0962L136.359 47.2723Z" fill="#696A6A"/>
<path d="M136.469 52.7046L138.187 45.527H142.09L141.853 46.517H139.087L138.656 48.3163H141.423L141.177 49.3412H138.411L137.856 51.6602H140.623L140.372 52.7046H136.469Z" fill="#696A6A"/>
<path d="M115.728 39.2725H107.912L118.783 0.00537491H126.6L115.728 39.2725Z" fill="#66686C"/>
<path d="M111.671 1.24657C111.129 0.499378 110.293 0.122334 109.157 0.122334H66.1738L64.0448 7.81318H71.866V7.80872H103.148L100.872 16.0274H69.5894L69.5923 16.0104H61.7744L55.2856 39.4385H63.1076L67.4621 23.7138H102.626C103.724 23.7138 104.758 23.3392 105.73 22.59C106.7 21.8399 107.338 20.9152 107.645 19.8108L111.999 4.0829C112.316 2.94164 112.207 1.99457 111.671 1.24657Z" fill="#66686C"/>
<path d="M50.7308 36.8213C50.2991 38.3761 48.8835 39.4517 47.2698 39.4517H6.93935C5.8404 39.4517 5.02358 39.0771 4.48647 38.3286C3.94976 37.5794 3.83464 36.6526 4.1415 35.5487L13.9822 0.120113H21.8062L13.0166 31.7632H44.3134L53.103 0.120113H60.9254L50.7308 36.8213Z" fill="#66686C"/>
<path d="M140.101 0.0788078L149.997 19.7632L129.193 39.4424L140.101 0.0788078Z" fill="#27803B"/>
<path d="M133.163 0.0788078L143.052 19.7632L122.239 39.4424L133.163 0.0788078Z" fill="#E9661C"/>
</g>
</g>
<defs>
<clipPath id="clip0_309_3172">
<rect width="150" height="53" fill="white"/>
</clipPath>
</defs>
</svg>
