<svg width="85" height="62" viewBox="0 0 85 62" fill="none" xmlns="http://www.w3.org/2000/svg">
<path d="M20.8031 60.7165C20.1657 60.7606 19.512 60.7839 18.8629 60.7839C13.4462 60.7839 9.19465 59.1685 6.22483 55.982C3.24101 52.7838 1.73042 48.1908 1.73042 42.3282C1.73042 42.2122 1.73742 41.9754 1.76777 41.502C1.77478 41.3952 1.77945 41.2977 1.78645 41.2095H13.012C13.1451 44.7767 13.5677 47.2972 14.3054 48.9033C15.146 50.7344 16.5118 51.6628 18.3633 51.6628C20.2147 51.6628 21.5899 50.8273 22.5145 49.1795C23.3877 47.6245 23.8102 45.4336 23.8102 42.4814C23.8102 39.318 23.0071 36.9925 21.4218 35.5698C19.8552 34.1657 17.2916 33.4532 13.7988 33.4532C13.2431 33.4532 12.8345 33.4601 12.5497 33.4717C12.5123 33.4717 12.475 33.4764 12.4376 33.4764L12.4049 25.4485H13.0633C16.4768 25.4485 18.989 24.7568 20.5299 23.3898C22.0895 22.0066 22.881 19.7391 22.881 16.65C22.881 14.6192 22.5098 13.0109 21.779 11.8643C20.9922 10.632 19.8412 10.0053 18.3609 10.0053C16.5772 10.0053 15.2837 10.7271 14.5132 12.1521C13.8455 13.3892 13.4532 15.4942 13.3225 18.5763H2.3468V18.4185C2.3468 13.0225 3.84338 8.76364 6.79218 5.7581C9.46314 3.03571 13.1194 1.52714 17.6558 1.27416C17.7212 1.26952 17.7842 1.25792 17.8426 1.23471H23.5558C23.5978 1.23471 23.6375 1.23007 23.6748 1.2231H25.2578V0H23.5558C23.5137 0 23.474 0.00464176 23.4367 0.0116044H17.6255C17.5344 0.0116044 17.448 0.0301714 17.371 0.0673055C12.6174 0.375983 8.76505 2.00292 5.91664 4.90634C2.73203 8.14629 1.11871 12.6952 1.11871 18.4185V19.1867C1.11871 19.5232 1.39421 19.7971 1.73275 19.7971H13.9132C14.2447 19.7971 14.5179 19.5348 14.5272 19.2053C14.6276 16.035 14.9849 13.858 15.5942 12.73C16.1406 11.7181 17.0464 11.2261 18.3586 11.2261C19.4046 11.2261 20.1844 11.6485 20.74 12.5165C21.3447 13.4634 21.6506 14.8536 21.6506 16.65C21.6506 19.3747 20.9969 21.3359 19.7104 22.4777C18.4029 23.6382 16.1662 24.2253 13.0633 24.2253H11.7862C11.6228 24.2253 11.4664 24.2903 11.3496 24.4041C11.2352 24.5201 11.1699 24.6756 11.1699 24.8381L11.2095 34.1402C11.2095 34.3142 11.2843 34.479 11.415 34.5927C11.5458 34.7088 11.7185 34.7621 11.8913 34.7436C12.1084 34.7204 12.3489 34.7018 12.6081 34.6879C12.8696 34.6763 13.2688 34.6693 13.7988 34.6693C16.9764 34.6693 19.2645 35.2751 20.5976 36.4726C21.9121 37.654 22.5798 39.6731 22.5798 42.4768C22.5798 45.2804 22.1969 47.2299 21.4381 48.5807C20.7377 49.8293 19.7314 50.4374 18.3586 50.4374C16.9857 50.4374 16.0495 49.769 15.4191 48.3927C14.721 46.8725 14.3171 44.2429 14.2167 40.5783C14.2074 40.2464 13.9365 39.9841 13.6027 39.9841H1.19109C0.852549 39.9841 0.577047 40.258 0.577047 40.5945C0.577047 40.757 0.565373 41.0262 0.539691 41.4184C0.514009 41.8246 0.5 42.1286 0.5 42.3236C0.5 48.5018 2.12266 53.3756 5.32361 56.8059C8.53624 60.2524 13.0914 62 18.8629 62C19.533 62 20.2077 61.9768 20.8684 61.9327H84.5V60.7119H20.8474C20.8334 60.7119 20.8194 60.7119 20.8054 60.7119L20.8031 60.7165Z" fill="#ED8406"/>
</svg>
