<svg width="99" height="73" viewBox="0 0 99 73" fill="none" xmlns="http://www.w3.org/2000/svg">
<path d="M16.043 23.2428C16.043 22.8459 15.7218 22.5228 15.3271 22.5228H1.93453V13.1025H1.99986C7.19902 13.1025 11.4264 12.0841 14.5622 10.0774C17.5973 8.13636 19.6879 5.23716 20.7876 1.45644H27.8514C27.9004 1.45644 27.9466 1.45097 27.9902 1.44275H32.8736V0H27.8514C27.8024 0 27.7561 0.00547534 27.7125 0.0136884H20.2432C19.9165 0.0136884 19.6334 0.23544 19.5491 0.550272C18.5909 4.23244 16.6528 7.0276 13.7919 8.8591C10.8901 10.718 6.92137 11.657 1.99714 11.657H1.2159C0.821204 11.657 0.5 11.98 0.5 12.377V23.2374C0.5 23.6343 0.821204 23.9574 1.2159 23.9574H14.6085V72.28C14.6085 72.6797 14.9297 73 15.3244 73H98.5V71.5573H16.043V23.2428Z" fill="#49A1E2"/>
</svg>
