<svg width="105" height="73" viewBox="0 0 105 73" fill="none" xmlns="http://www.w3.org/2000/svg">
<path d="M26.1848 16.4143L13.5617 44.9986C13.4648 45.2166 13.4831 45.4724 13.6089 45.6743C13.7347 45.8762 13.9547 46 14.1879 46H26.8109C27.1908 46 27.5 45.6823 27.5 45.292V16.7077C27.5 16.3739 27.2721 16.0859 26.955 16.0159C26.6406 15.9459 26.3158 16.1128 26.1822 16.4143H26.1848ZM26.1245 44.584H15.2595L26.1245 19.984V44.584Z" fill="#AE51E5"/>
<path d="M25.8698 58.3891C25.8698 57.9924 25.5468 57.6696 25.1499 57.6696H1.93969V44.8669L24.5505 1.43894H37.9375V0H24.1126C23.8444 0 23.598 0.147723 23.4721 0.388458L0.582112 44.3581C0.527371 44.462 0.5 44.5742 0.5 44.6891V58.3891C0.5 58.7885 0.822973 59.1085 1.21985 59.1085H24.4274V72.2805C24.4274 72.6772 24.7503 73 25.1472 73H104.5V71.5611H25.8698V58.3891Z" fill="#AE51E5"/>
</svg>
