<svg width="88" height="63" viewBox="0 0 88 63" fill="none" xmlns="http://www.w3.org/2000/svg">
<path d="M26.3914 38.1755C21.2032 42.9483 17.8899 46.9811 16.5458 50.1623C16.4664 50.3507 16.4912 50.5648 16.6127 50.7324C16.7342 50.8999 16.9376 51 17.1534 51H26.8478C27.2074 51 27.5 50.7254 27.5 50.388V38.613C27.5 38.3663 27.3438 38.1429 27.1007 38.0475C26.8577 37.9521 26.5774 38.0033 26.3914 38.1755ZM26.1955 49.776H18.1528C19.5094 47.1254 22.2076 43.8745 26.1955 40.0883V49.776Z" fill="#EA231C"/>
<path d="M37.362 61.7625H1.73531V61.3877C1.73531 59.1107 1.98895 56.8337 2.49387 54.6203C2.99645 52.4045 3.79024 50.1369 4.85176 47.8764C7.00533 43.1621 10.4459 38.3888 15.0748 33.691L16.5801 32.1777C16.5801 32.1777 16.5942 32.1612 16.6013 32.1541L16.9465 31.7699C22.1907 26.2376 24.8492 21.2876 24.8492 17.0565C24.8492 15.0482 24.4359 13.4641 23.6186 12.3516C22.759 11.18 21.5237 10.5884 19.9502 10.5884C17.7591 10.5884 16.141 11.5289 15.1452 13.3816C14.2011 15.1354 13.7432 17.8084 13.7432 21.5563V22.0089H2.2919V20.9976C2.2919 14.6097 3.85835 9.66203 6.94662 6.29599C10.0208 2.94174 14.5299 1.23987 20.3471 1.23987C20.9812 1.23987 21.6153 1.26108 22.2306 1.30587C22.2447 1.30587 22.2588 1.30587 22.2752 1.30587H25.9365V0.0683578H22.2987C21.6623 0.0235717 21.0071 0 20.3518 0C14.1729 0 9.35852 1.83388 6.0401 5.45213C2.73107 9.05624 1.05424 14.2868 1.05424 20.9953V22.6264C1.05424 22.9682 1.33137 23.2464 1.6719 23.2464H14.3585C14.699 23.2464 14.9761 22.9682 14.9761 22.6264V21.5516C14.9761 18.0653 15.3989 15.5125 16.2302 13.9662C17.0052 12.526 18.2217 11.8235 19.9479 11.8235C21.1245 11.8235 22.0005 12.2361 22.6228 13.0823C23.2804 13.978 23.6139 15.3122 23.6139 17.0517C23.6139 20.9552 21.0705 25.6177 16.0423 30.9237L15.6971 31.3102L14.1988 32.8141C9.46421 37.618 5.94146 42.5115 3.73153 47.3508C2.63478 49.6867 1.81281 52.0392 1.28909 54.3421C0.76538 56.6451 0.5 59.014 0.5 61.3853V62.3801C0.5 62.7219 0.777122 63 1.11765 63H37.5546C37.6227 63 37.6884 62.9882 37.7471 62.9694H87.5V61.7295H37.5546C37.4864 61.7295 37.4207 61.7389 37.362 61.7601V61.7625Z" fill="#EA231C"/>
</svg>
