<svg width="136" height="53" viewBox="0 0 136 53" fill="none" xmlns="http://www.w3.org/2000/svg">
<g clip-path="url(#clip0_307_3004)">
<path d="M49.8667 46.5366L56.7746 7.67944H67.5683L60.8762 46.5366H49.8667Z" fill="#3C58BF"/>
<path d="M49.8667 46.5366L58.7175 7.67944H67.5683L60.8762 46.5366H49.8667Z" fill="#293688"/>
<path d="M99.9492 8.11102C97.7905 7.24752 94.3365 6.38403 90.0191 6.38403C79.2254 6.38403 71.454 11.7809 71.454 19.5523C71.454 25.3809 76.8508 28.4031 81.1683 30.3459C85.4857 32.2888 86.781 33.584 86.781 35.311C86.781 37.9015 83.327 39.1967 80.3048 39.1967C75.9873 39.1967 73.6127 38.5491 69.9429 37.038L68.4318 36.3904L66.9207 45.2412C69.5111 46.3205 74.2603 47.3999 79.2254 47.3999C90.6667 47.3999 98.2222 42.0031 98.2222 33.7999C98.2222 29.2666 95.4159 25.8126 88.9397 23.0063C85.054 21.0634 82.6794 19.984 82.6794 18.0412C82.6794 16.3142 84.6222 14.5872 88.9397 14.5872C92.6095 14.5872 95.2 15.2348 97.1429 16.0983L98.2222 16.5301L99.9492 8.11102Z" fill="#3C58BF"/>
<path d="M99.9492 8.11102C97.7905 7.24752 94.3365 6.38403 90.0191 6.38403C79.2254 6.38403 73.3968 11.7809 73.3968 19.5523C73.3968 25.3809 76.8508 28.4031 81.1683 30.3459C85.4857 32.2888 86.781 33.584 86.781 35.311C86.781 37.9015 83.327 39.1967 80.3048 39.1967C75.9873 39.1967 73.6127 38.5491 69.9429 37.038L68.4318 36.3904L66.9207 45.2412C69.5111 46.3205 74.2603 47.3999 79.2254 47.3999C90.6667 47.3999 98.2222 42.0031 98.2222 33.7999C98.2222 29.2666 95.4159 25.8126 88.9397 23.0063C85.054 21.0634 82.6794 19.984 82.6794 18.0412C82.6794 16.3142 84.6222 14.5872 88.9397 14.5872C92.6095 14.5872 95.2 15.2348 97.1429 16.0983L98.2222 16.5301L99.9492 8.11102Z" fill="#293688"/>
<path d="M118.514 7.67944C115.924 7.67944 113.981 7.89532 112.902 10.4858L96.7112 46.5366H108.368L110.527 40.0604H124.343L125.638 46.5366H136L126.933 7.67944H118.514ZM113.549 33.5842C114.197 31.6413 117.867 22.1429 117.867 22.1429C117.867 22.1429 118.73 19.7683 119.378 18.2572L120.025 21.9271C120.025 21.9271 122.184 31.6414 122.616 33.8001H113.549V33.5842Z" fill="#3C58BF"/>
<path d="M121.105 7.67944C118.514 7.67944 116.572 7.89532 115.492 10.4858L96.7112 46.5366H108.368L110.527 40.0604H124.343L125.638 46.5366H136L126.933 7.67944H121.105ZM113.549 33.5842C114.413 31.4255 117.867 22.1429 117.867 22.1429C117.867 22.1429 118.73 19.7683 119.378 18.2572L120.025 21.9271C120.025 21.9271 122.184 31.6414 122.616 33.8001H113.549V33.5842Z" fill="#293688"/>
<path d="M30.0064 34.8794L28.927 29.2667C26.9842 22.7905 20.7239 15.6667 13.8159 12.2127L23.5302 46.7524H35.1873L52.6731 7.89526H41.0159L30.0064 34.8794Z" fill="#3C58BF"/>
<path d="M30.0064 34.8794L28.927 29.2667C26.9842 22.7905 20.7239 15.6667 13.8159 12.2127L23.5302 46.7524H35.1873L52.6731 7.89526H43.1747L30.0064 34.8794Z" fill="#293688"/>
<path d="M0 7.67944L1.94286 8.11119C15.7587 11.3493 25.2571 19.5525 28.927 29.2667L25.0413 10.9175C24.3937 8.32706 22.4508 7.67944 20.0762 7.67944H0Z" fill="#FFBC00"/>
<path d="M0 7.67944C13.8159 10.9175 25.2571 19.3366 28.927 29.0509L25.2571 13.7239C24.6095 11.1334 22.4508 9.6223 20.0762 9.6223L0 7.67944Z" fill="#F7981D"/>
<path d="M0 7.67944C13.8159 10.9175 25.2571 19.3366 28.927 29.0509L26.3365 20.6318C25.6889 18.0413 24.8254 15.4509 21.8032 14.3715L0 7.67944Z" fill="#ED7C00"/>
<path d="M40.8 33.5841L33.4603 26.2444L30.0063 34.4476L29.1428 29.0508C27.2 22.5746 20.9397 15.4508 14.0317 11.9968L23.746 46.5365H35.4032L40.8 33.5841Z" fill="#051244"/>
<path d="M60.8762 46.5365L51.5937 37.0381L49.8667 46.5365H60.8762Z" fill="#051244"/>
<path d="M85.7016 33.1523C86.5651 34.0158 86.9968 34.6635 86.781 35.527C86.781 38.1174 83.327 39.4127 80.3048 39.4127C75.9873 39.4127 73.6127 38.765 69.9429 37.2539L68.4318 36.6063L66.9207 45.4571C69.5111 46.5365 74.2603 47.6158 79.2254 47.6158C86.1334 47.6158 91.746 45.673 94.9841 42.219L85.7016 33.1523Z" fill="#051244"/>
<path d="M98.2222 46.5364H108.368L110.527 40.0603H124.343L125.638 46.5364H136L132.33 30.7777L119.378 18.2571L120.025 21.711C120.025 21.711 122.184 31.4253 122.616 33.5841H113.549C114.413 31.4253 117.867 22.1428 117.867 22.1428C117.867 22.1428 118.73 19.7682 119.378 18.2571" fill="#051244"/>
</g>
<defs>
<clipPath id="clip0_307_3004">
<rect width="136" height="53" fill="white"/>
</clipPath>
</defs>
</svg>
