<svg width="189" height="50" viewBox="0 0 189 50" fill="none" xmlns="http://www.w3.org/2000/svg">
<path d="M128.857 24.6223C128.214 25.3308 127.609 26.0714 126.927 26.7392C123.394 30.1982 119.911 33.7085 116.273 37.0562C114.42 38.7621 112.057 39.6868 109.521 40.1556C106.647 40.6843 104.276 39.8259 102.248 37.861C102.123 37.739 101.99 37.6277 101.674 37.3473C101.432 38.6872 101.224 39.8516 101.013 41.016C100.518 43.7515 100.035 46.4892 99.5019 49.2161C99.4448 49.5051 99.0938 49.9546 98.8679 49.961C96.7947 50.0188 94.7194 49.9953 92.53 49.9953C93.5589 44.261 94.5636 38.6658 95.5662 33.0728C95.5048 33.03 95.4411 32.9893 95.3797 32.9465C94.8576 33.533 94.3464 34.1302 93.8133 34.706C92.4905 36.1294 91.2181 37.6063 89.8097 38.9462C88.1775 40.4981 86.2053 41.1124 83.8842 40.7421C81.5698 40.3739 79.9442 38.8392 80.056 36.4205C80.1635 34.0531 80.633 31.6965 81.006 29.3441C81.3899 26.9169 81.8484 24.5024 82.2696 22.0816C82.3069 21.8718 82.331 21.6556 82.3288 21.4437C82.3113 18.126 79.3014 16.4415 76.3025 18.1474C74.3346 19.2669 73.06 20.8786 72.6739 23.2053C71.7415 28.8283 70.6688 34.4299 69.6223 40.0357C69.5741 40.2947 69.2253 40.695 69.0081 40.6992C66.9349 40.7506 64.8596 40.7292 62.7031 40.7292C63.5565 35.9731 64.3857 31.3476 65.215 26.7199C65.4278 25.5277 65.645 24.3355 65.8446 23.1411C65.9082 22.7558 65.9543 22.362 65.9609 21.9724C65.9872 20.5297 65.8051 19.1149 64.3265 18.385C62.7755 17.6187 61.128 17.5524 59.6296 18.5263C57.4512 19.9411 56.0011 21.8204 55.5689 24.4575C54.687 29.8343 53.6647 35.1919 52.684 40.6436H45.8328C46.3286 37.8824 46.8244 35.1127 47.3224 32.3408C47.2566 32.3065 47.1908 32.2723 47.1272 32.238C45.8767 33.6593 44.6657 35.1191 43.3604 36.4911C42.3205 37.5849 41.2302 38.6508 40.0478 39.5884C38.2598 41.0053 36.1691 41.1423 34.0302 40.5088C32.194 39.9651 31.0115 38.4946 31.1278 36.4462C31.2594 34.0767 31.7157 31.7222 32.0602 29.3655C32.2093 28.351 32.4309 27.3471 32.4199 26.2148C31.3713 27.4199 30.3578 28.657 29.2631 29.8236C26.8762 32.3686 24.5618 34.9928 22.006 37.3708C19.7091 39.507 16.8462 40.4317 13.5818 40.3375C9.13058 40.2112 4.67279 40.3054 0 40.3054C0.596713 38.0815 0.146984 35.8104 1.90422 33.8755C6.43879 28.8904 10.8001 23.7554 15.2315 18.6804C15.6089 18.248 15.9752 17.8092 16.5083 17.1821H4.32178C4.68156 15.2385 5.00624 13.4769 5.33312 11.7132H26.2422C25.957 13.2779 25.7135 14.7826 25.3932 16.2702C25.3164 16.6213 25.0137 16.9466 24.7548 17.2334C19.7793 22.743 14.7928 28.2461 9.81066 33.7513C9.62419 33.9568 9.45088 34.1751 9.08013 34.6182C9.68342 34.6182 10.0586 34.6289 10.4337 34.6182C12.8732 34.5326 15.3303 34.5818 17.7478 34.3057C19.8385 34.066 21.576 32.893 22.9581 31.3604C26.2378 27.7174 29.4166 23.9866 32.7271 20.3735C34.0236 18.9586 34.2342 17.2613 34.5742 15.5596C34.7695 14.5814 34.888 13.5861 35.1227 12.6186C35.1973 12.3147 35.5329 11.8438 35.7611 11.8373C37.8342 11.7774 39.9096 11.8009 42.1297 11.8009C41.68 14.2989 41.2653 16.6726 40.8244 19.0421C39.9995 23.4557 39.1571 27.8651 38.3322 32.2787C38.2664 32.6276 38.205 33 38.2642 33.3404C38.3388 33.7663 38.4748 34.4748 38.7008 34.5198C39.2053 34.6246 39.9381 34.569 40.3001 34.2629C41.2895 33.4281 42.167 32.4585 43.0291 31.4931C44.635 29.6909 46.1685 27.8244 47.7919 26.0371C48.7703 24.9605 48.7988 23.6205 49.0467 22.347C49.6829 19.0956 50.2709 15.8357 50.85 12.5737C50.9531 11.9914 51.2295 11.8181 51.8043 11.8438C52.9341 11.893 54.3074 11.512 55.1301 12.0129C55.9352 12.503 56.1788 13.8708 56.6702 14.8532C56.8106 15.1336 56.9619 15.4098 57.0607 15.5981C58.8025 14.4251 60.4238 13.158 62.2117 12.1755C64.5876 10.8698 67.0951 10.9405 69.5741 12.0749C71.0856 12.7663 71.996 13.9692 72.6783 15.5104C73.773 14.7291 74.7953 13.9457 75.8681 13.2415C78.5335 11.4927 81.3943 10.7436 84.5972 11.6276C87.2561 12.3596 88.6821 14.0934 89.1778 16.6662C89.7044 19.3996 89.1208 22.0559 88.6316 24.7229C88.138 27.4199 87.6181 30.1147 87.21 32.8267C87.1266 33.3725 87.4886 33.9804 87.6444 34.5604C88.2981 34.3614 89.1691 34.3592 89.5683 33.9333C91.9091 31.4354 94.3026 28.9546 96.3274 26.2212C97.1742 25.0782 97.2247 23.3359 97.5143 21.844C98.1022 18.8002 98.6178 15.7437 99.1289 12.6871C99.2452 11.9914 99.5786 11.8587 100.272 11.7539C102.683 11.3943 104.352 12.0706 105.024 14.5065C105.096 14.7698 105.304 14.9966 105.408 15.17C106.735 14.3096 107.968 13.3613 109.334 12.655C114.97 9.73969 120.312 12.1006 121.569 18.2202C122.05 20.5576 121.852 23.0255 121.958 25.4357C121.969 25.7054 121.936 25.9793 121.916 26.4481C122.309 26.0971 122.581 25.8809 122.82 25.6326C124.88 23.5092 126.896 21.3452 129.004 19.269C129.956 18.3315 130.448 17.2741 130.671 16.0027C131.452 11.5826 132.271 7.16686 133.122 2.75966C133.177 2.4707 133.624 2.04903 133.901 2.04047C135.906 1.97839 137.913 2.00622 140.056 2.00622C139.74 3.7935 139.447 5.49088 139.137 7.18612C137.586 15.6688 136.026 24.1492 134.484 32.6319C134.094 34.7809 135.087 35.742 137.178 34.9885C138.648 34.4598 139.914 33.4046 141.313 32.6618C142.634 31.9619 143.082 31.0479 143.016 29.5111C142.821 24.9112 143.964 20.6239 146.776 16.8246C149.959 12.5266 155.893 10.384 161.152 11.7581C163.613 12.4024 165.443 13.8451 166.389 16.221C167.224 18.3208 166.663 20.0738 164.75 21.3367C160.152 24.374 155.549 27.4006 150.949 30.4358C149.729 31.2406 149.72 31.2941 150.453 32.5377C151.558 34.417 153.395 34.8729 155.409 34.8836C157.012 34.8922 158.544 34.4898 159.842 33.5565C163.517 30.9131 167.191 28.2696 170.776 25.517C171.445 25.0033 171.937 24.0251 172.114 23.1818C172.847 19.695 173.459 16.1846 174.04 12.67C174.168 11.9058 174.503 11.741 175.188 11.7774C176.28 11.8331 177.601 11.4863 178.4 11.9743C179.132 12.4195 179.301 13.7445 179.716 14.6841C179.843 14.9731 179.964 15.2663 180.124 15.6388C182.781 13.6332 185.343 11.5505 189 11.3001C188.614 13.6931 188.245 15.962 187.864 18.3229C187.532 18.2159 187.273 18.1281 187.012 18.0511C185.413 17.5887 183.882 17.7065 182.53 18.7103C180.58 20.1594 179.216 21.9531 178.856 24.4275C178.461 27.1395 177.886 29.8257 177.406 32.527C176.925 35.2218 176.462 37.9209 175.986 40.6586H169.111C169.723 37.2103 170.331 33.7877 170.991 30.074C168.977 31.6194 167.249 33.0257 165.434 34.3186C162.962 36.0801 160.533 37.9445 157.885 39.4214C153.847 41.6732 148.946 40.8876 146.024 37.7818C145.341 37.0562 144.83 36.1786 144.216 35.3374C142.331 36.5382 140.484 37.8674 138.49 38.9355C137.106 39.6761 135.563 40.2754 134.017 40.5644C129.313 41.4441 126.652 38.8007 127.462 34.1987C127.986 31.217 128.543 28.2397 129.083 25.2601C129.107 25.1253 129.085 24.9819 129.085 24.8427C129.006 24.7721 128.927 24.6993 128.848 24.6287L128.857 24.6223ZM115.319 23.8175C115.034 22.6188 114.863 21.3795 114.437 20.2279C113.794 18.4899 112.518 17.7621 110.622 17.8028C107.906 17.8627 104.631 20.6175 104.111 23.3337C103.628 25.8488 103.291 28.3938 102.72 30.8895C102.455 32.0539 102.869 32.7603 103.734 33.3211C104.359 33.7278 105.054 34.1045 105.774 34.2886C108.404 34.9671 111.162 33.8776 112.836 31.5402C114.481 29.2392 115.03 26.6129 115.321 23.8132L115.319 23.8175ZM149.808 26.6921C150.054 26.568 150.284 26.4781 150.486 26.3454C153.436 24.3761 156.369 22.3791 159.342 20.4398C160.235 19.8576 160.2 19.2133 159.763 18.4406C159.105 17.272 157.657 16.8695 155.887 17.2848C152.3 18.1281 149.652 22.1072 149.808 26.6942V26.6921Z" fill="black"/>
<path d="M43.9998 3.86447C43.9749 6.51655 41.7817 8.99264 39.4514 8.99998C37.4537 9.00731 35.9653 7.3134 36.0006 5.07196C36.0422 2.39299 38.2686 0 40.7236 0C42.5571 0 44.0185 1.72324 43.9998 3.86447Z" fill="black"/>
</svg>
